<?xml version="1.0" encoding="utf-8"?>
<!-- Generator: Adobe Illustrator 19.0.0, SVG Export Plug-In . SVG Version: 6.00 Build 0)  -->
<svg version="1.1" id="Layer_1" xmlns="http://www.w3.org/2000/svg" xmlns:xlink="http://www.w3.org/1999/xlink" x="0px" y="0px"
	 viewBox="0 0 500 500" style="enable-background:new 0 0 500 500;" xml:space="preserve">
<style type="text/css">
	.st0{fill:#D74B4B;}
</style>
<g id="XMLID_5_">
	<polygon id="XMLID_1_" class="st0" points="90.5,203.9 90.5,203.2 90.6,200.5 90.6,200 90.6,199.9 90.6,199.7 90.6,199.6 
		90.6,199.1 90.6,198.5 90.8,196.4 90.8,196.3 90.8,196.1 90.8,195.3 90.8,193.9 90.8,193.8 90.9,192.7 90.9,189.7 91.1,189.4 
		91.2,185 91.2,184.3 91.2,183.6 91.4,181.1 91.4,181 91.6,178.6 91.7,176 91.7,175.7 91.9,171.5 91.9,169.4 92,166.3 92,165.4 
		92.2,162.4 92.2,162.2 92.5,157.6 92.6,154.6 92.6,154 92.6,152.6 92.8,151.6 92.8,150.4 92.8,149.3 93.1,142.6 93.1,142.3 
		93.1,141.3 93.3,139 93.6,130.9 93.7,129.8 93.7,129.6 93.9,125.7 94.1,120.2 94.4,113.7 94.5,108.2 94.8,98.7 94.8,96.8 95,88.9 
		95.1,88.4 95.8,67.3 96.7,45.9 96.9,42 97,38 97,37.5 97.3,29.1 97.6,20.6 98,12.5 98.6,12.5 104.2,12.7 104.4,12.5 105.6,12.7 
		108.6,12.7 111.8,13 126.1,13.4 130.3,13.6 132,13.7 135.7,13.9 136.7,13.9 137.9,14.1 148.4,14.2 158.7,14.5 159.6,14.7 
		159.8,14.7 163.7,14.8 168.5,14.7 173.7,14.7 177.9,14.8 181.3,14.8 189,15 192.7,15 204.6,15.2 205.2,15.2 205.8,15.2 216.3,15.3 
		217.5,15.3 217.7,15.3 217.8,15.3 218.2,15.3 218.5,15.3 219.6,15.3 222.5,15.3 223.8,15.3 227.1,15.3 228.9,15.3 238.3,15.3 
		238.9,15.3 239.4,15.3 240.9,15.3 245.3,15.3 245.9,15.3 246.6,15.5 246.9,15.5 247.3,15.5 248,15.3 248.4,15.5 248.9,15.5 
		250.9,15.5 268.1,15.6 268.3,15.6 270.1,15.6 270.4,15.6 273.3,15.6 274,15.6 274.5,15.6 275.3,15.6 275.4,15.6 276.4,15.6 
		280.8,15.6 281.2,15.6 282.9,15.6 286.2,15.6 291.5,15.5 291.7,15.5 297.9,15.5 298.2,15.5 298.9,15.5 299.2,15.5 300.4,15.5 
		304.2,15.3 305.4,15.3 305.9,15.3 306.4,15.5 313.4,15.3 314.5,15.3 318.7,15.3 319,15.3 319.3,15.3 320.7,15.3 332,15.2 
		332.4,15.2 333,15.2 334.5,15.2 334.6,15.2 337.4,15 337.6,15.2 338,15.2 348.3,14.8 348.7,14.8 350.8,14.8 351.6,14.7 354.6,14.5 
		355.4,14.5 356.5,14.4 356.9,14.4 357.7,14.4 358.2,14.4 358.8,14.2 359.9,14.2 360.1,14.2 364.4,14.4 366.9,14.5 370.5,14.5 
		375.5,14.4 377.1,14.4 380.7,14.2 386.4,14.2 395.3,13.9 397.7,13.9 398.3,13.7 398.3,13.9 398.6,13.7 398.9,21.2 398.9,23.4 
		399.2,30 399.2,30.1 399.5,38.7 399.4,39.4 399.4,39.5 399.5,39.5 399.5,45 399.7,47.2 399.7,47.8 400.2,66.2 400.2,66.8 400.3,67 
		400.5,73.2 400.6,81 400.8,85 401.1,95.9 401.1,96.5 401.1,97.3 401.1,97.4 401.1,97.6 401.1,98.2 401.1,99 401.1,99.2 401.1,99.6 
		401.1,101.5 401.3,106.2 401.4,114.5 401.4,115.2 401.6,119.6 401.6,119.9 401.6,121.8 402,133 402.2,140.9 402.2,141 402.2,141.6 
		402.2,141.8 402.2,142.1 402.4,144.6 402.4,146.6 402.4,148.5 402.4,149 402.5,150.1 402.5,155.1 402.7,157.6 402.7,160.8 
		402.8,161.9 402.8,162.7 402.8,163.2 402.8,163.7 402.8,165.1 402.8,165.4 403.3,179.6 403.4,182.5 403.4,182.7 403.6,193.9 
		404.2,216 404.5,224.5 404.5,224.7 404.5,224.9 404.7,233.3 404.7,234.7 404.9,238.1 405,245.3 405.2,246.9 405.2,247.2 
		405.2,250.2 405.3,256.6 405.3,256.7 405.6,266.1 405.6,267 405.8,273.9 406.1,284 406.3,287.9 406.4,292 406.4,293.1 406.4,294 
		406.4,295.9 406.6,296.8 406.6,299.8 406.6,300.4 406.6,301.1 406.6,301.2 406.6,302.6 406.7,310.7 406.7,311.5 406.9,315.6 
		406.9,315.7 406.9,316.7 406.9,317.6 406.9,318.4 407,319.6 407,322.5 407.2,323.4 407.2,326.5 407.4,331.8 407.4,332.4 
		407.5,335.9 407.7,339.9 407.7,341.7 407.7,342.6 407.7,344.6 407.8,345.4 407.8,345.7 408,351.7 408.1,354.5 408.3,362.3 
		408.3,363.8 408.3,364 408.3,364.6 408.3,365.1 408.3,365.2 408.6,373 408.6,374.9 408.8,376.9 408.8,377.3 409.1,385.4 
		409.2,387.3 409.2,387.6 409.2,389 409.2,389.3 409.4,392.7 409.4,397.2 409.4,397.9 409.4,399.6 409.4,401 409.5,402.2 
		409.5,402.7 409.7,405.8 409.7,406.1 408.9,406.5 408.6,407.1 408.1,407.9 407.5,409.6 406.9,411.1 406.7,411.1 406.3,411.3 
		405.8,411.6 405.6,411.8 405.6,412.1 405.6,412.2 405.8,412.4 405.9,412.5 406.1,412.7 406.1,412.9 405.5,414.4 405,415.4 
		404.9,415.8 405,416.1 405,416.6 404.9,416.8 404.4,417.5 404.2,417.7 404.1,417.9 403.6,417.5 403.4,417.5 402.8,417.5 402,418 
		400.8,418.5 399.7,418.5 399.5,418.5 399.4,418.5 398.8,418.2 398.6,418.2 398.1,417.9 397.8,417.5 397.7,417.1 397.2,416.5 
		395.3,415.7 395.2,415.5 395.2,415.4 395.2,415 395.6,414.7 395.6,414.6 395.5,414 394.4,412.5 394.1,412.4 393.9,412.4 
		392.7,411.1 392.5,410.8 391.9,410.1 391.7,410.1 391.6,409.9 390,409.7 389.7,409.7 389.4,409.9 388.9,410.5 387.8,411.3 
		387.5,411 387.2,410.4 386.9,410.4 386.6,410.4 385.7,411.1 385.2,411.1 385,411.1 384.9,411.1 384.7,411.1 384.6,411 384.6,410.8 
		384.6,410.5 384.7,410.4 384.7,410.2 384.7,410.1 384.6,409.9 384.2,409.6 384.1,409.6 382.7,409.6 382.4,409.6 381.9,409.6 
		381.6,409.6 381,409.7 380.7,409.9 379.6,410.4 378.9,411 378.5,411.1 378.3,411 377.8,410.5 377.7,410.4 376.8,411.1 376.1,411.6 
		376,411.9 375.8,412.1 375.7,412.2 375.4,412.2 374.6,412.5 373.9,412.7 373.5,412.9 373,412.9 372.1,413 371.4,413.6 371.1,414 
		371,414.3 371,414.6 371,414.7 371.1,414.7 371.1,414.9 371.4,415 371.6,415.4 372.1,416.1 372.1,416.5 371.9,416.8 371.9,417.2 
		371.9,417.4 371.9,417.5 372.2,417.7 372.4,418 372.5,418.2 372.4,418.6 372.1,419.1 371.9,419.1 371.9,419.3 371.8,419.4 
		371.8,419.6 371.8,419.7 371.8,421.1 371.9,421.8 372.4,422.4 372.5,422.7 372.7,423 372.5,423.6 372.5,423.9 372.7,424.1 
		373.3,424.6 373.8,424.9 373.8,425.5 373.8,426 374.3,426.8 374.9,427.2 375.4,427.9 375.5,428.2 375.5,428.5 375.5,428.8 
		375.5,428.9 375.4,429.3 374.7,429.7 374.4,429.9 374.4,430 374.4,430.4 374.4,430.7 374.6,431.3 374.6,431.6 374.4,431.9 
		374.3,432.7 373.8,432.8 373.8,433.2 374.6,434.3 374.4,435.7 374.7,436.6 374.7,437.2 374.7,438.2 374.3,439.6 374.3,439.9 
		374.6,440.3 374.9,440.7 375.5,441.1 375.7,441.3 375.5,441.7 375.2,442.5 375.2,442.7 375.2,443.2 375.2,443.6 376,444.2 
		376.9,445.8 377.2,446.3 377.2,447.2 376.9,448 376.6,448.5 376.6,448.6 376.8,449.6 376.9,450.8 376.9,451.1 377.1,451.4 
		377.2,451.6 377.1,451.7 376.9,452.2 376.6,452.4 376.3,452.7 376.1,452.8 376.1,453 376,453.8 376,453.9 376.1,454.6 376.3,455 
		376.8,456.1 376.8,456.3 376.8,456.9 376.9,457.2 376.9,457.5 377.1,457.7 377.5,458.5 377.5,458.6 378.9,459.9 379.4,461.1 
		379.9,462.7 380.3,463.6 380.8,465.6 380.8,466.4 380.8,467.5 381.4,469.9 381.6,471.4 381.6,472 381.9,473.4 382.2,473.6 
		382.4,473.9 382.4,474.1 382.4,474.4 382.5,474.9 382.5,475.2 382.5,475.9 382.5,476.1 382.5,476.6 382.4,478.1 382.1,478.9 
		381.9,478.9 381.6,479.2 381,479.4 380.7,479.4 380.2,479.4 379.9,479.4 379.7,479.4 379.6,479.5 379.4,479.5 379.3,479.5 
		379.3,479.7 378.9,479.8 378.6,480.2 378.6,480.3 378.5,480.5 378.3,480.8 378.5,481.1 378.6,481.1 378.9,481.3 379.1,481.3 
		379.1,481.4 379.7,481.6 380,481.9 380.2,482 380.3,482 380.5,482.2 380.7,482.5 380.8,482.8 380.8,483 380.8,483.3 380.7,483.6 
		380.2,484.1 380,484.1 379.6,484.5 379.3,485.3 379.3,485.8 379.3,485.9 379.1,486.6 379.1,486.9 379.3,487 379.3,487.5 
		378.2,486.4 376.8,485.2 376.3,484.8 369.6,478.3 369.4,478.3 366.9,475.9 362.7,471.9 361.8,471.1 356,465.6 353,462.7 
		352.7,462.4 351.5,461.3 350.2,460.2 349.4,459.4 345.8,456 343.2,453.6 341.5,451.9 336.6,447.4 336.5,447.2 336.3,447.1 
		335.9,446.6 335.7,446.4 335.4,446.1 330.4,441.6 327.7,439.1 327.7,438.9 327.6,438.8 325.4,436.8 323.5,434.9 323.4,434.9 
		322.3,433.8 321,432.7 319.9,431.6 316.5,428.5 316.2,428.2 316.2,428 312.3,424.4 310.9,423 310.6,422.9 308.7,421 308.4,420.7 
		307.6,420 304.8,417.4 303.9,416.6 302.9,415.7 299.6,412.5 298.4,411.3 297.6,410.5 297.3,410.4 296.8,409.7 292.3,405.5 
		291.2,404.6 288.9,402.4 284.3,398 282,396 281.8,395.8 275.9,390.1 275.3,389.4 272.9,387.4 263.7,378.8 252,367.6 248,363.8 
		244.4,360.6 240.9,357.1 239.1,355.4 234.9,351.5 233.8,350.4 232.7,349.5 227.8,344.8 221.1,338.5 218.9,336.5 216.8,334.5 
		211.4,329.3 209.7,327.9 203.3,321.8 201.6,320 201,319.5 199.6,318.2 195.7,314.6 192.4,311.4 191.6,310.7 181.2,300.9 
		171.8,292.2 170.1,290.4 168,288.4 164.3,285 161.6,282.5 156.8,277.8 155.1,276.2 153.8,275.1 152.4,273.7 151.5,273 149.2,270.8 
		145.9,267.6 144.5,266.2 141.8,263.9 140.3,262.3 137.6,259.8 136.8,259.1 135.3,257.7 133.9,256.2 133.7,256.1 129.6,252.3 
		128.9,251.6 127.3,250.2 124.8,247.8 124.8,247.7 124.6,247.7 124.5,247.5 122.6,245.8 122.3,245.5 118.6,241.9 116.2,239.7 
		113.4,237 111.5,235.3 111.5,235.2 111.4,235.2 107.9,231.9 105.9,230 103,227 101.5,226 98.3,222.8 95.3,220 95.1,219.9 
		94.7,219.4 93.4,218.1 93.3,218.1 93.3,218 93.1,217.8 92.8,217.7 92.8,217.5 92,216.9 92,216.7 90.8,215.6 90.3,215.2 90.3,214.7 
		90.3,212.7 90.3,210.5 90.5,207.5 90.5,206.1 	"/>
</g>
</svg>
