<?xml version="1.0" encoding="utf-8"?>
<!-- Generator: Adobe Illustrator 19.0.0, SVG Export Plug-In . SVG Version: 6.00 Build 0)  -->
<svg version="1.1" id="Layer_1" xmlns="http://www.w3.org/2000/svg" xmlns:xlink="http://www.w3.org/1999/xlink" x="0px" y="0px"
	 viewBox="0 0 500 500" style="enable-background:new 0 0 500 500;" xml:space="preserve">
<style type="text/css">
	.st0{fill:#D74B4B;}
</style>
<g id="XMLID_3_">
	<polygon id="XMLID_4_" class="st0" points="65.8,169.5 60.9,169.4 60.8,169.4 60.6,169.4 59.7,169.2 58.6,169.2 54.1,169 53.7,169 
		48.1,168.7 47.5,168.7 32.2,168.1 29.4,168 24.1,167.6 21.4,167.5 18,167.3 12.5,167 12.7,165.6 12.7,165.3 12.8,162.6 13,160.1 
		13,159 13.1,155.1 13.3,152.2 14.1,139.2 14.1,139 14.4,133.1 15.2,133.3 15.5,133.3 23.1,133.6 24.5,133.6 25,133.6 26.6,133.7 
		27.5,133.7 28.4,133.9 30.9,134.2 40.3,134.7 49.5,135.1 52.2,135.3 54.2,135.5 54.7,135.5 55.2,135.5 57.7,135.6 58.9,135.6 
		65.9,135.9 66.7,135.9 67.5,136.1 68.9,136.1 72.5,136.2 74.1,136.2 74.2,136.2 74.5,136.2 75.5,136.2 76.4,136.4 78.4,136.4 
		82,136.5 84.4,136.5 86.9,136.7 89.1,136.7 90.8,136.9 91.1,136.9 93.3,136.9 95.2,137 97,137 100.9,137.2 103,137.2 103.9,137.2 
		104.1,137.2 108.1,137.3 109.1,137.3 111.9,137.5 112,137.5 114.7,137.5 117,137.5 118.3,137.6 118.6,137.6 119.8,137.6 
		120.6,137.6 122.8,137.6 123.8,137.8 125.8,137.8 126.6,137.8 128.8,137.8 129.5,137.8 131.4,138 131.7,138 133.8,138 134.1,138 
		136.4,138 136.7,138 136.9,138 138,138.1 140.3,138.1 141.3,138.1 143.6,138.1 143.8,138.1 145.8,138.3 145.9,138.3 148,138.3 
		149.4,138.3 151.1,138.3 152.8,138.4 154.4,138.4 156.6,138.4 163.4,138.6 167.2,138.6 167.5,138.6 167.7,138.6 168,138.6 
		171.9,138.7 173.3,138.7 177.8,138.9 178,138.9 178.1,138.9 178.4,138.9 183.3,139 185,139 187.3,139 189.8,139.2 190.5,139.2 
		193.3,139.2 194.5,139.2 195.8,139.4 196.9,139.4 197.3,139.4 198.6,139.4 201.4,139.5 202.3,139.5 203.1,139.5 205,139.5 
		205.2,139.5 205.3,139.5 205.5,139.5 206.3,139.5 207.8,139.5 210.5,139.7 211.1,139.5 212.2,139.5 217.7,139.7 219.2,139.7 
		220.5,139.7 220.6,139.7 220.9,139.7 225.6,139.8 225.9,139.8 230,139.8 230.3,139.8 231.1,139.8 232,139.8 232.7,139.8 
		233.1,139.8 236.9,140 239.2,140 239.8,140 243,140 243.8,140 244.1,140 245.8,140 248.1,140 248.3,140 251.7,140.1 253.4,140.1 
		257.7,140.1 260.8,140.1 261.2,140.1 264.4,140.1 264.5,140.1 265,140.1 267.5,140.1 268,140.3 268.4,140.3 274.4,140.3 
		275.3,140.3 275.9,140.3 276.9,140.3 277.7,140.3 279.2,140.3 280.3,140.3 281.2,140.3 284.8,140.3 285.2,140.3 285.5,140.3 
		285.6,140.3 287.3,140.3 289.2,140.3 293.1,140.1 294.1,140.1 298.1,140.1 299.1,140.1 299.2,140.1 300,140.1 303.9,140.1 
		304.2,140.1 306.4,140.1 307.2,140.1 308.7,140.1 308.9,140.1 310.2,140.1 311.1,140.1 312.2,140.1 313.1,140.1 316.1,140.1 
		316.7,140.1 320.9,140.1 321.6,140.1 322,140.1 322.2,140.1 323.3,140.1 325.5,140 328,140 330.9,140 333.4,140 333.9,140 
		334.4,140 335.3,140 336.3,140 336.4,140 339.5,140 339.8,140 340.3,140 343.3,139.8 343.8,139.8 345.5,139.8 346.1,139.8 
		346.2,139.8 346.4,139.8 347.2,139.8 347.3,139.8 348.7,139.8 349.2,139.8 351.6,139.8 353.1,139.8 353.3,139.8 355.6,139.8 
		356.1,139.7 356.4,139.7 356.6,139.7 357.8,139.7 358,139.7 362.5,139.7 366.4,139.7 367.8,139.7 369.2,139.5 373.9,139.5 
		375,139.5 375.8,139.5 381.2,139.4 381.4,139.4 381.6,139.4 383.7,139.4 384.7,139.4 385.6,139.2 386.4,139.2 388.1,139.2 
		388.3,139.2 388.4,139.2 388.6,139.2 388.8,139.2 388.9,139.2 391.4,139.2 396.6,139 398.4,139 400,139 400.5,138.9 401.4,138.9 
		403.3,138.9 403.4,138.9 403.8,138.9 406.4,138.9 407,138.9 408.1,138.7 409.2,138.7 409.7,138.7 410.5,138.7 410.6,138.7 
		411.9,138.7 412.2,138.7 412.3,138.7 413.1,138.7 413.6,138.7 414.4,138.6 414.8,138.6 416.1,138.6 416.3,138.6 416.7,138.6 
		416.9,138.6 417,138.6 417.2,138.6 417.5,138.6 417.7,138.6 418.3,138.6 419.1,138.6 419.8,138.6 422,138.4 422.7,138.4 
		423.3,138.4 428.9,138.3 430.3,138.3 430.6,138.3 433.1,138.1 433.3,138.1 433.6,138.1 435.5,138.1 435.8,138.1 436.6,138.1 
		440.5,138 441.4,138 442.5,138 442.7,138 443.4,137.8 447.2,137.8 448.4,137.6 449.1,137.6 449.5,137.6 450.5,137.6 450.8,137.6 
		451.4,137.6 454.4,137.5 456.4,137.5 456.7,137.5 457.2,137.5 459.2,137.5 459.4,137.5 459.5,137.3 459.7,137.3 459.8,137.3 
		460.3,137.3 460.9,137.3 461.6,137.3 463.3,137.3 464.8,137.2 465,137.2 465.3,137.2 465.5,137.2 465.8,137.2 466.3,137.2 
		466.9,137.2 467.3,137.2 467.5,137.2 471.6,137 472,137 472,137.2 472,137.3 472,140.3 472.2,140.6 472.2,141.1 472.2,141.7 
		472.2,141.9 472.2,142.3 472.2,143 472.2,143.9 472.2,145.1 472.3,145.8 472.3,147.2 472.3,147.3 472.3,147.5 472.3,147.6 
		472.3,148.3 472.3,148.4 472.3,148.9 472.3,149 472.5,151.2 472.5,152.5 472.5,152.8 472.5,153.4 472.7,156.7 472.7,157.2 
		472.8,159.4 472.8,159.5 472.8,160.3 472.8,160.6 472.8,162.3 472.8,162.5 473,163.3 473,163.6 473,164.2 473,165.6 473,166.2 
		473.1,167.3 473.1,167.6 473.1,168.4 473.1,168.6 473.1,169.7 473.1,169.8 473.1,170.9 473.3,172 473.4,172.5 473.6,173.1 
		473.6,173.6 474.1,176.2 474.2,177.3 474.2,177.5 474.4,178.1 474.4,178.6 474.5,179.2 474.8,181.1 474.8,181.4 474.8,181.6 
		475,182.3 475.5,184.5 475.5,185.1 475.6,185.8 475.6,185.9 475.8,187 475.9,187.8 475.9,188 476.1,188.6 476.3,188.9 476.3,189.1 
		476.3,189.2 476.3,189.8 476.4,190.3 476.4,190.5 476.6,191.6 476.7,192 476.7,192.2 476.7,192.3 476.7,192.5 476.9,192.6 
		476.9,192.8 476.9,193 477,193.4 477,193.7 477,193.9 477.2,194.5 477.2,195 477.2,195.1 477.3,195.9 477.8,197.8 478.1,199.5 
		478.4,201.2 478.4,202 478.8,203.6 478.9,204.2 478.9,204.5 479.1,205 479.1,205.6 479.4,207 479.4,207.2 479.7,208.4 479.7,208.6 
		479.8,209.1 479.8,209.2 479.8,209.4 480,210.8 480.2,211.1 480.2,211.2 480.2,211.4 480.8,215.2 480.8,215.3 480.9,216.1 
		481.1,216.6 481.1,217.2 481.3,217.8 481.3,218.1 481.4,218.1 481.4,218.6 481.4,218.7 481.4,218.9 481.7,220.5 481.9,220.9 
		481.9,221.1 482,221.7 482.2,223.1 482.2,223.3 482.5,224.7 482.7,225.3 483.3,229.2 483.4,229.8 483.8,232.2 483.9,232.7 
		483.9,233 484.2,234.5 484.4,235.8 484.4,235.9 484.5,236.4 484.5,236.9 484.8,238.7 484.8,238.9 485.5,241.9 485.6,242.3 
		485.8,243.9 486.1,245.5 486.3,245.8 486.1,245.9 486.1,246.2 486.1,246.7 486.1,247 486.3,247.5 486.3,247.7 486.3,247.8 
		486.3,248 486.3,248.6 486.3,248.7 486.3,248.9 486.3,249.1 486.3,249.5 486.3,250.3 486.3,250.8 486.3,251.1 486.3,251.2 
		486.3,251.6 486.3,251.7 486.3,252.7 486.3,252.8 486.3,253.1 486.3,253.6 486.3,253.9 486.3,254.2 486.3,255 486.3,255.6 
		486.3,256.1 486.3,256.4 486.3,256.9 486.3,257.2 486.3,257.5 486.3,258.3 486.3,258.4 486.3,258.9 486.3,259.2 486.3,259.4 
		486.3,259.8 486.3,260 486.3,260.9 486.3,261.1 486.3,261.4 486.4,263.9 486.3,264.5 486.4,265 486.4,268.4 486.4,271.3 
		486.4,272.5 486.4,272.8 486.4,274.1 486.4,277.2 486.4,279.7 486.4,279.8 486.4,280.2 486.4,280.5 486.4,281.1 486.4,282 
		486.4,282.2 486.4,282.5 486.4,282.7 486.6,284.2 486.6,284.4 486.6,287.3 486.6,288.6 486.6,290.2 486.6,290.3 486.6,290.5 
		486.6,290.6 486.6,291.1 486.6,292.7 486.6,293.4 486.6,293.9 486.6,294.4 486.6,296.9 486.6,297.5 486.6,298.9 486.7,299.9 
		486.7,303.4 486.7,303.6 486.7,304.4 486.7,305.8 486.7,306.1 486.7,310.3 486.9,311.3 486.9,312.2 486.9,312.5 486.9,313.3 
		486.9,315 486.9,315.2 486.9,316.3 486.9,316.7 486.9,323.8 487,324.5 487,326.1 487,326.4 487,327.8 487,329.9 487,330.2 
		487,331.7 487,333.8 487.2,335.6 487.2,336.7 487.2,339.2 487.2,339.4 487.2,343.6 487.2,343.9 487.2,344.7 487.2,345 487.3,348.8 
		487.3,350.5 487.3,350.8 487.3,352.4 487.3,352.8 487.3,354.2 487.3,354.7 487.3,355.2 487.3,357.4 487.3,357.5 487.3,357.7 
		487.3,358.8 487.3,359.4 487.3,360 487.3,360.3 487.5,361.7 487.5,362 487.5,363.6 487.5,364.4 487.5,365.3 487.3,366 487.2,366.3 
		487,366.3 486.4,366.6 485.6,366.9 485.5,366.9 485.2,366.7 485,366.6 485,366.3 485.2,366.1 485.2,366 485,365.8 484.8,365.5 
		484.5,365.5 484.2,365.6 483.9,365.6 483.8,365.5 483.6,365.3 483.8,365 483.8,364.7 483.8,364.5 483.4,364.2 483,364.4 
		482.7,364.4 482.5,364.2 482.5,364.1 482.7,363.8 482.7,363.6 482.5,363.5 482.2,363.1 482,362.8 481.7,362.8 481.4,363 
		481.3,363.1 481.1,363.3 480.8,363.3 480.5,363.3 480.3,363.1 480.2,363 480,363 480,362.8 479.7,362.7 479.4,363 479.2,363.3 
		479.1,363.3 478.9,363.5 478.4,363.6 478.3,363.6 478.1,363.5 478.1,363.3 478.1,362.8 478.1,362.7 478.1,362.5 478.1,362.4 
		478,362.4 477.8,362 477.5,362 476.1,362.7 475.8,362.7 475.6,362.7 475.5,362.5 474.7,362.5 474.5,362.4 474.5,362.2 474.5,361.9 
		474.5,361.7 474.7,361.6 474.5,361.3 474.2,361.1 474.1,361.1 473.9,361.1 473.8,361.3 473.8,361.4 473.6,361.7 473.3,361.6 
		473,361.4 473,361.3 473,361 473,360.6 472.8,360.2 472.7,359.9 472.2,359.7 472,359.7 471.7,359.7 471.6,359.5 471.2,359.2 
		471.2,358.8 471.2,358.6 471.2,358.5 471.2,358.3 471.1,358.1 470.9,358 470.8,358 470.6,358.1 470.5,358.1 470,358.6 469.4,358.8 
		468.9,358.5 468.6,358.3 468.4,358.3 468.3,358.3 468.1,358.3 468,358.5 467.8,358.9 467.8,359.1 467.7,359.1 467,359.2 
		466.6,359.2 466.1,359.1 465.5,358.8 465.3,358.8 465.2,358.6 465,358.5 465,358.1 465,358 465,357.8 464.8,357.5 464.7,357.5 
		464.5,357.5 464.4,357.5 464.4,357.4 464.2,357.4 463.9,357 463.4,356.7 463.3,356.7 463,356.7 463,356.6 462.8,356.6 462.5,356.1 
		462.5,356 462.5,355.8 462.5,355.6 462.7,355.2 462.7,354.9 462.5,354.9 462.5,354.5 462.3,354.4 462.2,354.4 461.9,354.4 
		461.7,354.5 461.6,354.5 461.3,354.5 460.9,354.4 460.8,354.1 460.8,353.8 460.6,353.5 460.2,352.8 459.8,352.8 459.7,352 
		459.5,351.3 459.5,351.1 459.4,351.1 459.2,351.1 459.1,351.3 458.8,351.7 458.8,351.9 458.4,351.9 458.3,351.9 458.1,351.7 
		458,351.4 457.7,351.1 457.2,350.8 456.9,351.3 456.7,351.3 456.4,351.3 456.1,351.3 455.9,351.3 455.8,351.3 455.6,351.3 
		455.2,351.1 455,351.1 454.4,349.5 454.2,348.9 453.9,348.6 453.6,348.6 453.4,348.6 453.1,348.8 453,349.1 452.5,349.2 
		452.3,348.9 452.2,348.8 452.2,348.5 452,348 451.9,347.8 451.7,347.8 451.4,347.8 450.8,347.7 450.6,347.5 450.6,347.2 450.6,347 
		450.8,346.6 450.5,346.4 450.2,346.3 449.1,346.3 448.8,346.3 448.4,346.3 448.1,346.1 448,346 447.7,345.8 447.2,345.5 
		445.3,344.9 445.2,344.7 444.7,344.7 444.5,344.9 444.4,344.9 443.4,346.4 443.3,346.7 443.3,346.9 443.3,347 443.3,347.4 
		443.4,347.8 443.4,348.1 443.3,348.6 443.1,348.8 442.8,348.9 442.7,349.1 442.5,348.9 442.2,348.9 442,348.9 441.9,348.9 
		441.7,349.1 441.7,349.2 441.7,349.7 441.7,349.9 441.7,350.2 441.6,350.5 441.4,350.8 440.9,350.6 440,350.3 439.2,350 438.7,350 
		438.7,350.5 438.7,350.6 438.4,351.1 438.4,351.3 437.7,351.3 436.4,351.3 434.8,351.4 434.7,351.4 434.5,351.6 434.4,351.4 
		433.9,351.4 432.3,351.4 431.6,351.3 431.4,351.1 431.4,350.8 431.6,350.3 431.4,350.3 431.3,350.2 431.1,350.2 430.9,350.2 
		430.6,350.6 430.5,350.8 429.8,351.1 429.2,351.1 428.9,351 428.9,350.8 428.9,350.3 428.8,350 428.4,350 428.1,350.2 427.8,350.3 
		427.5,350.6 427.3,350.6 427.2,350.8 427,350.8 426.9,350.8 426.7,350.8 426.6,350.6 426.4,350.2 426.3,349.9 426.4,349.4 
		426.4,348.9 426.4,348.5 425.9,347.5 425.8,347.4 425.8,347.2 425.6,347.2 425.3,347.2 424.4,347.2 424.4,347 423.6,347.2 
		423.3,347.7 423,347.8 421.6,349.1 420.9,349.1 420.2,348.9 419.8,349.1 419.7,349.2 419.2,349.9 418.7,350.3 418.1,350.6 
		417.3,350.6 417.2,350.6 417,350.5 416.6,350.3 416.3,350.2 416.3,350 415.8,350 415.3,350 414.7,350.2 414.7,350.3 414.4,350.8 
		414.4,351 414.4,351.4 414.5,351.6 414.5,351.7 414.7,351.9 415,352.7 414.8,352.8 414.7,353.1 414.4,353.3 413.9,353.6 
		413.8,353.5 413,352.7 412.8,352.7 412.2,352.4 412,352.4 411.1,352.7 411.1,352.8 411.1,353.1 411.3,353.3 411.3,353.6 
		411.1,353.8 411.1,353.9 410.8,354.1 410.5,354.2 410.2,354.2 410.2,354.1 410,354.1 409.8,353.9 409.5,353.6 408.9,353.1 
		407.7,352.5 407.3,352.4 407,352 406.3,351.6 405.6,351.3 405.3,351 404.7,350.8 404.5,350.8 404.5,351 404.5,351.1 404.5,351.3 
		404.5,351.4 404.5,351.6 404.5,351.7 404.5,351.9 404.2,352.5 404.2,352.7 404.1,352.7 403.8,352.8 402.5,353 402,352.8 
		401.9,352.4 401.6,352.2 401.4,352.2 401.3,352.4 401.1,352.4 401.1,352.5 401.1,352.7 401.1,353 401.1,353.3 400.9,353.5 
		400.6,353.8 399.8,354.1 399.7,353.9 399.7,353.8 399.7,353.5 399.7,353.3 399.5,353.3 399.2,353.3 399.2,353.5 398.9,354.1 
		398.4,354.2 398.3,354.4 398.1,354.4 397.8,354.2 397.3,354.1 396.1,353.8 395.5,353.6 395.3,353.6 395.2,353.8 395.3,353.9 
		395.3,354.1 395.5,354.4 395.5,354.7 395.3,354.9 395.2,354.9 394.7,354.7 394.2,354.4 394.1,354.2 393.8,354.2 393.1,354.2 
		392.7,354.4 392.5,354.4 392.5,354.5 392.3,354.9 392.5,355.6 392.5,355.8 391.7,355.8 391.1,356 390.9,356.1 390.8,356.3 
		390.9,356.7 391.1,356.9 391.3,357 391.4,357 391.6,357.2 391.9,357.2 391.9,357.8 391.6,358.8 391.4,359.1 391.1,359.5 
		390.9,359.7 390.5,360 390,360.2 389.7,360.3 388.6,360.6 388.1,360.6 387.5,360.2 387,359.9 386.7,359.9 385.8,359.2 385.3,359.2 
		384.5,359.4 384.4,359.5 384.2,359.7 384.1,360 383.9,360.3 383.9,360.5 383.7,360.8 383.7,361 383.7,361.1 383.6,361.6 
		383.7,362.2 383.7,362.5 383.7,362.7 383.6,362.8 383.6,363.3 383.3,363.8 383.1,364.1 383.1,364.2 383,364.2 382,364.7 
		381.7,364.9 381.6,364.9 381.4,364.9 381.1,364.9 380.9,364.9 380.6,364.5 380.5,364.4 380.5,363.9 380.3,363.3 380.2,363 
		380.2,362.8 380,362.8 379.5,362.2 379.4,362 379.2,362 378.1,361 377.8,360.6 377.7,360.3 377.7,360.2 377.5,359.5 377.3,359.4 
		377.2,359.2 377.2,359.1 377,358.9 376.6,358.8 376.3,358.6 376.1,358.6 375.8,358.6 375.6,358.6 375.5,358.6 375.2,358.9 
		375,358.9 373.4,359.1 372.7,359.2 372.5,359.1 372,358.6 371.7,358.1 371.7,357.7 371.7,357.5 371.7,357.4 371.7,357.2 371.6,357 
		371.4,356.6 371.3,356.1 371.1,356 370.9,355.8 370.8,355.8 370.5,355.8 370.3,356 369.7,356.1 368.9,356.1 368.8,356.1 
		368.4,356.1 367.7,355.5 367.3,355.3 367.2,355.2 367,355.2 366.9,355.2 366.9,355 366.6,355 365.8,354.7 365.6,354.5 365.3,354.4 
		365.2,354.4 365.2,354.2 365.2,353.9 365.3,353.9 365.5,353.6 366.2,352.7 366.7,352.5 367,352.4 367.3,351.9 367.5,351.7 
		367.5,351.6 367.7,351.4 367.7,351.3 367.7,351.1 367.5,351 367.2,351 366.4,351 366.1,351 365.9,351 365.3,351 365.2,351 
		364.4,350.2 363.9,349.9 363.8,349.7 363.4,349.5 363.1,349.5 363,349.5 362.8,349.7 362.7,349.9 362.5,350 362.3,350.5 
		362.2,350.8 362.2,351 362.2,351.7 362.2,352.2 362.2,352.5 362.2,352.7 362,353.1 361.9,353.6 361.9,353.8 361.7,354.1 
		361.6,354.2 361.4,354.5 361.3,354.9 361.1,355 360.9,355.2 360.8,355.2 360.5,355.3 360,355.5 358.9,355.8 358.6,355.8 
		358.1,355.8 357.7,355.8 357.5,355.8 357.3,355.6 357.2,355.5 356.9,354.7 356.9,354.2 356.7,353.6 356.6,353.5 356.4,353.3 
		356.3,353.1 355.8,352.8 355.6,352.8 354.8,352.7 353.8,352.5 353.6,352.5 353.4,352.7 353.3,353 353.1,353.3 353.1,353.9 
		353,354.2 352.7,354.4 352.3,354.4 351.7,353.9 351.4,353.6 351.2,353.5 350.8,353 350.5,352.2 350,351.1 350,350.6 350,350 
		350,349.9 350,349.5 349.8,348.5 349.7,348 349.5,347.7 349.4,347.4 349.2,347.4 349.2,347.2 349.1,347.2 348.9,347 348.9,346.9 
		348.7,346.9 348.6,346.7 348.4,346.7 348,347 347.8,347 347.8,347.2 347.2,347.5 346.9,347.8 345.6,348.5 345.5,348.3 345.3,348.3 
		345.3,348 345.2,347.5 345.2,347.4 345.3,347 345.2,347 345,347 344.8,347.2 344.7,347.2 344.5,347.4 344.4,347.5 344.4,347.7 
		344.4,348 344.4,348.1 344.4,348.5 344.4,348.6 344.4,348.8 344.4,348.9 344.7,349.5 345,350.5 345,351.4 345,351.7 344.4,352.5 
		344.2,352.8 343.6,353.8 343.1,354.2 342.8,354.7 342,355.2 341.9,355.2 341.6,355 341.4,354.9 341.3,354.9 341.1,354.9 340.9,355 
		340.8,355.2 340.9,355.3 340.9,355.6 341.1,356 341.1,356.1 340.8,356.4 340.6,356.6 340.5,356.7 340.3,356.7 339.7,356.9 
		339.2,357.2 338.9,357.5 338.9,357.7 338.8,357.8 338.8,358 338.8,358.1 338.8,358.3 338.9,358.5 338.9,358.6 339.2,359.5 
		339.4,360 339.4,360.5 339.4,361 339.4,361.6 339.2,361.7 339.1,362 339.1,362.2 338.9,362.4 338.9,362.5 338.8,362.7 338.3,363 
		338.1,363.1 338,363.1 337.8,363.3 337.7,363.3 337.5,363.5 337.3,363.5 337,363.5 336.4,363.3 335.8,363.1 335.6,363 335.5,363 
		335,362.7 335,362.5 334.7,362.2 334.4,362 334.4,361.9 333.9,360.8 333.6,359.9 333.4,359.1 333.1,358.8 332.7,358 332.5,357.7 
		332.5,357.4 332.5,357.2 332.5,356.6 332.7,356.3 332.8,356 333,355.8 333,355.6 333.1,355.6 333.6,355.6 333.9,355.6 334.4,355.3 
		334.7,355 334.7,354.5 334.4,353.6 333.9,351.6 333.9,351.3 333.7,351.3 333.6,351.1 333.6,351 333.4,350.8 333.1,350.5 
		332.7,350.3 332.3,350 332.2,349.9 332,349.9 331.4,350 331.3,350 330.6,350.5 330.5,350.6 330.3,350.6 330.2,350.8 330.2,351 
		330.2,351.1 330,352.7 329.7,353.3 329.7,353.5 329.5,353.5 328.7,353.6 328.4,353.5 328.3,353.5 328,353.3 328,353.1 327.8,353.1 
		327.5,352.7 327.3,352.5 327.2,352.4 327,352.4 326.7,352.5 326.6,352.7 326.6,352.8 326.3,353.3 326.1,353.5 325.8,353.5 
		325.8,353.3 325.6,352.8 325.5,352.8 325.2,352.8 325,352.8 325,353 324.8,353.3 324.8,353.8 324.4,354.9 323.8,355.8 323.4,356.3 
		323.3,356.4 323,356.6 322.3,356.6 321.3,356.6 320.8,356.6 320,356.6 318.9,356.3 318.4,356 318.1,355.5 317.8,355 318,354.5 
		318.1,354.2 318.1,354.1 318.3,353.8 318.4,353.1 318.6,351.7 318.4,351.4 318.1,351 318,350.8 317,350.3 316.6,350 316.4,349.9 
		316.2,349.9 316.1,349.9 315.9,349.9 315.6,349.7 315.5,349.9 314.7,350.2 314.4,350.3 313.9,350.6 313.7,350.6 313.3,351 
		312.8,351.3 312.7,351.3 312.5,351.3 312.3,351.3 311.3,351.1 311.1,351.1 310.8,351 310.6,350.8 310.5,350.5 310.3,350.2 
		310.2,350 310.2,349.9 310.2,349.7 310.3,349.5 310.5,349.2 310.5,349.1 310.6,347.5 309.5,346.4 308.1,345.6 306.9,345 306.6,345 
		306.3,345 305.9,344.9 305.9,345 305,345.3 304.7,345.5 304.5,346 304.1,346.9 303.9,347.2 303.8,347.4 303.8,347.5 303.6,347.8 
		303.4,348 303.1,348.1 303,348.3 302.5,348.6 302.3,348.6 302.2,348.6 301.9,348.6 301.4,348.6 300.8,348.8 300.8,349.1 
		300.9,349.4 300.9,349.9 300.9,350 300.8,350.2 300.6,350.2 300.3,350.2 299.7,350.5 299.8,350.8 299.8,351.3 299.8,351.4 
		299.5,351.7 298.6,352.2 298.4,352.5 298.4,352.7 298.3,352.8 296.9,353.9 296.7,354.1 295.5,354.4 295,354.5 294.7,354.7 
		294.4,354.5 293.3,354.1 292.7,353.6 292,353.1 291.1,352.7 290.9,352.7 290.9,352.5 290.8,352.5 290.6,352.5 290.3,352.7 
		290.2,352.7 289.7,352.5 289.2,352.4 288.8,352 288.6,351.9 288.3,351.4 288.3,351.3 288.3,351.1 288.3,351 288.4,350.3 
		288.6,350.3 288.9,350.6 289.1,350.8 289.4,350.6 289.5,350.5 289.8,350.2 290,349.5 290,349.2 290,348.9 290,348.8 290,348.6 
		289.8,348.6 289.4,348.8 289.2,348.8 288.9,348.6 288.8,348.5 288.8,348.3 288.9,348.1 289.2,348 289.5,347.7 289.8,347.2 
		290,346.4 290,346.3 290.5,345.2 290.5,345 290.3,345 290,345 289.8,345 289.7,345 289.5,344.7 289.4,344.7 289.4,344.5 
		289.2,344.4 288.9,343.9 288.8,343.9 288.6,343.9 288.3,344.2 288.1,344.4 288,344.4 287.3,344.5 287,344.7 286.3,344.7 
		286.3,344.9 285.8,344.9 285,344.9 284.5,344.7 284.2,344.7 282.7,344.2 282.5,344.1 282.3,343.9 281.4,342.4 281.4,342.2 
		281.4,342 281.4,341.9 281.6,341.9 281.7,341.7 281.9,341.7 281.9,341.6 281.9,341.3 281.7,341.1 281.6,341 280.8,340.2 
		280.6,339.9 280.5,339.4 280.5,338.8 280.6,338.6 280.8,338.5 280.9,338.3 280.9,338.1 281.2,338 281.4,337.7 281.6,337.5 
		281.6,337.4 281.7,337.4 281.7,337.2 281.9,336.9 282,336.7 282.2,336.4 282.2,336.1 282.2,335.6 282.2,335.5 282.2,335.3 
		281.6,334.4 281.2,333.9 281.1,333.9 280.9,333.8 280.3,333.8 280,334.1 279.5,334.5 279.5,334.7 279.2,335 278.6,336 278.4,336.1 
		277.8,336.6 276.6,336.4 276.1,336.4 275.8,336.3 275.2,336.1 274.7,335.8 274.5,335.6 273.7,335.3 273.3,335.5 273,335.5 
		272.8,335.5 272.7,335.5 272.5,335.5 272.2,335.5 271.4,335.5 270.8,335.3 270.5,335.2 270.3,335.2 269.7,334.7 269.5,334.5 
		269.4,334.4 269.2,334.2 269.1,334.1 268.9,334.1 268.8,334.1 268.6,333.9 268.1,333.9 268,333.9 266.7,333.6 266.6,333.6 
		266.6,333.8 265.8,334.1 265.8,334.2 265.6,334.4 264.8,335.6 264.7,336 264.8,336.1 264.8,337.2 264.7,337.5 263.9,338.5 
		263.8,338.6 263.6,338.6 263.6,338.8 263.4,338.6 263.3,338.6 263.1,338.5 263,338.5 262.8,338.5 262.7,338.5 262.5,338.6 
		262.3,338.6 262.2,338.6 262.2,338.8 262.2,338.9 262,338.9 262,339.1 262,339.2 261.9,339.2 261.1,339.7 260.5,339.9 260,340 
		259.8,340 259.7,340 258.7,339.4 257.5,337.8 257.3,337.5 257,337 256.1,336.1 255.8,335.5 255.6,335.2 255,334.4 254.7,334.1 
		253.4,333.3 253.1,333.3 252.8,333.6 252.7,333.6 252.5,333.6 252.3,333.6 252.2,333.6 251.6,333.3 251.4,333.3 250.9,333 
		250.6,333 250.5,333.1 250.3,333.5 249.4,334.2 249.1,334.5 248.6,335 248.4,335 248.3,335.2 248,335.2 247.3,335 246.9,335 
		246.7,334.9 245.9,335 245.8,335 245.6,335.2 245.6,335.3 245.5,335.5 245.5,335.6 245.3,335.6 244.8,335.8 244.7,335.8 
		244.5,335.6 244.4,335.5 244.2,335.2 244.2,335 244.1,335 244.1,334.9 243.9,334.9 243.6,334.7 243.3,334.7 242.5,334.4 
		241.9,333.8 241.7,333.6 241.4,333.5 240.3,333.1 239.7,333.1 239.1,333.1 238.9,333.1 238.8,333.1 238.8,333.3 238.8,333.8 
		238.6,333.9 238.3,333.9 238.1,333.9 238,333.6 237.8,333.6 237.8,333.5 238,333.3 238,333 238,332.8 237.8,332.7 236.9,332.4 
		235.9,332 235.3,331.7 235.3,331.6 235.2,331.4 234.8,331.1 234.8,331 234.2,330.2 233.6,329.7 233.4,329.5 233.1,329.5 233,329.5 
		233,329.7 233,330 233,330.2 232.7,330.3 232.5,330.3 232.2,330.2 232,330 232,329.7 231.9,329.2 231.6,329.1 231.3,328.9 
		230.8,329.2 230.6,329.5 230.6,329.7 230.6,329.9 230.5,330 230,330.2 228.8,330 228.6,330 228.6,330.2 228.4,330.3 228.3,330.5 
		228,330.5 227.5,330.3 227.5,330.2 227.3,330.2 227,329.9 226.6,329.7 226.3,329.7 225.6,329.7 225,330 224.7,330.2 224.1,330.3 
		223.6,330.2 223.4,330 223.3,329.9 223.3,329.7 223.4,329.5 223.6,329.4 223.6,329.1 223.4,329.1 223,329.1 222.7,329.4 
		221.7,329.7 220.2,329.4 220,329.4 220,329.2 219.8,329.1 220,328.8 220,328.5 220,328.3 220,328.1 219.7,327.7 219.7,327.4 
		219.7,326.1 219.8,325.3 219.8,324.9 219.7,324.9 219.5,324.9 219.4,324.7 219.1,324.7 219.1,324.4 218.9,324.4 218.9,324.1 
		218.8,323 218.8,322.8 218.9,322.5 219.1,321.9 218.9,321.1 218.9,320.9 218.9,320.8 218.6,320.6 218.4,320.6 218.3,320.8 
		218.1,320.8 217.8,320.8 217.8,320.6 217.7,320.5 217.7,319.9 217.7,319.5 217.5,319.2 217.3,318.9 217.2,318.6 216.9,318.3 
		216.7,318.3 216.6,318.6 216.3,318.6 215.6,318 215.6,317.8 215.5,317.7 215.3,317.5 215.5,317.5 215.6,317.5 215.9,317.5 
		216.1,317.4 216.3,317.4 216.3,317.2 216.3,316.6 216.3,316.4 216.1,316.3 214.7,315.6 214.5,315.6 214.4,315.6 214.1,315.6 
		213.6,315.9 213.1,316.1 213,316.1 213,315.9 212.8,315.9 212.8,315.8 212.7,315.6 212.7,315.5 212.3,315.2 212.2,315 212,314.7 
		211.7,314.5 211.7,314.4 211.3,314.1 210.8,313.8 210.8,313.6 210.8,313.4 210.9,313.3 210.9,313.1 210.9,313 210.8,312.8 
		210.2,312.5 209.8,312.5 209.7,312.5 209.5,312.7 208.8,313.6 208.8,313.8 208.6,313.8 208.6,314.2 208.6,314.9 208.6,315.3 
		208.8,315.5 208.9,316.1 208.6,317.7 208.4,318.1 208.3,318.3 208.1,318.3 208.1,318.4 208,318.4 207.8,318.4 207.2,317.8 
		206.6,318.3 206.1,318.3 205.8,317.8 205.3,317.4 204.8,317 204.4,316.7 204.2,316.7 204.1,316.7 203.9,316.7 203.4,316.6 
		203.3,316.6 203,316.1 202.8,315.9 202.7,315.8 201.9,315.5 201.7,315.5 201.4,315.6 201.1,315.6 200,315.6 199.5,315.5 
		199.2,315.3 199.2,315.2 198.8,315.2 198.6,315.2 198.3,315.3 198,315.9 197.8,316.6 198,317 197.8,317.2 197.8,317.4 197.2,318 
		197,318.1 195.6,318.1 195.5,318 195.3,318 194.2,317.7 193.9,318 193.8,318.1 193.6,318.1 193.4,318.1 193.3,318.1 193.3,318 
		193,317.8 192.7,317.7 191.6,317.5 190.9,317.2 190.6,316.9 190.6,316.6 190.6,316.4 190.6,316.3 190.5,316.1 190.3,315.9 
		190.3,315.8 189.7,315.5 189.4,315.3 189.1,315.2 188.4,314.9 187.7,314.1 187.8,313.8 187.8,313.6 187.3,313.3 187.2,313.1 
		186.7,313.1 186.3,312.5 185,310.9 184.8,310.3 184.8,310.2 184.5,309.5 184.1,309.4 183.4,308.9 183,308.6 182.2,307.5 182,307.4 
		181.9,307 181.9,306.9 181.7,306.7 181.7,306.6 181.6,306.6 181.3,306.1 181.1,306.1 181.1,305.9 180.6,305.6 180.6,305.5 
		180.5,305.5 179.5,304.9 179.5,304.7 179.1,304.5 179.1,304.2 178.8,304.1 178.6,304.1 177.8,303.8 177.3,303.9 177.2,304.1 
		177.2,304.2 177,304.4 176.7,304.7 176.3,305 176.1,305 175.5,305 174.8,305 174.7,305 174.7,304.4 174.8,294.9 175,292.4 
		175,287.8 175.2,285.2 175.2,285 175.3,273.1 175.6,262.7 175.6,261.3 175.6,256.6 175.8,254.8 175.8,254.7 175.9,246.4 
		176.1,239.8 176.3,233 176.3,232.7 176.4,224.4 176.6,215.3 176.6,215.2 176.7,203.3 176.9,198.1 176.9,195.9 177,193.3 177,189.4 
		177.3,178.4 177.3,173.1 177.2,173.1 172.5,173 167.5,172.8 163.4,172.8 160.3,172.6 159.7,172.6 159.1,172.6 158.1,172.6 
		156.6,172.6 154.7,172.5 154.2,172.5 153.6,172.5 153.3,172.5 150.6,172.5 148.7,172.5 148.3,172.3 147.5,172.3 145.6,172.3 
		145.3,172.3 144.8,172.3 141.9,172.2 141.3,172.2 139.8,172.2 138.4,172.2 137.7,172 135.6,172 133.3,172 133.1,172 132.2,171.9 
		130.6,171.9 130.2,171.9 128.9,171.9 127,171.7 125.9,171.7 125,171.7 123.8,171.7 120,171.5 119.7,171.5 117.8,171.5 106.6,171.1 
		103.7,171.1 100.9,170.9 99.7,170.9 89.7,170.6 88.3,170.5 86.9,170.5 86.6,170.5 85.5,170.3 84.1,170.3 83.6,170.3 81.6,170.1 
		80,170.1 79.7,170.1 79.5,170.1 79.2,170.1 77.8,170.1 77,170 72.2,169.8 71.9,169.8 71.7,169.8 71.4,169.8 	"/>
</g>
</svg>
