<svg xmlns="http://www.w3.org/2000/svg" viewBox="0 0 500 500"><path fill="#d74b4b" d="M67.3 344.2l-.4-.2h-.2l-.1-.2H66l-.4-.2h-.9l-1.3-.2h-.5l-.2.2-.2.4-.2.2h-1.1l-1.1-.2-.5-.2-.2-.2-.4-.5-.3-.6-.2-.2-.4-.1-.2.1-.3.8-.2.3h-.5l-.4-.3-.2-.4-.2-.4.2-.9-.9-1.1-.2-.5v-.6l-.2-.1h-.5l-.4-.2-.2-.4v-.5l.2-.6.2-.7.5-1.5.6-.5.2-.4.2-.4.1-.7.2-.4v-1.1l.4-.7v-.6l-.2-.9v-.3l.2-.6.2-.7v-.6l-.4-.3-.2-.4-.5-.9.2-.2.9-.5.2-.4-.4-.9-.2-.4-.4-.2-.5-.2-.7-.3h-.6l-.4-.2-.3-.2v-.2l-.6-1.1v-.3l.6-.6.9-.5.2-.4.2-.2.3-.9.2-1.3v-.7l-.5-.9v-.9l-.2-.2-.2-.2-.7-.9-.2-.4v-.2l.2-.2H55l.4-.1v-.4h.2l.5-.2h.9l1.1.4h.6l.5-.2.6-.6.3-.3.2-.6.4-1.1v-.7l.7-1.3.4-.2.4-.5.1-.4.2-.2v-.3l.6-.8.2-.1.5-.4h.4l.3-.2.6-.5.2-.2v-1.1l1.3-.9 1.2-.8v-.2l-.2-.1-.5-1.1-.4-1v-.9l.6-.9.2-.2.1-.1.2-.2v-.6l-.2-.2v-.9l.2-.3v-.4l-.2-.4v-.9l.2-.2v-.2h.2v-.3h-.2v-.4l-.2-.2v-.2l-.1-.3.1-.2v-.2l.2-.2.2-.3.4-.2.5-.2h.2l.4-.2.5-.4.2-.9v-.5l-.2-.4-.2-.2-.1-.1-.2-.4v-.2l-.4-.2-.2-.2h.2l.2-.5.2-.4.2-.3v-1l-.2-.5-.8-1.7-.1-1.1-.6-1.2h.2l.2-.2.2-.4.1-.2-.1-.2-.2-.7v-.2l-.4-.9v-.2l.2-.3v-.2h.9l.4-.4.2-.2.1-.1.2-.2-.2-.6v-.2l-.5-.3-.2-.4h-.2v-.7l.2-.2h.2l.2-.2.2-.2v-.5l-.2-.2-.4-.6h-.2l-.2-.1-.1-.2v-.2h-.2l-.4-.2-.2-.2v-.7l.6-.9.3-.6v-.2l.6-.1.2.1h.2l.7-.3.4-.6.7-.5v-.2l.2-.2v-.2l.3-.1.4-.4.2-.4h.2l.2-.2h.1v-.5l-.1-.2v-.4l.1-.1h.4l.4-.2h.2l.3-.4.2-.2.2-.2.2-.5v-1.1l-.2-.7v-.6l.2-1.3.2-.5v-.8l.5-.3v-.4l.5-.5.2-.4.4-.2.4-.2h.3l.8.2.7-.3.7-.2h.2l.4-.6.3-.5.2-.2.4-.2.9.2.7-.2.4-.2.6-.5.7-.9v-.2h.2v-.2l.5-.6.4-.1.7-.2.6.2.9-.4.7-.4.2-.3.9-.2v-.2h.2l.2-.6-.2-.5.2-.2v-.2l.5-.2.4-.1.2-.4 1.3-1.3.9-.7v-.2h.2v-.4h.1l.2-.1h.2v-.2h.2v-.2l.2-.2v-.2h.5l.6-.2h.7v-.1l.2-.4-.2-.2v-.9l-.2-.7v-1.3l-.2-.2-1.1-.9-.3-1.1-.4-.8-.2-.5-.3-.4-.2-.2-.4-.1-.4-.2-.5-.6h-.9l-.9-.3-.2-.2-.4-.7-.7-.8-.2-.2-.4-.1-.7-1-.2-.1h-.9l-.6-.2v-.2l-.1-.2v-.2l-.2-.5v-.4l-.4-.4H85l-.7-.5h-.2l-.2-.2v-.2h-.5v-.2l-.4-.5v-.2h-.2v-.2h-.1v-.2h-.8l-.5.2-.6.2h-.7l-.2-.2-.2-.2-.5-.5v-.4l.3-.7v-2l.2-.4v-.3l.2-.4v-.7l-.2-1v-.1l-.5-1.1-1.1-2.2-1.1-1.1-.4-1v-.3h-.2l.2-.2.2-.2h.2v-.7l-.4-.4-.7-.5v-1.9l-.2-.3-.4-.4-.1-.2v-1.3l-.2-.1v-.4l-.2-.2-.4-.7-.2-.4-.1-.9v-.9h-.2v-.2h-.4l-.4-.2-.1-.2-.4-.5-.4-.2-.5-.4-.4-.1-.5-.4-.2-.4-.2-.2-.2-.1-.2-.4-.7-.6-.6-.3-.3-.6-.4-.5-.2-.4-.2-.4v-.1l-.3-.8v-.2l-.2-.9h-.2v-.7l-.3-.7v-.2l-.4-.8-.4-.5-.3-.4-.2-.2h-.2v-.1l-.7-.4-.2-.2H64l-.2-.3h-.2v-.2l-.3-.4-.2-.4v-.3l-.2-.9v-.2l.2-.6.2-.5.1-.4v-.4l-.1-.5v-1.1l.1-.7v-1l-.1-.7v-.9l.3-.9V180l-.2-.7v-1.9l.2-.7.4-.9.5-.6.2-.2.8-.3.1-.6v-.7h-.1v-.2l-.2-.2-.2-.3h-.2l-.2-.2-.3-.4-.8-.4h-.2l-.3-.3h-.2l-.2-.4.2-.4.2-.1.2-.2.3-.4.2-.2h.2v-.1h.4l.1-.2h1.1l.4.2.7-.4.6-.2.2-.2.3-.7.4-2v-2.6l-.2-.5-.2-.6-.3-.4-.2-1.6.2-.7-.4-2-.5-3v-1.3l.1-.9-.5-2.4-.4-1.4-.5-1.8-.6-1.5-1.6-1.7v-.3l-.6-.9v-.2l-.2-.4v-.4l-.1-.9v-.2l-.4-1.2-.4-.6v-1.1l.2-.9.2-.4.4-.3.3-.2.4-.6.2-.1v-.2l-.2-.4-.2-.5v-1.5l-.2-1.1v-.2l.4-.7.4-.8.1-1.1-.3-.7L62 126l-.9-.9V124l.1-.4.4-.7.2-.6v-.2l-.2-.1-.7-.6-.6-.5-.2-.6v-.4l.6-1.8.2-.9v-.9l-.4-1.1.2-1.7-.7-1.4.1-.4.4-.4.4-.7.2-.5v-.2l-.2-.9v-.4l.2-.4v-.2l.3-.1.8-.6.1-.3v-1l-.1-.5-.6-.6-.7-.7-.6-.9.2-.7v-.6l-.5-.5-1-.8-.1-.2.1-.3.2-.6-.2-.5-.1-.6-.6-.5-.2-.9.2-1.7v-.3l.2-.2v-.2l.2-.2.3-.4.2-.5v-.4l-.3-.3-.2-.2h-.2v-.9l.4-.4v-.6l-.4-.9-.4-.2-.2-.3-.1-.2-.2-.2v-.4l.2-.3.5-.6.7-.5 1.3-.2h.4l.5-.2 1-.2 1.1-.2.1-.1h.4l.2-.2.2-.4.7-.5 1.3-.9h.2l.3.9.4.2.5-.4 1-.7 1.2-.6.4-.2h2.2l1.7.2h.1l.4.2.2.4v.3l-.2.2v.6l.2.1h.2l.2.2h.1l.6-.2 1.1-.7h.9l.4.7.1.4h.2l1.3-.7.7-.9h.8l2 .3h.4l.5 1.1.2.2 1.4 1.6.4.2.2.2 1.5 1.8.1.8-.1.2-.6.3v.8l2.4 1.1.5.9.2.5.4.2.7.6v.1l.8.2.1.2h1.7l1.4-.5 1.1-.6h.8l.2.2.5.2h.2l.2-.4.5-.7.2-.4.2-.4-.2-.5.2-.6.5-1.1 1-1.8.1-.2-.3-.3-.4-.2v-.6l.2-.3.7-.4h.6l.2-.2.7-1.8 1.1-2 .5-.9.4-.8 1.1-.3v-8.1l.2-2.2V70l.2-5.5v-9.2l.1-10v-5.2l.2-9.7v-1.6l.2-2 .2-9.5v-3.7l5.7.2h3.3l14.2.3h5.5l1.3.2h9.5l.9.2H159l10.2.2h2.8l4.2.2h12.6l6.9.2h106.4l2.7-.2h2.2l20.7-.4h3.3l5.1-.2h6.4l1.3-.2h1.1l.2.2 1.4.4h4.6l1.3-.2h7.1l6.6-.2h2l2.4-.2h7.3l4.6-.1h3.8l6.3-.2h.3l4.6-.2h6.8l7.5-.4h1.6l5.9-.2h2.9l1.3-.1h5.8l3.5-.2 9.2-.2v3.3l.2 5.1v2.6l.1.7v3.1l.2 3.9v.3l.2 5.7V39l.2 5.5.2 7.4v2.2l.1 2.1v4.3l.2 3.6v2.2l.2 3.1v3l.2 1.8.2 6.4v3.5l.2 2 .1 9.5V98l.2 4v2.8l.2.3v5.5l.2 1.3v4.2l.2 2.6v5.5l.2 1.6v4.9l.1 1.1v5l.2 1.3v5.8l.2 1.3v3.9l.2 1.8v4l.2 1.1v5.3l.2.7v3.3l.3 12.3.2 4.9.2 4.6v3.9l.2 2.5v4.8l.5 15.9v4.8l.2 3.6.7 26 .2 10.3.2 3.6.2 3.9.2 6.6.2 8v3.3l.1 5.1v.4l.2 4v5.2l.4 8.2v4.6l.2 2.9v.9l.2 9.5.1 3.5.2 5.9v5.8l.6 14.1.1 5.9v5.1l.2 6.2v.9l.2 3 .4 18.3.7 23.4v6.2l.2 3.7v1.1l.2 7.9.2 4v6.2l.3 13.4.4 11.3v1.7l.4 12.4-16.5.2h-1.5l-1.6.2-12.3.2h-2.5l-.6.2h-5.7l-12.6.3h-5.3l-3.5.2h-6.2l-9.5.2h-5l-18.3.4-11.5.1h-11.1l-1.3.2h-8.4l-2.1.2h-9.5l-3.6-1.3-17.2-6.4-13.9-5.1-4.4-1.7-25.5-9.3-19-7-8.4-3.1-.4-.1h-.3l-1-.4-.1-.2-.8-.2-8.9-3.3-5.7-2.2-17-6.2-1.5-.5-18.3-6.6-6.4-2.6-8.2-3.1-11.4-4.4-18.1-7-2.2-.7-18.5-7.1-14.4-5.7-17.6-6.8-4.4-1.6-5.1-2-5.7-2.2-2.6-.9-2-.8-2.2-.9v-.2l.2-.2-.2-.3v-.2l.2-.2h.4v-.2l.2-.2v-.3l-.4-.4-.2-.2.2-.3.2-.4.4-.4v-.2l-.2-.1v-.6h.2l.5-.2v-.2h.2v-.7l-.2-.2-.2-.2-.3.2h-.4l-.2-.2v-.1l.2-.2.4-.4.1-.2v-.1l-.1-.2v-.4l.1-.2.2-.3v-.2l-.2-.4v-.2h-.3v-.2l-.2-.5v-.7l.2-.4.5-.2h.2l.2.2h.2l.7-.2v-.5l.2-.2.4-.2.5-.4.2-.2v-.5l.3-.6.4-.1.6-.6v-.4l.1-.1v-.6l1.1-1.6v-.6l.6-.7.2-.4.2-.2.1-.5v-.2l.8-.9.2-.4h.1l.8.8h.9l.5.1h.2l.6.2h.9l.2.2h.7l.5.2.4.2.2-.2.2-.4H62v-.7l1.3.2v-.8h1.8v-.5h.9l-.2-.7-.2-.8v-1.3l.2-.1v-.4l.6-.4.2-.2v-.1l.3-.4v-.2l.4-.4.5-.1.4-.2.2-.2.3-.2.6-.5.4-.4.5-.5.4-2.6v-.6l.2-1.6v-.9l-.8-.8-.2-.1-.1-.4-.2-.6.2-.1v-.4l.3-.4.2-.3v-1.3l-.2-.4-.2-.2h-.1l-.6.2h-.2l-.2-.2v-.1l-.1-.6v-.9l-.2-1.1-.2-.4v-.2l-.2-.1v-.4h-.2l-.2-.6-.3-.1z"/></svg>