<svg version="1.1" id="Layer_1" xmlns="http://www.w3.org/2000/svg" x="0" y="0" viewBox="0 0 500 500" xml:space="preserve"><style>.st0{fill:#d74b4b}</style><g id="XMLID_3_"><path id="XMLID_303_" class="st0" d="M281.1 427.1v.2h.2z"/><path id="XMLID_302_" class="st0" d="M281.5 427.1v.2l.1-.2z"/><path id="XMLID_301_" class="st0" d="M282 426.9v-.3l-.2.2h-.2v.3h.2z"/><path id="XMLID_300_" class="st0" d="M273.6 416.8h.2v.2h-.2z"/><path id="XMLID_299_" class="st0" d="M282.8 426.8h.2v.1h.2v-.1h.2v-.2h-.2v-.2l-.2.2h-.3l-.2.2h.2z"/><path id="XMLID_298_" class="st0" d="M281.3 426.9l-.2.2h.2z"/><path id="XMLID_297_" class="st0" d="M280.8 428.8l.2.2v-.2z"/><path id="XMLID_296_" class="st0" d="M110 218.2l.1.2v-.2z"/><path id="XMLID_295_" class="st0" d="M281.3 426.8h.2v.2h-.2z"/><path id="XMLID_294_" class="st0" d="M281.1 426.8h-.3v.1l.2.2h-.2v.2h-.5v.2h.7v-.2z"/><path id="XMLID_293_" class="st0" d="M282.3 426.9h.2v-.1h-.3l-.2.1h.2z"/><path id="XMLID_292_" class="st0" d="M98.5 210.5h.2v.2h-.2z"/><path id="XMLID_291_" class="st0" d="M287.5 427.6v-.1h-.2v.3h.2z"/><path id="XMLID_290_" class="st0" d="M281.3 427.3h.2v.2h-.2z"/><path id="XMLID_289_" class="st0" d="M324.9 474.8h.1v.3h-.1v.2h.3v-.8h-.3v.1h.1z"/><path id="XMLID_288_" class="st0" d="M317.3 454.2v.2h.2z"/><path id="XMLID_287_" class="st0" d="M287.5 427.8h.2v.2h-.2z"/><path id="XMLID_286_" class="st0" d="M281 428.1v-.1l.1-.2v-.2h.2v-.1l-.2-.2v.2h-.1v.1h-.2v.2h.2l-.2.2v.5h.2v-.2z"/><path id="XMLID_285_" class="st0" d="M99.5 211.1v-.1h-.2v-.2h.2v-.3h.2v-.2h.3v-.4l.2-.1h-.3v.3h-.2v-.2h-.2l.2-.1h-.2v-.5h-.2v.5l-.1.1v.2h-.4v-.7h-.1v.7l.1.2h.2v.3h-.3l.1.2h.2v.3h.2v.4h.3v-.2z"/><path id="XMLID_284_" class="st0" d="M99.5 209.1h.2v.2h-.2z"/><path id="XMLID_283_" class="st0" d="M281.3 428.3v-.2h-.2v.2l-.1.2v.3l.1.2v-.3h.2v-.2z"/><path id="XMLID_282_" class="st0" d="M126.6 238.2h.2v.2h-.2z"/><path id="XMLID_281_" class="st0" d="M126.8 238.1v.1h.2v-.1h.1v-.2h-.1z"/><path id="XMLID_280_" class="st0" d="M103.8 209.3l-.2-.2v.2z"/><path id="XMLID_279_" class="st0" d="M123.5 235.5h.2v.2h-.2z"/><path id="XMLID_278_" class="st0" d="M125.9 237h.2v.2h-.2z"/><path id="XMLID_277_" class="st0" d="M125.1 236.5h.2v.2h-.2z"/><path id="XMLID_276_" class="st0" d="M130.4 241.3h.2v.2h-.2z"/><path id="XMLID_275_" class="st0" d="M124.2 225.7h.2v.2h-.2z"/><path id="XMLID_274_" class="st0" d="M120.3 206.5l.1.2v-.2z"/><path id="XMLID_273_" class="st0" d="M120.6 206.7h-.2v.2l.2.1v-.1z"/><path id="XMLID_272_" class="st0" d="M123.4 223l-.2.2h.2z"/><path id="XMLID_271_" class="st0" d="M115.1 219h.2v.2h-.2z"/><path id="XMLID_270_" class="st0" d="M274.1 416.5v-.2l-.2.2z"/><path id="XMLID_269_" class="st0" d="M240.5 403.1h.2v-.3h-.2v.1z"/><path id="XMLID_268_" class="st0" d="M273.9 416.7v-.4h.2v-.2h-.7v.4h.4v.3h.1z"/><path id="XMLID_267_" class="st0" d="M119.8 230.5v.2h.3v-.2h-.2z"/><path id="XMLID_266_" class="st0" d="M240.5 402.2h-.2l.2.2h.2z"/><path id="XMLID_265_" class="st0" d="M176.3 348.7h.2v.2h-.2z"/><path id="XMLID_264_" class="st0" d="M120.6 227.8h-.2v.3h.2v-.1z"/><path id="XMLID_263_" class="st0" d="M115.6 216.8h.2l-.2-.2z"/><path id="XMLID_262_" class="st0" d="M177 346.3v-.2h-.1v-.1h-.4v.1h.2l.2.2v.2l.1.2v-.2z"/><path id="XMLID_261_" class="st0" d="M325 476h-.1v.2z"/><path id="XMLID_260_" class="st0" d="M215.6 411.2v-.2l-.2.2z"/><path id="XMLID_259_" class="st0" d="M125.8 225.2h-.2v-.2h.2v-.1h-.4v-.2h-.7v.2h.2v.1h.3l.2.2v.2h.4v.2h.1v-.6h-.1z"/><path id="XMLID_258_" class="st0" d="M133.6 265.7h.2v.2h-.2z"/><path id="XMLID_257_" class="st0" d="M127.1 226.8v-.2l-.1-.2v-.2h-.2v.2h-.2l-.2.2-.1.2h-.2v.1h.7v.2h.5l-.2-.2z"/><path id="XMLID_256_" class="st0" d="M124.6 224.5h.2v.2h-.2z"/><path id="XMLID_255_" class="st0" d="M133.6 240.1v-.1h-.1z"/><path id="XMLID_254_" class="st0" d="M115.1 216.6h.2v.2h-.2z"/><path id="XMLID_253_" class="st0" d="M126.3 225.7h.2v.2h-.2z"/><path id="XMLID_252_" class="st0" d="M124.4 224.5h.2v-.1z"/><path id="XMLID_251_" class="st0" d="M127 227.4l.1.4v-.5h-.1z"/><path id="XMLID_250_" class="st0" d="M329.5 481.8v-.1l-.2.1z"/><path id="XMLID_249_" class="st0" d="M283.4 426.4h.1v-.1z"/><path id="XMLID_248_" class="st0" d="M282.2 426.4l.1-.1h-.1z"/><path id="XMLID_247_" class="st0" d="M136.9 241.9v-.2h-.2z"/><path id="XMLID_246_" class="st0" d="M136.6 241.5l.1.2v-.2z"/><path id="XMLID_245_" class="st0" d="M283.5 426.4h.2v.2h-.2z"/><path id="XMLID_244_" class="st0" d="M133.8 240.3h.2v.2h-.2z"/><path id="XMLID_243_" class="st0" d="M326.6 480.1h.2v.2h-.2z"/><path id="XMLID_242_" class="st0" d="M124 224.5h-.5v.2h.5l.2-.2v-.1h-.2z"/><path id="XMLID_241_" class="st0" d="M324.2 476h.7v-.2h-.6v-.1h.2v-.2l.2-.2v-.2l.2-.1v-.4h-.6v.2l-.1.2v.3h-.2l-.2-.2v-.3h-.3v.2h-.2l.2.1v.2h.2v.2h-.2v.2h.2v.1h.1v-.3h.4v.3h-.4v.2h.2z"/><path id="XMLID_240_" class="st0" d="M99.5 208.7h.2v.2h-.2z"/><path id="XMLID_239_" class="st0" d="M123 224.4v.1h.4v-.1h-.2z"/><path id="XMLID_238_" class="st0" d="M121 217.8h.2v.2h-.2z"/><path id="XMLID_237_" class="st0" d="M100.2 202.4h.2v.2h-.2z"/><path id="XMLID_236_" class="st0" d="M115.8 216.6h.2v.2h-.2z"/><path id="XMLID_235_" class="st0" d="M133.5 242h.2v.2h-.2z"/><path id="XMLID_234_" class="st0" d="M325.2 475.8v-.3h-.3v.2h.1v.3h.2z"/><path id="XMLID_233_" class="st0" d="M271.4 443.1h.2v.2h-.2z"/><path id="XMLID_232_" class="st0" d="M125.8 237.4h.2v.2h-.2z"/><path id="XMLID_231_" class="st0" d="M125.2 237.9v.2l.2-.2v-.2h-.2z"/><path id="XMLID_230_" class="st0" d="M125.4 237.6h.2v.2h-.2z"/><path id="XMLID_229_" class="st0" d="M121.5 234.5h-.4v.1h.7l-.2-.1z"/><path id="XMLID_228_" class="st0" d="M126.4 238.8v.1h.2v-.3h-.2z"/><path id="XMLID_227_" class="st0" d="M124.4 237.4h.2v.2h-.2z"/><path id="XMLID_226_" class="st0" d="M125.2 238.8l.2-.2h-.2z"/><path id="XMLID_225_" class="st0" d="M125.1 236.9h.2v.2h-.2z"/><path id="XMLID_224_" class="st0" d="M211.2 416.7h-.2v-1.4h-.7v.2h-.7v-.2h-.3v-.2h-.4v-.2h-.3v-.1h-.2v-.2h-.2v-.5h-.1v-.5h.1v-.4h.2v-.1h-.2v-.2h.2v-.2h-.3v-.2h-.4v.2h-.1v.4h-.4v.1h-.3v.2h-1.6v-.2h-.7v-.1h-.3v.1h-.2l-.1.2v.2h-.2l-.2.1h-.2v.2h-.5v.2h-.1v-.2h-.4v.2h-1v-.2h-.4v-.2h-.3v.2h-.5v.2h-.2v.3h.4v.2l.1.2h.4v.1h.1v.6h.4v.1h.2v.4h.1v.3h.2v.5h.3v.2h.2v.5h.2v.4h.2v.3h.3v.2l.2.1h.3v.2h.4v.2h.1v.2h.2v.1h.3l.2.2h.2v.2h.5v-.4h.2v-.1h.3v-.2h1v-.2h1.1v-.3h.3v-.2h.4v-.2h.1v-.1h.4v-.2h.1v-.2h.4l.2-.2h1.3v-.5h-.1z"/><path id="XMLID_223_" class="st0" d="M213 411.5h.2v.2h-.2z"/><path id="XMLID_222_" class="st0" d="M197.4 412.5h-.1v-.3h-.2v-.2h-.3v-.2h-.2v-.1l-.2.1h-.8v-.1h-.2v-.4h.2v-.1h-.2v-.2h.2v-.2h-.2v-.3h-.4v.3h-.1v.2h-.2v.2h-.2v.1h-.1v.2h-.4v.2h-.5v-.2h-.3v-.2l-.2.2h-.2v.2h-.3v.1l-.2.2-.2.2h-.3v.3h.5v.2h.2v.2h.1v-.2h.4v-.2h.5v.2h.5v.2h.5v.2h.2v.1h.2v.2h.7v-.2h1.8v-.1h.2v-.4h-.2z"/><path id="XMLID_221_" class="st0" d="M191.6 412.5h.2v.2h-.2z"/><path id="XMLID_220_" class="st0" d="M226.9 415.3l.2-.2h.3v-.2h.6v.2h.1v-.2h.4v-.1l.1-.2.2-.2h-.2v-.1h.2v-.6h.2v-.1h.5v-.2h.2v-.2h.1v-.1h-.1v-.2h-.2v-.2h-.7v-.2h-.3v-.1h-.2v-.2h-.2v-.2h-.1v.2h-.4v.2h-.2v-.2h-.3v.2h-.3v.1h-.2v.2h-.4v.4l.2.1v.2h-.2v.2h-.1v.1l-.2.2h-.3l-.2.2h-.5v-.2h-.5v-.2h-.2l-.2.2h-.3v-.2h-.7v-.1l-.2-.2v-.2h-.3v-.1h-.2v-.2h-.2v-.2h-.1v-.2h-.4v-.1h-.7v-.2h-.3v-.2h-.4v-.2h-.5v.2h-.1v-.2h-1.1v.2h-1v-.2h-.2v-.1h-.1v-.2h-.4v-.2h-.5v-.1h-.2v-.2h-.5v.2h-.2l.2-.2h-.7l-.1-.2v.2h-.2v-.2h-.2v.2h-.2v-.2h-.5v-.2h-.1v.2h-.2v.5h.2v.2h-.2v.2h.3v.1h.4v.2h.1l.2.2h.2v.2h.2v.3h.1v.2h.4v.5l-.2.2v.1h-.2v.4h-.1v.3h.1v.5h.2v.4h.2v.3h.5v.2h.2v.2h.1v.1h1.1v.2h.1l.2.2v.2l.2-.2h1v.2h.3v-.2h.2v.2h.2v-.2h.2v.2h.5v-.2h1.2v.2h.5v-.2h.2v-.2h.5v-.2h.3v-.1h.4v-.2h.3v-.2h.2v-.1h.5v-.2h.7v.2l.1-.2v.2h.2v-.2h.5v.2h.4v-.2h.7z"/><path id="XMLID_219_" class="st0" d="M176.9 346.3l-.2-.2h-.2v.2h.2v.4h.3l-.1-.2z"/><path id="XMLID_218_" class="st0" d="M176.9 346.8l-.2-.1v.1z"/><path id="XMLID_217_" class="st0" d="M135.4 285.8h.2v.2h-.2z"/><path id="XMLID_216_" class="st0" d="M133.1 266h-.1l.1.2z"/><path id="XMLID_215_" class="st0" d="M57.5 74.9h.2v.2h-.2z"/><path id="XMLID_214_" class="st0" d="M56.5 75.1h.2v.2h-.2z"/><path id="XMLID_213_" class="st0" d="M56.1 76v-.2h.2v-.2l.2-.1v-.2h-.2v.2l-.2.1-.1.4v.1h.1z"/><path id="XMLID_212_" class="st0" d="M56.8 74.9h.2v-.1l.2-.2.1.2v-.4h-.1v-.1H57v.1h-.2v.2l-.2.2v.3h.2z"/><path id="XMLID_211_" class="st0" d="M61.1 59.5v.2h.2v-.4h-.2z"/><path id="XMLID_210_" class="st0" d="M61.8 15.4v.2h.2v-.4h-.2z"/><path id="XMLID_209_" class="st0" d="M60.8 57.3l.1-.2h-.1z"/><path id="XMLID_208_" class="st0" d="M60.1 71.3h.1v-.1h-.6v.3h-.2v.2h.3v-.2h.2v-.2z"/><path id="XMLID_207_" class="st0" d="M120.4 228.5h.2v.2h-.2z"/><path id="XMLID_206_" class="st0" d="M121.3 228.3l-.2-.2v.2z"/><path id="XMLID_205_" class="st0" d="M121 227.3v.1l.1-.1z"/><path id="XMLID_204_" class="st0" d="M95.4 197.6h.2v.2h-.2z"/><path id="XMLID_203_" class="st0" d="M95.9 197.4h-.3v.2h.1z"/><path id="XMLID_202_" class="st0" d="M124.4 226.1v-.2h-.2z"/><path id="XMLID_201_" class="st0" d="M124 225.9h.2v-.2z"/><path id="XMLID_200_" class="st0" d="M125.6 225h.2v.2h-.2z"/><path id="XMLID_199_" class="st0" d="M100.9 211.8l-.2-.1v.1z"/><path id="XMLID_198_" class="st0" d="M122.5 224h.2v.2h-.2z"/><path id="XMLID_197_" class="st0" d="M121.3 223.3h.2v.2h-.2z"/><path id="XMLID_196_" class="st0" d="M121 222.5h-.2v.5l.2.2v.5h.3v-.2h-.2v-.3h.4l-.2-.2v-.4h-.2v-.1z"/><path id="XMLID_195_" class="st0" d="M119.1 220.6v-.2h-.4v.2h-.3v.3h-.2v.2h.2v.2h.7l.1.1v-.3h-.1l.1-.2h-.1v-.1z"/><path id="XMLID_194_" class="st0" d="M123.2 220.6v-.2h-.2v.4h.4v-.2z"/><path id="XMLID_193_" class="st0" d="M116.1 219.9h.2v.2h-.2z"/><path id="XMLID_192_" class="st0" d="M116 219.7h.2v.2h-.2z"/><path id="XMLID_191_" class="st0" d="M109.8 218.2h-.5v.2h.7v.1h.1v-.1l-.1-.2z"/><path id="XMLID_190_" class="st0" d="M119.8 217.8h-.2l.2.2z"/><path id="XMLID_189_" class="st0" d="M100.2 211.7h-.3l.1.1h.5v-.1h-.1z"/><path id="XMLID_188_" class="st0" d="M97.8 213.5h.3v-.1h-.5v.1z"/><path id="XMLID_187_" class="st0" d="M120.3 216.3h.1l-.1-.2z"/><path id="XMLID_186_" class="st0" d="M282.2 428.5h-.2l-.2.2h-.2l-.1.1.1.4v.1h.6l-.2-.1v-.2h-.2v-.2h.5l.2-.1-.2-.2z"/><path id="XMLID_185_" class="st0" d="M280.8 429.2h.2v.2h-.2z"/><path id="XMLID_184_" class="st0" d="M279.6 448.6v-.2l-.2-.2v-.2h-.2v-.3h-.5v-.5h-.1v-.4h-.4v-.1h-.2v-.2l-.1-.2h-.2v-.1h-.2v-.4h-.1v-.2h-.2v-.1h-.2v-1.1h-.5v-.1h-.2v-.2h-.1v-.2l-.2.2h-.2v-.2h-.3v-.1h-.4l-.1-.2h-.4v-.2h-.2v.2h-.1v-.2h-.5v-.2h-.4v-.1h-.2v-.2h-.3v-.2h-.3v-.1h-.4v.1h-.3v.2l-.2-.2v-.1h-.2v-.4h-.3v-.2h-.4v-.1h-.1v-.4h-.4v-.3h-.1v-.2h-.2v.2h-2.3v-.2h-.5l.2.2v.2h.2v.1h.1v.4h.4v.3h.2v.2h.3v.3h-.2v.2h.6v.2h.1v.1h.2v-.1h.3l.2.1v-.1h.4v.3h.1v-.2h.4v.2h.1v.4h.2v-.4h.2v-.2h.2v-.1h.1v.1h-.1v.4l.1.2h.5v.3h.2v.9h.2v.5h.2v.1h.1l-.1.2h-.2v.4h-.2v.1h.2l-.2.2v.2l-.2.1v.4h.2v.3h.2v.2h.2v.2h.1v.3h.2v.4h.3v.1h.7v.2h1.2v-.2h.5v.2h.2v-.2h.9v.2h.3v.2h.5v.1h.2v.2h.2l.1.2h.2v.2h.4v.1h.3v-.1h.3v-.2h.2v-.2h.2v-.3h.2v-.4h-.2z"/><path id="XMLID_183_" class="st0" d="M226.8 450.3h.2v.2h-.2z"/><path id="XMLID_182_" class="st0" d="M232.6 452.5v-.2h-.2v-.1h-.1v-.2h-.2v-.2h-.2v-.2h-.2v-.1h-.3v-.2h-.5v-.2h-.2v-.1h-.7v-.2h-.3v-.2l-.2-.2h-.2v-.1h-.1v-.2h-.6l-.1.2h-.5v.1l-.2.2h-.2v.2h-.2v-.2h-.3v-.2h-.2v.4h.2v.7h.2l.1.1v.4h.2v.2h.2v.1h.2v.2h.1v.2h.7v.1h.5v.2h.2v.2h.5v.2h.9v.1h1.2v-.1h.5v-.2h.2v-.5h-.2z"/><path id="XMLID_181_" class="st0" d="M317.1 454.4h.2v-.2z"/><path id="XMLID_180_" class="st0" d="M277.5 473.3h-.1v-.2h-.2v-.2h-.2v-.3h-.2v-.2h-.3v-.2h-.2v-.1h-.1v-.2h-.2v-.2h-.4v-.3h-.1l-.2-.2v-.2h-.3v-.1h-.2v-.2h-.2v-.2h-.2v-.2h-.1v-.1h-.2v-.2h-.2v-.2h-.3v-.1h-.2v-.4h-.2v-.2h-.1v-.1h-.2v-.2h-.2l-.1-.2h-.2v-.1h-.4v-.2h-.1v-.2h-.2v-.2h-.2v-.3h-.1v-.2h-.2v-.1h-.2v-.4h-.2v-.3h-.1v-.2h-.2v-.2h-.2v-.1h-.1v-.4h-.2v-.2h-.2v-.1h-.2v-.4h-.1v-.7h-.5v-.5h-.2v-.5h-.2v-.2h-.2v-.1h-.5v.1h-.2v-.1h-.1v-.2h-.2v.2h-.3v.8h.5v.2h.1v.2h.2v.5h.2v.5h.2v.7h.1v.3h.2v.2h.2v.2h.2v.3h.1v.2h.2v.8h.2v.2l.1.2v.2h-.1v.1h.3v.5h.4v.2h.1v.5h.2v.2h.2v.2h-.2l.2.1h.1v.2h.4v.4h-.2v.1h.2v.4h.2v.5h.3v.2h.2v.1h.1v.2l.2-.2v.2h.4v.2h.1v.1h.2v.2h.2v.2h.1v.2h.2v.1h.4v.2h.1v.2l.2-.2v.2h.2v.1h.1v.6h.2v-.4h.4v-.2h.5v-.5h.3v-.1h.7l.2.1h.5l.2.2h.3v-.2h-.2z"/><path id="XMLID_179_" class="st0" d="M325 474.6h-.1v.2z"/><path id="XMLID_178_" class="st0" d="M324.2 475.8v-.3h-.4v.3h.2z"/><path id="XMLID_177_" class="st0" d="M323.7 475.8h.2v.2h-.2z"/><path id="XMLID_176_" class="st0" d="M324.5 478.8v-.2l-.2.2z"/><path id="XMLID_175_" class="st0" d="M324.5 478.4h.2v.2h-.2z"/><path id="XMLID_174_" class="st0" d="M324.2 478.8h.2v.2h-.2z"/><path id="XMLID_173_" class="st0" d="M326.7 480.1v.2h.4v-.9h-.2v-.1h-.5v-.2h-.2l-.1-.2v-.3h-.9v.2h-.3v.1h-.2v.2h-.2v.9l.2.1.2-.1h1v.1l.2-.1h.1v.1h.2l.2.2v-.2z"/><path id="XMLID_172_" class="st0" d="M328.5 480.1l.1-.1h-.1z"/><path id="XMLID_171_" class="st0" d="M326.6 480.3h.2v.2h-.2z"/><path id="XMLID_170_" class="st0" d="M327.8 481.3h-.4v-.3h-.1v-.4h.1v-.1h.2v-.2h-.3v.2h-.6v.1h.2v.2h.2l.2.4.3.5.2-.2z"/><path id="XMLID_169_" class="st0" d="M328.1 482.4v-.4h-.2v-.3h-.3l.2.1.1.4v.3l.2.2v-.2z"/><path id="XMLID_168_" class="st0" d="M328.6 483.2l-.1.2h.1z"/><path id="XMLID_167_" class="st0" d="M236.5 414.3v-.2h-.1z"/><path id="XMLID_166_" class="st0" d="M236 414.1v.2h.4v-.2h-.2z"/><path id="XMLID_165_" class="st0" d="M234.1 414.3h-.1v-.2h-.7v.2h-.2v.1h.5v.2l.2-.2v.2h.5v-.2h-.2z"/><path id="XMLID_164_" class="st0" d="M235.3 414.4h.2v.2h-.2z"/><path id="XMLID_163_" class="st0" d="M235 414.6h-.2v.2h.5v-.2h-.1z"/><path id="XMLID_162_" class="st0" d="M273.9 416.5l.2-.2h-.2z"/><path id="XMLID_161_" class="st0" d="M287.3 427.8h.2v.2h-.2z"/><path id="XMLID_160_" class="st0" d="M283 428h.4l-.2-.2z"/><path id="XMLID_159_" class="st0" d="M282.3 428l.4.1h.1v-.1h-.1z"/><path id="XMLID_158_" class="st0" d="M282.3 428.1l-.1-.1v.1l.1.2z"/><path id="XMLID_157_" class="st0" d="M281.1 428.8v.2h.2v-.3h-.2z"/><path id="XMLID_156_" class="st0" d="M281 429h.1l-.1-.2z"/><path id="XMLID_155_" class="st0" d="M280.8 429h.2l-.2-.2z"/><path id="XMLID_154_" class="st0" d="M176.5 348.6v-.2h.2v-.5h.2v-.2h-.2v-.2h.2v-.5h-.4v1h-.2v.7h.2z"/><path id="XMLID_153_" class="st0" d="M281.3 427.3h-.2l.2.2z"/><path id="XMLID_152_" class="st0" d="M273.2 417.2l.2-.2h-.2z"/><path id="XMLID_126_" class="st0" d="M450.4 399v-.2l-.2-.2.2-.2-.2-.2v-1l-.2-.2h-.2v-.2h-.2l-.2-.2-.2-.2-.2-.5v-.3l-.2-.2-.2-.2-.2-.3h-.2l-.2-.2-.3-.2v-.2h-.9l-.3-.2-.2-.2v.1l-.2-.2-.2-.2-.2-.2h-.2v-.2h-.2v-.2h-.2l-.2-.2v-.2h-.2v-.2h-.8.1v-.2h-.2v-.2h-.2v-.2.2-.2h-.2l-.2-.2v-.2h-.2l-.2-.2h-.2l-.2-.2h-.4v-.2h-.2v-.4h.2v-.2h-.2l-.2-.2-.2.2h-.6v.2h-.6l-.2-.2-.2-.2-.2-.2v-.6l.2-.2v-.2.2-1.2l.2-.2-.2-.5v-.7l-.2-.3-.3-.2-.2-.5-.2-.3-.2-.5h-.2l-.3-.2-.3-.3-.2-.3-.3-.2v-.2l.3-.2v-.2h.2v-.5l-.3-.2-.3-.3v-.2l-.2-.2v-.6l-.2-.2v-.2h-.2l-.2-.2h-.2v-.4h.2v-.2h.2v-.2h-.2v-.4h-.2v-.4h-.2v-.2h-.2v-.6h.1v-.8h-.2v-.2h-.8v-.2.2l-.2-.2h-.2v-.2h-.6v-.2h-.2v-.2h-.2v-.2l-.2-.2-.2-.2-.2-.2-.2-.2h-.2l-.2-.2-.2-.2h-.2v.2-.2h-.2v-.2l-.2-.2v-.2h-.2v-.4h-.2v-.4h-.2v-.8l-.2-.2v-.4l-.2-.2v-.2l-.2-.2v-.2l-.2-.2h-.2v-.2h-.2v-.2h-.2v.4h-.2.6v-.2h-.4v-.2h-.2l-.2-.2v-.2h-.2v-.4l-.2-.3v-.4l.2-.2v-.5l.2-.2v-.2l-.2-.3v-1l.2-.2v-.2l-.2-.2v-.1l-.2-.2v-.8h.2v-1.2l-.2-.2v-.2h-.2l-.2-.3h-.2l-.3-.3-.2-.2-.2-.2-.3-.2-.2-.3h-.2v-.2l-.2-.2-.3-.2-.3-.3-.3-.3-.3-.3-.4-.4-.2-.2-.3-.2-.2-.2-.2-.2-.2-.2-.2-.2-.3-.3-.5-.5-.5-.3-.2-.2-.2-.2-.5-.5-.3-.2-.3-.3-.2-.3-.3-.3-.5-.5h-.2l-.5-.5-.5-.5-.3-.3-.5-.3-.3-.3-.2-.2-.5-.5-.2-.2-.3-.2-.3-.3-.2-.3h-.2l-.2-.2-.2-.2-.2-.2-.3-.3-.3-.2-.3-.3-.3-.3-.2-.2-.5-.5-.3-.3-.3-.3-.6-.6-.3-.2-.5-.5-.3-.3-.3-.3-.5-.3-.3-.5h-.2l-.2-.2-.3-.3-.2-.2-.2-.2-.3-.2-.2-.3-.3-.2-.3-.3-.5-.5-.2-.2h-.2l-.3-.5-.3-.2-.3-.3-.3-.3-.5-.3-.2-.3-.3-.2-.2-.2-.5-.5-.2-.2-.2-.2-.2-.2-.2-.2-.3-.3h-.2v-.2h-.5l-.3-.3-.3-.3-.5-.5-.5-.5-.5-.3-.3-.5-.5-.3-.3-.3-.5-.3v-.2h-.2v-.2l-.5-.3v-.2h-.2v-.2h-.2l-.2-.2-.2-.2-.2-.2-.2-.2-.2-.2-.3-.3-.3-.3-.3-.2-.3-.3-.3-.3-.3-.3-.3-.3-.3-.2-.3-.3-.2-.3h-.2l-.2-.2-.2-.2-.2-.2-.2-.2-.2-.2h-.2v-.2l-.3-.2-.3-.3-.3-.3-.3-.3-.5-.5-.5-.5h-.2v-.2h-.5l-.3-.3-.3-.3-.5-.5-.2-.2-.3-.3h-.2l-.2-.3h-.2v-.2h-.2l-.2-.2v-.2h-.2l-.2-.2-.3-.3-.5-.3v-.2l-.2-.2-.5-.5-.3-.2-.3-.3-.3-.2-.2-.3-.5-.3-.3-.3-.2-.2-.2-.2-.2-.2-.3-.3-.3-.3-.3-.2-.3-.3-.3-.3-.2-.2-.3-.3-.3-.3-.7-.9v-.2l-.3-.3-.3-.3h-.2l-.3-.3-.2-.2h-.2v-.2l-.3-.3-.3-.2v-.2h-.2v-.2h-.2v-.2h-.2l-.2-.2-.2-.2-.3-.3-.3-.3-.3-.3-.5-.5-.5-.3-.2-.2-.5-.3-.3-.3-.2-.2-.2-.3-.2-.2-.3-.2-.3-.3-.3-.3-.3-.2-.2-.2-.3-.3-.3-.3-.3-.3-.5-.3-.2-.3-.5-.3v-.2h-.2v-.2l-.3-.2-.2-.2v-.2l-.3-.2-.2-.2-.2-.2-.2-.2-.3-.3-.5-.3-.3-.3-.3-.3-.9-.8-.3-.3h-.2l-.3-.5-.5-.3v-.2l-.7-.3-.3-.5-.3-.2-.2-.2-.3-.5-.3-.2-.3-.3-.3-.2-.2-.3-.3-.2-.3-.3-.3-.3-.2-.2-.3-.3-.3-.2v-.2l-.3-.3h-.2l-.2-.3-.5-.3-.3-.2v-.2h-.2v-.2l-.5-.5-.5-.3-.3-.3h-.2v-.2l-.2-.2-.5-.5-.5-.3-.2-.3-.3-.2-.3-.3-.2-.2-.3-.3-.3-.3-.5-.3-.3-.3-.3-.3-.2-.2-.3-.3-.5-.3v-.2l-.3-.2-.3-.3-.5-.5-.5-.5-.3-.2v-.2l-.3-.2-.3-.3-.2-.3-.3-.2-.3-.3-.3-.3-.3-.2-.2-.3h-.2l-.2-.2-.2-.2-.3-.3-.3-.2-.2-.3-.3-.3-.3-.3h-.2l-.3-.3-.3-.3-.2-.2-.3-.3-.5-.3v-.2l-.3-.2-.3-.3-.3-.3-.3-.3-.2-.2-.5-.3-.3-.3-.3-.3-.5-.5-.3-.3-.2-.2-.3-.3-.3-.3-.3-.2v-.2h-.2l-.2-.2-.5-.5-.5-.3-.3-.5-.5-.3-.2-.2-.3-.3-.5-.5-.2-.2-.3-.3-.3-.2v-.2l-.5-.3-.3-.3-.2-.2-.2-.2-.3-.2-.5-.5-.5-.5-.3-.3-.3-.3-.5-.3-.3-.3-.3-.3-.5-.5-.5-.3-.3-.3-.2-.3h-.2l-.2-.2-.2-.2-.3-.3-.2-.2-.3-.3-.3-.2-.2-.3-.5-.3-.2-.2-.3-.3-.3-.2-.3-.5-.5-.3-.2-.3-.3-.2-.2-.2-.2-.2-.3-.3-.3-.2-.3-.3-.2-.2-.2-.2-.2-.2-.3-.3-.5-.3-.3-.3-2.5-1.9-.3-.5-.5-.3-.3-.2-.2-.3-.5-.5h-.2v-.2l-.5-.3-.3-.3-.3-.3-.5-.5-.3-.2-.2-.3-.5-.3-.5-.5-.2-.2-.5-.5-.5-.3-.3-.5h-.4l-.3-.3-.2-.2-.3-.2-.2-.3-.3-.2v-.2l-.3-.2v-.2l-.3-.2-.3-.3-.3-.2-.2-.3-.3-.2-.5-.5-.5-.3v-.2h-.2l-.2-.3-.3-.3-.3-.2-.5-.5-.2-.3-.3-.2-.3-.3-.2-.2-.3-.2v-.2l-.3-.2-.2-.3-.3-.2-.3-.3-.3-.3-.3-.3-.3-.3-.3-.2-.2-.2-.5-.5-.5-.3-.3-.5-.5-.3-.3-.3-.2-.2-.3-.3-.3-.2v-.2l-.2-.2-.2-.2-.3-.2-.2-.3-.3-.2-.2-.3-.5-.3-.5-.5-.5-.3-.3-.3-.5-.3-.3-.3-.2-.2-.2-.2-.3-.3-.3-.3-.3-.3-.3-.3H293v-.2l-.2-.2-.2-.2-.2-.2-.2-.2-.3-.2-.2-.2-.5-.3-.3-.3-.2-.3-.5-.3v-.2h-.2l-.2-.2-.2-.2v-.2h-.2l-.2-.2-.3-.3-.5-.5-.3-.2-.2-.2-.3-.3-.3-.3h-.2l-.3-.3-.5-.5-.5-.5-.3-.3-.3-.3h-.2l-.2-.3-.3-.3-.5-.3-.5-.5-.2-.2-.2-.2-.3-.3-.3-.2-.2-.2-.3-1.2-.3-.3-.3-.3-.2-.2-.5-.5-.2-.2-.3-.2-.3-.3-.3-.3-.2-.2-.3-.3-.3-.3-.5-.3-.3-.3-.2-.2-.5-.3-.3-.5-.2-.2h-.2l-.3-.5-.5-.3h-.2l-.2-.2v-.2l-.5-.5-.3-.3h-.2l-.3-.3-.2-.2-.3-.3-.3-.3-.2-.2-.3-.3-.3-.2v-.2l-.3-.2-.3-.3-.2-.2-.3-.3-.3-.2-.3-.3-.3-.3-.3-.3-1.2-1-.5-.3-.5-.5-.2-.2-.2-.2-.5-.5-.3-.3-.3-.3-.5-.3-.3-.5-.7-.5-.5-.5-.3-.2-.2-.3-.3-.3-.3-.2-.2-.2-.5-.3-.3-.3-.2-.2-.2-.2-.3-.3-.3-.3-.2-.2-.3-.3-.3-.2-.2-.3-.3-.2-.2-.3-.3-.2-.3-.3h-.2v-.2l-.3-.2-.2-.3-.5-.3-.3-.3-.2-.2-.3-.3-.5-.5-.5-.3-.5-.5-.5-.5-.5-.3-.5-.5-.5-.3-.2-.2-.3-.5-.5-.3v-.2l-.5-.3-.3-.3-.5-.3-.3-.3-.3-.3-.2-.2-.3-.3-.2-.2-.5-.3-.3-.5h-.2l-.2-.3-.3-.2-.5-.5-.2-.2-.2-.2-.3-.3-.3-.3-.5-.3-.3-.3-.2-.2-.2-.2-.3-.3-.3-.3h-.2v-.2l-.3-.2-.2-.3h-.2l-.5-.3v-.2l-.5-.5-.3-.3-.3-.2-.3-.5-.5-.3-.3-.3-.2-.2-.3-.3-.5-.3-.2-.2-.3-.3-.3-.3-.3-.3-.5-.3-.5-.5-.5-.5-.3-.2-.3-.3-.2-.3h-.2l-.2-.2-.2-.2-.3-.3-.2-.2-.5-.3v-.2h-.2v-.2l-.3-.2-.3-.3-.3-.3-.3-.3-.3-.3-.3-.2-.3-.5-.5-.3-.5-.5h-.2l-.3-.5-.5-.3-.3-.3-.2-.2-.3-.3-.2-.2-.2-.2-.5-.3-.3-.3v-.2h-.2l-.3-.3-.5-.5h-.2l-.3-.3-.3-.3-.5-.5-.5-.5h-.2l-.2-.2-.2-.2-.2-.2v-2H224l-.2-.2-.3-.3-.3-.3-.2-.2-.5-.3-.3-.3-.2-.3h-.2l-.3-.3-.3-.3h-.2v-.2l-.2-.2h-.2l-.2-.2-.2-.3-.5-.3-.3-.3-.5-.5-.2-.2-.5-.3-.2-.3-.3-.2-.2-.2-.2-.2h-.2v-.2l-.2-.2h-.2l-.5-.5-.3-.3-.3-.3-.3-.2-.3-.3v-6.8l.2-.3v-9.7l.2-.3v-5.2l.2-.5v-5.7l.2-.5v-7.2l.2-.5V126l.2-.3V121l.2-.5v-7.2l.2-.5v-.9.1-5.4l.2-.7v-7.5l.2-.2v-10l.2-.3V75.2l.2-.2v-9l.2-.5v-7.9l.2-.7v-8.2l.2-.3v-6.9l.2-.7v-7.3l.2-.7v-9.3l.2-.9V19h-12l-.2-.2H201l-.7-.2h-6.7l-.7-.2H189l-.5-.2h-7.1l-.3-.2h-2.7l-.7-.2h-2.2l-.5-.2h-3.1l-.3-.2h-6.1l-.3-.2h-3.1l-.2-.2h-2.7l-.2-.2h-3.2l-.3-.2h-2.7l-.5-.2H150l-.5-.2h-2.7l-.5-.2h-3l-.2-.2h-2.5l-.3-.2h-1.6l-.5-.2h-.2v.2h-.2v-.2h-3.3l-.5-.2h-2.5l-.5-.2h-3.2l-.5-.2h-7.5l-.5-.2H115v-.2h-4.7l-.3-.2h-2.5l-.5-.2h-2.3l-.3-.2h-.7l-.7-.2h-.9l-.3-.2h-1.4l-.5.2h-6.3l-.5-.2h-1.4l-.4.6h-2.9l-.4-.1h-3.3v-.2H83l-.3.2h-1.2l-.5-.2h-2.2v-.2h-3.3l-.5-.1h-2l-.7-.2h-2.7L69 13h-1.5l-.7-.2h-1.9l-.3-.2h-1.9l-.2-.2h-.7v.6h.2v1.2l-.2.2v.8h.2v.2h.2v.6H62v.2l-.2-.2v1.2-.2l-.2.2v1h-.2v.8h-.2v.6H61v.4h-.2v.6l-.2.2v.4h-.2v.4l-.2.2v.4H60v.4h-.2v.4h-.2v.2h-.2V23h-.2v.6h.2v.2h.4v.2h.4v.2h.2v.4h.2v.2h.2v.2h.2l.2.2h.2v.2h.6v.2h.2l.2-.2h.2v.2h.2l.2.2v.6h.2v.4h.2v.6l.2.2h-.2v.4h.2v.8h-.2v.2h.2v.6h-.2l.2.2v.4l.2.2h-.2v.2h.2v.2h.2V30v1h.2v.8l.2.2v.2h.2v.4h.2v.4h-.2v.4h.2v.8h-.2v.6h.2v.4h.2v.2-.4.2h.2v2.4h.2v1l.2.2v2.6h-.2V41v1.2h-.2v1H65v1h-.2v1h-.2v.8h-.2v.2-.2.4h-.2v.6H64v1.4h-.2v.6h-.2v.8h-.2v.6h-.2v1H63v.8-.2.2h-.2v.6h-.2v.2h-.2v.6h-.2v.4H62v.8h-.2v.2h-.2v.2h-.4l-.1-.2v.2h-.2v.6h-.2v.2h.2v.2h.2v.2h-.2V58h.2v.2-.2.6h-.2v.4h.4v.4h.4v.2h.2v.2h.1v.2h.2l.2.2v.6h.2v.2h.2-.3v1.2h-.2v.8h-.2v.8l-.1-.2v.4h-.2v.8h-.2v.4h-.2v.6h-.2v.4l-.2.2v.4h-.2v.4l-.2.2v.4h-.2v.4h-.2v.4l-.2.2v.4h-.2v.4h-.2v.2l-.2.2v.4h-.2V70l-.2.2v.2h-.2v.4h.2v.2h-.2v.2l-.2.2v.2h-.2v.4h-.2l-.2.2v.6h-.2v.2h-.2v.4h-.2v.4H57v.2h.2v.2h.4v-.4h.2v-.2h.2v-.2h.2v-.2h.2V73h.2v-.2h.2V72h.2v-.8h.2V71h.4v-.2h.2V70h.2v-.2h.2v-.2h.2v-.4h.4v-.4h.8v.4h.4v.2h.2v.2H62v-.2h.4v-.2h.2v.2l.2.2h.2V71h-.2v.2h-.2l-.2.2h-.2v.2h-.4v.2h-.4v.2h-.6v-.2H60v-.2h-.4v.2h.2v.2h-1 .2v.8h-.2v.2h-.2v.6h-.4v.6l.2.2v.4h-.2v.2l-.2.2h-.4v.2h.2v.4h-.2v.4h-.2v.2-.4h.2v.8h-.2v.2h-.2l-.2.2v.1h-.2v-.2h-.6V77H56v-.2h-.4l.2-.2v-.2h.2V76h-.2v.2l-.2.2v.2h-.2v.2l-.1.2v.2h-.2v.2l-.2.2v.2h-.2v.2h-.2v.2h-.2v.4l-.5 1h-.2v.4h-.2v.2h-.2v.4H53v.4-.1.2h-.2v.4h-.2v.4l-.1.1v.2l-.2.2v.4h-.2v.2H52v.4h-.2v.4l-.2.2v.2h-.2v.4h-.2v.4H51v.4h-.2v.4h-.2v1.4h-.2v.6h-.2v.4-.2H50v.8h-.2v.2h-.2v.4h-.2v.2h.2v.4h.2-.2v.2h.2v.4h.2v.2l.2.2v.2l.2.2v.2h.2v.2h.2v.2h.2v1.2-.2 1l.2.2H51v.6h.2v.2l.2.2V95v.4h.2v.6h-.2l-.2.2v.8H51v.4h-.2v1.2h-.2v.2h.2v.2h.2v.2h.2V99l.2.2h.2v.2h.2v.2h.2v.4l.2.2v.2h.2v.2h.2v.2h.2v.2l.2.2v.2l.2.2v.2h.4v.2h.2v.2h.4v.4h.2v.2h.2v.2h.2l.2.2h.2v.2h.2l.2.2h.2v.2l.2.2h.2v.2H56v.2h.2v.4h.2v.2h.2v.4h.2v.4h.2v.2l.2.2h.2v.2h.4v.2h.4v.2H58h.2v.2h.2l.2.2h.4v.2h.2v.2h.2v.2h.2l.2.2h.2v.4h.2v.4h.2v.2h.2v.4h.2v.2l.2.2v.4h.2v1H61v1.2h.2v.4h.4v-.2h.4v.2h.2v.2H62h.2v.2h.2v.2h.2v.4h.2v.2h.2v.8h.2v.2h.2v.2h.2v.2l.2.2v.2h.2v.4h.2v.2h.2v.4h.2v.4h.2v.6h.2v1h.2v.2h.2v.2h.4v.2h.2v.2h.2v.4h.2v.6h.2v.6h.2v.8h.2v.4h.2v.2h.2v.4h.4v.2h.2v.2h.2v.2H68v.2h.4v.2h.2v.2h.4v1.8h.2v3.2h.2v.8h.2v.2h-.2v.6h.2v.2h.2v.2h.2l.2.2h.2v.4h.2v.6h.2v.2l.2.2v1.4h.2v1.4H71v.2h.2v1.6H71v1.2h.2v.2H71v.4h-.2l.2.2v.4h.2v.2h.2v.4h-.2v.8l-.2.2v.6h-.2v.4h-.2v.4l-.2.2v.4h-.2v.2l-.2.2v.4l-.2.2v-.2h-.2v1h-.2v.8h-.2v.2l-.2.2v1.2h.4v.4H69v.4h.2v.2H69v.2h-.2v1.6h-.2v.2h.2v.4h-.2v.4h.2v.2h-.2v.2h-.2v.4h-.2v.2h.2v.2h.2v.2h.2v.6h.2v.2h.2v.4h.2v.4H69v.6h.6v.8h-.2v-.2h-.2v1h.2v.2h.2v.2h.2v.6h.2v.2h-.2v.2h.2v.6h.2v.2H70v.2h-.2v.2h.2v.2h.2v.2H70v.2h.2v.4H70v.4h.2v.8h.2v.2h.2v.2l.2.2v.4h.2v.8h.2v.2h.2v.4h-.2v.2h.2v.2h-.2v.4h.2v-.2h.2v.4h.4v1h.2v.8h.2v1.2h.2v1h.2v.8h.2v1.6h-.2v.2h.2v.2l-.2.2v.6h-.2v.4h-.2v.4h-.2v.4H72v.4h-.2v.4h-.2v.2h-.2v.4h-.2v.2h-.6v.4h.2v.6h.2v1.2h.6v.2h.2v.4h.2v.4h.2l.2.2v.2h.2v.2h.2v.4h.2v.2h.2v.2h.2v.2h.4v.2h.2v.4h.2v.8H74v.4h.4v.4h.2v.2h.2v.2h.2v.2h.2v.2h.2v.2h.2v.4h.2v.4h.2v.4h.6v.2h.2v.2h.2v.6h.2v.2h.4v.2h.2v.4h.2v.2h.2v.2h.2v.2h-.2v.2h.2v.2l.2.2v.2h.2v.2h.2v.4h.6v.2h.4v.4h.2v.2H80v.2h.2v.2h.6v.2h.2v.8h.4v.2h.2v.4h.2v.4l.2.2h-.2v.4h.2v.2h.2v.2h.2v.4h.2v.4h.2v.4h.2v.4h.2v.2h.2v.4h.2v.4h.2v.4h.2v.4h.4v.4h-.2v.2h.2v.2h.2v.2h.6v.2h.2v.4h.2v.2h.2v.2h-.2v.6h.2v.2h.2v.2h.2v.2h.2v.2H86h.2l.2.2v.4h.4v.2h.2v.2l.2.2h.2v.4l.3.3h.2v.2h.1v.2h.2v.4h.5v.2h.2v.2h.2v.2h.4v.2h.6v.2h.4v.2h.2v.2h.2v.2h.4v.2h.2v.2h.2v.2h.2v.2h.2v.2h.2v.2H92v.4h.4v.2h.4v.2h.2v.8h.2v.6h.2v.4h.2v.2h.2v.2h.2v1.4h.4v.2h.2v.8h.2v.2h.2v.4h.2v1.8H95v.6h-.4v.2h.2v.2h.2v.6h.2v.4h.6v-.2h-.2v-.2l-.2-.2v-.2h.2v-.6l.2-.2h-.2v-.4h.2v.2h.2l.2.2h.2v.8h.2v.2h.4v.2h.2l.2.2h.2v.2l.2.2.2.2v.2h.2v.4h.2v.2H98v.6h.4v.4h.2v.4h.2v1l-.2.2v.4h.4v-.2h.2v1.2h.2v-.2l.2-.2.2.2.2.2v.2h.2v-.2h.2v-.2h.2v.2h-.2v.6h.2v.6h.2v.4h.2v.4h.2v.4h.2v.6h.4v.6h.2v.2l.2.2v.2h.2l.2.2v.2h.2v.4h.2v.8h.4v.2h.2v.2h-.2v.2h.6v.2h.2v.2l.2.2v.2h.2v.2h-.2v.2l.2.2h-.2v-.2l-.2-.2-.2.2v-.2h-.2v-.2h-.2v-.4h-.2v-.2h-.2v-.2h-.2v-.2h-.2v-.4h-.2v-.2h-.2v-.2h-.2V207h-.2v-.2l-.2-.2h-.2v-.4l-.2-.2h-.2v-.6h-.2v-.2h-.2v-.2h-.2v-.4h-.2v-.2h-.4v-.6h-.2v-.2h-.2v-.2H99v-.2h.2v-.4l-.2-.2v-.2h-.2v-.2l-.2-.2v-.2h-.2v-.2h-.2v-.4H98v-.4h-.2v-.2h-.2v.4h.2v.4h.2v.2h.2v.6h.2v.2l.2.2v.2h.2v1h-.2v.2h.4v.4l.2.2H99v.2h.2v1.4l-.2.2v.6h-.2v.6h-.2v.6h-.2v.6h-.2v.4H98v1h-.2v.4l-.2.2v.2l-.2.2v.4h-.2v.6H97v.4h-.2v.4h-.2v.3l-.2.2v.4l-.2.3h-.6v.2h.2v.2h.2v-.2h.4v.2h1.2v-.2h-.2v-1.8l.2-.2v-.2h.2v-.2h.4v-.2h.4v-.2h1v-.2h-.4v-.4H99v-.2h-.2l-.2-.2h-.2v-.2h.2v.2h.4v-.4h-.2l-.2-.2v-.8h.2v.8h.4v-.2l.2-.2v-.6h.2v-.2h.2v.2h-.2v.6h.2l-.2.2h.2v.2h.2v-.4h.4l-.2.2v.4h-.4v.2h-.2v.4h-.2v.2h.2v.6h.6v-.2h.2v.2h.2v-.8h.4v.2h-.2l.2.2h-.2v.6h.8v.2h-.2l.2.2h.4v.2h.6v.2h.2l.2.2h.2v.2h.2l.2.2h.2v.2h.2v.2h.2v.4l.2-.2v.2h.2l.2.2v.2l.2.2h.2v.2h.2v.2h.2v.4h.2v.2l.2.2v.4h.2v.6h.2v.2h.2v.2h.2v.2h.2v.2h.6v.2l.2.2h.2v.2h.6v.2h-.2v.4h.2v.8h.4l.2.2h.2v.2h.2v.2h.2v-.2h.2v-.2h.4v-.2h.2v-1.8h-.2v-.6h-.2v-.2h.2v.2h.4v.2h.2v.2h.2v.2h.2v.2l.2.2h.2v.2h.2v.2h.2v.4h.2v.2h.2l.2.2v.2h.2v.4h.2v.2h.2v.2h.2v-.2h.2v.2h.6v.2l.2.2v.2h.2v.4h.6v.2h.2v.2h.4v.4h.2v.2h.2v.2h.2v.4h.4v.2h.2v.4h.2v.2h.2v-.2h.9v.2h.4v-.2h.2v-.2l.2.2.2-.2v.2h.2v-.4h.2v-.2h.2l-3.1-1v-.2h-.2v-1h-.2v-.2h-.4v-.2h-.2v-.6h-.4v-.2h-.2v-.2h-.2v-.4h-.2l.2-.2h-.2v.2h.2v.2h.2v.4h.2v.2h.4v-.4h.2l-.2-.2v-.2h.2v.2h.6v.2h.2v.2h.2l.2.2v.8l.2.2.2.2h.2v-.2h-.2v-.4h.2v.2h.4v-.2h.2v-.2h.4v-.2h-.2v-.2h-.2v-.6h-1v-.2h-.4v-.2l-.2-.2v-.6h-.2l-.2-.2h-.4v-.2h-.2v-.8h-.4v-.2l.2.2v-.2h.2v.2h.4v.2h.2v.2h.2v-.2h.2v-.2h.2v-.2h-.2l-.2-.2v-1h-.2v-.2h.8v-.4h.2v-.2l.2-.2h.2v.2h.8v-.4l-.2-.2v-.2h-.6v-.2h-.2v-.2h-.4v-.2h-.4v-.4h-.2v-.2h-.6v.4h.2v-1h.2v-.4h-.2v-.2h.2l.2.2v-.6h.2v-.4l.2-.2v-1.5h-.2v-.6l.2-.2h.6v-.2h1.4v-.2h.4v-.2h.2v-.2h.4v-.2h.4v-.2h.2l.2-.2v.3l-.2-.2v-.2l-.2-.2h.2v.2h.2v.4h.6v.2h.4v.2h.4v.2h.2v.2h.2v.2h.6v.2h.2l.2.2h.2v.2h.2l.2.2.2.2h.2v.2h.2v.2h.2v.2h.2v.2h.2v.2l.2.2v.2h.2v.2l.2.2v.2h.2v.8l.3.3h.2v1h-.2l-.2.2v-.2h-.2v.6h-.2v.2l-.2.2h-.4v.4h-.2l-.2.2h-1.7l-.2.2-.2.2v.2h-.4v-.2h-.2v-.2h-.4v-.2h-.6v.4h.2v.4h.2v.6h-.2v.2h-.2v.2h-.2v.2h-.2v-.2l-.2.2v.2h-.4v1h-.4v-.2h-.4v-.4h-.6v-.2h-.2v.2l.2.2v.2h.2v.4h-.2v.2h.4l.2.2v.2h-.2v.2h.2v.2h.4v.2h.4v.4h.2v.6h-.2v.2h.4v-.2h.2v.2h.2v.2h.4v-.6h.2v.4h.4l.2.2h.2v-.2h.6v.2h.4v.2h-.6v.4h.6v.4h-.2v.4l.2.2v.6h-.2v.2h.2v.2h.2v.2l.2.2v1.6h-.8v.2h-.6v.2h.6l.2-.2v.2h-.2l-.2.3-.2.2h-.8v.2h.8v.6h-.2l-.2-.2v1h.4v.2h.2v.2h.8v.2h.2v.2h.6v.2h.4v.2h.2v.2h.2l.2.2h.2l.2.2h.4v.2h-.6v.2h-.2v.2h-.2v.2h.2v.2h.2v.2l.2.2h.2v.2h-.2v.2h.2v.2l.2.2.2.2.2.2.2.2h.2v.2h.2v.2h.2v-4h.2l.3-.2h.2l-.2.2h-.2v.2h.2v.2h.4v.4h.2v.2h.2v.4l.2.2h.2v.2h.2v.4h.2v.4h.2v.8l.2.2v1.8l.2.2v1.8h.2v.4l.2.2v.4h.2l.2.2v.6h.2v.4h.2v.6h.2v1.8l.2.2.2.2v-.2h.8v-.4h.4v.2h-.2v.2h.2l.2.2h.6v.2h.2v1.6h2.6l.3.2h.2V241h1v.2h-.2v.6H136v-.2h-.8v-.2h-.2v-.2h-.2v.2h-1.4v.2h-.2v.2h.4v.2h-.6v.2h-.8v-.2h-1v-.2h-.4l-.2-.2h-.6v-.2h.2v.2l.2-.2h.2v-.2h-.6v-.2h-.2v-.2h.2v-.4l-.2-.2v-.2h.2-.2v-1h-.2v-.2h-.6v.2h-.4v.2l-.2-.2-.2-.2h-.2v-.4h-.2v-.4h-.2v.2l-.2-.2v-.2h-.2v-.2h-.2v.4h-.2v.2h-.2v-.2h.2v-.2l.2-.2h.2v-.2h.2v-.4h-.2v-.2h-.4v.2h-.2v.2h-.2v-.2h-.4v.2h-.2v-.2h.2v-.4h-.8v-.2h-.2v.2h-.2v-.2h.2v-.2h.2v-.2h-.2v-.2l-.2-.2-.2-.2h-.8.2v-.2h-.6v.2h.2v.2h-.2v-.2h-.2v-.2h-.2v-.2h-.4v-.6h-.6v.2-.4h-1.2v-.2h-.2v-.2h-.2l-.2-.2v-.2h.2v-.2h.4v.2h.4v-.4h-.2l-.2-.2h-.2l.2-.2v-.2h-.4v-.2h-.6v-.2h.4v-.2h-.2v-.2h-.2v-.2h-.2v-.2h.6v-.2h.2v-.2.2h-.2v-.6h-.2v.2h-.4v-.2h.4v-.2h.2v-.2h-.2v-.4h-.2v-1.2h.6v-.2h.2v-.2h-.2v-.2h.2v.4h.8l-.2-.2h.2l-.2-.2h.2v-.2h-.2v-.2h-.6v-.4h.4l-.2-.3h-.2v-.2l-.2-.2v-.6h-.2v-.6h.2v-.2h-.2v.1-.2h.2v-.4l-.2.2v-.2l-.2-.2v-.2h-.2v-.2h-.2v-.2h-.2v-.2h-.4l-.2-.2v.2l-.2.2-.2-.2v.2h-.4v-.2l-.2.2h.2-1v-.2h-.2v.2h-.2v.4h-.2v.4h-.4v.2-.2h-.4v.2h-.2v.2h-.2v1.4h.2v.2h-.2l.2.2v2.2h.2v1h.2v4h-.2v1h-.2v.6h-.2v.2h-.2v-.2h-.2v.2h-.2v1h-.2v.2h.2v.2h-.2v.2h.2v1.2h-.2v1.4h.2v.6h.2v.2h.2v.2h.2v.6h.2v-.4h.2l.2-.2v.2h.2v-.2l.2.2h.4v.2h.2v.2l.2.2v.2h.2v.4l.2.2v1h.2l-.2.2h.2v1l-.2.2h.2v.6h.2v.2h.2v.6h.2v.6h.2v.8h.2v.2h.2v.4h.2v1h.2v1.8h-.2v1.6h-.2v1.2h-.2v.8h-.6l.2.2v.2h-.2v.4h-.2v1h.2l-.2.2h.2v.2h.2v1.2h.2v.2h-.2v.6h.2v.2h.2v.4h.2v.2h.8v.2h.2v.2h.2v.2h.2v.6l.2.2v.6h.2v.2h.4v.4h.2v1.2h.4v.2h.4v-.2h.4l.2.2h.2v.2h.2v.2h.2l.2.2h.2v.4h.2v.2h.2v.4h.2v.2l.2.2v.2h.2v.4h.2v.4h.2v.4h.2v.2h.2v.2h.2v.4h.2l.2.2v.4l.2.2v.2l.2.2h.2v.2h.2l.2.2v.2h.4v.2h.2v.2h.2v.2h.2v.4h.4v.2h.2v.2h.2v.2h.2v.2h.2v.2h.2v.2h.4l.2.2v.2h.2v.2h.4v.2h.4v.2h.2l.2.2h.2v.2h.8v.2h.6v.2h1.4v-.2h.4v.2h.4v-.4h.2l-.2-.2h.2l.3-.2h.2v.2h.6l.2.2.2-.2h.2v.2h.2v.2h.4v-.2h.4v-7.4h.2v-.2h.2v-.2l.2.2v-.2h.2v-.2h.8l.2.2h.2l.2.2h.2v.2h.4v.2h.2v.2h.2v.2h.2v.2h.2v.2h.2v.2l.2.2.2.2v.2h.2v.4h.2v.2l.2.2v.2l.2.2v.4h.2v.3h.2v.2l.2.2v.2l.2.2v.2l.2.3v.2l.2.2v.4h.2v.4h.2v.4h.2v.6h.2v.6h.2v.6h.2v.4h.2v1h-.2v.6h-.2v.8h-.2v.8h-.2v1H141v2l-.2.2v.8l-.2.2v.4l-.2.2v.4h-.2v.6h-.2v.8h-.2v.2l-.2.2v.2h-.2v.4h-.2v.2h-.2v.4h-.2v.2h-.2v.2h-.2l-.2.2h-.4v.2h-.4v-.2h-.2v-.2h.2v-.2h-.4v-.4h-.2V283h-.4v-.2h-.2v-.2h-.2v-.2h-.2v-.4l-.2.2v-.2h-.4v.6h-.2v.4l-.2.2v.2h-.2v.2h.4l-.2-.2v.4h-.2v.6h-.2v.6h-.4v.4h.2v.4h.4v.2h.2v.2h.2v.2h.2v-.4h.4l.2.2.2.2v.4l.2.3h-.2v.4h.2v.6l.2.2h-.2v.2h-.4v.2h-.2v-.2h-.2l-.2-.2v.2l-.2-.2v.4h.2v.2h.2v.4h.2v.8h-.2v.6h.2v.8h.2v.2h.2v.4h.2v.4h-.2v.4h.2v.6h.2v.4h.2v.6h-.6v.2h.2v.2h-.2v.2h.2v.4h.2v.2h.2v.6h.2v.2h-.2v.4h-.2v.2h.2v.8h-.2v.2h.2v.4h.2v.2h.2v.8h-.2v1.2h-.2v.2h-.2v.2h.8v.2h.2v.4h.2v.2h.2v.2h.2l.2.2v.2h.4l.2.2v.2h.2v.4h.2v.4h.2v.8h.4v.4h.4v.2h.2v.2h1v.2h.2v.2h.6v.2h.2v.2h.2v.2h.4v.2l.2.2h.4v.2h.2v.2h.4v.2h.2v.2h.4v.2h.2v.2h.2v.4h.2v.2h.2v.4h.2v.2h.4v.2h.2v.2h.2v.2h.2v.4h.4v.4h.2v.2h.2v.2h.2v.4h.2v.4h.2v.2h.2l.2.2v.4h.2v.4h.2v.4h.2v.8h.2v.4h.2v.2h.2v.4h.4v.2h.2v.6h.2v.2h-.2v.2h.2v.4h.2v.2l.2.2v.4h.2v.4h.2v.2h.2V313h.2v.2h.8v.2h.6v.2h.2v.2h.2v.2h.6v.2h.2v.2h.2v.6h.2v.2h.2v.8h.2v1l.2.2v.4l.2.2v.6h.2v.2h.2v.2h-3v.4h-.2v.2h.2v.2h.2v.2h.2v.2h-.2v.2h.2v1h.4v.2h.2v.4h.2v.2h.2v.2h.4v.2h.2v.2h.4v.2h.2v.2h.2v.6h.2v.2h.2v.2h.2v.4h.2v.4h.4v.2h.2v.4h.4v.2h.2l.2.2h.2v.2h.2v.4h.2v.2h.2v.2h.2v.2h.2v.4h.2v.4h.2v.6h-.2v.2h.4v.2l.2.2h-.2v.6h.2v.2h-.2v.2h.2v.2h-.2v.4h.2v.4h-.2v.2h.2v.2h.2v.2h.2v.4h.4v.2h.2v.6h.2v1.2h.2v-.2h.2v.2h.8v.2h.2v.2h.2v.2h.4v.2h1.2v.2h.2v.2l.2.2h.2v.2h.2v.2h.2v-.4h.8v.2h.2l.2.2h.2v.2l.2.2v.4h.2v.4h.2v.2h.2v.4h.2l.2.2h.2v.2h.2v.4h.2v.4h.2v.4h.2v.4h.2v.4h.2v.4h.2v.6h.2v.2h.2v.2l.2.2v.2h.2v.2h.2v.2h.2v.2h.2v.4h.2v.2h.2v.2h.2v.2h.4v.2h.2v.4h.2v.4h.4v.2h.2v.2h.2v.2h.2v.4h.2v.2h.2v.4h.2v.2h.4v-.2h.4v.2h1v.2h.2v.2h.6v.4h2.2v.2h.2v.2h.2v.2h.2v.2l.2.2v.2h.2v.4l.2.2v.4h.2v.6h.2v1.6h.4v.2h.2v.6h.2v.2h.2v.8h.4v.2h.2v.2l-.2.2h-.2v-.2h-.2v.4h.2v.2h-.2v.2h-4.6v.2h-.4v.2h-.2v-.2h-.2v1h-.2v.4h-.2v.4h-.2v.6h-.4v1l.2.2v.6h.2v.2h.2v.2l.2.2h.2v.2h.2v.4h.2v.2h.2v.2h.2v.2h.2v.2h.2v.2h.2v.2h.4v.2h.2v.2h.6v.2h.2v.2h.2v.2h.4v.2h.4v.2h.4v.2h.2v.2h.2v.2l.2.2h.2v.2h.2l.2.2h.2v-.8h.2v-.2h.6v-.2h.2v.2h.4v.2h.4v-.2h.2v.2h.6v.2h.2v.2h.2v.2h.2v.2h.2v.2h.4v.2h.6v.2h.4v.2h.2v.2h.2v.2l.2.2v.4h.2v.8h.2v4h-.2v1.4h-.2v.8h-.2v.8h-.2v.8h-.2v.6h-.2v.8h-.2v.6h-.2v.6h-.2v.2h-.2v.2h.2v.8h-.2v.4l-.2.2.2.2h1v.2h.2v.4h.2v.8h.4v.2h.2v.2h.2l.2.2v.2h.2v1.6l-.2.2v.6l-.2.3v.6h-.2v.8h-.2v.4h-.2v.6h-.2v.6h-.2v.4h.2v.2h.2v.8h.4v.2h.2v.4h.2v.4h.2v.4h.2v1.2h-.2v.6l-.2.2v.4l-.2.2v.4l-.2.2v.4h-.2v.6h-.2v.6h-.2v.4h-.2v.4h-.2v.6h-.2v1h-.2v.8h.4v.2h-.2v.2h.2v.2l.2.2h.2v.2h.2v.2h.6v-.2h1.4v.2h.4v.2h.4v.2h.2v.2h.2v.2h.6v.2h.4v.2h.2v.2h.4v.2h.2v.2h.2v.2h.2v.4h.2v.4h.2v.6h.2v.2h.2v.4h.2v.2h.2v.2h.2v.8h.2v1h.6v.2h.2v.2h.2V392h.4v-.2h.4v.2h.8v-.2h.6v-.2h3.2v-.2h.8v-.2h1v-.2h1v.2h.2v-.2h.4v.2h1v-.2h.2v.2h.2v-.2h3.2v.2h.2v-.2h2.2v.2h.4v.2h.4v.2h.6v.2h.8v-.2h.6v.2h.2v-.2h1.2v.2h.4v.2l.2-.2h.8v.2l.2.2h.2v.2h.6l.2.2h.2v.2h.2v.2h.2l.2.2h.4v.2h.2v-.4h.6l.2.2h.6v.2h.2v.2h.2v.2h.2l.2.2h.4l.2.2.2.2v.2h.2v.2h.2v-.2h1v.2h.2l.2.2h.2v-.6h.4l.2-.2h2v.2h.4v.2h.4l.2.2h.4v.2h.6v.2h.4v.2h.2l.2.2h1.2v-.6h.2v-.2h.2v-.2l.2-.2v.2h.2v-.4h.4v-.2h2.6l.2.2v-.2h.4v.2l.2-.2h.4v.2h.6v.2h1.2l.2.2h.2v.2h.2v.2h.2v.2h.2v.2h.4v.2h.4v.2h.2v.2h.6v.2h.8v.2h.2v.2h.2v.2h.4v-.2h.2v.2h.4v.2h.2v.2h.2v.2h.2v.3h.6v.2h.2v.2h.2v.2h.2v.2h.2v.2h.2v.2h.2l.2.2h.2v.4h.2v.2l.2.2h1.2v.2h.2v.2l.2.2h.2v.2h.2v.2h.2v.4h.2v.2h.2v.2h.2v.2h.6v.4h.2l.2.2h1l.2.2h.2v.2h.2v.4h.2v.4h.4l-.2-.2h.2l.2.2h-.2v.4h.2v.4h-.2v-.4h-.2v.8h.2v.4l.2.3.2.3v.4h.2v.2l.2.2.2.5v.4h.2v.4h.2v.4l.2.2v.4h.2v.2h.2v.2h.2v.2h.2v.2h.6l.2.2.2.2.3.2.2.2.2.2.3.3h.2l.2.2.5.3.2.2h.2v.2h.2v.2h.4l.2.2h.8v-.2h.8v.2h.4v.2h.4v.2h.2v.2h.6v.2l.2-.2h.2v.2h.6v.2h.2v.2h.2l.2.2h.2v.2h.2v.2h1v.2h.2l.2.2h.4v.2h.4v.2h.2l.2.2h.4v.2h.4v.2h.2v-.2h.8v.2h.8l.2.2h1.2v.2h1v.2h.2l.2.2h.2v.2h.2v.2h.2v.2h.2v.2h.2v.2h.2v.2h.2v.2h.2v.2h.2v-.2h.2v-.2h.4v-.4h.2v-.2h.2v-.2h.6v-.2h.8v-.2h.2l.2-.2h1.6v.2h.6v-.2h.6l.2.2h.2v-.4h.4v-.2h.6v.2h2.6v-.2h.8v.2h.4v-.2h1v.2h1v.2h.4v.2h.2l.2.2h.2v.2h.2v.2h.2v.2h.2v.2h.2v.2h.2v.2h.2v.4h.2v.2h.2v.2l.2.2v.2h.2v.2h.2v.2h.2v.2h.2v.4h.2v.2h.2v-.2h.2v-.4h-.3v-.4h.8v.4h-.2v.4h-.2v.2h-.2v.4h.2v.4h.2v.4h.2v.4h.2v.6h.2v.4h.2v.4h.2v.4l.2.2v.4h.2v.6h.2v.4h.2v.6h.2v.6h.2v.4h.2v.2h-.2l.2.2v.2h.2v1.8H276v.4h-.4l-.2.2v.4h-.2v.2h-.2v.2h-.2v.4h-.2v.2h.2v.6h.2v.2h.2v.6h.2v.4h.4v.2h.2v.2h.2v-.2h.4V428h.4v.2h.8v.2h.2v.2h.2v.2h.2v.2h.6v.2h.4v.2h.4v.2h.4v.2h.6l.2.2v.2h.4v-.2h.2v-1.2h.4v-.4h-.2v-.4l.2-.2h-.2v-.2h.2v-.2h-.8v-.2h.6v-.2h.2l-.2-.2v-.2h.4l-.2.5v.2h.2v-.4l.2-.2v-.2h.2v.2h-.2v.2h-.2l.2.2h.2v-.2h.2v-.4h.2l.2-.2v.4l.2-.2h.4l.2-.2h.4l.2-.2v.2h.2v.2h-.2v.2H283v-.2h-.6v.2h-.4l-.2.2h-.2l-.2.2v.2h-.2v.2h-.2v1.1l.2-.2v-.2h.2v.6l.2-.2h.3l.2-.2-.2-.2v-.6h.4l.3-.2h.2v-.2h.4v.2h.2v-.4h.2v.2h.2v-.2h.2v.2l-.3.2v.4l.2.2h.2l-.2-.2v-.2h.2v.2h.2v.2h.2v-.2h.4v.2h-.2v.2h-.3v.2h.4v.2h.3v-.6l-.2-.3h.2v-.2h-.4v-.2h-.7v-.2h.6v-.2h1v.2h.8v.2h.4v.2h.4v.2h.4v.2h.2v-.4h.2v.4h.2v.2h-.2v.2h.4v.2h1v.2h-.2l.2.2h.2v.2l.2.2.2.2v.2h.2v.2h.2v.2h.2l.2.2v.2h.2v.2h.2v.2h.2v.4h.2v.2h.2v.2h.2v.2h.2v.2h.2v.2h.2l.2.2v.2h.2v.2h.2v.2h.2l.2.2h.2v.2l.3.2.3.2v.2h.2v.2h.4v.2h.2v.2h.4v.2h.4v.2h.2v.2h.2v.2h.2v.2l.2.2h.2v.2h.8v.2h.4l.2.2h.4v.2h.8v.2h.2v.2h.2v.2h.2v.2h.4v.2h.4v.2h.2v.2h.2v.2h.2v.2h.2l.2.2v.2h.2v.2h.4v.2h.4v.2h.4l.2.2h.2v.2h.2v.2l.2.2v.2h.2v.2h.2v.2h.2v.4h.4v.2h.2v.4h.2v.2h.2v.2h.2v.4h.2v.2h.2v.2h.2v.4h.2v.2h.2v.6h.6v.2h.6v-.2h.8v.2h.2v.2h.4v.2h.2v.2h.2l.2.2h.2v.2h.2v.2h.2v.2h.2l.2.2v.2h.2v.2h.2v.2h.2v.2l.2.2.2.2v.2h.2l.2.2v.4l.2.2v.2l.2.2h.2v.2h.8v.2h.2v.2h.2v.2h.4v.2h.2l.2.2h.2v.2h.2v.2h.2v.2h.2l.2.2.2.2h.2v.2h.2v.2h.2v.2h.2v.2h.2v.2h.2v.2l.2.2.2.2v.2h.2v.2h.2v.2h.2v.4h.2v.2h.2v.2l.2.2v.2h.2l.2.2v.2h.2v.4l.2.2h.2v.4l.2.2.2.2.2.2.2.2v.2l.2.2v.2h.2v.2h.2v.4h.2v.2h.2v.4h.4L317 454h.4v.2l.2.2h-.2l.2.2v.2h.2v.2h.2v.2l.2.2v.2h.2v.2h.2v.4h.2v.2h.2v.2l.2.2.2.2v.2l.2.2.2.3h.2v.4l.2.2v.2l.2.2v.2h.2v.2l.2.3v.2l.2.3.2.5.2.2v.6l.2.2v.2l.2.3v.2l.2.3v.4h.2v.8h.2l.2.2v.2l.2.2v.2l.2.2v.6l.2.3v.4h.2v.8l.2.2v1.2l.2.2v.4l.2.2v1h.2l-.2.2h.2l-.2.2v.2h.2v.4l.2.3v2.1h-.2v.4H323v.2h-.8v.4h-.2v.8l.2.2-.2.2h.2v.2h.2v.2l.2.2v.2h.4v.4h.2v.6h.2v.2h.2v-.2h.4v.4l.2.2h.2V475l.2-.2v-.2h.6v-.2h.4v1h-.8v-.2h.2v-.4h-.2v.2l-.2.2v.2l-.2.2v.2h-.2v.2h.6v.2h.2v-.4h-.2v-.2h.4v.6h-.2l-.2.2v-.4h-1v.2h.4v.2h-.3l-.2.2h-.4v1.4h-.2v.2h.2v.2h-.2v.4h.2v1.4l.2.2v.6h.2v.8h.4v-.2l.2-.2h-.3v-.6h.2v-1l-.2.2v-1.4l.2-.2v-.2h.4v-.4h.2v.2h.2v-.4h1.6v.2h.2v-.2h.2l.2.2v.4h-.2v.4h.2v.2h.4v.2h.4v.4h.4v.2h.2v.2h.2l.2.2v-.2h.3v.6h.2v.2h.2v1h-.2v.2h.2v.3h.2v.6h.4v.6h.2v.2h.2v1l-.2.2H329l-.2-.2h-.2l-.2-.2V483h.2v-.2h-.2v-.4l-.2.2h-.2v.4l.2.2v.5l.2.2v2.7l.2.2v.3l.2.2v.6l.2-.2h1.2l.7-.2h1l.3-.2h1.4l.5-.2h.7l.5-.2h1.4l.3-.2h1l.7-.2h.8l.3-.2h1.1l.2-.2h1.1l.5-.2h1l.5-.2h1.1l.7-.2h.7l.5-.2h1.4l.5-.2h1l.5-.2h.9l.3-.2h1l.7-.2h.9l.5-.2h1.2l.2-.2h1.1l.5-.2h1.2l.3-.2h1.3l.7-.2h.7l.3-.2h1l.5-.2h1.1l.3-.2h1.2l.2-.2h1.3l.5-.2h1.1l.3-.2h.8l.5-.2h1l.5-.2h1l.5-.2h1.1l.3-.2h1.1l.3-.2h1.1l.7-.2h.7l.5-.2h1.2l.7-.2h.7l.5-.2h1l.5-.2h1.3l.5-.2h.8l.5-.2h.8l.3-.2h1.1l.5-.2h1l.3-.2h1l.5-.2h1.5v-.2h1.4l.7-.2h.5l.7-.2h1.2l.7-.2h.8l.3-.2h1.3l.3-.2h1l.3-.2h.8l.7-.2h1.4l.7-.2h.5l.7-.2h1.4l.5-.2h.7l.7-.2h.7l.7-.2h1.2l.7-.2h.8l.5-.2h1l.5-.2h.8l.7-.2h.7l.7-.2h.7l.7-.2h1.2l.7-.2h.7l.7-.2h1l.2-.2h.2v1.3-.4h.2v-.2h.2v-.4l.2-.2h.4v.2h.2v.2h1v.2h2l.2.2h.4v-.4h1.4v-.2h.2l.2-.2h.5v-.3h1v-.4h.6l-.2-.2v-.6l-.2-.2V472h.2l.2-.2v-.2l.2-.2v-.2h.2v-.4h.2l.2-.2h.2v-.2h.4v-.2h.2v-.2l.3-.2.2-.3.3-.3v-2.1h.2v-.8l-.2-.2v-.2h-.2v-.2h-.2v-.2h-.2v-.2l-.2-.2v-.4.3l.2-.2.2-.2v-.2l.2-.2v-.8h-.2v-.2h-.4v.2h-.4 1-.2v-.8h-.2v-.8l-.2-.2v-.2l-.2-.2v-.4l-.2-.2-.2-.2h-.2v-.2h-1.3l-.2-.2h-.9v.2l-.2.2v.2h-1.7v-.2h-.2v-.2l-.2-.2-.2-.2v-.2h-.2l-.2-.2-.2.2-.2.2v.2l-.2.2v.2h-.2l-.2-.2-.2-.2-.2-.2v-1h-.2l-.2-.2-.2-.3-.2-.2v-.6h-.6.5v.5l-.2-.2v-.2l.2-.3v-.5l.2-.5.2-.3v-.2l.2-.2.2-.2.2-.3v-.3l.2-.3v-.2l-.2-.2.2-.2v-1.4l-.2-.2.2-.2v-.3l.2-.3v-.2l-.2-.2-.2-.2-.2-.2v-.2l-.2-.2-.2-.2.2-.2.2-.2h.2v-.2h.2v-.2h.2l-.2-.2v-.2l-.2-.2-.2-.2-.2-.2h-.2l-.2-.2h-.2l-.2-.2h-.6l-.2-.2-.2-.2v-.3l-.2-.2v-.2l.2-.2.2-.2v-.2h.2l.2-.2.2-.2.2-.3v.5h.2v-1.6l-.2-.2v-.2l-.2-.2v-.6h-.2v-.2h-.2v-.2h-.2v-.2h-.2v-.2l-.2-.2v-.2h.2v-.2h.4v.2h.2v-.2h.6v.2-.2h.4v-.2h1v.2h.8l.3-.2h.2l.2-.3.2-.2.2-.2v-.4l.2-.3v-.2l-.2-.2.3-.3v-.2l.2-.2v-.1l.2-.2.2-.2v-.2h.2v-.4l.2-.3v-.2h.2v-.2l.2-.2h.6v-.2h.2l.2-.2v-.2h.2v-.6.1-.2l.5-.3.2-.2.5-.2v-.1h.2v-.4h-.2v-.2h-.2v-.4h-.2v-.4h-1v-.8l.2-.2v-.2l.2-.2v-.2h.2v-.2h.2v-.4h-.2v-.2l-.2-.2v-.4h.2l.2-.2-.2-.3-.2-.2-.2-.2v.3-.2h.7l.2-.2v-.2h-.4l-.2-.2-.2-.2h-.2v-.3l.2-.2v-.2l.2-.2.2-.2.3-.2h.4v-.2h.4v-1.2l-.2-.2-.2-.2-.2-.2v-.2h-.2v-.2h-.2l.2-.2v-.2l.2-.3v-1h-.2v-.2.6l-.2-.2v-.4h-.2v-.4l-.2-.2v-.4h-.2v-.4l-.2-.2v.2-.2h.2v-.2l.2-.2-.2-.2v-.4h-.2v-1.4h.8v-.2h.4v-.8l-.2-.2h-.2v-.2h-.2v-.2h-.2v-.2h-.2v.4-.2l-.2-.2h.4v.2h.4v-.2h.2v-.2l-.2-.2v-.2h-.4v-.2h-.2v-.2h-.4v-.2h-.2v-.4l.2-.2v-.4l.2-.2v-.2h.2v-.2h.6l.2-.2h.2v-.2h.2v-.2l.2-.2.2-.2.2-.2v-.2h.2l.2-.2h.2v-.2l-.2-.2h.2v-.2h.6v-.4h-.2l-.2-.2h-.2v-.2h.2v-.2h.4l.2-.2h.2l.2-.2.2-.2v-.2h.2v-.2.4-.6l-.2-.2v-1.9h.2v-.2l.2-.2v-.2h.2v-.2l.2-.2v-.2h.2v-.2h1.2l.2-.2h.2v-.2h.6v-.2h.2v-.2h.2v-.4h.2v.3h.8l.2-.2h.4l.2-.2h.2l.2-.3.2-.2v-.1h.2v-.2h.2v-.4l.2-.2h.2v-.2h.2l.3-.2h.2l.2.2.2-.2h.4l.2-.2.3-.2v-.2h.2v-.2h.2l.2-.2h.2v-.8l.2-.2.2-.2.2-.2.2-.2.3-.3.3-.3.5-.5v-.2h.2v-.2l.2-.2h.2v-.6h1.6v-.4l-2.3.5zM99.7 208.9h-.2v-.2h.2v.2zm21.4 9.1h-.1v-.2h.2v.2zm2.3 6.5h-.4v-.2h.4v.2zm.8 0l-.2.2h-.6v-.2h.6v-.2h.2v.2zm-2.6 10.1h-.6v-.2h.6l.2.2h-.2zm3 3h-.2v-.2h.2v.2zm.5-.6v-.2h.2v.2h-.2zm.1 1.8v-.2h.2l-.2.2zm.4-1.1h-.2v.2l-.2.2v-.4h.2v-.2h.2v.2zm.3-.1h-.2v-.2h.2v.2zm.7 1.2v.2h-.2v-.4h.2v.2zm6.9 3.4v-.2h.2v.2h-.2zm.3 23.7h-.2v-.2h.2v.2zm-7.4-40.2v.2h-.2v-.2h.2zm-11.1-8.9h-.2v-.2h.2v.2zm10.6 8.4v.4h-.2v-.2h-.4v-.2l-.2-.2h-.4v-.2h-.2v-.2h-.2v-.2h-.2l.2-.2v.2h.2v.2h.8v.2h.4v.2h.2v.2zm1.2 2.2v.3l-.2-.3v-.2h.2v.2zm0-.3h-.3v-.2h-.8v-.2h.2l.2-.2.2-.2h.2v-.2h.2v.2l.2.2v.4l.2.2h-.3zm6.5 13l-.2-.2h.2v.2zm.4.4h-.2v-.2h.2v.2zm2.9 1.4l-.2-.2-.2-.2h.2v.2h.2v.2zm145.3 184.5v-.2h.2l-.2.2zm1.5.2h-.2v-.2h-.2l.2-.2v.2h.2v.2zm45.8 55.2h-.2l.2-.2v.2z"/><path id="XMLID_39_" class="st0" d="M176.3 346h.2v.2h-.2z"/><path id="XMLID_7_" class="st0" d="M323.5 475.7v-.2h.2v-.2h-.2v-.2l-.2-.1v1.3h.2v-.5h.2v-.1z"/><path id="XMLID_6_" class="st0" d="M128 229.8v-.1h-.2z"/><path id="XMLID_4_" class="st0" d="M123.2 220.9h.2v.2h-.2z"/></g></svg>