<svg xmlns="http://www.w3.org/2000/svg" viewBox="0 0 500 500"><path fill="#d74b4b" d="M116.5 81.4l.2-4.7.1-2.7.2-2.6v-.7l.1-2.2v-2l.2-.3v-1.1l.1-2.2v-.6l.5-7.5v-3.5l.2-.4v-3.3l.1-1v-2l.2-1.6v-1.2l.1-3v-1.4l.2-1.9.3-6.2v-2.2l.2-2.5v-1l.1-.8v-2l.3-6.1v-2.2l12.2.5 11.3.3 2.8.1h3.6l13.8.5-.3 12.7-.5 12.5v.5l-.1 5.3v3.9l-.2 2.8v2.9l-.2 4.7v1.4l-.1 2.2v2.5l-.2 1.5v6.1l-.1 2.4v2l-.2 3.9v1.6l.2.2.1.1.2.2.3-.2.5.6.1.3.3.5.2.2.3.8.2.3v.6l.4.6.7.2.1.3.3.8.2.1.1.2.4.5.1.1v.2h.2l.1.3.3.8.3.6.2.1.5.7.1.1 1-.4.3.4v.2l.1.5.8.4.3 1-.1.3v1.5l.3.5.1.3.2.3-.2.7.2.3.5.3.4-.3.5-.2.2.2.4.5.4.4v.6l-.2.4.3.6.3.1h.3l.2-.1.3.3.9.8.4.5v.4l-.2 1.1v.2l-.2.4-.3.7.3.9.7.3.3.2.6.8v.4l.2 1.4-.8 1.3h-.6l-.7.6-.6.8v.8l.3.3.8.3.2.2h.1l.3.1v1.3l.2.3.1.1.2.2.2.3.3.8.1.2 1.1.3.2.1.1.2-.1.5-.2.3-.3.4-.3.2-.3-.2h-.6l-1.1.2-.4.3-.3.3v1.1l.3.2v.1h.2v.2l.5.1.8.4 1.5.9.3.8.2.4.3.4.3-.2.6-.2.5.2.3.2v.1l.8.5.3.1v.4l.3.4.2.2h.5l.1.3.2.8v.3l.4.9.4.3.1.7v.1l.6.5.8.5.5.1.6.2.6.4.7.2.7-.2.2.2.2.3.4.5h1.8l.3.3.3.2.4-.2h.5l.5.3.1.8v.2l.4.6.3.3h.1l.3.3.4.3v.6l-.2.4-.2.7v.5l.5.3h.2l1.1.2.3.4v.8l.3.5.1.3.7.2h.3l.3.1.8.5.4.6.8 1.3v.4l1.4.8v.7l.2.4.3.6h.2v.2l.3.3.6.8.2.2h.1l.5.1.3.5v.1l.3.8.2.2v.4l.1.8v.5l.5.6.2 1 .1.1v.2l.8-.2.1-.1v-.2l1.3.3v.3l.2.2.4.9.8.8.3.5.2.1.4.4.5.1.5.3.1.3v.4l-.4.4v.3l.1.7v.7l-.3.7h-.1l-.2.6.3.2.5.1.3.5-.3.3v.5l.3.4.8.5.3.6.5.3.3-.3h.9v.5l.2.3.6.5.3.1.3.7.5.1.5-.1.9.3.2.1.9 1.3v.8l-.2.4-.3.5-.1.2h-.2l-.1.3-.2.8v.1l.9 1h.8v-.2l.2-.2.3-.6.6-.1.6-.2.2-.2.3-.7.2-.5v-.2h.1l.7.2h.4l1.1.3.2.2.6 1.1.3.1.2.3v1.1l-.5.5-.5.3v.5l.2.4.1.5h.7l.3.3.1.5-.1.2v.3l.6.3.3.1h.5l1.1-.6.6-.1 1 .3.7.1h.7l.4.3 1 .2.6-.6v-.7l1.2-.6.7.2.4-.2.4-.3.7-.2.8-.1h.2l.9.5.3.1.3.5.2.5v2.3l-.6 1.3v.6l.1.3v.5l-.4.4-.2.7v.4l-.2 1v.6l.4.3-.5.8-.3.3-.8.2h-.2l-.3-.2h-.4l-.4.2v.1h-.1v.2l.1 1.4.4.5.4.1.2.5.1.1v1.6l-.3 1.6-.3.1-.3.2-.6.5-.7.7.7 1.4v.5l-.2 1.6-.1.4-.5.7-.3.6v.3l.3 1.3v.3l-.5.4-.1.2-.7.2-.6-.2-.1.5v1.2l.7.5.2.3.2 1.1.1.6v.7l-.1 1.8-.7.3-.6.5-.3.2-.5-.5H230l-.5 1.4v.2l.2 1.2.9.5.5.3h.7l.4.6.3.3v.2h.1-.1v1.3l-.3.7v.4l-.5.4-.6.5-.2.3v.5l.2.3.3.1h.1l.3.8v.2l-.1.3v.6l.3.5h.2l.6.1.6.4.5.4.3.7.1 1.1v.4l-.4.8v.2l.8 1.5.4.5.5.2.2.6.1.1v.7l-.1.1-1 1.9-.6-.3-1.3-.2-.3.2-.6.3h-1.4l-.5.3-.3.3v.7l.2.1-.2.2-1.4 2.3-.5.5-.3.3-.1.5.3.6.6.9.5.8 1.2 1 .2.1v.2l.1.3.2.3.1.5-.3 2.3-.3.8-.6.6-.3-.1-.2-.2-.1.2h-.2l-1.1.7-.1.2v.3l.4 1 .5.1.3.6-.3.4-.3.3-.2.4-.1.3v.2l-.2 1.3h.2l.3.3.9-.7.2-.1.5.3.1.2.3.3.5.3.3-.2.5-.1.3-.2h.3l.3.2v.1l.2 1 .3.1.5.5.3.3.1.3.6 1.1 1.5.5.9.6.2.2.1 1.1.8.9.5.2 1.2-.8 1.4-.7.3-.4.5-.6.5-1.5.1-.4v-.7l-.1-.1v-.2l.1-.4h.3l.7-.2.6.3.5.5h.6l.3-.6.3-.5h1.1l.2-.2.8-.1.3-.6v-.2l-.2-.3.2-.2.3-.6h.8l.3-.2.3-.1.3-.2.2-.3v-.4l.1-.5.6-1.3 1.4-1.2.2-.2h.8l.1-.3v-.3l-.3-.8v-1.6l.3-.1 1-.5.3-.1.5.1.3.2.9.6.2.2.1.1h.2l.3.3.2.7.4.9.7.3.1.2.2.3.1.1-.1.5-.2.9v.2h.2l.4.3h.3l.7-.3.4-.2.7.4 1.2.4.5.5.3.2.2.6v.6l-.2.3-.2.2-.1.1-.3.7-.6 2.8-.2.1h.2l1 .2.4-.3h1.1l.3.1h.3l.3 2.2v.6l-.6 1-.5.8v.1l.5.7.4.7v.2l-.1.5v.7l.3.4.5.1.7.8v1.2l-.1.7-.2 1.2.2 1.1.1.2 1 1.4.3.3.2.3.3.3.4.5v.8h-.1v.5l.1.4.2.3.3.3h.2l.4.2.5.3.3.5v.5l.3.6.3.5.4.3.4.3 1 .8.4.9-.1.5v.6l.1.5h.2v.1l.5 1.3.1.3.2.3.8.8h.3l.4-.2h1.3v.2l.3.3-.3.5-.3.4 1.5 2.1.7.1.3-.1.3-.2.3.5.2.8v.8l.1.4.5 1.3v.1l-.5.7v.9l.2.5v1.1l-.2.4-.3.2-.6.1h-.3l-.3-.1-.7.1-.3.5.2.5.1.3.2.2.8 1v.4l.4 1.1.2.6v.3l.3.8 1.6 1.5 1.9.4.3.1.9 1 .6 1.4h-.1l-.3.3v.1l.6.5.8-.3 1.1-.6.3-.3.8-.5v-.2h.3l.8-.4.4-.2.3.5 1.4.4.8.5.5.5.3.4.8.5h.2l.9.2.3.3.2.5-.4.3.2.6.8.9.8.7v1.2l.1.8.8.5.6.7v1.6l.2.5.3.3.5.5v.4l-.2.7-.1.1-.5.2-.3.1-.5.7v.1l.3.5.6.9.2.3.3.2.6.6v1.3l.5.6.6.6v2.4l.3.9.4 1.1.1.8 1.1 1.1.3.3.7.5.6.4 1.7.8.6.3.8.2.2 1.1.1.1.3.4.2.1.8.8h.4l.5-.3.6-.5.4-.3v-.2l.1-.6v-.5l-.3-.3-.2-.6-.7-1.1.1-.3.2-.9.6-.7.3-.3.6-.6.8-1.4.8-.2h.2l.6-.1.6-.7.8-.3h.5l.6.3.5.2.7.3.2.3h.3l1.4-.1 1.4-.2.3.3.5.3h.6l1.1-.3.3.2 1.3.5.3.3v.3l.5.1.6-.4.8-.7h.1l.5.4.6.4.5.3 1.1.5 1.3.5.7-1.1.2-.2.2-.6.3-.6v-.5l-.2-2.5.3-.5.2-.1h1.5l.2-.3v-.8l.2-.2h.1l.8-.6.2-.2 1.4-.1h.4l.3.1.7.3.1.5-.1.5.3.3 1.9.6h.1l.8-.6 1.4.2.3.3.2.4.9.5h.3l.2-.1.1-.5.7-.3.6-.2h.3l.3.2.8.1.2-.4v-.4l.1-.3.8.3.9.5.8-.1.5-.4.3-.1.6-.5v-.3l.2-.2h2l.5-.3.3-.1h.8l.3.3.3.6.5.6.3 1 .6.6.5.5.6-.2.2-.3 1.7-.9.3-.2.2-.1.6-.5.5-.2.3-.1h.6l.3-.5.3-.6h1l1.4.3h.6l.2.1.9.2h.2l.6-.3.4-.6h.4l.6.1.5.3h.3l.4-.1 1.1.4.3.4.8.3 1.4-.2.2-.1v-.7l-.3-.1-.8-.3-.6-.7-.8-.9-.3-.8v-.6l.1-.6.7-1.3.1-.1.5-.7.1-.3.4-.5.4-.6v-.1l.2-.8-.5-.3-.3-.3-.2-.8h-.1l.1-.3.2-.4h.2l.6-.3.8-.3.3-.1h.3v-.2l.5.2.3.3.4.1.7-.7.1-.5v-1l-.1-.1.1-.5.5-.1.3.1.2.2.4.4v.4l.5.7h.5l.3-.1.8.3 1.4 1.4.8 1.3.1.3.2.1.3.5-.3.9.6.3h.5l.3.5 1.1 1.3v.3l-.3.8.1 1.4.3.3 1.1.3.7.3.3.3.1.3.2.7.5.3.3.1.7.7.4 1.2.4 1.1.3.5.7.1.4.2.4.2h.1l.2.1 1.2.5h.6l.2 2.5v.1l.2 4.1v1.4l.3 7.1.3 7.9v1.8l.1 2.8v3l.2 1.2.1 1.3v.4l.2 4.6.2 3.1v3.1l.1 2.2v2.1l.2 1.7v2.8l.1.2v2.8l.2 1.2.3 8.2.5 12.5.1 7.7.2.4v3.5l.1 3.4v1.4l.2.2v3.4l.2 2.4v2l.1 5.2.2 1.2.1 6.1.2 3v.2l.1 4.2v5l.2 4.7v1l.1 2 .2 4.5v3.6l.2 4.6.1 4.5.2 1.3v3.6l.1 1.2v2.2l.3 6-1.5.1h-3.6l-3.6.2-5 .1-1.4.2h-3.9l-2.4.1-1.7.2-9.7.3h-2.5l-3.2.2h-3.1l-1.1.1h-4.1l-1.7.2h-1.4l-3.4.1h-3.3l-1-.1h-3.6l-5 .1h-4.3l-2.7.2h-.2l-7 .1h-3.1l-3.9.2h-6.2l-3.4.2H304l-9.2.1-3 .2-4.5.1h-4.6l-3.3.2h-.3l-7.3.1h-2.4l-2.8.2h-7.5l-4.7-.3H240l-5.8-.2H224l-3.4-.1-2.7-.2-4.2-.3h-3.6l-1.1.2h-4.5l-2.2.1h-.3l-10.2-.1h-3.6l-1.4-.2h-1.1l-11.3-.2-1.4-.1h-5.8l-7-.2-.5-.1h-1.6l-3.7-.2h-1.3l-.3.2h-1.1l-6.1-.2-.2-.1h-5.3l-3.1-.2h-2.4l-4.2-.1h-2.3l-.8-.2h-3.1l-1.9-.2-17.2-.6H103l-.4-.1h-.5l.3-8v-1l.2-2v-.3l.3-9.7v-1l.1-2.2v-1.4l.5-11.7.2-4.9v-.1l.4-12.1.5-14.7.2-3.9.4-11.4V397l.2-5.2.1-4.7.2-2.6.2-5.8.1-.6v-3.9l.2-2.2v-2.1l.1-.8v-3.7l.2-1.1v-3.1l.1-.4v-.3l.2-.4.3-.8v-.2l.2-.3.1-.1h.3l.2-.2h.1l.4.2.1-.2h.2l.1-.2.2-.6v-.1l.1-1v-.9l.5-.6.2-.2.1-.2v-2l-.1-.3h-.2v-.8h.3l.3-.3.7-.8.1-.1v-.2l.2-.5.1-.3v-.8l.2-.4v-.4l-.2-.3-.1-.4-.3-.3-.4-.2-.7-.5-.2-.3v-2.2l.2-.1h.1l.2-.2h.4l.7-.1h.1l.2-.2.3-.2.2-.4.1-.2.5-1.1.1-.3 1-1.6.1-.3v-.9l-.3-.3-.1-.2-1-.9-.4-.2h-.4l-.3.2-.9-.2-.3-.3v-1.9l.1-.4v-.4l-.1-.1v-.2l-.3-.1-.3-.2h-1.6l-.2-.1h-.6l-.3.3-.2.8v.1h-.3l-.1-.1-.2-.5-.3-.5h-.2l-.3-.3h-.1l-.5-.6v-.2l-.2-.6v-.2l-.3-.3-.1-.1v-.2h-.7l-.1.2h-.2l-.4.4v.5h-.2l-.1.3h-1.6l-1.1-.9-.2-.2-.9-1.1-.3-.6.1-.2.2-.4.2-.2.4-.1h.2l.4-1.1h.2v-.5l-.3-.6v-.2l-.5-.5-.1-.1-.3-.3-.5-.5-.3-.5-.3-1.1v-.4l.3-.2.4-.3v-.2l.5-.9.2-.3v-2.2l-.2-.8-.1-.3v-.1h-.2v-.2h.2v-.3h.1l.3-.2.2.2h.1l.5-.5.3-.5v-.3l.2-.1v-.5l.3-.5.1-.1h.7l.3-.2.5-.5.1-.3.3-.6v-.6l-.1-.5v-.1l.1-.2.2-.3h.1l.2-.2.5-.4v-.8l.3-1.1v-.3l.1-.3.2-.4.3-.1.5-1 .3-.7-.2-.3.2-.5.1-.3.5-1h.2v-.6l.3-.5.4-.3.2-.1v-1.4l.8-1 .1-.1.4-.2 1.1-.6h.1l.3.1.3-.1.3-.2h.2l.2-.1.3-.3.3-.4.1-.1h.2l.8-.2.6-.3.2-.1.1-.2v-.5l-.1-.1v-.2l.1-.5.2-.1.4-.5.8-1.2v-.3l.2-.2.3-.5.6-.6.8-.8.5-.6.3-.5v-.4l.3-.8.2-.7.3-.6.1-.3.2-.2v-.1l-.2-.5-.6-.8-.2-.4-.3-1.3v-.1l.2-.4.5-1h.1V281l-.1-.2.3-.6.6-.3.2-.2.9-.7.5-.7.6-.9.1-.2V276l.5-.6 1-.7 1-1.7.2-.1v-.2l.3-1.1v-.6l.8-2.2v-1.1l.3-1.3.5-1.1.1-.6.4-.1.3-.2.1-.3.2-.2v-.4l.1-.3v-.7l-.1-1.1.1-.4 1-2.1.6-1.1.8-1.2.3-.8.3-.2.8-.7.3-1 .2-.9v-.2l.3-.3.3-.3.6-.5.5-.1v-.7l-.2-.4v-.2l.2-1.1.3-.8.3-.3.3-.6.6-1.6.5-.6.6-.6.2-.2.5-.3.3-.1v-.2l.8-1.4.1-.2v-1.1l-.3-.1v-.3l-.3-.5-.2-.3v-.3l-.3-.7-.1-.1-.2-.2-.8-1.1-.4-.4-.2-.4-.3-.6-.2-.3v-1.2l.2-1.3v-.3l-.3-.6-.2-.3-.1-.2h-.2l-.3-.2-.8-.7-.8-.8-.4-.2-1.3-.3h-.1l-.4.2-.3.1h-.6l-.2-.1-.7-.8v-.2l-.4-.8-.3-.9h-.1l-.5-.3v-.2h-1.4v.2h-.2l-.1.1-.2.2h-.1l-.2.2h-.3l-.9-.7-.3-.4v-.4l.1-.3v-.1l-.1-.5-.2-.3-.2-.3-.7-1.3-.2-.1-.5-.5-.6-.5-.6-.8-.2-.1-.1-.3-.2-.3-.1-.5-.2-1.3v-.3l-.5-.9-.3-.9-.8-1.1-.1-.5h-.2v-.3l-.1-1.3-.3-1.4-.5-1.4-.3-.5-.5-.6h-.5l-.4-.3v-.2l-.2-.1v-.5l.2-.3h.3l.6-.2.2-.1.3-.6v-.8l.1-.2v-.1l.7-1 .6-1.2.1-.3v-.2l-.1-.2-.8-1.1-.3-.3-.2-.1-.4-.5-.2-.3v-.3l.3-.8.2-.3.1-.5-.1-.8-.3-.6v-.3l-.2-.3-.2-.2-.1-.1-.5-.5-.1-.3v-.2l.3-.6v-.3l-.2-.2-.1-.1-.2-.3h-.3v-.2h-.3l-.3-.5-.3-.1v-1.6l-.2-.1-.2-.2h-.3l-.4-.2h-.4v-.1h-.1v-.2h-.2v-.1l-.1-.2v-.1l.1-.8v-.2l.2-.1.3-.3h.2l.1-.4.2-.4v-.5l.1-.2v-.1l.2-.5v-.1l.1-.2v-.6l-.1-.2v-3.3l.1-4.7.2-3.1.2-2.2.1-3.9v-2.7l.2-.3v-3.4l.1-2.8v-.8l.2-2.4v-.7l.1-2.7v-3.5l.2-.1v-3.6l.1-1.9.2-2.8v-3l.2-1.4v-3.3l.1-1.5v-2.2l.3-5v-2.9l.2-1.5v-2.5l.1-1.9v-1l.2-2.9v-3.9l.2-.4v-2.6l.1-3.6v-2.1l.2-1v-3l.1-.8v-4.1l.2-1.4v-1.7l.1-2.7.2-2.8z"/></svg>