<svg xmlns="http://www.w3.org/2000/svg" viewBox="0 0 500 500"><path fill="#d74b4b" d="M90.5 203.9v-.7l.1-2.7v-2l.2-2.1v-2.6l.1-1.1v-3l.2-.3.1-4.4v-1.4l.2-2.5v-.1l.2-2.4.1-2.6v-.3l.2-4.2v-2.1l.1-3.1v-.9l.2-3v-.2l.3-4.6.1-3v-2l.2-1v-2.3l.3-6.7v-1.3l.2-2.3.3-8.1.1-1.1v-.2l.2-3.9.2-5.5.3-6.5.1-5.5.3-9.5v-1.9l.2-7.9.1-.5.7-21.1.9-21.4.2-3.9.1-4v-.5l.3-8.4.3-8.5.4-8.1h.6l5.6.2.2-.2 1.2.2h3l3.2.3 14.3.4 4.2.2 1.7.1 3.7.2h1l1.2.2 10.5.1 10.3.3.9.2h.2l3.9.1 4.8-.1h5.2l4.2.1h3.4l7.7.2h3.7l11.9.2h1.2l10.5.1h29.6l.7.2h.7l.7-.2.4.2h2.5l17.2.1h18.1l5.3-.1h8.9l3.8-.2h1.7l.5.2 7-.2h7.3l11.3-.1h2.6l2.8-.2.2.2h.4l10.3-.4h2.5l.8-.1 3-.2h.8l1.1-.1h1.7l.6-.2h1.3l4.3.2 2.5.1h3.6l5-.1h1.6l3.6-.2h5.7l8.9-.3h2.4l.6-.2v.2l.3-.2.3 7.5v2.2l.3 6.6v.1l.3 8.6-.1.7v.1h.1V45l.2 2.2v.6l.5 18.4v.6l.1.2.2 6.2.1 7.8.2 4 .3 10.9v5.6l.2 4.7.1 8.3v.7l.2 4.4v2.2l.4 11.2.2 7.9v1.2l.2 2.5v4.4l.1 1.1v5l.2 2.5v3.2l.1 1.1v3.5l.5 14.2.1 2.9v.2l.2 11.2.6 22.1.3 8.5v.4l.2 8.4v1.4l.2 3.4.1 7.2.2 1.6v3.3l.1 6.4v.1l.3 9.4v.9l.2 6.9.3 10.1.2 3.9.1 4.1v3.9l.2.9v5.8l.1 8.1v.8l.2 4.1v2.8l.1 1.2v2.9l.2.9v3.1l.2 5.3v.6l.1 3.5.2 4v4.7l.1.8v.3l.2 6 .1 2.8.2 7.8v2.9l.3 7.8v1.9l.2 2v.4l.3 8.1.1 1.9v2l.2 3.4v8.3l.1 1.2v.5l.2 3.1v.3l-.8.4-.3.6-.5.8-.6 1.7-.6 1.5h-.2l-.4.2-.5.3-.2.2v.4l.2.2.1.1.2.2v.2l-.6 1.5-.5 1-.1.4.1.3v.5l-.1.2-.5.7-.2.2-.1.2-.5-.4h-.8l-.8.5-1.2.5h-1.4l-.6-.3h-.2l-.5-.3-.3-.4-.1-.4-.5-.6-1.9-.8-.1-.2v-.5l.4-.3v-.1l-.1-.6-1.1-1.5-.3-.1h-.2l-1.2-1.3-.2-.3-.6-.7h-.2l-.1-.2-1.6-.2h-.3l-.3.2-.5.6-1.1.8-.3-.3-.3-.6h-.6l-.9.7h-1l-.1-.1v-.5l.1-.1v-.3l-.1-.2-.4-.3h-2.6l-.6.1-.3.2-1.1.5-.7.6-.4.1-.2-.1-.5-.5-.1-.1-.9.7-.7.5-.1.3-.2.2-.1.1h-.3l-.8.3-.7.2-.4.2h-.5l-.9.1-.7.6-.3.4-.1.3v.4h.1v.2l.3.1.2.4.5.7v.4l-.2.3v.7l.3.2.2.3.1.2-.1.4-.3.5h-.2v.2l-.1.1v1.7l.1.7.5.6.1.3.2.3-.2.6v.3l.2.2.6.5.5.3v1.1l.5.8.6.4.5.7.1.3v.7l-.1.4-.7.4-.3.2v.8l.2.6v.3l-.2.3-.1.8-.5.1v.4l.8 1.1-.2 1.4.3.9v1.6l-.4 1.4v.3l.3.4.3.4.6.4.2.2-.2.4-.3.8v1.1l.8.6.9 1.6.3.5v.9l-.3.8-.3.5v.1l.2 1 .1 1.2v.3l.2.3.1.2-.1.1-.2.5-.3.2-.3.3-.2.1v.2l-.1.8v.1l.1.7.2.4.5 1.1v.8l.1.3v.3l.2.2.4.8v.1l1.4 1.3.5 1.2.5 1.6.4.9.5 2v1.9l.6 2.4.2 1.5v.6l.3 1.4.3.2.2.3v.5l.1.5v1.7l-.1 1.5-.3.8h-.2l-.3.3-.6.2h-1.3l-.1.1h-.3v.2l-.4.1-.3.4v.1l-.1.2-.2.3.2.3h.1l.3.2h.2v.1l.6.2.3.3.2.1h.1l.2.2.2.3.1.3v.5l-.1.3-.5.5h-.2l-.4.4-.3.8v.6l-.2.7v.3l.2.1v.5l-1.1-1.1-1.4-1.2-.5-.4-6.7-6.5h-.2l-2.5-2.4-4.2-4-.9-.8-5.8-5.5-3-2.9-.3-.3-1.2-1.1-1.3-1.1-.8-.8-3.6-3.4-2.6-2.4-1.7-1.7-4.9-4.5-.1-.2-.2-.1-.4-.5-.2-.2-.3-.3-5-4.5-2.7-2.5v-.2l-.1-.1-2.2-2-1.9-1.9h-.1l-1.1-1.1-1.3-1.1-1.1-1.1-3.4-3.1-.3-.3v-.2l-3.9-3.6-1.4-1.4-.3-.1-1.9-1.9-.3-.3-.8-.7-2.8-2.6-.9-.8-1-.9-3.3-3.2-1.2-1.2-.8-.8-.3-.1-.5-.7-4.5-4.2-1.1-.9-2.3-2.2-4.6-4.4-2.3-2-.2-.2-5.9-5.7-.6-.7-2.4-2-9.2-8.6-11.7-11.2-4-3.8-3.6-3.2-3.5-3.5-1.8-1.7-4.2-3.9-1.1-1.1-1.1-.9-4.9-4.7-6.7-6.3-2.2-2-2.1-2-5.4-5.2-1.7-1.4-6.4-6.1-1.7-1.8-.6-.5-1.4-1.3-3.9-3.6-3.3-3.2-.8-.7-10.4-9.8-9.4-8.7-1.7-1.8-2.1-2-3.7-3.4-2.7-2.5-4.8-4.7-1.7-1.6-1.3-1.1-1.4-1.4-.9-.7-2.3-2.2-3.3-3.2-1.4-1.4-2.7-2.3-1.5-1.6-2.7-2.5-.8-.7-1.5-1.4-1.4-1.5-.2-.1-4.1-3.8-.7-.7-1.6-1.4-2.5-2.4v-.1h-.2l-.1-.2-1.9-1.7-.3-.3-3.7-3.6-2.4-2.2-2.8-2.7-1.9-1.7v-.1h-.1l-3.5-3.3-2-1.9-2.9-3-1.5-1-3.2-3.2-3-2.8-.2-.1-.4-.5-1.3-1.3h-.1v-.1l-.2-.2-.3-.1v-.2l-.8-.6v-.2l-1.2-1.1-.5-.4v-4.7l.2-3v-1.4z"/></svg>