<svg xmlns="http://www.w3.org/2000/svg" viewBox="0 0 500 500"><path fill="#d74b4b" d="M65.8 169.5l-4.9-.1h-.3l-.9-.2h-1.1l-4.5-.2h-.4l-5.6-.3h-.6l-15.3-.6-2.8-.1-5.3-.4-2.7-.1-3.4-.2-5.5-.3.2-1.4v-.3l.1-2.7.2-2.5V159l.1-3.9.2-2.9.8-13v-.2l.3-5.9.8.2h.3l7.6.3H25l1.6.1h.9l.9.2 2.5.3 9.4.5 9.2.4 2.7.2 2 .2h1l2.5.1h1.2l7 .3h.8l.8.2h1.4l3.6.1h3l.9.2h2l3.6.1h2.4l2.5.2h2.2l1.7.2h2.5l1.9.1H97l3.9.2h3.2l4 .1h1l2.8.2h5.1l1.3.1h4.5l1 .2h5.7l1.9.2h5.5l1.1.1h5.8l2 .2h5.3l1.7.1h3.8l6.8.2h4.6l3.9.1h1.4l4.5.2h.6l4.9.1h4l2.5.2h4.7l1.3.2h2.8l2.8.1h6.4l2.7.2.6-.2h1.1l5.5.2h3.2l4.7.1h7.5l3.8.2h11.4l3.4.1h15.8l.5.2h21.2l3.9-.2h30.2l2.2-.1h14.8l3-.2h12.3l.5-.1h11.7l1.4-.2h6.6l5.4-.1h3.5l.9-.2h5.8l5.2-.2h3.4l.5-.1h6.5l1.1-.2h5.5l.8-.1h5.4l2.2-.2h1.3l5.6-.1h1.7l2.5-.2h3.5l3.9-.1h2.2l.7-.2h3.8l1.2-.2h3l3-.1h5l.1-.2h3.8l1.5-.1h2.7l4.1-.2h.4v3.3l.2.3v4.5l.1.7v3.2l.2 2.2v2.2l.2 3.3v.5l.1 2.2v3.1l.2.8v2.9l.1 1.1v3.6l.2 1.1.1.5.2.6v.5l.5 2.6.1 1.1v.2l.2.6v.5l.1.6.3 1.9v.5l.2.7.5 2.2v.6l.1.7v.1l.2 1.1.1.8v.2l.2.6.2.3v.9l.1.5v.2l.2 1.1.1.4v.5l.2.1v.4l.1.4v.5l.2.6v.6l.1.8.5 1.9.3 1.7.3 1.7v.8l.4 1.6.1.6v.3l.2.5v.6l.3 1.4v.2l.3 1.2v.2l.1.5v.3l.2 1.4.2.3v.3l.6 3.8v.1l.1.8.2.5v.6l.2.6v.3h.1v.8l.3 1.6.2.4v.2l.1.6.2 1.4v.2l.3 1.4.2.6.6 3.9.1.6.4 2.4.1.5v.3l.3 1.5.2 1.3v.1l.1.5v.5l.3 1.8v.2l.7 3 .1.4.2 1.6.3 1.6.2.3-.2.1v1.1l.2.5v13.9l.1 2.5-.1.6.1.5v17.7l.2 1.5v14.7l.1 1v10.4l.2 1v12.5l.1.7v9.3l.2 1.8v9.4l.1 3.8v11.5l.2 1.4v3.6l-.2.7-.1.3h-.2l-.6.3-.8.3h-.1l-.3-.2-.2-.1v-.3l.2-.2v-.1l-.2-.2-.2-.3h-.3l-.3.1h-.3l-.1-.1-.2-.2.2-.3v-.5l-.4-.3-.4.2h-.3l-.2-.2v-.1l.2-.3v-.2l-.2-.1-.3-.4-.2-.3h-.3l-.3.2-.1.1-.2.2h-.6l-.2-.2-.1-.1h-.2v-.2l-.3-.1-.3.3-.2.3h-.1l-.2.2-.5.1h-.1l-.2-.1v-1.1h-.1l-.2-.4h-.3l-1.4.7h-.5l-.1-.2h-.8l-.2-.1v-.7l.2-.1-.2-.3-.3-.2h-.3l-.1.2v.1l-.2.3-.3-.1-.3-.2v-.8l-.2-.4-.1-.3-.5-.2h-.5l-.1-.2-.4-.3v-.9l-.1-.2-.2-.1h-.1l-.2.1h-.1l-.5.5-.6.2-.5-.3-.3-.2h-.5l-.1.2-.2.4v.2h-.1l-.7.1h-.4l-.5-.1-.6-.3h-.2l-.1-.2-.2-.1v-.7l-.2-.3h-.4v-.1h-.2l-.3-.4-.5-.3h-.4v-.1h-.2l-.3-.5v-.5l.2-.4v-.3h-.2v-.4l-.2-.1h-.4l-.2.1h-.4l-.4-.1-.1-.3v-.3l-.2-.3-.4-.7h-.4l-.1-.8-.2-.7v-.2h-.3l-.1.2-.3.4v.2h-.5l-.2-.2-.1-.3-.3-.3-.5-.3-.3.5h-1.3l-.4-.2h-.2l-.6-1.6-.2-.6-.3-.3h-.5l-.3.2-.1.3-.5.1-.2-.3-.1-.1v-.3l-.2-.5-.1-.2h-.5l-.6-.1-.2-.2v-.5l.2-.4-.3-.2-.3-.1h-1.8l-.3-.2-.1-.1-.3-.2-.5-.3-1.9-.6-.1-.2h-.5l-.2.2h-.1l-1 1.5-.1.3v.7l.1.4v.3l-.1.5-.2.2-.3.1-.1.2-.2-.2h-.6l-.2.2v1.1l-.1.3-.2.3-.5-.2-.9-.3-.8-.3h-.5v.6l-.3.5v.2h-2l-1.6.1h-.1l-.2.2-.1-.2h-2.1l-.7-.1-.2-.2v-.3l.2-.5h-.2l-.1-.1h-.4l-.3.4-.1.2-.7.3h-.6l-.3-.1v-.7l-.1-.3h-.4l-.3.2-.3.1-.3.3h-.2l-.1.2h-.5l-.1-.2-.2-.4-.1-.3.1-.5v-.9l-.5-1-.1-.1v-.2h-1.4v-.2l-.8.2-.3.5-.3.1-1.4 1.3h-.7l-.7-.2-.4.2-.1.1-.5.7-.5.4-.6.3h-.9l-.2-.1-.4-.2-.3-.1v-.2h-1l-.6.2v.1l-.3.5v.6l.1.2v.1l.2.2.3.8-.2.1-.1.3-.3.2-.5.3-.1-.1-.8-.8h-.2l-.6-.3h-.2l-.9.3v.4l.2.2v.3l-.2.2v.1l-.3.2-.3.1h-.3v-.1h-.2l-.2-.2-.3-.3-.6-.5-1.2-.6-.4-.1-.3-.4-.7-.4-.7-.3-.3-.3-.6-.2h-.2v1.1l-.3.6v.2h-.1l-.3.1-1.3.2-.5-.2-.1-.4-.3-.2h-.2l-.1.2h-.2v.9l-.2.2-.3.3-.8.3-.1-.2v-.6h-.5v.2l-.3.6-.5.1-.1.2h-.2l-.3-.2-.5-.1-1.2-.3-.6-.2h-.2l-.1.2.1.1v.2l.2.3v.3l-.2.2h-.1l-.5-.2-.5-.3-.1-.2h-1l-.4.2h-.2v.1l-.2.4.2.7v.2h-.8l-.6.2-.2.1-.1.2.1.4.2.2.2.1h.1l.2.2h.3v.6l-.3 1-.2.3-.3.4-.2.2-.4.3-.5.2-.3.1-1.1.3h-.5l-.6-.4-.5-.3h-.3l-.9-.7h-.5l-.8.2-.1.1-.2.2-.1.3-.2.3v.2l-.2.3v.3l-.1.5.1.6v.5l-.1.1v.5l-.3.5-.2.3v.1h-.1l-1 .5-.3.2h-.8l-.3-.4-.1-.1v-.5l-.2-.6-.1-.3v-.2h-.2l-.5-.6-.1-.2h-.2l-1.1-1-.3-.4-.1-.3v-.1l-.2-.7-.2-.1-.1-.2v-.1l-.2-.2-.4-.1-.3-.2h-.8l-.3.3h-.2l-1.6.2-.7.1-.2-.1-.5-.5-.3-.5v-.9l-.1-.2-.2-.4-.1-.5-.2-.1-.2-.2h-.4l-.2.2-.6.1h-1.3l-.7-.6-.4-.2-.1-.1h-.3v-.2h-.3l-.8-.3-.2-.2-.3-.1h-.1v-.5h.1l.2-.3.7-.9.5-.2.3-.1.3-.5.2-.2v-.1l.2-.2v-.3l-.2-.1h-2.3l-.8-.8-.5-.3-.1-.2-.4-.2h-.4l-.2.2-.1.2-.2.1-.2.5-.1.3v1.9l-.2.4-.1.5v.2l-.2.3-.1.1-.2.3-.1.4-.2.1-.2.2h-.1l-.3.1-.5.2-1.1.3h-1.4l-.2-.2-.1-.1-.3-.8v-.5l-.2-.6-.1-.1-.2-.2-.1-.2-.5-.3h-.2l-.8-.1-1-.2h-.2l-.2.2-.1.3-.2.3v.6l-.1.3-.3.2h-.4l-.6-.5-.3-.3-.2-.1-.4-.5-.3-.8-.5-1.1v-1.6l-.2-1-.1-.5-.2-.3-.1-.3h-.2v-.2h-.1l-.2-.2v-.1h-.2l-.1-.2h-.2l-.4.3h-.2v.2l-.6.3-.3.3-1.3.7-.1-.2h-.2v-.3l-.1-.5v-.1l.1-.4h-.3l-.2.2h-.1l-.2.2-.1.1v1.4l.3.6.3 1v1.2l-.6.8-.2.3-.6 1-.5.4-.3.5-.8.5h-.1l-.3-.2-.2-.1h-.3l-.2.1-.1.2.1.1v.3l.2.4v.1l-.3.3-.2.2-.1.1h-.2l-.6.2-.5.3-.3.3v.2l-.1.1v.5l.1.2v.1l.3.9.2.5v1.6l-.2.1-.1.3v.2l-.2.2v.1l-.1.2-.5.3-.2.1h-.1l-.2.2h-.1l-.2.2h-.5l-.6-.2-.6-.2-.2-.1h-.1l-.5-.3v-.2l-.3-.3-.3-.2v-.1l-.5-1.1-.3-.9-.2-.8-.3-.3-.4-.8-.2-.3v-1.1l.2-.3.1-.3.2-.2v-.2h.9l.5-.3.3-.3v-.5l-.3-.9-.5-2v-.3h-.2l-.1-.2v-.1l-.2-.2-.3-.3-.4-.2-.4-.3-.1-.1h-.2l-.6.1h-.1l-.7.5-.1.1h-.2l-.1.2v.3l-.2 1.6-.3.6v.2h-.2l-.8.1-.3-.1h-.1l-.3-.2v-.2h-.2l-.3-.4-.2-.2-.1-.1h-.2l-.3.1-.1.2v.1l-.3.5-.2.2h-.3v-.2l-.2-.5h-.6v.2l-.2.3v.5l-.4 1.1-.6.9-.4.5-.1.1-.3.2h-3l-1.1-.3-.5-.3-.3-.5-.3-.5.2-.5.1-.3v-.1l.2-.3.1-.7.2-1.4-.2-.3-.3-.4-.1-.2-1-.5-.4-.3-.2-.1h-.5l-.3-.2-.1.2-.8.3-.3.1-.5.3h-.2l-.4.4-.5.3h-.5l-1-.2h-.2l-.3-.1-.2-.2-.1-.3-.2-.3-.1-.2v-.3l.1-.2.2-.3v-.1l.1-1.6-1.1-1.1-1.4-.8-1.2-.6h-.6l-.4-.1v.1l-.9.3-.3.2-.2.5-.4.9-.2.3-.1.2v.1l-.2.3-.2.2-.3.1-.1.2-.5.3h-1.1l-.6.2v.3l.1.3v.6l-.1.2h-.5l-.6.3.1.3v.6l-.3.3-.9.5-.2.3v.2l-.1.1-1.4 1.1-.2.2-1.2.3-.5.1-.3.2-.3-.2-1.1-.4-.6-.5-.7-.5-.9-.4h-.2v-.2h-.3l-.3.2h-.1l-.5-.2-.5-.1-.4-.4-.2-.1-.3-.5v-.4l.1-.7h.2l.3.3.2.2.3-.2.1-.1.3-.3.2-.7v-.9h-.2l-.4.2h-.2l-.3-.2-.1-.1v-.2l.1-.2.3-.1.3-.3.3-.5.2-.8v-.1l.5-1.1v-.2h-.8l-.2-.3h-.1v-.2l-.2-.1-.3-.5h-.3l-.3.3-.2.2h-.1l-.7.1-.3.2h-.7v.2H285l-.5-.2h-.3l-1.5-.5-.2-.1-.2-.2-.9-1.5v-.5h.2l.1-.2h.2v-.4l-.2-.2-.1-.1-.8-.8-.2-.3-.1-.5v-.6l.1-.2.2-.1.1-.2v-.2l.3-.1.2-.3.2-.2v-.1h.1v-.2l.2-.3.1-.2.2-.3v-1.1l-.6-.9-.4-.5h-.1l-.2-.1h-.6l-.3.3-.5.4v.2l-.3.3-.6 1-.2.1-.6.5-1.2-.2h-.5l-.3-.1-.6-.2-.5-.3-.2-.2-.8-.3-.4.2h-1.9l-.6-.2-.3-.1h-.2l-.6-.5-.2-.2-.1-.1-.2-.2-.1-.1h-.3l-.2-.2h-.6l-1.3-.3h-.1v.2l-.8.3v.1l-.2.2-.8 1.2-.1.4.1.1v1.1l-.1.3-.8 1-.1.1h-.2v.2l-.2-.2h-.1l-.2-.1h-.4l-.2.1h-.3v.3h-.2v.3h-.1l-.8.5-.6.2-.5.1h-.3l-1-.6-1.2-1.6-.2-.3-.3-.5-.9-.9-.3-.6-.2-.3-.6-.8-.3-.3-1.3-.8h-.3l-.3.3h-.6l-.6-.3h-.2l-.5-.3h-.3l-.1.1-.2.4-.9.7-.3.3-.5.5h-.2l-.1.2h-.3l-.7-.2h-.4l-.2-.1-.8.1h-.1l-.2.2v.1l-.1.2v.1h-.2l-.5.2h-.1l-.2-.2-.1-.1-.2-.3v-.2h-.1v-.1h-.2l-.3-.2h-.3l-.8-.3-.6-.6-.2-.2-.3-.1-1.1-.4h-1.5v.7l-.2.1h-.5l-.1-.3h-.2v-.1l.2-.2v-.5l-.2-.1-.9-.3-1-.4-.6-.3v-.1l-.1-.2-.4-.3v-.1l-.6-.8-.6-.5-.2-.2h-.4v.7l-.3.1h-.2l-.3-.1-.2-.2v-.3l-.1-.5-.3-.1-.3-.2-.5.3-.2.3v.4l-.1.1-.5.2-1.2-.2h-.2v.2l-.2.1-.1.2h-.3l-.5-.2v-.1h-.2l-.3-.3-.4-.2h-1l-.6.3-.3.2-.6.1-.5-.1-.2-.2-.1-.1v-.2l.1-.2.2-.1v-.3h-.6l-.3.3-1 .3-1.5-.3h-.2v-.2l-.2-.1.2-.3v-.7l-.3-.4v-1.6l.1-.8v-.4h-.3l-.1-.2h-.3v-.3h-.2v-.3l-.1-1.1v-.2l.1-.3.2-.6-.2-.8v-.3l-.3-.2h-.2l-.1.2h-.5v-.2l-.1-.1v-1l-.2-.3-.2-.3-.1-.3-.3-.3h-.2l-.1.3h-.3l-.7-.6v-.2l-.1-.1-.2-.2h.6l.2-.1h.2v-1l-.2-.1-1.4-.7h-.6l-.5.3-.5.2h-.1v-.2h-.2v-.1l-.1-.2v-.1l-.4-.3-.1-.2-.2-.3-.3-.2v-.1l-.4-.3-.5-.3v-.4l.1-.1v-.3l-.1-.2-.6-.3h-.5l-.2.2-.7.9v.2h-.2v1.5l.2.2.1.6-.3 1.6-.2.4-.1.2h-.2v.1h-.3l-.6-.6-.6.5h-.5l-.3-.5-.5-.4-.5-.4-.4-.3h-.5l-.5-.1h-.1l-.3-.5-.2-.2-.1-.1-.8-.3h-.2l-.3.1H200l-.5-.1-.3-.2v-.1h-.6l-.3.1-.3.6-.2.7.2.4-.2.2v.2l-.6.6-.2.1h-1.4l-.1-.1h-.2l-1.1-.3-.3.3-.1.1h-.5v-.1l-.3-.2-.3-.1-1.1-.2-.7-.3-.3-.3v-.6l-.1-.2-.2-.2v-.1l-.6-.3-.3-.2-.3-.1-.7-.3-.7-.8.1-.3v-.2l-.5-.3-.1-.2h-.5l-.4-.6-1.3-1.6-.2-.6v-.1l-.3-.7-.4-.1-.7-.5-.4-.3-.8-1.1-.2-.1-.1-.4v-.1l-.2-.2v-.1h-.1l-.3-.5h-.2v-.2l-.5-.3v-.1h-.1l-1-.6v-.2l-.4-.2v-.3l-.3-.1h-.2l-.8-.3-.5.1-.1.2v.1l-.2.2-.3.3-.4.3h-1.6v-.6l.1-9.5.2-2.5v-4.6l.2-2.6v-.2l.1-11.9.3-10.4v-6.1l.2-1.8v-.1l.1-8.3.2-6.6.2-6.8v-.3l.1-8.3.2-9.1v-.1l.1-11.9.2-5.2v-2.2l.1-2.6v-3.9l.3-11v-5.3h-.1l-4.7-.1-5-.2h-4.1l-3.1-.2h-3.7l-1.9-.1h-6l-.4-.2h-3.5l-2.9-.1h-3.5l-.7-.2h-4.6l-.9-.1h-3.3l-1.9-.2h-3.2l-3.8-.2h-2.2l-11.2-.4h-2.9l-2.8-.2h-1.2l-10-.3-1.4-.1h-1.7l-1.1-.2h-1.9l-2-.2h-3.8l-.8-.1-4.8-.2h-.8z"/></svg>