<svg xmlns="http://www.w3.org/2000/svg" viewBox="0 0 500 500"><path fill="#d74b4b" d="M17.4 341.9l.1-.5 1-2.3v-.2l.3-.6 1.5-5.8.4-1.4v-2.4l.3-.3.1-.2.2-.3.3-.9 1.2-3.6v-.2l.2-.1.3-1.4v-.5l.2-1.1.1-.6.8-3.2-.3-1.5-.3-.8-.3-.3-.2-.2v-.2l.2-.3.4-.6v-.2l.4-.4h.1l.3-.5.3-.3.2-.2 1.1-.3h.2l.4-.4.2-.2.4-.6 1.3-2.4 1.9-3.7.6-1.6 1.6-3.8.9-2.8.5-1.6.1-.4 1-4 .5-1.8.4-1.9.2-.8v-.6l.5-1.3.3-1.2.8-3.5.9-4.4.2-.5.4-2.6.2-1 .1-.7v-.2l.2-.9v-.4l.5-2.5.6-3.9.3-1.7.3-3v-.3l.2-1.3.1-.1.3-2.4.4-2v-.2l.1-.7v-1.5l-.1-.3v-.1l.1-.8.2-.5.4-2.3.2-2.2v-.7l.3-2.3.3-2.5v-.5l-.3-.1V234l.3-.9.2-.3v-1l.3-.8.3-.4.6-3.2v-.1l.7-3.6.1-.4.3-.1.3-.2.2-.3-.2-.3-.1-.2-.3.2-.2-.8.2-1.7v-1.3l-.2-.7.2-1.1.3-1.9.1-.6.5-3.3.2-1.5v-.3l.1-1.2v-.3l-.8.3v-.2l-.1-.1 1.1-.8h.1v-.8l.2-.6v-.3l.3-1.3v-.9h-.1v-.2l-.5-.9.3-1 .2-.6v-.3l.3-2.5-.3-2.1-.2-.3v-.1l-.3-.3v-.7l.1-.3v-1.2l.2-.7.2-.6.1-.9.2-.5.1-.2v-.1l.3-.2h.4v-.1l.3-.8.1-.8 1-3.5.4-2v-.8l.2-.4v-.7l.5-2 .1-.2v-.4l.2-.4.1-1.2v-.2l.2-.9.3-1.7.2-.7v-.3l-.4.2-.4-.3.1-1v-.4l.3-.8.4-.6.9-.7v-.1l.2-.5.7-3.5.2-.1.2-1.1.3-3 .1-.5-.3-1.2.3-1.6v-.8l.3-1.5.2-1.3v-.8l.2-2.2-.4-1.1-.1-.6-.3-.1h-.5l-1.3.1v-.3l1-.3h.1l.5-.2h.2v-.1l.3-.5v-.2l.3-.9.3-1.4.2-2.2.1-.3v-2.7l-.1-.1-.3-1.4v-.4l-.2-1.4.3-.3h.3l.5-1.4.3-1.3.3-2.1.2-.4v-.6l-.2-.1-.3-.5.3-1.1.2-1.1.1-1 .5-2.8.2-.9.1-.3v-5.2l-.1-.2v-.6l-.5-.6-.6-1-.2-.3-.5-.3-.3-.1v-.7l.8-1.1.6-4.4v-5.8l-.1-.3-.5-1.5-.8-.8V99l1.4-1.9.5-.3h.2l.1-.1h1l.1-.2v-.2l.3-.7.2-1v-.1l.1-.5v-5.2l-.4-2.2-.2-.6v-.6l-.1-.2-.2-.8-.2-.9-.1-.5-.2-.3-.1-.3-.5-1.6-.2-.3v-.1l-.4-1.3-.5-1.3-.5-.9-.3-.6-.8-.5.8-.6h.5l.3.1.5 1-.2.4.2.7.3.1 1.1.2.6.3h.2l1.2 1.1v.2l.8.7.3 1 .8.3 1.9.6v.2h.1l.7-.3.1-.7V81h-.1l-.5-.5-.5-.5h-.1l-.2-.4.2-.2.9-.1h.6l.8.1h.2l1.5-.5.4-.1.9-.3.6-.3.5.1.9.5 1.3.1h.3l1.4-.7.5-.2.1-.3.4-.2h.6l1.1.3.3-.1.3-.8.2-.6.1-.2.5-.1h.5l.3.3.1.1.7.5 2.2-1.6v-.9h.6l.6-.3.6-.2.8-.3 1.3.2.3.1.3.2.2.3.9.9.8 1.3.3.5v.4l-.3 3.5 3.3 3h.4l1.8.1 1.7.2h1.3l1.5-.8 1.3-.8 1.1-.5 2.6-1.2 2.7.3h.2l.6.6 3 2.1.4.6.5.1.6.5h.2l.6.3.2.2h.1l1.8 1.9.4.6 1.3.6.1.2.5.1 1.4.8 1 1.9.1.2.2 1.1.1 1.2 1.1 1.3v.1l1.1 2.8.2.4 1.1 1.2v.6l.3 1.8-.3 1.5v.2l.1.3v.2l.2.3.3 1.1.2.3.1.3v.1l.5 1v1.4l-.2.5-.6 1.5v1.3l1.4 2.3v.2h.2l.3 1.7v2.1l-.2.4-.6 2.4v.5l-.2 1.1.7 1.8v.2l1.4.9.3.2h.1l1 .5 1.2 1.1 1 .4 1.7.8 2 .2h.2l.2.1.9.2.3.1 1.9.7h.2l1.2.6.9.3.7.2h.1l.2.1.6.2.2.1h.1l.2.2.8.8h.1l.8.3 1.3-.2.4-.1.5-.3h.3l.3-.2.5-.2h.2l.4.2 1.1.5 1.1 1.7 2.2.5h1.9l.8-.3 2.6-1.3 1.1-1.1 2.6-.5h.6l.1.2h.8l.6-.2 3.3-2 1.3-.5h1.1l1.2-.4.2-.2.9-.6.5-1 .2-.1.9.1.8-.4.8-.4.3-.3.1-.3v-.8l1.5-1.2h.1l.5-.5.5-.1 1.1-.5 1.5-.5 1.6.5 2.8.6h1.6l1.9-.6.3-.2h2.2l3.9-1.1 1.6-.6h.1l.6.2.7.1.6.2.3.3.3.1.3.4 1.1.9 1.3.3 1.1.3h1.2l1.6-.8h1.3l.7-.1 1.5.5 1.1.7.3.4 2.2.6 2 .6.5 1.3.3.6.1 1.2.2.4-.2.7v.4l.8.7h2.2l.3-.3v-.1l.5.3.5-.5.1-.1.2-.2-.2-.3 2.1-2.1 1.2-.4 1.7.1 1.6-.1.3.1 1 .3.3-.1 1.5-.5h.5l1.6 1.3h.1l1-.2 1.6-1.6.7-.7 1.1-.3 2.9-1 3.6-1.6 2-.7 1.1-1.1.9-.7 1.1-.6 2.5-.1 1.8.6.4.4 1.8 1.9.9.8.3.2 1.1.3 4.4-.3 4.4-1 2.2-.8.5-.1 4-.3 2.2-3 1.8-.9 4-1 3.9-2.2.2-.1 1.9-1 3.3-.3 1.7-.6h.5l3.7-1.1 1.8.1 2.5-.3 3.3-.6 2.5-3.8.1-.1 1.3-1.3 1.7-.4 2 .9.7.5 2 .1 2.2-.9 1.1-.2 3.1-.3h.7l.4-.1 1.8-.7.1-.1.6-.2 3.2-.5 1.9.5 1.7.5h1.4l1.6-.3.9-.2 1.9-.9 1.7-1.3 2-.9 1-.8 1.2-1.7h.5l2-.2h5.2l1.6-.1h2l6.3-.2h4.1l.9-.2h5.3l1.5-.1h5.9l1.3-.2h5l.3-.1h1.2l4.7-.2h1.1l7.4-.1 1.1-.2h3.9l11-.3 6.4-.2 5.7-.1h1.7l2-.2 2.9-.1 2 .1.9-.3h3.3l1.8-.2h2l3.8-.1 3.2-.2h2.2l3.8-.1h3.9l.3.4 1.1 1.1.3 1.3.8 1.1v.3l.3 1.4.4.6.1.5.2.3.1.2 1 .9.8.5.6.5.3.1 1.1 1.6v.2l.3.4.2.5v1.1l.3.5 1.2.6h.5v-.2h.2l.1-.1h.2v-.2h.1l.2-.1v-.2h.3l1.1-.2h.3v.2l.6.3h.2l.6 1.1.3 1.1h.2l.8 1h1.1l.4-.2.2-.2.2-.1 1.5.3.6.2h.2l.9.9 1.1.9h.4l.1.2h.2v.1l.1.4.5.7.2.2-.2 1.6.2 1.5.1.4.5.7.1.4.2.1.6.5 1.1 1.1.2.1.1.3.3.8h.2v.3l.2.4.1.1.2.5.3.3.1.2.2.1v1.4l-.9 1.9-.5.2-.5.4-.1.3-.7.8-.4 1-.7 1.7-.4.9-.2.3-.3 1-.2 1.4v.2l.2.6.2.8-.5.1h-.2l-.6.8-.3.2-.3.4v.2l-.2 1.2-.3 1.3-.8.9-.3.4-.5.7-.7 1.8-.7 1.4-.9 2.3-.2.7.3 1.4v1.2l-.1.5v.1l-.3.4-.3.3-.4.3-.1.8-.3 1.2-.3 1.6v.2l.1.7-.1.5-.7 2.5v.8l-.1 1.6-.2.1v.2l-1.2 2.2-1.1.8-.5.7v1.8l-.8 1.2-.6.8-.8 1.1-.3.2-.6.4-.4.7v.3l.2.3v1.2l-.6 1.3v.6l.4 1.4v.2l.4.5.6.9.3.5v.1l-.2.3-.3.4-.1.7-.2.8-.1 1-.2.4-.2.7-.4.7-1.1 1.1-.6 1-.4.6-.1.2v.3l-.8 1.7-.5.5-.1.3-.2.5v.3l.2.3v.3l-.2.3h-.1l-.7.5-1.1.3-.1.2h-.2l-.3.4-.5.5-.1.2-.2.1-.3.2h-.9l-1.4.7-.4.4-.1.1-.8 1.3.2.4v1.3l-.2.3-.5.2-.3.8-.1.4v.3l-.5 1.1-.3.3v.7l.1.4-.1 1-.6 1.1-.4.1-.1.5-.2.5v.3l-.1 1.4v.9l-.5.7-.3.1-.2.2-.3.1v.7l.3.3v.9l-.3.8-.1.3-.5.6-.5.2-.8.2-.1.3-.3.4v.5l-.2.3v.3l-.3.7-.5.4-.1.2-.3-.2-.4.2-.1.2v.3h-.2l.2.1v.3l.1.4.4.7.1.5v.5l.2 1.7-.2.5-.5 1.1v.1l-.4.7-.5.1v.5l.5 1.4.4.5.7.6.4.1.2.2.6.6v.2l.5.8v.1l-.2.3v.2l-.6 1.3v.1l-.6.2v.1h-.2l-.1.7v.3l.3.6 1.1 1.2.3.2 1.4.9h1.6l.3-.1.1-.3h.2v-.5l.6-.8h.2l.1-.1h.8l.2.3.3.3v.1l.3.8v.2l.8.6.1.2.5.3.5.5.1.6h.2l.2.1h.1v-.1h.2v-.2l.1-.9.5-.3.2-.2h.3l.3.2h2.3l.3.1.2.3v.2l.2.2v.1l-.2.6.2 1.4.1 1 .2.1h.1l1.1.4.2-.2.1-.2h.4l.6.2 1.4.9.1.2.4.5.1.8v.3l-.1.3v.1l-1 1.9-.1.3v.2l-.7 1.2v.2l-.3.6-.1.2-.2.1-.1.2h-.2l-.6.3h-.7l-.3.2-.1.1-.2.2v.3l.2 1.1v.3l.1.5v.8h.2l.9.4.3.3.5.2.3.6.2.3.1.2v.2l-.1.7-.2.8v.3l-.1.8v.2l-.2.1-.6 1.1-.5.3h-.1l-.2.4v.3l.2.1v.2h.1l.2.3.1.6v1.9l-.1.3-.2.2-.5.8v.1l.2.3v.7l-.2 1.1v.3l-.1.6v.2l-.2.1h-.1l-.2.2-.3-.2h-.2l-.1.2h-.2l-.3.1-.3.2v.3l-.2.3-.1 1-.3.6v.6l.1 1.1v2.8l.2 1.4v2.4l.1 1.4v1.7l.2.8v1.6l.2 2.6v3l.1.2v2.3l.3 7.1.2 3.1.3 5.8.2 6.3.1.9v2.2l.6 13.8.2 4.9.8 17.9.6 14.5v.4l.3 5.8.7 14.2.1 1.8v2.6l.2 1.1.4 11.9v2.7l.2 1.3.3 9.5-.8.2h-2.5l-5.2.1-1.8.2h-1.3l-11.3.6h-2.5l-3.8.2-1.4.1-3.7.2h-2.5l-1.6.1-12.5.4-.7.1h-.8l-14.4.5-4.5.1-9.1.4-4.2.1-5.2.2-6.1.3-5.8.3H360l-12.5.1-12.5.4-1.4-.2-1.3.2h-11.8l-17.2.1-3.9-.1-3.6.1h-1.6l-6.7.2-.8.1-.2-.1-9.5.1h-2.1l-5.8.2h-24.7l-7.3-.2h-13.6l-3.6-.1-2-.2h-7.4v-.1h-5.3l-.3.1-1.3-.1h-5.3l-4.4-.2-3.6-.2H189l-4.5-.1h-1l-.9-.2h-.2l-7-.1h-.3l-1.1-.2-9.4-.1-6.2-.3-3.2-.2h-2.1l-4.4-.2H147l-4.9-.3h-3.6l-4.3-.1-7.1.1H126l-4.9-.1-5.3-.2h-5.6l-3-.1h-1.3l-5-.2-1.2-.2-1.1-.1-3.8-.3h-.6l-2.2.1h-2.4l-7.2.2h-2l-3.3-.3-3.9-.2H70l-4.4-.1h-.4l-1.6.3-4.4-.3-3.7-.2h-2.7l-8.2-.5h-2l-1.1-.1-4.1-.2h-.9l-1.6-.1-5.2-.4-.1-.6-1.4-1.4-.3-.5-1.3-1.2-.1-.3h-1.1l-.2-.2-.3-.1-.3-.2-.8-1.4v-.2l-.2-.1-1.4-1.9-.8-1.7v-.3l.3-1v-.5l-.1-.4-.3-.3-.3-.7v-.4h.1l.3-.4v-1.5l-.4-.6-.3-.2v-.2l-.2-.3.2-1.1-.2-.3v-.5l-.3-.6-.5-.6-1.1-1.4v-.3l.2-.5.3-1.4v-.2l-.2-2.3-.4-.8-.7-1.3.2-.1.1-1.4.2-2.1v-3.6l-.3-1.2v-.3l.8-1.8v-1.4l.1-1.1.8-1.7.8-2.2.6-2v-.8l-.1-.8-.3-1.1.1-1.6-.1-.8-.5-2.5-.3-.3-.8-.4-.6-.5-.5-.3-.2-.2.3-.6v-.5l-.6-1.4-.8-2-.1-.3-.8-.5h-.5v.1l-.6.4h-.3v-.5l-.2-1.1v-.2l-.3-2.8-.3-1.2-.3-.8-.5-.8-.3-1.4.3-.7.3-.6.5-.6 2.3-4.2 1.1-2.6.2-.1z"/></svg>