<svg xmlns="http://www.w3.org/2000/svg" viewBox="0 0 500 500"><path d="M36.1 209.1h1.3l2.1.2h1.7l3.8.4h.6l6.1.4 4.8.2h.2l1.3.2h1.7l5 .4h2.7l.4.2h1.5l5.7.4h2.5l1.1.2h1.5l4.8.2 4 .2 7.2.4h1.4l9.7.6h1.5l3.8.2 4.6.2h1.2l4.2.2 9.9.4h3.8l3 .2h2.5l.2-3.6v-2.5l.4-8 .2-7.8v-2.9l.2-.6V184l.2-.6v-5.2l.2-.4v-4.5l.2-1.5v-3l.2-1v.2-2.1l.2-3.2.2-1.5v-2.5l.2-.6v-2.5l.4-7.8.2-2.5v-1.2l.2-.8v-3l.2-3.2.2-1.1v-2.3l.2-1.7v-3l.2-.8v-3.4l.2-6.1.2-1.5v-5.3l.2-.2v-3.8l.2-2.9v-3.2l.2-.8v-3.2l.2-1.9v-4.4l.2-2.5v-3.2l.2-3.2v-2.2l.2-1v-3l.2-6.1.4-9.7v-1.1l.2-3.8.2-2.1-.2-.2.2-.8v-1.2l.2-5.3.2-3.8.2-7.4v-2.7l.2-1.1v-2.9l.2-5 1.3.2h3.4l2.1.2h1.7l3.2.2h1.9l9.5.2h.4l3.6.2h3.7l.6.2.2-.2 3 .2h3.8l.2.2h6l1.1.2h4.2l6.3.2h4.2l7.1.2h6.9l1 .2h11.5v.2-.2l.4.2h18V29l-.2 6.9V52l-.2 5.7v19.2l-.2 1.1v19.5l-.2 2.9v7.8h1l.4-.2.2-.2v-.2l.2-.2h.2l.6.2h.2l.2.2.2.2.6.4.2.2.2.2.4.4v.2l.2.2v.2h.2l.4.6.4.2.4.4h.2l.4.6h-.2l.2.4.8 1 .4.4h.2l.2.2.2.2v.2l.4.4.6.4h.2l.2.2.4.2v.2l.2.2h-.2l.2.2.2.2.4.2.6.2h.2l.2.2h.6l.2-.2.6.2h1.2v-.2l.4-.2v-.2l.2-.2-.2-.2.2-.4v-.4l.2-.2h.6v.2h.2l.2.2h1l.2-.2h.2l.4.2.2.2.2.4h.6l.4.2.4.2.2.4.2.2h.4l.4-.2.4.4.2-.2h.2v-.4l.2-1v-.4h-.2v-1.2l.2-.4.4-.6.2-.2h.2l.4.2.2.2v.4l.2.2.2.4h.4v.2l.2.2v.2h.2v.4h.2l.4-.2.2-.2h.4l1 .4v.2l.2.4v.2h-.6v.4l.6.4.2-.2.4.2v.2l.2.2v.8l.2.2h.6v.2h.2v.4l-.2.6v1l.2.2v.2h.4v1.8l.2.4v.8h.2l1 .2.6-.2.2-.2h.4v.2h-.2v.4h.2l.2.2.4-.2h.4l.2-.2h1l.2.2.2.2.2.2h.2l.2-.2v-.2h1.2l.2-.2v-.8l.4-.2h.2l.2.2v.4l.2.2.2.2h.2v-.4l.2-.2h.2l.2.2.2.2.6.6.2.2v.2h.2l.2.2.6.2.6.2.2.2v.4l.2.2h.4v-.4h1.6l.2.2h.2l.4.6h.4l.2.2h.4v.2h.2v.4h.6v-.2h.2v-.2l.2-.2h.6l.4.2h.6l.2-.2.2-.2.2-.2.6-.6.2-.2h.2l.4.2h.2l.2.2h.6v-.2h.2l1 .4.2.2.4.6v.2l.4.4.4.6.2.2.2.2.8 1 .6.4.2.2.4-.2.4-.2.4-.2h.2v-.4h.2l.2-.2h.2l.2.2h.2l.2-.2.4-.6h.2v-1h-.2l.2-.2.4-.8.2-.2.4-.2h.2v-.2l.8.2h.4v.2h.4v.2h.2l.2.2.4.2.2.2h2l.6.2.2.2.6.2h.4l.8.2.4-.4h.2l.4-.6.2-.2v-.2l.2-.2.4-.2h.6l.2.2.2.6.2.2v.4H320v.4l-.2.2v.2h-.2l-.2.2v.2l-.2.2h-.2v.6l.2.2v.2l.6.6.2.2v.2h-.2v.2h-.2v.4l.6 1h.2l1 .4h2l.2-.2h.4l.2-.2h.2v-.2h.2v.2l.2.2v.2h.2v.2h.6l-.2.8-.2.2v.4l-.2.2-.2.2-.2.2v.4h.6l.2.2-.2.4v.4l-.2.2h-.2v.2h-.2v-.2l-.2-.2v.2l-.2.2v.4l.2.2.2.2.2.2.4.2h.4l.2-.2v.2h.2l.6.4.4.2.4.2.8.4h.8l.8-.4 1-.8v-.2l.2-.2.6-.2.2-.2v-.4l-.2-.4.4-.2.2.2h.2v-1.4l.4-.2h.6v.2-.2l.4-.2h.2v-.2l.2-.2.2-.2.2-.4.2-.6.2-.2.2-.2.4-.2h.6v.2l1 .2.8.6.8.6v1.2l-.2.2v.6l.2.2v.2h.4l.6.2h.4l.4-.2.2-.2h.2l.2-.2.2-.2.6-.2h.6l.2.2h.2l.6.4v.2l.2.2.2.2v1l-.2.4v.2h-.2v1l.4.2.2.2.6.2h2l.2-.2h.2l.2-.4.4-.6.2-.6.2-.4v-.2l.2-.2h.2v.4h.4l.2-.2v-.4h.4l.2.2.2.2v.2h.4v.2h.8v-.2l.2-.4.2-1v-.4h.2l.4-.4h.8l.2.2.2.2.4.2.2.2v.2l.4 1.3.2.6v.2l-.2.4h-.4v.2h-2.2l-.2.4v1l.4.6v.2l.2.4.2.6.4.8.2.2.2.2.2.2h.2v.2h.4l.6.2h.2l.2-.2h.2l.2-.2.2-.2h.2v-.4l.2-.2V141l-.4-.6v-.6h.2v-.4l.4-.2h.6l.2-.2v-.8h.4l.2.2.6-.4.2-.2.4-.4.2-.6h.2v-.2l.4-.4v-1l-.2-.4-.2-.6v-.6l.2-.2.2-.2h.2v.8h.2v.2l.8-.4.2-.2.4-.4h.2l.2-.2h.2l.2.2h.2v.2l.2.2v.2l.2.4v1.4l.2.2.2.8.2.4.4.4v.2l.2.2.4.2h.4l.2-.2v-.8h.2v-.2h.8l.6.2h.2l.2.2h.2v.2l.2.4v.4l.2.6h.2v.2h.4l.4-.2h.2l.8-.2h.4v-.2h.2v-.4l.2-.2v-.2h.2v-.4l.2-.2v-1l.2-.4v-.4l.2-.2v-.2h.4l.2.2h.2l.2.2.6.4v.2h.8l.6-.2h.2v.6l-.2.2-.2.2h-.2l-.4.2-.4.6-.2.2v.4h.4v.2l.6.2h.4v.2h.2l.6.4h1.2v-.2h.4l.2.2.2.4v.4h.2v.8l.4.4h1.6l.2-.2.2-.2h.4l.4.2h.2v.2h.2v.2l.2.4v.2l.2.2.2.2.6.6h.2v.2l.4.4.2.2v.8h.2v.2l.2.2h.4l.2-.2.6-.2.2-.2v-.2l.2-.4.2-.2v-1.6h.2v-.4l.2-.2.6-.2h.2l.8.4.4.2.4.4h.4l.8-.2v-.2h.4l.4-.2v-.2l.2-.2v-.4l.2-.6v-.2l-.2-.2h-2v-.2h-.2v-.4h.2l.4-.2h.4l.2-.2-.2-.4v-.2l.2-.2h1l.4.2.2.2h.2v-.6h-.2v-.2h.6l.8.2.4.2h.4l.2-.2.2-.4.2-.2v.2h.2v.4l.6-.2.2-.2v-.2h.2l-.2-.4h.2v-.2h.2l.2.2.2.2h1.2v-.2h.2l.2-.4v-.8l.4.2.2.2.4.2.6.2.2.2.2.2.8.4.4.2.2.4h.8v-.2h.2v-.4h-.2v-.4l.6-.2h.2l.4.2.6.6.4-.2h.2l.2-.2v-.2l-.2-.4-.2-.2v-.6l.2-.2v-.2l.4-.2h.2l.4.2h.2l.2.2.2.2h.6l.4-.4.4-.2.2-.4.2-.2h.2l.4.2.4-.2 1-.6.2-.2.2-.4h1.4v.2h.2l.2.6v1.2l.2.2v.2h.4l.2-.2h.2l.2-.2.2-.2h.2v.6h.2v.2h.4l.4-.2h.2l.2-.4h.2l.2.2v.2l-.2.2h.2l.4.2h3.4l.4-.2h.2v-.8h.4l.6.2.6.2.2.2.2-.2v-1h.2v-.2h.2l.2.2h.2l.2-.2.2-.4v-.2l-.2-.4v-.4l.8-1.1h.6l1.1.4.4.2.2.2.2.2h1.4v.8h.2l.4.2h.2l.2.2.2.2v.4h.4l.2-.2h.2v-.2l.2.2.2.2v.4l.4.8.2.2h1l.4-.2.2.2.2.2.2.2h.4l.2-.4.2-.2v.2l.2.4v.6h.4l.2.4v.4l.2.2.2.2h.2l.2-.2h.2l.2.2v1l.2.2.2.2h.2l.4.2.2.2v.2l.2-.2h.2v.6l.2.2.2.2h.4l.2.2h.8v-.2h.2v-.4h.6l.4.2h.2l.4-.2.2-.2h.2l.2.2v.2l-.2.2.2.2v.2l.2.2.2-.2.2.2h.2l.2.2v.8l.2.2h.2l.2-.2v-.2h.4l.2.4-.2.2.2.2v.2h.8l1-.4h.2l.2.2v.6l.2.2h.4v-.7h.2v-.2l.2-.2.2.2h.2v.2h.6l.2-.2h.4l.2.2.2.2v.6h.2l.2-.2.2.2v.2l.2.2-.2.2.2.2h.2l.2-.2h.2l.2.2v.6l.2.2.6-.2.4-.2h.2l.2-.2v-.4h.8v-.2l.2-.2.4.2v.2l-.4.2h-.2v.4h.4v.4l-.4.2-.2.2v.2l.4.2.2.2h.4l.2-.2.2.2h.2v.2l.6.8h.4l.2-.2.4-.4v-.2l.2.2v.6h-.4l-.2.2v.4l.2.2v.2h1.4l.2-.2v-.2l-.2-.4.2-.2h.2v-.4.2h.2l.2.2v.4h.4v.2l.4-.2.2-.2v-.6l.2-.2v-.2l.2-.2h.4v.4l-.2.2-.2.2.2.2h.6v-.2l.2-.4.2-.2.2-.2.2-.2.2-.2h.2l.2.2v.2l-.2.2h-.2l-.2.4v.4l.6.2h.4l.2-.2.2-.2v-.2h.4v.4h.4v-.6l-.2-.2h-3.9v-.2l.2-.2h.2l.2.2v-.2h.2l.2-.2.2-.2v-.2l.2.2h.6l.2.2-.2.2.2.2h.2l.2-.2h.2v.2l-.2.2-.2.2h.2v.2h.2l.2-.4h.2v.8l.2.2.2-.2v-.6h.4l.2-.2h.2l.2-.2h1v.2h.4v.4h-.6v.4h1.2v2.7l.2.8v4l.2.4v4.3l.2.4v2.7l.2 1.7v3.5l.2 2.5v2.7l.2.8v2.9l.2 1.7v3.1l.2 2.5v2.5l.2.8v2.7l.2 1.9v3.6l.2 1.3v2.4l.2 1.5v4l.2 1v3.4l.2 2.1v2.7l.2.2v.4l.4-.2.4.2.2.2.2.2v.2l.2.2v.2l.2.4.2.2.6 1 .2.2.2.2.6.4.4.2h.2l.2.2v.2l.2.2.2.2.2-.2h.6v.6l.2.2.4.2v.6l.2.4h.2l.2.2v.8l.2.2v.2l.6.4h.4l.2.2v.4l.2.2.2.2v.2h.2v.8l-.2.2v.4l.2.4.2.2.2.6v.4h.2l.2.2h.2v.8l-.4.4-.2.2h-.2v.6l.2.4.2.4v1.2h-.4v-.2l-.4.6v.4l.2.4.4.8v.2l.2.2v.2l.8.8.4.4h1.8v.4h.4l.2.2v.6l-.2.2v.2l-.2.2h-.2v.2h-.2v.4l.2.2 1.3 1h.2l.2.2v.4l-.2.4v.4h.4l.2.2.4.2h.2v.2h.2v.8h.2l-.2.2.2.2v.2h.2v.2h-.2v.4l-.2.4-.2.4-.4 1 .2.2v.2h.4l.2.2.6.6.2.4.4.2.2-.2h.6l.2.4v1.4h.2l.2.2v1l.2 1 .2.2v.2l.4.2h.4l.2-.4v-.2h.2l.2-.2.2-.2h.8v.2h.2l-.2.4v.6l-.2.2-.2.2v.4l.2.2v.4l.2.2-.2.4-.2.4v.6l.2.4.2.2.4.2.2.2v.4l-.2.2v.2l.4.6.2.2v.4l-.8.8-.6.2-.4-.2v.2h-.2v.6l.2.6.2.2.4.2.4.4.4.2.2.6v.4l-.2.2-.4.2h-.2l-.2.2v.6l-.2.4H486v.8l.2.2h.2v1.4l.2.2v.4l-.2.8-.2.2h-.2l-.2.2-.4.2v.8l-.2.4v.2l-.6.4v.2l-.2.2-.2.2v.2h.2l.2.4v.4l-.2.2v.2l-.2.4v.4l-.2.6-.2.2-.2.2h-.6l-.4.6h-.2l-.4.8v1.4l.2.2v.4l-.2.2h-.2l-.6.2-.4.4-.2.2v.4l.2.4-.2.6-.2.2h-.2v.2l.4.2.2.2.4.2v.2l.2.2v.6l-.2.2.2.4v.4h.2v.4l.2.4.2.6v.6h-.2l-.6.4-.2.4-.4.4v.2l-.2.2h-.4v.2h-.2v.4l.2.6v.8l-.2.2v.4l-.2.2.2.2.6.6.2.2v.2h.2l.2.2h.2l.2.2h.4v.2h.2v1.8l.2.2v.2l-.2.2-.2.4v.4h-.2v.4l.2.8.2.4.2.2.2.2v.4l.2.4.2.2.2.4-.2.2h-.2v1l-.2.2-.2.2v.2l-.4.4h-.2l-.2.2v.4h.2l.4.4h.4v.2h.4v.4h-.4l-.4.2h-.2l-.2.2v.2l-.2.2-.2.2v.6l-.2.2-.2.2-.4.4-.8.4v.2l-.2.2-.4 1-.2.4-.2 1v.6l-.2.2-.4 1-.2.4-.6.8v.2h-.2l-.2.2-.2.4-.8.4-.2.2h-.2l-.4.4-.2.2-.2.2-.2.4v.6l.2.4.2.2.8.6h.2l.2.4v.2l-.2.2.2.2v.2l.6.2h.2l.4.6 1 1.3-.6.6-.6.2h-.8l-1.5-.2H472l-.2.2-1.7.4-2.9 1.1-8 4-.6.2-.8.4-2.3 1.1h-.2l-1.3.8h-.2l-1.9 1-.6.4-.8.4h-.2l-.2.2-1 .6h-.2v.2l-1 .6-.4.2-.2.2-.2.2-.6.4-.4.4-.6 1 .5-5.7h-.6l-.6.4h-.8v-.6l.6-.8.4-.4.4-.4.2-.2.4-.4.2-.2.2-.2.4-.2.8-1.3v-.2l.4-.2.2-.2h.4l.4.2h.8l.8-.4.4-.4v-.8l.2-.2.4-.6.4-.2h.6l.2.2.6.4.8-.2.6-.2-.4-.8h-.2l-.6-.2v.1l-.6-.8h-.2l-.4-.2-.6.2-.2.2-.6.4-1.1.4h-.4l-.4.2-.8.2-1 .2v.2l-1 .2-.8.2-.8.2h-.4l-.4-.2-.2-.4-.2-.4.4-.2.2.2h.2l.2-.4.2-.4.2-.2.6-.6.2-.2.2-.6.6-1.1.2-.6v-1.1l.2-.4v-2.2h-.2l-.2-.8-.4-.6-.4-.6v-.2l-.4-.4h-.7l-.2.2-.6.4-.8.2-.4.2-.6.4v.2l-.2.2-1 1.1-.2.4-.2.4-.2.2v.8l-.2.4-.8.4-.8.4-.2-.2-.4-.4v-.2h.2v-.6l-.2-.2-.2-.2h-.4l-.4-.2-.4.8-.2.2-.2.2-.2.2-.4.4-.2.2-.2.4v.2l-.2.2.2.2v.2l.2.4.4.2h.2v.2h.2v.2l.2.2v.2l-.2.2v.2h-.2l-.4.6v.2h-.2l-.2.6v.8l.2.2.4.6.6.4h.2l.8.2.2.2h1.2l.6.2v.4h-.2v.2l-.4.6-.2.8.4.2h.2l1 .6.2.6v1.8l.2.4v.2l-.2.2v.2l-.2.8v.4l.2.8v.4h.2v.2h.2l.2.2h.4l.2-.2h.4l1-.4v-1.8l.4-.4.6.4.6.4h1.4v-.2h.6l.4.2h-.8l-1.3 1.3-.4.4-.2.2-.4.2-.4.2-.2.2-.4.4h-.2v.2l-.2.2-.4.2-1 .8-.4.2-.6.4-1.1.8v.2l-.6.2-1 .8-.4.2v.2l-1.7 1.1-1.7 1.5-.2.2h-.2l-.6.6-.4.4-.2.2v.2l-.2.2v.4l-2.3 1.7-.2.2-1.7 1.5-.4.4-.8.8-1 1.1-.4.4-1 .6-.8.6-.8 1v.2l-.2.4-1.3.2-.8.2-.4.2-1.1.6-.2.2-.2-.5-1.1.8-1 .6-.2.2-.2.2-1.1.6-.4.2-2.9 1.9-.8.4-3.6 2.3-1.5.8-1.1.6-1.3.6-2.1 1.1-.8.4-1 .4-.4.2-.6.4-1 .4-4.4 2.5-1 .4-.2.2-.6.4v.2l-1 .6-1.3 1-.6.6-.2.2-.6.2-1.1 1 .2.4-.4.2v-.2l-.2-.2.2-.4.2-.2 1.1-1.1.2-.2 1-.6 1.1-1 .2-.2.2-.2.6-.2h.2l1-.6.2-.2v-.4l2.7-1.5 1.5-.6 2.1-1.3h.6l.8-.6 1-.2v-1.9l.2-.4-.4-.2-.4-.2-.2.2-.2.2h-1.6v.2h-.2l-.2.2-.4.4-.8.4h-.2l-1.5.6h-.2l-1.5.8-.4.4-.8.2h-.4l-.2-.6v-.2l.4-.2.4-.4v-.4l-.6-.8.8-1h-.2l.8-1v-.4l-.2-.2h-1l-.2.2h-.2l-.4.2-.6.4h-.2l-.2-.2-.8.2-.6.6v1.2h-.6l-.4.2-1.5.6-.2.2-.2.2-3.4 1.9-.4.2.2-.4v-.8l-.2-.4-.2-.2-.8-.2.6-.4v-.2l-.2-.4h.1-.4l-.2-.2h-.8l-.2-.2h-.4l-.2.2-.2-.2-.2-.8v-.4l.4-.6v-.4h-.2l-.4-.2h-.2v-.6l-.2-.2v-.2h-.4l-.6.2-.2.2h-.4l-.2.2h-.2l-.2.2-.4.2-.2.4.2.4.6.4.4.4v.6l.2.2h.2l.2.2h.2v.4l-.2.4h-.2v.4h.2v.6l.2.2v.6h1.6l.4.2v.4h.2l.6.4h.2v.2h.6v.2l.2.4.2.4.2.4.4.2h.2l.4.4.8.4.4.4 1.3 1 .2.4h.2v.4h.2v.4h-.2l-.4.2-1.5.8-.6.4-.2.2-1 .4-.2.2h-.4l-.6.2-.2.2-.6.4-.4.4-.4.2-.6.2-.2.2-1.9.4-.8.6-.8-.6h-.2v.2l-.4-.2.2-1-.2-1.3-.2-.2H372l-.4-.2h-.2l-.4.2v.2l-.2.2-.4.6v2.2l.2.6-.2.2v.2l-.4.8-.2.2.2.4.2.4.6.8v.2l-.6 1.1-.4.2-.4.6-.6.4-.2.2h-.2l-.4.4-.6.4-.2.2-.4.2-.4.6-.2.2h-.2l-.6.8-.4.4h-1l-.8-.4-.6-.2h-.6l-.6.6v.6h.2v.2l-.2.2-.2.2v.4l-.2.2v.4l.2.6v.2l.2.6v.4h-.2l-.2.2-.4.2v.2l-.4.8v.2l-.4.2-.2.2-.4.6-.2.4-.2.2-.2.4-.4.8-.2.4-.2.2h-.2l-.2.8-.2.2-.2.2-.4.6-.2.2-.4 1h-.2l-.4.8v.6h.6-1.4v-.8h-.2l-.2-.2v-.2l-.2-.2v-.4h-.2v-.2l-.2-.4h-.6v-.2h-.2l-.4.2h-.6v.2h-.2l-.4.2h-.4v.2l-.4.2-.4.2-.4.4-.2-.2v.2l-.6.4v.2l-.6 1v1.4l.2.2v.4h.2l.2.4.2.2v.2l.2.4h.2l.4.4.2.2h.2l.8.4.2.2h.6l.8.2 1 .4h.2v.2l-.2.6h-.4l-.2.6v.2l-.2.2v.4l-.2.2-.2.6v.2l-.2.2v.4l-.2.2v.4l.2.2-.2.2v.2l-.4.2-.4.4-.2.4-.4 1.5-.2.4-.2.6-.2 1.1-.2.8-.4.4-.2 1.1.2.4-.2.6-.2.4-.8 2.1v.4l-.2.2V414l-.4.2-.4.2h-.8l-1.1.6-1 1h-1l-.4-.4-.2-.2h.8l.2-.4.2-.2h.4l.4-.2-.2-.6v-.2l.6-.6v-.8l-.6-.4-.6.2-.2.4-.6.8-1.3.8-.4.4-1 1h-.8l-.2.2v1.2l.2.4.2.2h2.1l.4.4.8.2 1-.2.4-.2.2-.2.2-.2.4-.2.8-.2.4-.2.2-.2h1.1v.2l-.4 2.3-.4 2.5v1.1l-.4.2v.6l-.2.2-.6-.2-.2-.2-.4.2-.2.2v.8l.8.6h-.2l-.2.2v1l.4.2v1.4l-.2.2-.2-.2h-1.9l-.6.2-.2.4.2.4.2.6-.2.6-.2.2v.4l.6 1.3.2.2-.4.4-.2.2v1h-.2v.4l-.2.6.4.8h.6l1.1 1 1 1.7.2.2h.4v.8l.2 1.1.8 3.2v1.1l.2.4.2.6.2.2.2.2v.2l.4.8v.4l-.2.6v.4l-.2.2-.2.4.2.6v.8l-.2.4h-.4v.6l.2.2.6.2h.2v-.2l.2.2v.6l-.2.6v.2l.6.2h.2l.2-.2v-.2l.4.2.2.2.4.6-.2.6-.6.8v1.4h.2l.4-.2.2-.2V455l.4-.2.6-.2h.2l.2.2.2.2-.2.4v.4l-.4.2-.2.4-.2.2h.4v2h.2v.2h.4v-.2l.4-.2h.4l.2.8v.2l-.6.6v.4l.8 1.1h.2l.2.4-.6.1-.2.6-.2.4.4.4v.4l.6.6v.4l-.4.2v.4h.2v.2h.2v.2l.2.2.4.2.8.2h1.6l.2.2h.2v.4l.2.8v.4l-.4.4h-.4l-.4.2v.2l.2 1.1.2.2h.8l.8-.4.4-.4.2-.2v-.4l-.4-1h-.4v-.4l.6-.4h.6l-.2 1 .2 1 .2 1.3v1.4l-.4.2h-.2l-.2-.4-.4-.2-.4.2H356l-.6.2-.2.2v.2h-.4l-.8-.2-.2.2.2.6h-.6l-.4-.2-.6.4h-.2l-.2.2h-.2l-.2.2-.6-.2-.6.4v.2l-.2.2v.2h.2v.6l.2.2v.4l.2.4-.2.6v.2l-.4.4-.8.2-1.1-.2h-.2l-.2-.2-.4-.2h-.2v-1l-.2-.2h-.2l-.2-.2h-.2l-.6.2h-.6l-1-.4v-.2l-.2-.6-.2-.6h-.4l-.2-.2v-.4l-.4-.2-.2.2-.8-.2v-.8h-.6l-.4-.8-.2-.2-.2-.2-.4-.4v-.4l-.4-.2h.3v-.2h-.2v-.4l-.2-.2h-.8v-.2h-1l-.4-.2-.2-.2-.4.2h-.6l-1-.2h-.2v-.2l-.2-.2h-.4l-.2.2-.2-.2h-.2v-.6l-.2-.2h-.2l-.2.2h-.4.2-.2v.2h-1.4l-.2-.2-.4-.2-.4-.2-.6.2v.2h-.4l-.8.2-.4-.2-.2-.2-.6.4-.2.2-.2-.2-.2-.2v-.2l-.2-.2-1 .2h-.2l-.4-.2h-.2l-.2.4v.4l-.2.4-.6-.2h-.6v-.2l-.2-.2-.2-.6h-.2v.4l-.2.2h-.4l-.2-.4-.8.2h-.2v.2l-.6.4h-.2v-.2l-.2-.2-.2-.2h.4l-.2-.2h-.2l-.2-.2-.4.4-.2.4h-.2v-.2l-.2-.2-.6-.6h-.6l-.2.2h-.4l-.6-.4v-.2l-.4-.2-.2-.2v-.2l.2-.2h.2v-.6h-1.2l-.2.2v.2h-.2l-.2-.2-.2-.2h-.2l-.4-.8-.2-.6v-.2h.2v-.4h-.2l-.2.6-1-.2h-.4v-.2l-.2-.4-.4-.4v-.2h-.6l-1-.8v-.6l-.4-.2-.6-.2-.4.2h-.2v.2h-.8l-.2-.4h-.8v.2-.2h-.4v-.4h-.4l-.2.2v-.2h-.6l-.2-.4v-.2l-.2-.4h-.4l-.6.2h-.6l-.2.4h-.2l-.6.2h-1v-1h-.2v.2h-.4l-.4-.4-.2-.2.2-.2-.2-.2-.4-.4h-.6l-.4-.2v-1h-.6l-.6-.2-.4-.2-.2-.8v-.2l-.4-.4h-.8l-.2.2-.2.2h-.4l-.2-.2h-.6v.2h-.4l-.4.2-.2-.2h-.2l-.2-.2-.2-.4h-.2l-.2-.4h-.2l-.2.2h-.2l-.2.2-.4-.2v-.4l-.2-.4h-2l-.4-.2v-.2l-.2-.2h-.4v-.2h-.4l-.2.2-.2.4-.4.2h-.4l-.2-.2v-.4h-.2l-.2-.2v-.2l-.6-.4v-.4l.4-.2.2-.8.2-.4v-.2l-.6-1-.2-.4-.4-.6h-.2v-.2h-.6l-.6-.2-.4-.2-.2-.2v-.4l.2-.4v-.4l-.4-2.1-1-1.5-.2-1.5v-1.3l-1.1-1-.2-1.7-.8-1.1-.2-1.1-.2-.4-.2-.2-.6-.4h-1l-.4-.6.2-.6v-1l-.6-.4-.8-.2h-.4l-.4-.2-.4-.6-.2-.6.2-.4.4-.2.2-.2-.2-.2h-.4l-.6-.6v-.4l-.4-.6h-.2l-.4.4-.4-.2-.2-.4v-1.2l-.2-.6v.1l.4-.4h.2l.2-.6v-.2l-.2-.2-.2-.4.2-.4.2-.4v-.4l-.2-.4-.2-.2.2-.2.2-.2.2-.8v-.4l-.2-1-.4-.4-.2-.4.2-.2v.2-.6l-.4-.6v-.2h-.4v-.2.2l-.8.2h-.2l-.2-.2-.2-.2.2-.6.2-.2v-.2l-.2-.4h-.2l-.2-.2-.4.2h-.4l-.2-.2-.2-.2h-.2v-.2l.2-.4h.4l.2-.2.4-.2v-.8l.2-.2v-.2l.2-.4.2-.2.2-1.3v-.4l-.4-.8.2-.6.2-.4.2-.2v-1.2l-.4-.4h-1v.2h-.4v-.2l.2-.8v-.9l.2-.4.2-.2v-.6h-.2l-.2-.2-.2-.2-.4-.6v-.4l-.4-.2-.2-.2h-.2v.2h-.2l-.6.2h-.2v-.2h.2v-.4l-.2-.2-.2-.2-.2-.2v-.4h-.4.5l-.4.2v.2l-.6.2-.6-.2-.4-.2v-.2l.2-.2.2-.2-.2-.4h-.4v-.2h-.6l-.6.2-.2.2-.2-.2-.4-.4v-.4l-.2-.2-.2-.2-1-1.1v-.2l-.6-.8-.4.2h-.2l-.4-.2-.2-.4v-.8l-.4-.6h-.2l-.2.4h-.8v-.6l-.2-.6h-.4l-.4-.2-.2-.2h.2v-1l.2-.4v-.4l-.2-.4-.6-.2-.2-.4-.2-.6.2-.4.2-.2.2-.4-.2-.2-.2-.4h-.2l-.4-.2-.4-.4-.4-.6v-.6l.2-.6v-.6l-1.1-.2-.8-.2-.4-.2-.2-.6-.4-.8-.2-.6v-.8l-.2-.4-.4-.4-.6-.2-.4-.2v-.8l-.4-.4v-.2l-.4-.4-.2-.8-.4-.2-1-.4-.4-.2-.6-.4h-.8l-.2-.2-.2-.2v-.2l-.4-.2-.4-.2h-.2.3-.2l-.2-.2v-.6l-.2-.8v-.2l-.2-.2h-1l-.4-.4-.2-.2-.6-.8v1.3l-.2-.4v-.2l.2-.8v-.6l-1-1.3-.2-.4v-.2l-1-1v-.1l-.2-.6.2-.2v-.2l.4-.8-.2-.6v-.4l-.4-.4h-.2v-.2h-.2l-.2-.6h.6l.2-.2.4-.2v-.4h-.2l-.8-.4h-.6l-.4-.2-.6-1-.4-.6.4-.6.2-.6v-.4h-.2l-.8-.4h-.2l-.2-.2-.6-.4v-.8l.2-.4v-.4.2h-.8l-.4-.4-.2-.2v-.2h-.6l-.2-.2v-.2l-.2-.4v-.6h-.2v.2-.6l.2-.2V354l-.2-.4-.2-.4-.2-.2-.2-.6.2-.4v-.8l-.4-.8-.2-.2h-1v-.2l.2-.6-.4-.2-.4-.4-.2-.4v-.2l-.2-.4v-.6l-.6-.2h-.6l-.2-.4v-.6l-.4-.8v-.4l.2-.4v-1.2h-.2v-.6l-.2-.4-.2-.6v-1.8l-.2-.2v-.2l-.2-.6-.4-.6-.4-.2-.6-.2-.8-.4-.4-.4v-.4l-.2-.2h-.6l-.2-.2-.2-.4-.2-.2.2-.2.2-.4v-.4l-.4-.6-.4-.8h-.4v-.2l.2-.2v-.2h-.2l-.2-.2-.4-.4-.4-.2h-.4.4v-.2l-.4-.2-.2-.2h-.4l-.4-.2h-.2v-.8l-.2-.4-.4-.2h-.4l-.2-.4h-.2l-.2-.2h-.2l-.4-.2-.2-.2v-.2l-.2-.2h-.6l-.2-.2-.2-.2-.8-.4h-.4l-.2-.2v-.4l-.4-.8-.6-.4v-.4l-.2-.8-.4-.4-.2-.8-.2-.2-.8-.4h-1.2l-.6-.4-.2.2h-.2l-.4-.2-.4-.6-.2-.4v-.2l-.2-.4-.6-.2-1.3-.2h-1.2l-.2-.4v.2l.4-.8.4-.6v-1l-.2-.6h-.2l-.2-.2h-.2l-.4.2-.2.2-.2.2-.4.4-.4-.2-.2-.2h-.2l.2-.4v-.6l.2-1-.2-.4-.2-.4h-1.8v-.2l-.2-.2v-.4l-.2-.2-.2-.8-.6-.8v-.8l-.2-.2-.4-.2-.2-.2v-.4l-.2-.2h-.2l-.6.2h-.2l-.2-.2v-.6l-.6-.4h-.2l-1 .6-.8.2h.9l-.2-.2-.2-.8-.4-.6h-.6l-.4.8v.2l-.4.2-.6-.2h-.8l-.2.2-.2.2v.2l-.4.2-.2-.2-.2-.2-.2-.4h-1.1l-.6.4-.2-.2-.8-.2-.8-.4-.2-.2h-.2l-.4-.2h-.4l-.2.2h-.2l-.4-.2-.2-.2h-.8l-.8-.4h-.6l-.2.2h-.2l-.6-.2h-.6l-.2.2-.2.2h-.4v-.2l-.2-.2h-.8l-.4-.4-.2-.2-.4.2-.2.2h-.2l-.4-.2-.8.2-.4-.2-.2.2v.4l-.4.2h-1v-.2l-.4-.2h-1.2l-1-.4-.6-.6v-.2l-.8-1.1h-.2v-.2l-.2.2-.6.2h-.4l-.4-.2-1.1-.4h.8l.2-.4-.2-.2h-.2l-.2.2h-.2l-.6-.6h-.2l-.6-.2h-.2l-.2.4h-.6l-.2.4-.6.6v.6l-.4.6-.2.8v.6l-.4.8v.2h-.6l-.4-.2-.8-.4-1-.2h-.4l-.4-.2h-.8v.2l-.2.2v.4l-.4.4-.4.2h-.6l-.2-.2-.2-.2h-.2l-.2.2h-.2l-.4.2h-.8l-.4.6h-1.4l-.4-.2v-.2l-.4.2v.2l-.2.4-.2.2v.6l-.2.4-.2.2v.4l.2.4-.2.2-.6.4-.4.6-.6.2-.2.4v.2l.2.4-.2 1-.2.2-.4-.2h-.4v.2l.2.6-.2.2h-.2l-.2.6v.4l.2.2-.8.6-.6.4h-.2v.2l.2 1.1-.4.4-.4.8v.4h-.2v.4l-.2.6.2.2v1l.2.2-.4.6-.4.4v.8l-.8.4h-.4l-.2-.2-.2.2v.4l-.4 1.3v1l-.6.2v1.2l.6.4h.2l.4.2.2.6v.2l-.4.4-.6.2h-.2l-.4-.4h-.2.4v.2l.2.2v.4l-.2-.1-.2-.2h-.4l-.4.2-.2.4-.2.2-1-.4h-.6v.2l-.2.2.2.6-.4.4v.2h-.2l-.2.4-.2.6-.2.2-.4.2v.4l-.2.2h-.2l-.2.2h-.6l-.2.2-.2.2h-.2v.4l-.6.6-.4.2v1.8l-.2.2-.4.6v.6l-.4.2-.4-.2-.4.4-.4.2h-.4v-.4h-.4l-.2-.2h-.6l-.4-.2-.8-.2-.4.4h-.4l-.2-.2-.2-.2h-.4v.2h-.2v.2h-.2l-.2-.2v-.4l-.2-.2-.2-.2-.2-.2-.4-.2h.6l-.2-.2-.4-.2v-.8l-.4-.2-.2.2-.2.4-.2.2-.2.2-.8-.2v-.2l-.6-.2h-.2l-.8-.6-.2-.2-.2-.4h-.2l-.4-.4-.2-.2h-.2v.2l-.2-.2-.2-.2v-.6l-.4-.4-.4-.6-.2-.4h-.2l-.2-.2h-.6v-.2l.2-.4h-.2l-.4-.4-.6-.4-.2-.2-.8.2h-.6l-.2-.2-.2-.2v-.2h-1.2l-.4.2-.2-.2-.2-.4h-.4v-.2l-.8-.2h-.4l-.6-.2-.4-.4-.2-.4-.4-.4-.4-.4-.2-.4h-.4l-.4-.2v-.8l-.4-.4v-.2h-.2l-.6-.2-.2-.2-.8-.4-.6-.2h-.2l-.8-.2h.4-1v-.2l-.2-.2-.6-.2-1-.2-.4.2-.2-.2-.6-.2-.6-.4h-.2l-.8-.4-.2-.2-.4-.4v-.2l-.4-.2-.4-.2h-.2l-.2-.4-.2-.2-.2-.4-.2-.2-.6-.4H98l-.2-.2h.2-.2v-.2h-.2l-.2-.2-.4-.4-.4-.6v-.6l-.6-.8-.4-.2-.2-.2v-.8l-.2-.2v-.2H95l-.2-.4v-.4h-.2l-.2-.2-.4-.2-.2-.2v-.2h-.4l-.8-.4H92v-.2h-.2l-.2.2H91l-.6-.4-.4.2h-.6l-.4-.6v-.4h-.2v-.4l-1.9-1.3-.6-.4-.6-.8-.4-.2-.2-.2-.2-.2-.2-.2-.2-.4-.6-.8-.2-.2v-.4l.2-.2-.2-.2-.2-.4v-.2l-.2-.4-.2-.8.2-.2v-.2l-.2-.2-.2-.6v-.4l-.2-.4-.6-1-.2-.4-.2-.2-.4-.4-.2-.2v-.4l-.2-.4h-.2l-.2-.4v-.8l-.2-.2-.2-.2-.4-.4-.2-.2v-.6h-.2l-.2-.2-.2-.8-.2-.2v-1.1l.2-.8-.2-.6v-1.1l-.2-.2h-.4v-.4l.2-.2-.2-.8v-.6h.9l.2-.2.2-.4v-.6.7l-.2-.4v-1.4l.2-.4.2-.6v-.8l-.6-1.3-.2-.4v-.2l-.2-.6-.2-.6h-.2l-.2-.4v.1h-.2l-.2.2-.2-.2h-.2v-.4l-.2-.4v-1l-.6-.4-.4-.6-.4-.2-.4-.4v-.2l-.2-.2v-.6l-.2-.4h-.6l-.4-.6-.4-.2.2-.8.2-.6-.4-.4v-.6h-.2v-1h.2l-.2-.8v-.6l-.2-.6v-.2l-.2-.2-.2-.8v.2-.4l-.2-.4-.2-.6-.2-.6-.4-.6-.2-.2h-.6l-.6-.2-.4-.2h.2l-.2-.6h-.2v-1.4l-.6-.6v-.4l-.2-.2h-1l-.4-.2v.2l-.2.2v-.2H67l-.2-.2v-.4l-.8-.6-.6-.4-.4-.6v-.4l-.2-.2h-.2l-.8-.2h-.4l-.2-.2v-.6l-.2-.2h-.6l-.2-.2v-.4l-.4-.4v.2h.2l-.2.2h-.2l-.2-.2v-.2l.2-.2-.2-.2h-1.2l-.2.2-.2-.2-.4-.4-.2-.2-.2-.2-.2-.2h-.6v.2H58l-.2-.4h-.2l-.2-.2-.6-.2-.2-.2-.2-.2h-.2l-.2-.2h-.4l-.4-.2H55v-1l-.2-.6v-.2l-.4-.4-.6-.2-.6-.6H53v-.2l-.4-.2-.2-.2-.2-.2H52l-.4-.4-.2-.2v-.4l-.2-.2-.2-.2-1-1h-.2.2l-.4-.2-.6-.8v-.4l-.2-.2v-.2l-.2-.2.2-.2v-.2l-.2-.8-.2-.4h-.2v-.4l-.2-.4-.8-.8h-.6l-.2-.8-.4.4-.4-.2-1.3-.6-.2-.2v-.4l-1-.8h-.8l-.2-.2-.2-.6v-.2l-.2-.4h-.2l-.2-.2-.8-1.1-.2-.4-.4-.4-.6-.8-.4-1-.2-.2h-.8.1l-.2-.8-.2-.2-.2-.2h-.8l-.2-.2-.2-1v-.6l-.2-.4-.6-.2-1-1-.2-.2H34l-.6-.2-2.1-.2-.6-.8-.2-.2v-.2h-.2l-.8-.2-.4-.2-.6-.4-.6-.8-.2-.2-1-.4-.2-.4-.2-.2-.2-1-.4-.6-.2-.8v.3l-.4-.2-.8-.8-.2-1-.2-.4-.2-.4-.2-.8-.2-.4-.8-1.3v-.2l-.2-.4-.2-.8-.2-.4-.2-.2-.4-.4-.2-.2-.2-.6v-.2h-.2l-.4-.4-.2-.2-.6-.4h-.4l-.2-.2-.4-.2-.2-.2-.6.2-.2.2v.2h-.2.7v.2l-.2-.2-.8-.6v-.2l-.4-.4-.2-.4v-.2l-.2-.2v-.2l-.2-.2h-.2v-.2l-.2-.2h-.4v-.2H15v.2h-.2l-.2-.2v-.2l-.2-.2-.2-.2h-.4v.3-.2l.2-.2v-.2l-.2-.2h-.4l-.2-.2-.2-.2v-.4h-.2v-.4l.2-.2v-.4l-.2-.2-.2-.2h-.2l.2-.2.2-.2h.2l.2-.2h.4v-.2h.2l-.2-.2h-.4v-.2l.2-.2v-.6l.4-.2v-.2h-.4v-.2l.2-.2v-.4h-.4l-.2-.2v-.4l.2-.2h.4l.2-.2v-.2h1.4l.6.2h1.7l1.9.2h2.5l.6.2h2.3l4 .4h2.9l2.7.2 1.7.3zm313.5 206.6l.2-.8v-.2l.2-.2h.2l-.2-1-.2-.2.2-1.1.4-1.3.6-.4v-.5l.2-.2-.2-.4.2-.2.4-1.3 1-1.5.4-1 .6-.8v-.2l.2-.6v-.4l.2-.4.2-.2.4-.8-.2-.2.4-1v-.2h.4l.2.2.2-.2.4-.8.2-.6v-.6l-.2-.2v-.2l.4-.2.2-.2.6-1 .2-.6h.4l.4-.2.6-.6v-.4l.2-.2.8-1.1v-.4l.2-.2v-.2l.2-.2v-.2l-.2-.2h-.2l-.8.2-.2-.2-.2-.2 1-.2.8-.2 1.1-.4.6-.6 1-2.1v-.4l1.1-1.7.2-1h-.2l-.2-.2.4-.8.4-.8.2.2.4-.2.2-.4.6-.4.2-.4-.2-.2.2-.4.8-.8h.6l.2-.4h-.2v-.6l.2-.8.2-.6.2-.2.2.2.2.2.2.4.6.4.6-.2.4-.4.2-.2v-.6l-.2-.8-.2-.4v-.2l.2-.2 1-.6 2.1-.2 1.1-.4.2-.2-.2-.4v-.2h.6l1-.4v-.4l.4-.8 1.7-1.1-.2-.2.6-.6.6-.2h1l.2-.2.2-.6.6-.2 1.9-.4 1-.4.6-.2.6-.6.2-.2v-.2 1h.4l.2.2v1l-.6.6-1 .4-1.9 1.1-2.1 1-1.3 1.1-1 .6-.4.2-2.7 2.1-2.3 1.9-2.7 2.5-.8.6-.2.2v.2h-.2l-1.3 1.5v.2l-1.1 1.1-1.5 1.7-1.1 1.7-1.1 1.7-.4.8-.2.6v.2l-.2.2-.2.4-.8.8v.2l-.2.2-1.1 1.7v.2h-.2l-.8 1.3-.2.4-.8 1.3-.6 1.3-.4.6-.2.6-.2.2-.4.8v.2l-.2.8-1.7 3.4v.2l-.4.8-1 2.7-.8 2.7-.8 2.9-.2.4-.4 2.5-.4 2.1-.2 2.7v4.6l.4 3.4.2 1.5h.2v.2l.4 2.5.2.2.6 2.9 1.1 3.8.2.6.2.2v.2l.4 1 .4 1.5.2.4.2.2.4 1.3 1.1 3.6.2 1 .8 2.7.4 1.7.4 1.7.4 1.9v.2l.2 1 .2 1.1v1.2l.4 2.1v.4l.2.6h-.2l-.4-.4V466l-.4-1.7V463l-.2-1.5-.6-2.5-.8-3.4-.4-1.3-.6-1v-.2l-.2-1-.2-1-.2-.6-.4-.6-.6-1.5-.6-.4-.8-1.1.2-.6v-.2l-.4-1v-.2l-.4-.4-.6-1.5.2-.8-.4-1.5-.8-.4-.2-.6v-.8l.2-.8v-.2l-.2-.4v-1l-.2-.6-.6-.4.2-2.3-.2-.6-.2-.6v-7.1l.2-.6-.2-.4V421l.4-1.7-.2-.2h-.7l.2-1.1.2-1 .2-1v-.3z" fill="#d74b4b"/></svg>