<?xml version="1.0" encoding="utf-8"?>
<!-- Generator: Adobe Illustrator 19.0.0, SVG Export Plug-In . SVG Version: 6.00 Build 0)  -->
<svg version="1.1" xmlns="http://www.w3.org/2000/svg" xmlns:xlink="http://www.w3.org/1999/xlink" x="0px" y="0px"
	 viewBox="0 0 450 358.1" style="enable-background:new 0 0 450 358.1;" xml:space="preserve">
<style type="text/css">
	.st0{fill:#28282E;}
</style>
<g id="Layer_1">
</g>
<g id="Capa_1">
	<g>
		<g>
			<path class="st0" d="M225,72.3L64.5,204.6c0,0.2,0,0.5-0.1,0.8c-0.1,0.4-0.1,0.6-0.1,0.8v134c0,4.8,1.8,9,5.3,12.6
				c3.5,3.5,7.7,5.3,12.6,5.3h107.2V250.9h71.5v107.2h107.2c4.8,0,9-1.8,12.6-5.3c3.5-3.5,5.3-7.7,5.3-12.6v-134
				c0-0.7-0.1-1.3-0.3-1.7L225,72.3z"/>
			<path class="st0" d="M446.9,174.5l-61.1-50.8V9.8c0-2.6-0.8-4.7-2.5-6.4c-1.7-1.7-3.8-2.5-6.4-2.5h-53.6c-2.6,0-4.7,0.8-6.4,2.5
				c-1.7,1.7-2.5,3.8-2.5,6.4v54.4L246.2,7.3C240.2,2.4,233.2,0,225,0c-8.2,0-15.3,2.4-21.2,7.3L3.1,174.5c-1.9,1.5-2.9,3.5-3.1,6
				c-0.2,2.5,0.5,4.7,2,6.6l17.3,20.7c1.5,1.7,3.4,2.7,5.9,3.1c2.2,0.2,4.5-0.5,6.7-2L225,47.7l193.2,161.1c1.5,1.3,3.4,1.9,5.9,1.9
				h0.8c2.4-0.4,4.4-1.4,5.9-3.1L448,187c1.5-1.9,2.1-4.1,1.9-6.6C449.7,177.9,448.7,175.9,446.9,174.5z"/>
		</g>
	</g>
</g>
</svg>
