<svg xmlns="http://www.w3.org/2000/svg" viewBox="0 0 441.4 372.6"><style>.st0{fill:#28282e}</style><g id="Capa_1"><path class="st0" d="M-8.6 27.1V13.6C-8.6 6.2-.2 0 10.2 0h246.2c10.4 0 18.8 6.1 18.8 13.6v13.5H-8.6zm287.4 170.8v-13.5c0-7.5 8.4-13.6 18.8-13.6h124.9c10.4 0 18.8 6.1 18.8 13.6v13.5H278.8z"/><path class="st0" d="M269.4 35H0v290.6c0 26 21.1 47.1 47.1 47.1h347.2c26 0 47.1-21.1 47.1-47.1V206.9h-172V35zM102.7 53.8h25.9V108h-25.9V53.8zm0 80.1h25.9v54.2h-25.9v-54.2zm0 80.1h25.9v54.2h-25.9V214zm-55.6 54.2H21.2V214h25.9v54.2zm0-80.1H21.2v-54.2h25.9v54.2zm0-80.1H21.2V53.8h25.9V108zm35.4 160.2h-26V214h25.9l.1 54.2zm0-80.1h-26v-54.2h25.9l.1 54.2zm0-80.1h-26V53.8h25.9l.1 54.2zm81.4 251.3h-61.3v-71.4h61.3v71.4zm0-91.1H138V214h25.9v54.2zm0-80.1H138v-54.2h25.9v54.2zm0-80.1H138V53.8h25.9V108zm46.2 160.2h-25.9V214h25.9v54.2zm0-80.1h-25.9v-54.2h25.9v54.2zm0-80.1h-25.9V53.8h25.9V108zm35.3 160.2h-25.9V214h25.9v54.2zm0-80.1h-25.9v-54.2h25.9v54.2zm0-80.1h-25.9V53.8h25.9V108zm75.2 230.1h-19.4v-46.3h19.4v46.3zm0-71.5h-19.4v-46.3h19.4v46.3zm26.5 71.5h-19.4v-46.3h19.4v46.3zm0-71.5h-19.4v-46.3h19.4v46.3zm39.9 71.5h-19.4v-46.3H387v46.3zm0-71.5h-19.4v-46.3H387v46.3zm26.5 71.5H394v-46.3h19.4v46.3zm0-71.5H394v-46.3h19.4v46.3z"/></g></svg>