<svg xmlns="http://www.w3.org/2000/svg" viewBox="0 0 450 358.1"><style>.st0{fill:#28282e}</style><g id="Capa_1"><path class="st0" d="M225 72.3L64.5 204.6c0 .2 0 .5-.1.8-.1.4-.1.6-.1.8v134c0 4.8 1.8 9 5.3 12.6 3.5 3.5 7.7 5.3 12.6 5.3h107.2V250.9h71.5v107.2h107.2c4.8 0 9-1.8 12.6-5.3 3.5-3.5 5.3-7.7 5.3-12.6v-134c0-.7-.1-1.3-.3-1.7L225 72.3z"/><path class="st0" d="M446.9 174.5l-61.1-50.8V9.8c0-2.6-.8-4.7-2.5-6.4-1.7-1.7-3.8-2.5-6.4-2.5h-53.6c-2.6 0-4.7.8-6.4 2.5-1.7 1.7-2.5 3.8-2.5 6.4v54.4L246.2 7.3c-6-4.9-13-7.3-21.2-7.3s-15.3 2.4-21.2 7.3L3.1 174.5c-1.9 1.5-2.9 3.5-3.1 6-.2 2.5.5 4.7 2 6.6l17.3 20.7c1.5 1.7 3.4 2.7 5.9 3.1 2.2.2 4.5-.5 6.7-2L225 47.7l193.2 161.1c1.5 1.3 3.4 1.9 5.9 1.9h.8c2.4-.4 4.4-1.4 5.9-3.1L448 187c1.5-1.9 2.1-4.1 1.9-6.6-.2-2.5-1.2-4.5-3-5.9z"/></g></svg>