<?xml version="1.0" encoding="utf-8"?>
<!-- Generator: Adobe Illustrator 19.0.0, SVG Export Plug-In . SVG Version: 6.00 Build 0)  -->
<svg version="1.1" id="Layer_1" xmlns="http://www.w3.org/2000/svg" xmlns:xlink="http://www.w3.org/1999/xlink" x="0px" y="0px"
	 viewBox="0 0 500 500" style="enable-background:new 0 0 500 500;" xml:space="preserve">
<style type="text/css">
	.st0{fill:#D74B4B;}
</style>
<polygon id="XMLID_1_" class="st0" points="67.3,344.2 66.9,344 66.7,344 66.6,343.8 66,343.8 65.6,343.6 65.5,343.6 64.7,343.6 
	63.4,343.4 63.1,343.4 62.9,343.4 62.7,343.6 62.5,344 62.3,344.2 62.2,344.2 61.2,344.2 60.1,344 59.6,343.8 59.4,343.6 59,343.1 
	58.7,342.5 58.5,342.3 58.1,342.2 57.9,342.3 57.6,343.1 57.4,343.4 57.2,343.4 57,343.4 56.9,343.4 56.5,343.1 56.3,342.7 
	56.1,342.3 56.3,341.4 55.4,340.3 55.2,339.8 55.2,339.6 55.2,339.2 55,339.1 54.8,339.1 54.5,339.1 54.1,338.9 53.9,338.5 
	53.9,338 54.1,337.4 54.3,336.7 54.8,335.2 55.4,334.7 55.6,334.3 55.8,333.9 55.9,333.2 56.1,332.8 56.1,332.6 56.1,332.1 
	56.1,331.7 56.5,331 56.5,330.8 56.5,330.4 56.3,329.5 56.3,329.2 56.5,328.6 56.7,327.9 56.7,327.7 56.7,327.3 56.3,327 
	56.1,326.6 55.6,325.7 55.8,325.5 56.7,325 56.9,324.6 56.5,323.7 56.3,323.3 55.9,323.1 55.4,322.9 54.7,322.6 54.1,322.6 
	53.7,322.4 53.4,322.2 53.4,322 52.8,320.9 52.8,320.7 52.8,320.6 53.4,320 54.3,319.5 54.5,319.1 54.7,318.9 55,318 55.2,316.7 
	55.2,316.4 55.2,316 54.7,315.1 54.7,314.7 54.7,314.3 54.7,314.2 54.5,314 54.3,313.8 53.6,312.9 53.4,312.5 53.4,312.3 
	53.6,312.1 53.7,312.1 54.5,312.1 55,312.1 55.4,312 55.4,311.8 55.4,311.6 55.6,311.6 56.1,311.4 57,311.4 58.1,311.8 58.5,311.8 
	58.7,311.8 59.2,311.6 59.8,311 60.1,310.7 60.3,310.1 60.7,309 60.7,308.5 60.7,308.3 61.4,307 61.8,306.8 62.2,306.3 62.3,305.9 
	62.5,305.7 62.5,305.4 63.1,304.6 63.3,304.5 63.8,304.1 64.2,304.1 64.5,303.9 65.1,303.4 65.3,303.2 65.3,302.6 65.3,302.3 
	65.3,302.1 66.6,301.2 67.8,300.4 67.8,300.2 67.6,300.1 67.1,299 66.7,298 66.7,297.7 66.7,297.1 67.3,296.2 67.5,296 67.6,295.9 
	67.8,295.7 67.8,295.5 67.8,295.3 67.8,295.1 67.6,294.9 67.6,294.6 67.6,294.2 67.6,294 67.8,293.7 67.8,293.3 67.6,292.9 
	67.6,292.7 67.6,292.6 67.6,292.2 67.6,292 67.8,291.8 67.8,291.6 68,291.6 68,291.5 68,291.3 67.8,291.3 67.8,291.1 67.8,290.9 
	67.6,290.7 67.6,290.5 67.5,290.2 67.6,290 67.6,289.8 67.8,289.6 68,289.3 68.4,289.1 68.9,288.9 69.1,288.9 69.5,288.7 70,288.3 
	70.2,287.4 70.2,286.9 70,286.5 69.8,286.3 69.7,286.2 69.5,285.8 69.5,285.6 69.1,285.4 68.9,285.2 69.1,285.2 69.3,284.7 
	69.5,284.3 69.7,284 69.7,283.4 69.7,283 69.5,282.5 68.7,280.8 68.6,279.7 68,278.5 68.2,278.5 68.4,278.3 68.6,277.9 68.7,277.7 
	68.6,277.5 68.4,276.8 68.4,276.6 68,275.7 68,275.5 68.2,275.2 68.2,275 68.4,275 68.9,275 69.1,275 69.5,274.6 69.7,274.4 
	69.8,274.3 70,274.1 69.8,273.5 69.8,273.3 69.3,273 69.1,272.6 68.9,272.6 68.9,272.4 68.9,272.2 68.9,272.1 68.9,271.9 
	69.1,271.7 69.3,271.7 69.5,271.5 69.7,271.3 69.7,271.1 69.7,271 69.7,270.8 69.5,270.6 69.1,270 68.9,270 68.7,269.9 68.6,269.7 
	68.6,269.5 68.4,269.5 68,269.3 67.8,269.1 67.8,268.6 67.8,268.4 68.4,267.5 68.7,266.9 68.7,266.7 69.3,266.6 69.5,266.7 
	69.7,266.7 70.4,266.4 70.8,265.8 71.5,265.3 71.5,265.1 71.7,264.9 71.7,264.7 72,264.6 72.4,264.2 72.6,263.8 72.8,263.8 
	73,263.6 73.1,263.6 73.1,263.5 73.1,263.3 73.1,263.1 73,262.9 73,262.7 73,262.5 73.1,262.4 73.3,262.4 73.5,262.4 73.9,262.2 
	74.1,262.2 74.4,261.8 74.6,261.6 74.8,261.4 75,260.9 75,260.2 75,259.8 74.8,259.1 74.8,258.7 74.8,258.5 75,257.2 75.2,256.7 
	75.2,256.1 75.2,255.9 75.7,255.6 75.7,255.2 76.2,254.7 76.4,254.3 76.8,254.1 77.2,253.9 77.5,253.9 78.3,254.1 79,253.8 
	79.7,253.6 79.9,253.6 80.3,253 80.6,252.5 80.8,252.3 81.2,252.1 82.1,252.3 82.8,252.1 83.2,251.9 83.8,251.4 84.5,250.5 
	84.5,250.3 84.7,250.3 84.7,250.1 85.2,249.5 85.6,249.4 86.3,249.2 86.9,249.4 87.8,249 88.5,248.6 88.7,248.3 89.6,248.1 
	89.6,247.9 89.8,247.9 90,247.3 89.8,246.8 90,246.6 90,246.4 90.5,246.2 90.9,246.1 91.1,245.7 92.4,244.4 93.3,243.7 93.3,243.5 
	93.5,243.5 93.5,243.1 93.6,243.1 93.8,243 94,243 94,242.8 94.2,242.8 94.2,242.6 94.4,242.4 94.4,242.2 94.5,242.2 94.7,242.2 
	94.9,242.2 95.5,242 95.6,242 96,242 96.2,242 96.2,241.9 96.4,241.5 96.2,241.3 96.2,240.9 96.2,240.6 96.2,240.4 96,239.7 
	96,239.1 96,238.6 96,238.4 95.8,238.2 94.7,237.3 94.4,236.2 94,235.4 93.8,234.9 93.5,234.5 93.3,234.3 92.9,234.2 92.5,234 
	92,233.4 91.1,233.4 90.2,233.1 90,232.9 89.6,232.2 88.9,231.4 88.7,231.2 88.3,231.1 87.6,230.1 87.4,230 86.5,230 85.9,229.8 
	85.9,229.6 85.8,229.4 85.8,229.2 85.6,228.7 85.6,228.3 85.2,227.9 85,227.9 84.3,227.4 84.1,227.4 83.9,227.2 83.9,227 83.8,227 
	83.4,227 83.4,226.8 83,226.3 83,226.1 82.8,226.1 82.8,225.9 82.7,225.9 82.7,225.7 82.5,225.7 82.3,225.7 81.9,225.7 81.4,225.9 
	80.8,226.1 80.1,226.1 79.9,225.9 79.7,225.7 79.2,225.2 79.2,225 79.2,224.8 79.5,224.1 79.5,223.7 79.5,223.5 79.5,222.6 
	79.5,222.1 79.7,221.7 79.7,221.4 79.9,221 79.9,220.3 79.7,219.3 79.7,219.2 79.2,218.1 78.1,215.9 77,214.8 76.6,213.8 
	76.6,213.5 76.4,213.5 76.6,213.3 76.8,213.1 77,213.1 77,212.4 76.6,212 75.9,211.5 75.9,210.7 75.9,210.6 75.9,210 75.9,209.6 
	75.7,209.3 75.3,208.9 75.2,208.7 75.2,208.4 75.2,208.2 75.2,207.8 75.2,207.6 75.2,207.4 75,207.3 75,207.1 75,206.9 74.8,206.7 
	74.4,206 74.2,205.6 74.1,204.7 74.1,204.1 74.1,204 74.1,203.8 73.9,203.8 73.9,203.6 73.7,203.6 73.5,203.6 73.1,203.4 73,203.2 
	72.6,202.7 72.2,202.5 71.7,202.1 71.3,202 70.8,201.6 70.6,201.2 70.4,201 70.2,200.9 70,200.5 69.3,199.9 68.7,199.6 68.4,199 
	68,198.5 67.8,198.1 67.6,197.7 67.6,197.6 67.3,196.8 67.3,196.6 67.1,195.7 66.9,195.7 66.9,195 66.6,194.3 66.6,194.1 
	66.2,193.3 65.8,192.8 65.5,192.4 65.3,192.2 65.1,192.2 65.1,192.1 64.4,191.7 64.2,191.5 64,191.5 63.8,191.2 63.6,191.2 
	63.6,191 63.3,190.6 63.1,190.2 63.1,190.1 63.1,189.9 62.9,189 62.9,188.8 63.1,188.2 63.3,187.7 63.4,187.3 63.4,186.9 
	63.3,186.4 63.3,186 63.3,185.8 63.3,185.7 63.3,185.5 63.3,185.3 63.4,184.6 63.4,184.2 63.4,183.6 63.3,182.9 63.3,182.5 
	63.3,182.4 63.3,182 63.6,181.1 63.6,180.7 63.6,180.2 63.6,180 63.4,179.3 63.4,178.9 63.4,178.7 63.4,178.2 63.4,177.4 
	63.6,176.7 64,175.8 64.5,175.2 64.7,175 65.5,174.7 65.6,174.1 65.6,173.9 65.6,173.8 65.6,173.4 65.5,173.4 65.5,173.2 65.3,173 
	65.1,172.7 64.9,172.7 64.7,172.5 64.4,172.1 63.6,171.7 63.4,171.7 63.1,171.4 62.9,171.4 62.7,171 62.9,170.6 63.1,170.5 
	63.3,170.3 63.6,169.9 63.8,169.7 64,169.7 64,169.6 64.2,169.6 64.4,169.6 64.5,169.4 64.7,169.4 65.1,169.4 65.6,169.4 66,169.6 
	66.7,169.2 67.3,169 67.5,168.8 67.8,168.1 68.2,166.1 68.2,165.5 68.2,165.3 68.2,164.2 68.2,164.1 68.2,163.5 68,163 67.8,162.4 
	67.5,162 67.3,160.4 67.5,159.7 67.1,157.7 66.6,154.7 66.6,153.4 66.7,152.5 66.2,150.1 65.8,148.7 65.3,146.9 64.7,145.4 
	63.1,143.7 63.1,143.6 63.1,143.4 62.5,142.5 62.5,142.3 62.3,141.9 62.3,141.5 62.2,140.6 62.2,140.4 61.8,139.2 61.4,138.6 
	61.4,137.9 61.4,137.7 61.4,137.5 61.6,136.6 61.8,136.2 62.2,135.9 62.5,135.7 62.9,135.1 63.1,135 63.1,134.8 62.9,134.4 
	62.7,133.9 62.7,132.4 62.5,131.3 62.5,131.1 62.9,130.4 63.3,129.6 63.4,128.5 63.1,127.8 62,126 61.1,125.1 61.1,124.3 61.1,124 
	61.2,123.6 61.6,122.9 61.8,122.3 61.8,122.1 61.6,122 60.9,121.4 60.3,120.9 60.1,120.3 60.1,119.9 60.7,118.1 60.9,117.2 
	60.9,116.3 60.5,115.2 60.7,113.5 60,112.1 60.1,111.7 60.5,111.3 60.9,110.6 61.1,110.1 61.1,109.9 60.9,109 60.9,108.6 
	61.1,108.2 61.1,108 61.4,107.9 62.2,107.3 62.3,107 62.3,106.8 62.3,106.4 62.3,106 62.2,105.5 61.6,104.9 60.9,104.2 60.3,103.3 
	60.5,102.6 60.5,102 60,101.5 59,100.7 58.9,100.5 59,100.2 59.2,99.6 59,99.1 58.9,98.5 58.3,98 58.1,97.1 58.3,95.4 58.3,95.1 
	58.5,94.9 58.5,94.7 58.7,94.5 59,94.1 59.2,93.6 59.2,93.2 58.9,92.9 58.7,92.7 58.5,92.7 58.5,92.5 58.5,92.3 58.5,91.8 
	58.9,91.4 58.9,91 58.9,90.8 58.5,89.9 58.1,89.7 57.9,89.4 57.8,89.2 57.6,89 57.6,88.6 57.8,88.3 58.3,87.7 59,87.2 60.3,87 
	60.7,87 61.2,86.8 62.2,86.6 63.3,86.4 63.4,86.3 63.8,86.3 64,86.1 64.2,85.7 64.9,85.2 66.2,84.3 66.4,84.3 66.7,85.2 67.1,85.4 
	67.6,85 68.6,84.3 69.8,83.7 70.2,83.5 70.9,83.5 71.3,83.5 72,83.5 72.4,83.5 74.1,83.7 74.2,83.7 74.6,83.9 74.8,84.3 74.8,84.4 
	74.8,84.6 74.6,84.8 74.6,85.2 74.6,85.4 74.8,85.5 75,85.5 75.2,85.7 75.3,85.7 75.9,85.5 77,84.8 77.5,84.8 77.9,84.8 78.3,85.5 
	78.4,85.9 78.6,85.9 79.9,85.2 80.6,84.3 81,84.3 81.4,84.3 83.4,84.6 83.8,84.6 84.3,85.7 84.5,85.9 85.9,87.5 86.3,87.7 
	86.5,87.9 88,89.7 88.1,90.5 88,90.7 87.4,91 87.4,91.4 87.4,91.8 89.8,92.9 90.3,93.8 90.5,94.3 90.9,94.5 91.6,95.1 91.6,95.2 
	92.4,95.4 92.5,95.6 92.7,95.6 92.9,95.6 94.2,95.6 95.6,95.1 96.7,94.5 97.5,94.5 97.7,94.7 98.2,94.9 98.4,94.9 98.6,94.5 
	99.1,93.8 99.3,93.4 99.5,93 99.3,92.5 99.5,91.9 100,90.8 101,89 101.1,88.8 100.8,88.5 100.4,88.3 100.4,88.1 100.4,87.7 
	100.6,87.4 101.3,87 101.9,87 102.1,86.8 102.8,85 103.9,83 104.4,82.1 104.8,81.3 105.9,81 105.9,80.6 105.9,76.6 105.9,76.2 
	105.9,74.7 105.9,72.9 106.1,70.7 106.1,70 106.3,64.5 106.3,60.1 106.3,59.7 106.3,58.1 106.3,57.5 106.3,55.3 106.4,45.3 
	106.4,44.9 106.4,42.5 106.4,42.3 106.4,40.1 106.6,30.4 106.6,30.3 106.6,29.7 106.6,28.8 106.8,26.8 107,17.3 107,13.6 
	112.7,13.8 116,13.8 130.2,14.1 135.7,14.1 137,14.3 139,14.3 144.1,14.3 146.5,14.3 147.4,14.5 150.2,14.5 156.8,14.5 159,14.5 
	169.2,14.7 172,14.7 176.2,14.9 176.7,14.9 179.6,14.9 180.4,14.9 182.2,14.9 184,14.9 186.6,14.9 188.8,14.9 195.7,15.1 
	203.4,15.1 206.7,15.1 207.6,15.1 207.8,15.1 208,15.1 208.4,15.1 208.7,15.1 211.8,15.1 213.3,15.1 215.9,15.1 219.2,15.1 
	219.5,15.1 220.3,15.1 228.9,15.1 236.7,15.1 242,15.1 253.2,15.1 263.3,15.1 265.6,15.1 268.2,15.1 268.6,15.1 272.8,15.1 
	283.4,15.1 283.6,15.1 283.9,15.1 284.1,15.1 284.3,15.1 284.5,15.1 284.7,15.1 284.9,15.1 286.7,15.1 287.2,15.1 290,15.1 
	291.1,15.1 291.3,15.1 292.5,15.1 294,15.1 294.2,15.1 294.7,15.1 295.3,15.1 301.5,15.1 301.7,15.1 302.1,15.1 304.8,14.9 
	306.6,14.9 307,14.9 327.7,14.5 331,14.5 336.1,14.3 336.5,14.3 337.6,14.3 337.9,14.3 340.1,14.3 341.2,14.3 342.5,14.3 
	343.8,14.1 344.5,14.1 344.9,14.1 345.1,14.3 346.5,14.7 346.7,14.7 348.7,14.7 349.8,14.7 351.1,14.7 352.4,14.5 354.8,14.5 
	355.9,14.5 357.1,14.5 359.5,14.5 366.1,14.3 367,14.3 368.1,14.3 370.5,14.1 371.6,14.1 372.9,14.1 373.8,14.1 374,14.1 
	374.2,14.1 376.5,14.1 377.8,14.1 382.4,14 385.3,14 386.2,14 392.5,13.8 392.8,13.8 397.4,13.6 398.1,13.6 403.1,13.6 403.8,13.6 
	404.2,13.6 411.7,13.2 413.3,13.2 419.2,13 419.4,13 419.5,13 420.6,13 421,13 422.1,13 423.4,12.9 426.9,12.9 427.2,12.9 
	428.3,12.9 429.2,12.9 432.7,12.7 441.9,12.5 441.9,14.9 441.9,15.8 442.1,20.9 442.1,22.8 442.1,23.1 442.1,23.5 442.2,24.2 
	442.2,27.3 442.4,31.2 442.4,31.5 442.6,37.2 442.6,39 442.8,44.5 443,51.9 443,54.1 443.1,56.2 443.1,60.5 443.3,64.1 443.3,66.3 
	443.5,69.4 443.5,72.4 443.7,74.2 443.9,80.6 443.9,83 443.9,84.1 444.1,86.1 444.2,95.6 444.2,98 444.4,102 444.4,103.3 
	444.4,104.8 444.6,105.1 444.6,105.3 444.6,105.9 444.6,109.9 444.6,110.1 444.6,110.6 444.8,111.9 444.8,114.5 444.8,116.1 
	445,118.7 445,120.1 445,121.2 445,124 445,124.2 445.2,125.8 445.2,127.8 445.2,128 445.2,128.4 445.2,129.1 445.2,129.5 
	445.2,130.7 445.3,131.8 445.3,132.6 445.3,133.1 445.3,133.7 445.3,134.4 445.3,134.6 445.3,136.8 445.5,138.1 445.5,139.2 
	445.5,140.4 445.5,141.5 445.5,142.6 445.5,143.7 445.5,143.9 445.7,145.2 445.7,145.9 445.7,147.6 445.7,148 445.7,148.5 
	445.7,148.9 445.7,149.1 445.9,150.9 445.9,151.1 445.9,151.6 445.9,152 445.9,152.7 445.9,153.6 445.9,154.9 446.1,156 
	446.1,157.3 446.1,158.4 446.1,159.7 446.1,160.9 446.1,161.3 446.3,162 446.3,163.3 446.3,164.6 446.3,165.3 446.6,177.6 
	446.8,182.5 447,187.1 447,190.1 447,191 447.2,193.5 447.2,194.6 447.2,195.9 447.2,197.2 447.2,198.3 447.7,214.2 447.7,219 
	447.9,222.6 448.6,248.6 448.8,258.9 449,262.5 449.2,266.4 449.4,273 449.6,281 449.6,281.2 449.6,284.3 449.7,289.4 449.7,289.8 
	449.9,293.8 449.9,294.6 449.9,297.9 449.9,299 450.3,307.2 450.3,307.6 450.3,308.1 450.3,308.5 450.3,309.2 450.3,311.8 
	450.5,314.7 450.5,314.9 450.5,315.3 450.5,315.4 450.5,315.6 450.7,325.1 450.8,328.6 451,334.5 451,337 451,338.3 451,340.1 
	451,340.3 451.6,354.4 451.7,360.3 451.7,364.5 451.7,365.4 451.9,371.6 451.9,371.8 451.9,372.2 451.9,372.5 452.1,375.5 
	452.5,393.8 453.2,417.2 453.2,422 453.2,422.3 453.2,423.4 453.4,427.1 453.4,428.2 453.6,436.1 453.8,440.1 453.8,441 
	453.8,442.5 453.8,445.2 453.8,446.3 454.1,459.7 454.5,471 454.5,471.2 454.5,472.7 454.9,485.1 438.4,485.3 436.9,485.3 
	435.3,485.5 423,485.7 422.3,485.7 421.7,485.7 420.6,485.7 420.5,485.7 419.9,485.9 419.7,485.9 419.4,485.9 419,485.9 
	418.3,485.9 418.1,485.9 417.9,485.9 417.7,485.9 417,485.9 414.2,485.9 401.6,486.2 399,486.2 396.3,486.2 392.8,486.4 
	389.9,486.4 386.8,486.4 386.6,486.4 377.1,486.6 376.7,486.6 372.1,486.6 353.8,487 342.3,487.1 335.2,487.1 332.4,487.1 
	331.2,487.1 329.9,487.3 328.4,487.3 326,487.3 323.1,487.3 321.5,487.3 319.4,487.5 319.3,487.5 317.8,487.5 316.9,487.5 
	315.2,487.5 309.9,487.5 306.3,486.2 289.1,479.8 275.2,474.7 270.8,473 245.3,463.7 226.3,456.7 217.9,453.6 217.5,453.5 
	217.2,453.5 216.2,453.1 216.1,452.9 215.3,452.7 206.4,449.4 200.7,447.2 183.7,441 182.2,440.5 163.9,433.9 157.5,431.3 
	149.3,428.2 137.9,423.8 119.8,416.8 117.6,416.1 99.1,409 84.7,403.3 67.1,396.5 62.7,394.9 57.6,392.9 51.9,390.7 49.3,389.8 
	47.3,389 45.1,388.1 45.1,387.9 45.3,387.7 45.1,387.4 45.1,387.2 45.3,387 45.5,387 45.7,387 45.7,386.8 45.9,386.6 45.9,386.5 
	45.9,386.3 45.5,385.9 45.3,385.7 45.5,385.4 45.7,385 46.1,384.6 46.1,384.4 45.9,384.3 45.9,383.9 45.9,383.7 46.1,383.7 
	46.6,383.5 46.6,383.3 46.8,383.3 46.8,383.2 46.8,383 46.8,382.8 46.8,382.6 46.6,382.4 46.4,382.2 46.1,382.4 45.7,382.4 
	45.5,382.2 45.5,382.1 45.7,381.9 46.1,381.5 46.2,381.3 46.2,381.2 46.1,381 46.1,380.8 46.1,380.6 46.2,380.4 46.4,380.1 
	46.4,379.9 46.2,379.5 46.2,379.3 45.9,379.3 45.9,379.1 45.7,378.6 45.7,377.9 45.9,377.5 46.4,377.3 46.6,377.3 46.8,377.5 
	47,377.5 47.7,377.3 47.7,376.9 47.7,376.8 47.9,376.6 48.3,376.4 48.8,376 49,375.8 49,375.7 49,375.5 49,375.3 49.3,374.7 
	49.7,374.6 50.3,374 50.3,373.8 50.3,373.6 50.4,373.5 50.4,372.9 51.5,371.3 51.5,371.1 51.5,370.7 52.1,370 52.3,369.6 
	52.5,369.4 52.6,368.9 52.6,368.7 53.4,367.8 53.6,367.4 53.7,367.4 54.5,368.2 54.8,368.2 55.2,368.2 55.4,368.2 55.9,368.3 
	56.1,368.3 56.7,368.5 57.4,368.5 57.6,368.5 57.8,368.7 57.9,368.7 58.5,368.7 59,368.9 59.4,369.1 59.6,368.9 59.8,368.5 
	62,368.5 62,367.8 63.3,368 63.3,367.2 64.2,367.2 65.1,367.2 65.1,366.7 66,366.7 65.8,366 65.6,365.2 65.6,365 65.6,364.7 
	65.6,363.9 65.8,363.8 65.8,363.4 66.4,363 66.6,362.8 66.6,362.7 66.9,362.3 66.9,362.1 67.3,361.7 67.8,361.6 68.2,361.4 
	68.4,361.2 68.7,361 69.3,360.5 69.7,360.1 70.2,359.6 70.6,357 70.6,356.6 70.6,356.4 70.8,354.8 70.8,354.6 70.8,354.2 
	70.8,353.9 70,353.1 69.8,353 69.7,352.6 69.5,352 69.7,351.9 69.7,351.5 70,351.1 70.2,350.8 70.2,350.4 70.2,350.2 70.2,350 
	70.2,349.9 70.2,349.7 70.2,349.5 70,349.1 69.8,348.9 69.7,348.9 69.1,349.1 68.9,349.1 68.7,348.9 68.7,348.8 68.6,348.2 
	68.6,347.3 68.4,346.2 68.2,345.8 68.2,345.6 68,345.5 68,345.3 68,345.1 67.8,345.1 67.6,344.5 67.3,344.4 "/>
</svg>
