<?xml version="1.0" encoding="utf-8"?>
<!-- Generator: Adobe Illustrator 19.0.0, SVG Export Plug-In . SVG Version: 6.00 Build 0)  -->
<svg version="1.1" id="Layer_1" xmlns="http://www.w3.org/2000/svg" xmlns:xlink="http://www.w3.org/1999/xlink" x="0px" y="0px"
	 viewBox="0 0 500 500" style="enable-background:new 0 0 500 500;" xml:space="preserve">
<style type="text/css">
	.st0{fill:#D74B4B;}
</style>
<g id="XMLID_3_">
	<polygon id="XMLID_303_" class="st0" points="281.1,427.1 281.1,427.3 281.3,427.3 	"/>
	<polygon id="XMLID_302_" class="st0" points="281.5,427.1 281.5,427.3 281.6,427.1 	"/>
	<polygon id="XMLID_301_" class="st0" points="282,426.9 282,426.8 282,426.6 281.8,426.8 281.6,426.8 281.6,426.9 281.6,427.1 
		281.8,427.1 	"/>
	<rect id="XMLID_300_" x="273.6" y="416.8" class="st0" width="0.2" height="0.2"/>
	<polygon id="XMLID_299_" class="st0" points="282.8,426.8 283,426.8 283,426.9 283.2,426.9 283.2,426.8 283.4,426.8 283.4,426.6 
		283.2,426.6 283.2,426.4 283,426.6 282.8,426.6 282.7,426.6 282.5,426.8 282.7,426.8 	"/>
	<polygon id="XMLID_298_" class="st0" points="281.3,426.9 281.1,427.1 281.3,427.1 	"/>
	<polygon id="XMLID_297_" class="st0" points="280.8,428.8 281,429 281,428.8 	"/>
	<polygon id="XMLID_296_" class="st0" points="110,218.2 110.1,218.4 110.1,218.2 	"/>
	<rect id="XMLID_295_" x="281.3" y="426.8" class="st0" width="0.2" height="0.2"/>
	<polygon id="XMLID_294_" class="st0" points="281.1,426.8 281,426.8 280.8,426.8 280.8,426.9 281,427.1 280.8,427.1 280.8,427.3 
		280.6,427.3 280.4,427.3 280.3,427.3 280.3,427.5 280.4,427.5 280.6,427.5 280.8,427.5 281,427.5 281,427.3 	"/>
	<polygon id="XMLID_293_" class="st0" points="282.3,426.9 282.5,426.9 282.5,426.8 282.3,426.8 282.2,426.8 282,426.9 282.2,426.9 
			"/>
	<rect id="XMLID_292_" x="98.5" y="210.5" class="st0" width="0.2" height="0.2"/>
	<polygon id="XMLID_291_" class="st0" points="287.5,427.6 287.5,427.5 287.3,427.5 287.3,427.6 287.3,427.8 287.5,427.8 	"/>
	<rect id="XMLID_290_" x="281.3" y="427.3" class="st0" width="0.2" height="0.2"/>
	<polygon id="XMLID_289_" class="st0" points="324.9,474.8 325,474.8 325,475 325,475.1 324.9,475.1 324.9,475.3 325,475.3 
		325.2,475.3 325.2,475.1 325.2,475 325.2,474.8 325.2,474.6 325.2,474.5 325,474.5 324.9,474.5 324.9,474.6 325,474.6 	"/>
	<polygon id="XMLID_288_" class="st0" points="317.3,454.2 317.3,454.4 317.5,454.4 	"/>
	<rect id="XMLID_287_" x="287.5" y="427.8" class="st0" width="0.2" height="0.2"/>
	<polygon id="XMLID_286_" class="st0" points="281,428.1 281,428 281.1,427.8 281.1,427.6 281.3,427.6 281.3,427.5 281.1,427.3 
		281.1,427.5 281,427.5 281,427.6 280.8,427.6 280.8,427.8 281,427.8 280.8,428 280.8,428.1 280.8,428.3 280.8,428.5 281,428.5 
		281,428.3 	"/>
	<polygon id="XMLID_285_" class="st0" points="99.5,211.1 99.5,211 99.3,211 99.3,210.8 99.5,210.8 99.5,210.6 99.5,210.5 
		99.7,210.5 99.7,210.3 99.9,210.3 100,210.3 100,210.1 100,209.9 100.2,209.8 100,209.8 99.9,209.8 99.9,209.9 99.9,210.1 
		99.7,210.1 99.7,209.9 99.5,209.9 99.7,209.8 99.5,209.8 99.5,209.6 99.5,209.4 99.5,209.3 99.3,209.3 99.3,209.4 99.3,209.6 
		99.3,209.8 99.2,209.9 99.2,210.1 99,210.1 98.8,210.1 98.8,209.9 98.8,209.8 98.8,209.6 98.8,209.4 98.7,209.4 98.7,209.6 
		98.7,209.8 98.7,209.9 98.7,210.1 98.8,210.3 99,210.3 99,210.5 99,210.6 98.8,210.6 98.7,210.6 98.8,210.8 99,210.8 99,211 
		99,211.1 99.2,211.1 99.2,211.3 99.2,211.5 99.3,211.5 99.5,211.5 99.5,211.3 	"/>
	<rect id="XMLID_284_" x="99.5" y="209.1" class="st0" width="0.2" height="0.2"/>
	<polygon id="XMLID_283_" class="st0" points="281.3,428.3 281.3,428.1 281.1,428.1 281.1,428.3 281,428.5 281,428.7 281,428.8 
		281.1,429 281.1,428.8 281.1,428.7 281.3,428.7 281.3,428.5 	"/>
	<rect id="XMLID_282_" x="126.6" y="238.2" class="st0" width="0.2" height="0.2"/>
	<polygon id="XMLID_281_" class="st0" points="126.8,238.1 126.8,238.2 127,238.2 127,238.1 127.1,238.1 127.1,237.9 127,237.9 	"/>
	<polygon id="XMLID_280_" class="st0" points="103.8,209.3 103.6,209.1 103.6,209.3 	"/>
	<rect id="XMLID_279_" x="123.5" y="235.5" class="st0" width="0.2" height="0.2"/>
	<rect id="XMLID_278_" x="125.9" y="237" class="st0" width="0.2" height="0.2"/>
	<rect id="XMLID_277_" x="125.1" y="236.5" class="st0" width="0.2" height="0.2"/>
	<rect id="XMLID_276_" x="130.4" y="241.3" class="st0" width="0.2" height="0.2"/>
	<rect id="XMLID_275_" x="124.2" y="225.7" class="st0" width="0.2" height="0.2"/>
	<polygon id="XMLID_274_" class="st0" points="120.3,206.5 120.4,206.7 120.4,206.5 	"/>
	<polygon id="XMLID_273_" class="st0" points="120.6,206.7 120.4,206.7 120.4,206.9 120.6,207 120.6,206.9 	"/>
	<polygon id="XMLID_272_" class="st0" points="123.4,223 123.2,223.2 123.4,223.2 	"/>
	<rect id="XMLID_271_" x="115.1" y="219" class="st0" width="0.2" height="0.2"/>
	<polygon id="XMLID_270_" class="st0" points="274.1,416.5 274.1,416.3 273.9,416.5 	"/>
	<polygon id="XMLID_269_" class="st0" points="240.5,403.1 240.7,403.1 240.7,402.9 240.7,402.8 240.5,402.8 240.5,402.9 	"/>
	<polygon id="XMLID_268_" class="st0" points="273.9,416.7 273.9,416.5 273.9,416.3 274.1,416.3 274.1,416.1 273.9,416.1 
		273.8,416.1 273.6,416.1 273.4,416.1 273.4,416.3 273.4,416.5 273.8,416.5 273.8,416.7 273.8,416.8 273.9,416.8 	"/>
	<polygon id="XMLID_267_" class="st0" points="119.8,230.5 119.8,230.7 119.9,230.7 120.1,230.7 120.1,230.5 119.9,230.5 	"/>
	<polygon id="XMLID_266_" class="st0" points="240.5,402.2 240.3,402.2 240.5,402.4 240.7,402.4 	"/>
	<rect id="XMLID_265_" x="176.3" y="348.7" class="st0" width="0.2" height="0.2"/>
	<polygon id="XMLID_264_" class="st0" points="120.6,227.8 120.4,227.8 120.4,228 120.4,228.1 120.6,228.1 120.6,228 	"/>
	<polygon id="XMLID_263_" class="st0" points="115.6,216.8 115.8,216.8 115.6,216.6 	"/>
	<polygon id="XMLID_262_" class="st0" points="177,346.3 177,346.1 176.9,346.1 176.9,346 176.7,346 176.5,346 176.5,346.1 
		176.7,346.1 176.9,346.3 176.9,346.5 177,346.7 177,346.5 	"/>
	<polygon id="XMLID_261_" class="st0" points="325,476 324.9,476 324.9,476.2 	"/>
	<polygon id="XMLID_260_" class="st0" points="215.6,411.2 215.6,411 215.4,411.2 	"/>
	<polygon id="XMLID_259_" class="st0" points="125.8,225.2 125.6,225.2 125.6,225 125.8,225 125.8,224.9 125.6,224.9 125.4,224.9 
		125.4,224.7 125.2,224.7 125.1,224.7 124.9,224.7 124.7,224.7 124.7,224.9 124.9,224.9 124.9,225 125.1,225 125.2,225 125.4,225.2 
		125.4,225.4 125.6,225.4 125.8,225.4 125.8,225.6 125.9,225.6 125.9,225.4 125.9,225.2 125.9,225 125.8,225 	"/>
	<rect id="XMLID_258_" x="133.6" y="265.7" class="st0" width="0.2" height="0.2"/>
	<polygon id="XMLID_257_" class="st0" points="127.1,226.8 127.1,226.6 127,226.4 127,226.2 126.8,226.2 126.8,226.4 126.6,226.4 
		126.4,226.6 126.3,226.8 126.1,226.8 126.1,226.9 126.3,226.9 126.4,226.9 126.6,226.9 126.8,226.9 126.8,227.1 127,227.1 
		127.1,227.1 127.3,227.1 127.1,226.9 	"/>
	<rect id="XMLID_256_" x="124.6" y="224.5" class="st0" width="0.2" height="0.2"/>
	<polygon id="XMLID_255_" class="st0" points="133.6,240.1 133.6,240 133.5,240 	"/>
	<rect id="XMLID_254_" x="115.1" y="216.6" class="st0" width="0.2" height="0.2"/>
	<rect id="XMLID_253_" x="126.3" y="225.7" class="st0" width="0.2" height="0.2"/>
	<polygon id="XMLID_252_" class="st0" points="124.4,224.5 124.6,224.5 124.6,224.4 	"/>
	<polygon id="XMLID_251_" class="st0" points="127,227.4 127.1,227.8 127.1,227.4 127.1,227.3 127,227.3 	"/>
	<polygon id="XMLID_250_" class="st0" points="329.5,481.8 329.5,481.7 329.3,481.8 	"/>
	<polygon id="XMLID_249_" class="st0" points="283.4,426.4 283.5,426.4 283.5,426.3 	"/>
	<polygon id="XMLID_248_" class="st0" points="282.2,426.4 282.3,426.3 282.2,426.3 	"/>
	<polygon id="XMLID_247_" class="st0" points="136.9,241.9 136.9,241.7 136.7,241.7 	"/>
	<polygon id="XMLID_246_" class="st0" points="136.6,241.5 136.7,241.7 136.7,241.5 	"/>
	<rect id="XMLID_245_" x="283.5" y="426.4" class="st0" width="0.2" height="0.2"/>
	<rect id="XMLID_244_" x="133.8" y="240.3" class="st0" width="0.2" height="0.2"/>
	<rect id="XMLID_243_" x="326.6" y="480.1" class="st0" width="0.2" height="0.2"/>
	<polygon id="XMLID_242_" class="st0" points="124,224.5 123.9,224.5 123.7,224.5 123.5,224.5 123.5,224.7 123.7,224.7 123.9,224.7 
		124,224.7 124.2,224.5 124.2,224.4 124,224.4 	"/>
	<polygon id="XMLID_241_" class="st0" points="324.2,476 324.3,476 324.5,476 324.7,476 324.9,476 324.9,475.8 324.7,475.8 
		324.5,475.8 324.3,475.8 324.3,475.7 324.5,475.7 324.5,475.5 324.7,475.3 324.7,475.1 324.9,475 324.9,474.8 324.9,474.6 
		324.7,474.6 324.5,474.6 324.3,474.6 324.3,474.8 324.2,475 324.2,475.1 324.2,475.3 324,475.3 323.8,475.1 323.8,475 323.8,474.8 
		323.7,474.8 323.5,474.8 323.5,475 323.3,475 323.5,475.1 323.5,475.3 323.7,475.3 323.7,475.5 323.5,475.5 323.5,475.7 
		323.7,475.7 323.7,475.8 323.8,475.8 323.8,475.7 323.8,475.5 324,475.5 324.2,475.5 324.2,475.7 324.2,475.8 324,475.8 
		323.8,475.8 323.8,476 324,476 	"/>
	<rect id="XMLID_240_" x="99.5" y="208.7" class="st0" width="0.2" height="0.2"/>
	<polygon id="XMLID_239_" class="st0" points="123,224.4 123,224.5 123.2,224.5 123.4,224.5 123.4,224.4 123.2,224.4 	"/>
	<rect id="XMLID_238_" x="121" y="217.8" class="st0" width="0.2" height="0.2"/>
	<rect id="XMLID_237_" x="100.2" y="202.4" class="st0" width="0.2" height="0.2"/>
	<rect id="XMLID_236_" x="115.8" y="216.6" class="st0" width="0.2" height="0.2"/>
	<rect id="XMLID_235_" x="133.5" y="242" class="st0" width="0.2" height="0.2"/>
	<polygon id="XMLID_234_" class="st0" points="325.2,475.8 325.2,475.7 325.2,475.5 325,475.5 324.9,475.5 324.9,475.7 325,475.7 
		325,475.8 325,476 325.2,476 	"/>
	<rect id="XMLID_233_" x="271.4" y="443.1" class="st0" width="0.2" height="0.2"/>
	<rect id="XMLID_232_" x="125.8" y="237.4" class="st0" width="0.2" height="0.2"/>
	<polygon id="XMLID_231_" class="st0" points="125.2,237.9 125.2,238.1 125.4,237.9 125.4,237.7 125.2,237.7 	"/>
	<rect id="XMLID_230_" x="125.4" y="237.6" class="st0" width="0.2" height="0.2"/>
	<polygon id="XMLID_229_" class="st0" points="121.5,234.5 121.3,234.5 121.1,234.5 121.1,234.6 121.3,234.6 121.5,234.6 
		121.6,234.6 121.8,234.6 121.6,234.5 	"/>
	<polygon id="XMLID_228_" class="st0" points="126.4,238.8 126.4,238.9 126.6,238.9 126.6,238.8 126.6,238.6 126.4,238.6 	"/>
	<rect id="XMLID_227_" x="124.4" y="237.4" class="st0" width="0.2" height="0.2"/>
	<polygon id="XMLID_226_" class="st0" points="125.2,238.8 125.4,238.6 125.2,238.6 	"/>
	<rect id="XMLID_225_" x="125.1" y="236.9" class="st0" width="0.2" height="0.2"/>
	<polygon id="XMLID_224_" class="st0" points="211.2,416.7 211,416.7 211,416.5 211,416.3 211,416.1 211,416 211,415.8 211,415.6 
		211,415.5 211,415.3 210.8,415.3 210.6,415.3 210.5,415.3 210.3,415.3 210.3,415.5 210.1,415.5 210,415.5 209.8,415.5 209.6,415.5 
		209.6,415.3 209.4,415.3 209.3,415.3 209.3,415.1 209.1,415.1 208.9,415.1 208.9,414.9 208.8,414.9 208.6,414.9 208.6,414.8 
		208.4,414.8 208.4,414.6 208.2,414.6 208.2,414.4 208.2,414.3 208.2,414.1 208.1,414.1 208.1,413.9 208.1,413.7 208.1,413.6 
		208.2,413.6 208.2,413.4 208.2,413.2 208.4,413.2 208.4,413.1 208.2,413.1 208.2,412.9 208.4,412.9 208.4,412.7 208.2,412.7 
		208.1,412.7 208.1,412.5 207.9,412.5 207.7,412.5 207.7,412.7 207.6,412.7 207.6,412.9 207.6,413.1 207.4,413.1 207.2,413.1 
		207.2,413.2 207,413.2 206.9,413.2 206.9,413.4 206.7,413.4 206.5,413.4 206.4,413.4 206.2,413.4 206,413.4 205.8,413.4 
		205.7,413.4 205.5,413.4 205.3,413.4 205.3,413.2 205.2,413.2 205,413.2 204.8,413.2 204.6,413.2 204.6,413.1 204.5,413.1 
		204.3,413.1 204.3,413.2 204.1,413.2 204,413.4 204,413.6 203.8,413.6 203.6,413.7 203.4,413.7 203.4,413.9 203.3,413.9 
		203.1,413.9 202.9,413.9 202.9,414.1 202.8,414.1 202.8,413.9 202.6,413.9 202.4,413.9 202.4,414.1 202.2,414.1 202.1,414.1 
		201.9,414.1 201.7,414.1 201.6,414.1 201.4,414.1 201.4,413.9 201.2,413.9 201,413.9 201,413.7 200.9,413.7 200.7,413.7 
		200.7,413.9 200.5,413.9 200.4,413.9 200.2,413.9 200.2,414.1 200,414.1 200,414.3 200,414.4 200.2,414.4 200.4,414.4 200.4,414.6 
		200.5,414.8 200.7,414.8 200.9,414.8 200.9,414.9 201,414.9 201,415.1 201,415.3 201,415.5 201.2,415.5 201.4,415.5 201.4,415.6 
		201.6,415.6 201.6,415.8 201.6,416 201.7,416 201.7,416.1 201.7,416.3 201.9,416.3 201.9,416.5 201.9,416.7 201.9,416.8 
		202.1,416.8 202.2,416.8 202.2,417 202.4,417 202.4,417.2 202.4,417.3 202.4,417.5 202.6,417.5 202.6,417.7 202.6,417.9 
		202.8,417.9 202.8,418 202.8,418.2 202.9,418.2 203.1,418.2 203.1,418.4 203.3,418.5 203.4,418.5 203.6,418.5 203.6,418.7 
		203.8,418.7 204,418.7 204,418.9 204.1,418.9 204.1,419.1 204.3,419.1 204.3,419.2 204.5,419.2 204.6,419.2 204.8,419.4 205,419.4 
		205,419.6 205.2,419.6 205.3,419.6 205.5,419.6 205.5,419.4 205.5,419.2 205.7,419.2 205.7,419.1 205.8,419.1 206,419.1 206,418.9 
		206.2,418.9 206.4,418.9 206.5,418.9 206.7,418.9 206.9,418.9 207,418.9 207,418.7 207.2,418.7 207.4,418.7 207.6,418.7 
		207.7,418.7 207.9,418.7 208.1,418.7 208.1,418.5 208.1,418.4 208.2,418.4 208.4,418.4 208.4,418.2 208.6,418.2 208.8,418.2 
		208.8,418 208.9,418 208.9,417.9 209.1,417.9 209.3,417.9 209.3,417.7 209.4,417.7 209.4,417.5 209.6,417.5 209.8,417.5 210,417.3 
		210.1,417.3 210.3,417.3 210.5,417.3 210.6,417.3 210.8,417.3 211,417.3 211.2,417.3 211.3,417.3 211.3,417.2 211.3,417 
		211.3,416.8 211.2,416.8 	"/>
	<rect id="XMLID_223_" x="213" y="411.5" class="st0" width="0.2" height="0.2"/>
	<polygon id="XMLID_222_" class="st0" points="197.4,412.5 197.3,412.5 197.3,412.4 197.3,412.2 197.1,412.2 197.1,412 196.9,412 
		196.8,412 196.8,411.8 196.6,411.8 196.6,411.7 196.4,411.8 196.2,411.8 196.1,411.8 195.9,411.8 195.7,411.8 195.6,411.8 
		195.6,411.7 195.4,411.7 195.4,411.5 195.4,411.3 195.6,411.3 195.6,411.2 195.4,411.2 195.4,411 195.6,411 195.6,410.8 
		195.4,410.8 195.4,410.6 195.4,410.5 195.2,410.5 195,410.5 195,410.6 195,410.8 194.9,410.8 194.9,411 194.7,411 194.7,411.2 
		194.5,411.2 194.5,411.3 194.4,411.3 194.4,411.5 194.2,411.5 194,411.5 194,411.7 193.8,411.7 193.7,411.7 193.5,411.7 
		193.5,411.5 193.3,411.5 193.2,411.5 193.2,411.3 193,411.5 192.8,411.5 192.8,411.7 192.6,411.7 192.5,411.7 192.5,411.8 
		192.3,412 192.1,412.2 191.9,412.2 191.8,412.2 191.8,412.4 191.8,412.5 191.9,412.5 192.1,412.5 192.3,412.5 192.3,412.7 
		192.5,412.7 192.5,412.9 192.6,412.9 192.6,412.7 192.8,412.7 193,412.7 193,412.5 193.2,412.5 193.3,412.5 193.5,412.5 
		193.5,412.7 193.7,412.7 193.8,412.7 194,412.7 194,412.9 194.2,412.9 194.4,412.9 194.5,412.9 194.5,413.1 194.7,413.1 
		194.7,413.2 194.9,413.2 194.9,413.4 195,413.4 195.2,413.4 195.4,413.4 195.6,413.4 195.6,413.2 195.7,413.2 195.9,413.2 
		196.1,413.2 196.2,413.2 196.4,413.2 196.6,413.2 196.8,413.2 196.9,413.2 197.1,413.2 197.3,413.2 197.4,413.2 197.4,413.1 
		197.6,413.1 197.6,412.9 197.6,412.7 197.4,412.7 	"/>
	<rect id="XMLID_221_" x="191.6" y="412.5" class="st0" width="0.2" height="0.2"/>
	<polygon id="XMLID_220_" class="st0" points="226.9,415.3 227.1,415.1 227.3,415.1 227.4,415.1 227.4,414.9 227.6,414.9 
		227.8,414.9 228,414.9 228,415.1 228.1,415.1 228.1,414.9 228.3,414.9 228.5,414.9 228.5,414.8 228.6,414.6 228.8,414.4 
		228.6,414.4 228.6,414.3 228.8,414.3 228.8,414.1 228.8,413.9 228.8,413.7 229,413.7 229,413.6 229.2,413.6 229.3,413.6 
		229.5,413.6 229.5,413.4 229.7,413.4 229.7,413.2 229.8,413.2 229.8,413.1 229.7,413.1 229.7,412.9 229.5,412.9 229.5,412.7 
		229.3,412.7 229.2,412.7 229,412.7 228.8,412.7 228.8,412.5 228.6,412.5 228.5,412.5 228.5,412.4 228.3,412.4 228.3,412.2 
		228.1,412.2 228.1,412 228,412 228,412.2 227.8,412.2 227.6,412.2 227.6,412.4 227.4,412.4 227.4,412.2 227.3,412.2 227.1,412.2 
		227.1,412.4 226.9,412.4 226.8,412.4 226.8,412.5 226.6,412.5 226.6,412.7 226.4,412.7 226.2,412.7 226.2,412.9 226.2,413.1 
		226.4,413.2 226.4,413.4 226.2,413.4 226.2,413.6 226.1,413.6 226.1,413.7 225.9,413.9 225.7,413.9 225.6,413.9 225.4,414.1 
		225.2,414.1 225,414.1 224.9,414.1 224.9,413.9 224.7,413.9 224.5,413.9 224.4,413.9 224.4,413.7 224.2,413.7 224,413.9 
		223.8,413.9 223.7,413.9 223.7,413.7 223.5,413.7 223.3,413.7 223.2,413.7 223,413.7 223,413.6 222.8,413.4 222.8,413.2 
		222.6,413.2 222.5,413.2 222.5,413.1 222.3,413.1 222.3,412.9 222.1,412.9 222.1,412.7 222,412.7 222,412.5 221.8,412.5 
		221.6,412.5 221.6,412.4 221.4,412.4 221.3,412.4 221.1,412.4 220.9,412.4 220.9,412.2 220.8,412.2 220.6,412.2 220.6,412 
		220.4,412 220.2,412 220.2,411.8 220.1,411.8 219.9,411.8 219.7,411.8 219.7,412 219.6,412 219.6,411.8 219.4,411.8 219.2,411.8 
		219,411.8 218.9,411.8 218.7,411.8 218.5,411.8 218.5,412 218.4,412 218.2,412 218,412 217.8,412 217.7,412 217.5,412 217.5,411.8 
		217.3,411.8 217.3,411.7 217.2,411.7 217.2,411.5 217,411.5 216.8,411.5 216.8,411.3 216.6,411.3 216.5,411.3 216.3,411.3 
		216.3,411.2 216.1,411.2 216.1,411 216,411 215.8,411 215.6,411 215.6,411.2 215.4,411.2 215.6,411 215.4,411 215.3,411 215.1,411 
		214.9,411 214.8,410.8 214.8,411 214.6,411 214.6,410.8 214.4,410.8 214.4,411 214.2,411 214.2,410.8 214.1,410.8 213.9,410.8 
		213.7,410.8 213.7,410.6 213.6,410.6 213.6,410.8 213.4,410.8 213.4,411 213.4,411.2 213.4,411.3 213.6,411.3 213.6,411.5 
		213.4,411.5 213.4,411.7 213.6,411.7 213.7,411.7 213.7,411.8 213.9,411.8 214.1,411.8 214.1,412 214.2,412 214.4,412.2 
		214.6,412.2 214.6,412.4 214.8,412.4 214.8,412.5 214.8,412.7 214.9,412.7 214.9,412.9 215.1,412.9 215.3,412.9 215.3,413.1 
		215.3,413.2 215.3,413.4 215.1,413.6 215.1,413.7 214.9,413.7 214.9,413.9 214.9,414.1 214.8,414.1 214.8,414.3 214.8,414.4 
		214.9,414.4 214.9,414.6 214.9,414.8 214.9,414.9 215.1,414.9 215.1,415.1 215.1,415.3 215.3,415.3 215.3,415.5 215.3,415.6 
		215.4,415.6 215.6,415.6 215.8,415.6 215.8,415.8 216,415.8 216,416 216.1,416 216.1,416.1 216.3,416.1 216.5,416.1 216.6,416.1 
		216.8,416.1 217,416.1 217.2,416.1 217.2,416.3 217.3,416.3 217.5,416.5 217.5,416.7 217.7,416.5 217.8,416.5 218,416.5 
		218.2,416.5 218.4,416.5 218.5,416.5 218.7,416.5 218.7,416.7 218.9,416.7 219,416.7 219,416.5 219.2,416.5 219.2,416.7 
		219.4,416.7 219.4,416.5 219.6,416.5 219.6,416.7 219.7,416.7 219.9,416.7 220.1,416.7 220.1,416.5 220.2,416.5 220.4,416.5 
		220.6,416.5 220.8,416.5 220.9,416.5 221.1,416.5 221.3,416.5 221.3,416.7 221.4,416.7 221.6,416.7 221.8,416.7 221.8,416.5 
		222,416.5 222,416.3 222.1,416.3 222.3,416.3 222.5,416.3 222.5,416.1 222.6,416.1 222.8,416.1 222.8,416 223,416 223.2,416 
		223.2,415.8 223.3,415.8 223.5,415.8 223.5,415.6 223.7,415.6 223.7,415.5 223.8,415.5 224,415.5 224.2,415.5 224.2,415.3 
		224.4,415.3 224.5,415.3 224.7,415.3 224.9,415.3 224.9,415.5 225,415.3 225,415.5 225.2,415.5 225.2,415.3 225.4,415.3 
		225.6,415.3 225.7,415.3 225.7,415.5 225.9,415.5 226.1,415.5 226.1,415.3 226.2,415.3 226.4,415.3 226.6,415.3 226.8,415.3 	"/>
	<polygon id="XMLID_219_" class="st0" points="176.9,346.3 176.7,346.1 176.5,346.1 176.5,346.3 176.7,346.3 176.7,346.5 
		176.7,346.7 176.9,346.7 177,346.7 176.9,346.5 	"/>
	<polygon id="XMLID_218_" class="st0" points="176.9,346.8 176.7,346.7 176.7,346.8 	"/>
	<rect id="XMLID_217_" x="135.4" y="285.8" class="st0" width="0.2" height="0.2"/>
	<polygon id="XMLID_216_" class="st0" points="133.1,266 133,266 133.1,266.2 	"/>
	<rect id="XMLID_215_" x="57.5" y="74.9" class="st0" width="0.2" height="0.2"/>
	<rect id="XMLID_214_" x="56.5" y="75.1" class="st0" width="0.2" height="0.2"/>
	<polygon id="XMLID_213_" class="st0" points="56.1,76 56.1,75.8 56.3,75.8 56.3,75.6 56.5,75.5 56.5,75.3 56.3,75.3 56.3,75.5 
		56.1,75.6 56,76 56,76.1 56.1,76.1 	"/>
	<polygon id="XMLID_212_" class="st0" points="56.8,74.9 57,74.9 57,74.8 57.2,74.6 57.3,74.8 57.3,74.6 57.3,74.4 57.2,74.4 
		57.2,74.3 57,74.3 57,74.4 56.8,74.4 56.8,74.6 56.6,74.8 56.6,74.9 56.6,75.1 56.8,75.1 	"/>
	<polygon id="XMLID_211_" class="st0" points="61.1,59.5 61.1,59.7 61.3,59.7 61.3,59.5 61.3,59.3 61.1,59.3 	"/>
	<polygon id="XMLID_210_" class="st0" points="61.8,15.4 61.8,15.6 62,15.6 62,15.4 62,15.2 61.8,15.2 	"/>
	<polygon id="XMLID_209_" class="st0" points="60.8,57.3 60.9,57.1 60.8,57.1 	"/>
	<polygon id="XMLID_208_" class="st0" points="60.1,71.3 60.2,71.3 60.2,71.2 60.1,71.2 59.9,71.2 59.7,71.2 59.6,71.2 59.6,71.3 
		59.6,71.5 59.4,71.5 59.4,71.7 59.6,71.7 59.7,71.7 59.7,71.5 59.9,71.5 59.9,71.3 	"/>
	<rect id="XMLID_207_" x="120.4" y="228.5" class="st0" width="0.2" height="0.2"/>
	<polygon id="XMLID_206_" class="st0" points="121.3,228.3 121.1,228.1 121.1,228.3 	"/>
	<polygon id="XMLID_205_" class="st0" points="121,227.3 121,227.4 121.1,227.3 	"/>
	<rect id="XMLID_204_" x="95.4" y="197.6" class="st0" width="0.2" height="0.2"/>
	<polygon id="XMLID_203_" class="st0" points="95.9,197.4 95.7,197.4 95.6,197.4 95.6,197.6 95.7,197.6 	"/>
	<polygon id="XMLID_202_" class="st0" points="124.4,226.1 124.4,225.9 124.2,225.9 	"/>
	<polygon id="XMLID_201_" class="st0" points="124,225.9 124.2,225.9 124.2,225.7 	"/>
	<rect id="XMLID_200_" x="125.6" y="225" class="st0" width="0.2" height="0.2"/>
	<polygon id="XMLID_199_" class="st0" points="100.9,211.8 100.7,211.7 100.7,211.8 	"/>
	<rect id="XMLID_198_" x="122.5" y="224" class="st0" width="0.2" height="0.2"/>
	<rect id="XMLID_197_" x="121.3" y="223.3" class="st0" width="0.2" height="0.2"/>
	<polygon id="XMLID_196_" class="st0" points="121,222.5 120.8,222.5 120.8,222.6 120.8,222.8 120.8,223 121,223.2 121,223.3 
		121,223.5 121,223.7 121.1,223.7 121.3,223.7 121.3,223.5 121.1,223.5 121.1,223.3 121.1,223.2 121.3,223.2 121.5,223.2 121.3,223 
		121.3,222.8 121.3,222.6 121.1,222.6 121.1,222.5 	"/>
	<polygon id="XMLID_195_" class="st0" points="119.1,220.6 119.1,220.4 118.9,220.4 118.7,220.4 118.7,220.6 118.6,220.6 
		118.4,220.6 118.4,220.8 118.4,220.9 118.2,220.9 118.2,221.1 118.4,221.1 118.4,221.3 118.6,221.3 118.7,221.3 118.9,221.3 
		119.1,221.3 119.2,221.4 119.2,221.3 119.2,221.1 119.1,221.1 119.2,220.9 119.1,220.9 119.1,220.8 	"/>
	<polygon id="XMLID_194_" class="st0" points="123.2,220.6 123.2,220.4 123,220.4 123,220.6 123,220.8 123.2,220.8 123.4,220.8 
		123.4,220.6 	"/>
	<rect id="XMLID_193_" x="116.1" y="219.9" class="st0" width="0.2" height="0.2"/>
	<rect id="XMLID_192_" x="116" y="219.7" class="st0" width="0.2" height="0.2"/>
	<polygon id="XMLID_191_" class="st0" points="109.8,218.2 109.6,218.2 109.5,218.2 109.3,218.2 109.3,218.4 109.5,218.4 
		109.6,218.4 109.8,218.4 110,218.4 110,218.5 110.1,218.5 110.1,218.4 110,218.2 	"/>
	<polygon id="XMLID_190_" class="st0" points="119.8,217.8 119.6,217.8 119.8,218 	"/>
	<polygon id="XMLID_189_" class="st0" points="100.2,211.7 100,211.7 99.9,211.7 100,211.8 100.2,211.8 100.5,211.8 100.5,211.7 
		100.4,211.7 	"/>
	<polygon id="XMLID_188_" class="st0" points="97.8,213.5 98,213.5 98.1,213.5 98.1,213.4 98,213.4 97.8,213.4 97.6,213.4 
		97.6,213.5 	"/>
	<polygon id="XMLID_187_" class="st0" points="120.3,216.3 120.4,216.3 120.3,216.1 	"/>
	<polygon id="XMLID_186_" class="st0" points="282.2,428.5 282,428.5 281.8,428.7 281.6,428.7 281.5,428.8 281.6,429.2 281.6,429.3 
		281.8,429.3 282,429.3 282.2,429.3 282,429.2 282,429 281.8,429 281.8,428.8 282,428.8 282.2,428.8 282.3,428.8 282.5,428.7 
		282.3,428.5 	"/>
	<rect id="XMLID_185_" x="280.8" y="429.2" class="st0" width="0.2" height="0.2"/>
	<polygon id="XMLID_184_" class="st0" points="279.6,448.6 279.6,448.4 279.4,448.2 279.4,448 279.2,448 279.2,447.9 279.2,447.7 
		279.1,447.7 278.9,447.7 278.7,447.7 278.7,447.5 278.7,447.4 278.7,447.2 278.6,447.2 278.6,447 278.6,446.8 278.4,446.8 
		278.2,446.8 278.2,446.7 278,446.7 278,446.5 277.9,446.3 277.7,446.3 277.7,446.2 277.5,446.2 277.5,446 277.5,445.8 277.4,445.8 
		277.4,445.6 277.2,445.6 277.2,445.5 277,445.5 277,445.3 277,445.1 277,445 277,444.8 277,444.6 277,444.4 276.8,444.4 
		276.7,444.4 276.5,444.4 276.5,444.3 276.3,444.3 276.3,444.1 276.2,444.1 276.2,443.9 276,444.1 275.8,444.1 275.8,443.9 
		275.6,443.9 275.5,443.9 275.5,443.8 275.3,443.8 275.1,443.8 275,443.6 274.8,443.6 274.6,443.6 274.6,443.4 274.4,443.4 
		274.4,443.6 274.3,443.6 274.3,443.4 274.1,443.4 273.9,443.4 273.8,443.4 273.8,443.2 273.6,443.2 273.4,443.2 273.4,443.1 
		273.2,443.1 273.2,442.9 273.1,442.9 272.9,442.9 272.9,442.7 272.7,442.7 272.6,442.7 272.6,442.6 272.4,442.6 272.2,442.6 
		272.2,442.7 272,442.7 271.9,442.7 271.9,442.9 271.7,442.7 271.7,442.6 271.5,442.6 271.5,442.4 271.5,442.2 271.4,442.2 
		271.2,442.2 271.2,442 271,442 270.8,442 270.8,441.9 270.7,441.9 270.7,441.7 270.7,441.5 270.5,441.5 270.3,441.5 270.3,441.4 
		270.3,441.2 270.2,441.2 270.2,441 270,441 270,441.2 269.8,441.2 269.6,441.2 269.5,441.2 269.3,441.2 269.1,441.2 269,441.2 
		268.8,441.2 268.6,441.2 268.4,441.2 268.3,441.2 268.1,441.2 267.9,441.2 267.7,441.2 267.7,441 267.6,441 267.4,441 267.2,441 
		267.4,441.2 267.4,441.4 267.6,441.4 267.6,441.5 267.7,441.5 267.7,441.7 267.7,441.9 267.9,441.9 268.1,441.9 268.1,442 
		268.1,442.2 268.3,442.2 268.3,442.4 268.4,442.4 268.6,442.4 268.6,442.6 268.6,442.7 268.4,442.7 268.4,442.9 268.6,442.9 
		268.8,442.9 269,442.9 269,443.1 269.1,443.1 269.1,443.2 269.3,443.2 269.3,443.1 269.5,443.1 269.6,443.1 269.8,443.2 
		269.8,443.1 270,443.1 270.2,443.1 270.2,443.2 270.2,443.4 270.3,443.4 270.3,443.2 270.5,443.2 270.7,443.2 270.7,443.4 
		270.8,443.4 270.8,443.6 270.8,443.8 271,443.8 271,443.6 271,443.4 271.2,443.4 271.2,443.2 271.4,443.2 271.4,443.1 271.5,443.1 
		271.5,443.2 271.4,443.2 271.4,443.4 271.4,443.6 271.5,443.8 271.7,443.8 271.9,443.8 272,443.8 272,443.9 272,444.1 272.2,444.1 
		272.2,444.3 272.2,444.4 272.2,444.6 272.2,444.8 272.2,445 272.4,445 272.4,445.1 272.4,445.3 272.4,445.5 272.6,445.5 
		272.6,445.6 272.7,445.6 272.6,445.8 272.4,445.8 272.4,446 272.4,446.2 272.2,446.2 272.2,446.3 272.4,446.3 272.2,446.5 
		272.2,446.7 272,446.8 272,447 272,447.2 272.2,447.2 272.2,447.4 272.2,447.5 272.4,447.5 272.4,447.7 272.6,447.7 272.6,447.9 
		272.7,447.9 272.7,448 272.7,448.2 272.9,448.2 272.9,448.4 272.9,448.6 273.1,448.6 273.2,448.6 273.2,448.7 273.4,448.7 
		273.6,448.7 273.8,448.7 273.9,448.7 273.9,448.9 274.1,448.9 274.3,448.9 274.4,448.9 274.6,448.9 274.8,448.9 275,448.9 
		275.1,448.9 275.1,448.7 275.3,448.7 275.5,448.7 275.6,448.7 275.6,448.9 275.8,448.9 275.8,448.7 276,448.7 276.2,448.7 
		276.3,448.7 276.5,448.7 276.7,448.7 276.7,448.9 276.8,448.9 277,448.9 277,449.1 277.2,449.1 277.4,449.1 277.5,449.1 
		277.5,449.2 277.7,449.2 277.7,449.4 277.9,449.4 278,449.6 278.2,449.6 278.2,449.8 278.4,449.8 278.6,449.8 278.6,449.9 
		278.7,449.9 278.9,449.9 278.9,449.8 279.1,449.8 279.2,449.8 279.2,449.6 279.4,449.6 279.4,449.4 279.6,449.4 279.6,449.2 
		279.6,449.1 279.8,449.1 279.8,448.9 279.8,448.7 279.6,448.7 	"/>
	<rect id="XMLID_183_" x="226.8" y="450.3" class="st0" width="0.2" height="0.2"/>
	<polygon id="XMLID_182_" class="st0" points="232.6,452.5 232.6,452.3 232.4,452.3 232.4,452.2 232.3,452.2 232.3,452 232.1,452 
		232.1,451.8 231.9,451.8 231.9,451.6 231.7,451.6 231.7,451.5 231.6,451.5 231.4,451.5 231.4,451.3 231.2,451.3 231.1,451.3 
		230.9,451.3 230.9,451.1 230.7,451.1 230.7,451 230.5,451 230.4,451 230.2,451 230,451 230,450.8 229.8,450.8 229.7,450.8 
		229.7,450.6 229.5,450.4 229.3,450.4 229.3,450.3 229.2,450.3 229.2,450.1 229,450.1 228.8,450.1 228.6,450.1 228.5,450.3 
		228.3,450.3 228.1,450.3 228,450.3 228,450.4 227.8,450.6 227.6,450.6 227.6,450.8 227.4,450.8 227.4,450.6 227.3,450.6 
		227.1,450.6 227.1,450.4 226.9,450.4 226.9,450.6 226.9,450.8 227.1,450.8 227.1,451 227.1,451.1 227.1,451.3 227.1,451.5 
		227.3,451.5 227.4,451.6 227.4,451.8 227.4,452 227.6,452 227.6,452.2 227.8,452.2 227.8,452.3 228,452.3 228,452.5 228.1,452.5 
		228.1,452.7 228.3,452.7 228.5,452.7 228.6,452.7 228.8,452.7 228.8,452.8 229,452.8 229.2,452.8 229.3,452.8 229.3,453 229.5,453 
		229.5,453.2 229.7,453.2 229.8,453.2 230,453.2 230,453.4 230.2,453.4 230.4,453.4 230.5,453.4 230.7,453.4 230.9,453.4 
		230.9,453.5 231.1,453.5 231.2,453.5 231.4,453.5 231.6,453.5 231.7,453.5 231.9,453.5 232.1,453.5 232.1,453.4 232.3,453.4 
		232.4,453.4 232.6,453.4 232.6,453.2 232.8,453.2 232.8,453 232.8,452.8 232.8,452.7 232.6,452.7 	"/>
	<polygon id="XMLID_181_" class="st0" points="317.1,454.4 317.3,454.4 317.3,454.2 	"/>
	<polygon id="XMLID_180_" class="st0" points="277.5,473.3 277.4,473.3 277.4,473.1 277.2,473.1 277.2,472.9 277,472.9 277,472.7 
		277,472.6 276.8,472.6 276.8,472.4 276.7,472.4 276.5,472.4 276.5,472.2 276.3,472.2 276.3,472.1 276.2,472.1 276.2,471.9 
		276,471.9 276,471.7 275.8,471.7 275.6,471.7 275.6,471.5 275.6,471.4 275.5,471.4 275.3,471.2 275.3,471 275.1,471 275,471 
		275,470.9 274.8,470.9 274.8,470.7 274.6,470.7 274.6,470.5 274.4,470.5 274.4,470.3 274.3,470.3 274.3,470.2 274.1,470.2 
		274.1,470 273.9,470 273.9,469.8 273.8,469.8 273.6,469.8 273.6,469.7 273.4,469.7 273.4,469.5 273.4,469.3 273.2,469.3 
		273.2,469.1 273.1,469.1 273.1,469 272.9,469 272.9,468.8 272.7,468.8 272.6,468.6 272.4,468.6 272.4,468.5 272.2,468.5 272,468.5 
		272,468.3 271.9,468.3 271.9,468.1 271.7,468.1 271.7,467.9 271.5,467.9 271.5,467.8 271.5,467.6 271.4,467.6 271.4,467.4 
		271.2,467.4 271.2,467.3 271,467.3 271,467.1 271,466.9 270.8,466.9 270.8,466.7 270.8,466.6 270.7,466.6 270.7,466.4 270.5,466.4 
		270.5,466.2 270.3,466.2 270.3,466.1 270.2,466.1 270.2,465.9 270.2,465.7 270,465.7 270,465.5 269.8,465.5 269.8,465.4 
		269.6,465.4 269.6,465.2 269.6,465 269.5,465 269.5,464.9 269.5,464.7 269.5,464.5 269.5,464.3 269.3,464.3 269.1,464.3 269,464.3 
		269,464.2 269,464 269,463.8 268.8,463.8 268.8,463.7 268.8,463.5 268.8,463.3 268.6,463.3 268.6,463.1 268.4,463.1 268.4,463 
		268.3,463 268.1,463 267.9,463 267.9,463.1 267.7,463.1 267.7,463 267.6,463 267.6,462.8 267.4,462.8 267.4,463 267.2,463 
		267.1,463 267.1,463.1 267.1,463.3 267.1,463.5 267.1,463.7 267.1,463.8 267.2,463.8 267.4,463.8 267.6,463.8 267.6,464 267.7,464 
		267.7,464.2 267.9,464.2 267.9,464.3 267.9,464.5 267.9,464.7 268.1,464.7 268.1,464.9 268.1,465 268.1,465.2 268.3,465.2 
		268.3,465.4 268.3,465.5 268.3,465.7 268.3,465.9 268.4,465.9 268.4,466.1 268.4,466.2 268.6,466.2 268.6,466.4 268.8,466.4 
		268.8,466.6 269,466.6 269,466.7 269,466.9 269.1,466.9 269.1,467.1 269.3,467.1 269.3,467.3 269.3,467.4 269.3,467.6 269.3,467.8 
		269.3,467.9 269.5,467.9 269.5,468.1 269.6,468.3 269.6,468.5 269.5,468.5 269.5,468.6 269.6,468.6 269.8,468.6 269.8,468.8 
		269.8,469 269.8,469.1 270,469.1 270.2,469.1 270.2,469.3 270.3,469.3 270.3,469.5 270.3,469.7 270.3,469.8 270.5,469.8 270.5,470 
		270.7,470 270.7,470.2 270.5,470.2 270.7,470.3 270.8,470.3 270.8,470.5 271,470.5 271.2,470.5 271.2,470.7 271.2,470.9 271,470.9 
		271,471 271.2,471 271.2,471.2 271.2,471.4 271.4,471.4 271.4,471.5 271.4,471.7 271.4,471.9 271.5,471.9 271.7,471.9 271.7,472.1 
		271.9,472.1 271.9,472.2 272,472.2 272,472.4 272.2,472.2 272.2,472.4 272.4,472.4 272.6,472.4 272.6,472.6 272.7,472.6 
		272.7,472.7 272.9,472.7 272.9,472.9 273.1,472.9 273.1,473.1 273.2,473.1 273.2,473.3 273.4,473.3 273.4,473.4 273.6,473.4 
		273.8,473.4 273.8,473.6 273.9,473.6 273.9,473.8 274.1,473.6 274.1,473.8 274.3,473.8 274.3,473.9 274.4,473.9 274.4,474.1 
		274.4,474.3 274.4,474.5 274.6,474.5 274.6,474.3 274.6,474.1 274.8,474.1 275,474.1 275,473.9 275.1,473.9 275.3,473.9 
		275.5,473.9 275.5,473.8 275.5,473.6 275.5,473.4 275.6,473.4 275.8,473.4 275.8,473.3 276,473.3 276.2,473.3 276.3,473.3 
		276.5,473.3 276.7,473.4 276.8,473.4 277,473.4 277.2,473.4 277.4,473.6 277.5,473.6 277.7,473.6 277.7,473.4 277.5,473.4 	"/>
	<polygon id="XMLID_179_" class="st0" points="325,474.6 324.9,474.6 324.9,474.8 	"/>
	<polygon id="XMLID_178_" class="st0" points="324.2,475.8 324.2,475.7 324.2,475.5 324,475.5 323.8,475.5 323.8,475.7 323.8,475.8 
		324,475.8 	"/>
	<rect id="XMLID_177_" x="323.7" y="475.8" class="st0" width="0.2" height="0.2"/>
	<polygon id="XMLID_176_" class="st0" points="324.5,478.8 324.5,478.6 324.3,478.8 	"/>
	<rect id="XMLID_175_" x="324.5" y="478.4" class="st0" width="0.2" height="0.2"/>
	<rect id="XMLID_174_" x="324.2" y="478.8" class="st0" width="0.2" height="0.2"/>
	<polygon id="XMLID_173_" class="st0" points="326.7,480.1 326.7,480.3 326.9,480.3 327.1,480.3 327.1,480.1 327.1,480 327.1,479.8 
		327.1,479.6 327.1,479.4 326.9,479.4 326.9,479.3 326.7,479.3 326.6,479.3 326.4,479.3 326.4,479.1 326.2,479.1 326.1,478.9 
		326.1,478.8 326.1,478.6 325.9,478.6 325.7,478.6 325.5,478.6 325.4,478.6 325.2,478.6 325.2,478.8 325,478.8 324.9,478.8 
		324.9,478.9 324.7,478.9 324.7,479.1 324.5,479.1 324.5,479.3 324.5,479.4 324.5,479.6 324.5,479.8 324.5,480 324.7,480.1 
		324.9,480 325,480 325.2,480 325.5,480 325.7,480 325.9,480 325.9,480.1 326.1,480 326.2,480 326.2,480.1 326.4,480.1 326.6,480.3 
		326.6,480.1 	"/>
	<polygon id="XMLID_172_" class="st0" points="328.5,480.1 328.6,480 328.5,480 	"/>
	<rect id="XMLID_171_" x="326.6" y="480.3" class="st0" width="0.2" height="0.2"/>
	<polygon id="XMLID_170_" class="st0" points="327.8,481.3 327.6,481.3 327.4,481.3 327.4,481.2 327.4,481 327.3,481 327.3,480.8 
		327.3,480.6 327.4,480.6 327.4,480.5 327.6,480.5 327.6,480.3 327.4,480.3 327.3,480.3 327.3,480.5 327.1,480.5 326.9,480.5 
		326.7,480.5 326.7,480.6 326.9,480.6 326.9,480.8 327.1,480.8 327.3,481.2 327.6,481.7 327.8,481.5 	"/>
	<polygon id="XMLID_169_" class="st0" points="328.1,482.4 328.1,482.2 328.1,482 327.9,482 327.9,481.8 327.9,481.7 327.8,481.7 
		327.6,481.7 327.8,481.8 327.9,482.2 327.9,482.4 327.9,482.5 328.1,482.7 328.1,482.5 	"/>
	<polygon id="XMLID_168_" class="st0" points="328.6,483.2 328.5,483.4 328.6,483.4 	"/>
	<polygon id="XMLID_167_" class="st0" points="236.5,414.3 236.5,414.1 236.4,414.1 	"/>
	<polygon id="XMLID_166_" class="st0" points="236,414.1 236,414.3 236.2,414.3 236.4,414.3 236.4,414.1 236.2,414.1 	"/>
	<polygon id="XMLID_165_" class="st0" points="234.1,414.3 234,414.3 234,414.1 233.8,414.1 233.6,414.1 233.5,414.1 233.3,414.1 
		233.3,414.3 233.1,414.3 233.1,414.4 233.3,414.4 233.5,414.4 233.6,414.4 233.6,414.6 233.8,414.4 233.8,414.6 234,414.6 
		234.1,414.6 234.3,414.6 234.3,414.4 234.1,414.4 	"/>
	<rect id="XMLID_164_" x="235.3" y="414.4" class="st0" width="0.2" height="0.2"/>
	<polygon id="XMLID_163_" class="st0" points="235,414.6 234.8,414.6 234.8,414.8 235,414.8 235.2,414.8 235.3,414.8 235.3,414.6 
		235.2,414.6 	"/>
	<polygon id="XMLID_162_" class="st0" points="273.9,416.5 274.1,416.3 273.9,416.3 	"/>
	<rect id="XMLID_161_" x="287.3" y="427.8" class="st0" width="0.2" height="0.2"/>
	<polygon id="XMLID_160_" class="st0" points="283,428 283.2,428 283.4,428 283.2,427.8 	"/>
	<polygon id="XMLID_159_" class="st0" points="282.3,428 282.7,428.1 282.8,428.1 282.8,428 282.7,428 	"/>
	<polygon id="XMLID_158_" class="st0" points="282.3,428.1 282.2,428 282.2,428.1 282.3,428.3 	"/>
	<polygon id="XMLID_157_" class="st0" points="281.1,428.8 281.1,429 281.3,429 281.3,428.8 281.3,428.7 281.1,428.7 	"/>
	<polygon id="XMLID_156_" class="st0" points="281,429 281.1,429 281,428.8 	"/>
	<polygon id="XMLID_155_" class="st0" points="280.8,429 281,429 280.8,428.8 	"/>
	<polygon id="XMLID_154_" class="st0" points="176.5,348.6 176.5,348.4 176.7,348.4 176.7,348.2 176.7,348 176.7,347.9 176.9,347.9 
		176.9,347.7 176.7,347.7 176.7,347.5 176.9,347.5 176.9,347.4 176.9,347.2 176.9,347 176.7,347 176.5,347 176.5,347.2 176.5,347.4 
		176.5,347.5 176.5,347.7 176.5,347.9 176.5,348 176.3,348 176.3,348.2 176.3,348.4 176.3,348.6 176.3,348.7 176.5,348.7 	"/>
	<polygon id="XMLID_153_" class="st0" points="281.3,427.3 281.1,427.3 281.3,427.5 	"/>
	<polygon id="XMLID_152_" class="st0" points="273.2,417.2 273.4,417 273.2,417 	"/>
	<path id="XMLID_126_" class="st0" d="M450.4,399v-0.2l-0.2-0.2l0.2-0.2l-0.2-0.2V398v-0.2v-0.2v-0.2v-0.2l-0.2-0.2h-0.2v-0.2h-0.2
		l-0.2-0.2l-0.2-0.2l-0.2-0.5H449v-0.3l-0.2-0.2l-0.2-0.2l-0.2-0.3h-0.2l-0.2-0.2H448l-0.3-0.2v-0.2h-0.3H447h-0.2l-0.3-0.2
		l-0.2-0.2V394l-0.2-0.2l-0.2-0.2l-0.2-0.2h-0.2v-0.2h-0.2v-0.2h-0.2l-0.2-0.2v-0.2h-0.2v-0.2h-0.2h-0.2h-0.2h-0.2H444v-0.2h-0.2
		v-0.2h-0.2v-0.2V392v-0.2h-0.2l-0.2-0.2v-0.2h-0.2l-0.2-0.2h-0.2l-0.2-0.2h-0.2h-0.2v-0.2h-0.2v-0.2v-0.2H442v-0.2h-0.2l-0.2-0.2
		l-0.2,0.2h-0.2h-0.2H441h-0.2v0.2h-0.2h-0.2h-0.2l-0.2-0.2l-0.2-0.2l-0.2-0.2v-0.2v-0.2v-0.2l0.2-0.2v-0.2V389v-0.2v-0.2v-0.2v-0.2
		v-0.2V388v-0.2l0.2-0.2l-0.2-0.5v-0.5v-0.2l-0.2-0.3l-0.3-0.2l-0.2-0.5l-0.2-0.3l-0.2-0.5h-0.2l-0.3-0.2l-0.3-0.3l-0.2-0.3
		l-0.3-0.2v-0.2l0.3-0.2V383h0.2v-0.5l-0.3-0.2l-0.3-0.3v-0.2l-0.2-0.2v-0.2v-0.2v-0.2V381l-0.2-0.2v-0.2h-0.2l-0.2-0.2h-0.2v-0.2
		v-0.2h0.2v-0.2h0.2v-0.2h-0.2v-0.2v-0.2h-0.2v-0.2v-0.2h-0.2v-0.2h-0.2v-0.2v-0.2v-0.2H436v-0.2v-0.2v-0.2v-0.2h-0.2v-0.2h-0.2
		h-0.2h-0.2h-0.2v-0.2V377H435l-0.2-0.2h-0.2v-0.2h-0.2h-0.2h-0.2v-0.2h-0.2v-0.2h-0.2v-0.2l-0.2-0.2l-0.2-0.2l-0.2-0.2l-0.2-0.2
		h-0.2l-0.2-0.2l-0.2-0.2h-0.2V375v-0.2h-0.2v-0.2l-0.2-0.2v-0.2h-0.2v-0.2v-0.2h-0.2v-0.2v-0.2h-0.2v-0.2v-0.2v-0.2v-0.2l-0.2-0.2
		v-0.2v-0.2l-0.2-0.2v-0.2l-0.2-0.2v-0.2l-0.2-0.2h-0.2v-0.2h-0.2v-0.2h-0.2V371h-0.2H430v-0.2h-0.2h-0.2v-0.2h-0.2l-0.2-0.2v-0.2
		h-0.2v-0.2H429V370v-0.2l-0.2-0.3v-0.2v-0.2l0.2-0.2v-0.2v-0.3l0.2-0.2v-0.2l-0.2-0.3v-0.2v-0.2v-0.2v-0.2v-0.2l0.2-0.2v-0.2
		l-0.2-0.2V366l-0.2-0.2v-0.2v-0.2v-0.2v-0.2V365h0.2v-0.2v-0.2v-0.2v-0.2v-0.2V364v-0.2l-0.2-0.2v-0.2h-0.2l-0.2-0.3h-0.2l-0.3-0.3
		l-0.2-0.2l-0.2-0.2l-0.3-0.2l-0.2-0.3h-0.2v-0.2l-0.2-0.2l-0.3-0.2l-0.3-0.3l-0.3-0.3l-0.3-0.3L425,360l-0.2-0.2l-0.3-0.2l-0.2-0.2
		l-0.2-0.2l-0.2-0.2l-0.2-0.2l-0.3-0.3l-0.5-0.5l-0.5-0.3l-0.2-0.2l-0.2-0.2l-0.5-0.5l-0.3-0.2l-0.3-0.3l-0.2-0.3l-0.3-0.3l-0.5-0.5
		h-0.2l-0.5-0.5l-0.5-0.5l-0.3-0.3l-0.5-0.3l-0.3-0.3l-0.2-0.2l-0.5-0.5l-0.2-0.2l-0.3-0.2l-0.3-0.3l-0.2-0.3h-0.2l-0.2-0.2
		l-0.2-0.2l-0.2-0.2l-0.3-0.3l-0.3-0.2l-0.3-0.3l-0.3-0.3l-0.2-0.2l-0.5-0.5l-0.3-0.3l-0.3-0.3L412,348l-0.3-0.2l-0.5-0.5l-0.3-0.3
		l-0.3-0.3l-0.5-0.3l-0.3-0.5h-0.2l-0.2-0.2l-0.3-0.3l-0.2-0.2l-0.2-0.2l-0.3-0.2l-0.2-0.3l-0.3-0.2l-0.3-0.3l-0.5-0.5l-0.2-0.2
		h-0.2l-0.3-0.5l-0.3-0.2l-0.3-0.3l-0.3-0.3l-0.5-0.3l-0.2-0.3l-0.3-0.2l-0.2-0.2l-0.5-0.5l-0.2-0.2l-0.2-0.2l-0.2-0.2l-0.2-0.2
		l-0.3-0.3h-0.2v-0.2H402l-0.3-0.3l-0.3-0.3l-0.5-0.5l-0.5-0.5l-0.5-0.3l-0.3-0.5l-0.5-0.3l-0.3-0.3l-0.5-0.3v-0.2h-0.2v-0.2
		l-0.5-0.3v-0.2h-0.2v-0.2h-0.2l-0.2-0.2l-0.2-0.2l-0.2-0.2l-0.2-0.2l-0.2-0.2l-0.3-0.3l-0.3-0.3l-0.3-0.2l-0.3-0.3l-0.3-0.3
		l-0.3-0.3l-0.3-0.3l-0.3-0.2l-0.3-0.3l-0.2-0.3h-0.2l-0.2-0.2l-0.2-0.2l-0.2-0.2l-0.2-0.2l-0.2-0.2h-0.2v-0.2l-0.3-0.2l-0.3-0.3
		l-0.3-0.3l-0.3-0.3l-0.5-0.5l-0.5-0.5h-0.2v-0.2H389l-0.3-0.3l-0.3-0.3l-0.5-0.5l-0.2-0.2l-0.3-0.3h-0.2l-0.2-0.3h-0.2v-0.2h-0.2
		l-0.2-0.2v-0.2h-0.2l-0.2-0.2l-0.3-0.3l-0.5-0.3v-0.2l-0.2-0.2l-0.5-0.5l-0.3-0.2l-0.3-0.3l-0.3-0.2l-0.2-0.3l-0.5-0.3l-0.3-0.3
		l-0.2-0.2l-0.2-0.2l-0.2-0.2l-0.3-0.3l-0.3-0.3l-0.3-0.2l-0.3-0.3l-0.3-0.3l-0.2-0.2l-0.3-0.3l-0.3-0.3L379,318v-0.2l-0.3-0.3
		l-0.3-0.3h-0.2l-0.3-0.3l-0.2-0.2h-0.2v-0.2l-0.3-0.3l-0.3-0.2v-0.2h-0.2v-0.2h-0.2v-0.2h-0.2l-0.2-0.2l-0.2-0.2l-0.3-0.3l-0.3-0.3
		l-0.3-0.3l-0.5-0.5l-0.5-0.3l-0.2-0.2l-0.5-0.3l-0.3-0.3l-0.2-0.2l-0.2-0.3l-0.2-0.2l-0.3-0.2l-0.3-0.3l-0.3-0.3l-0.3-0.2l-0.2-0.2
		l-0.3-0.3l-0.3-0.3l-0.3-0.3l-0.5-0.3l-0.2-0.3l-0.5-0.3v-0.2h-0.2v-0.2l-0.3-0.2l-0.2-0.2v-0.2l-0.3-0.2l-0.2-0.2l-0.2-0.2
		l-0.2-0.2l-0.3-0.3l-0.5-0.3l-0.3-0.3l-0.3-0.3L365,305l-0.3-0.3h-0.2l-0.3-0.5l-0.5-0.3v-0.2l-0.7-0.3l-0.3-0.5l-0.3-0.2l-0.2-0.2
		l-0.3-0.5l-0.3-0.2l-0.3-0.3l-0.3-0.2l-0.2-0.3l-0.3-0.2l-0.3-0.3l-0.3-0.3l-0.2-0.2l-0.3-0.3l-0.3-0.2v-0.2l-0.3-0.3h-0.2
		l-0.2-0.3l-0.5-0.3l-0.3-0.2v-0.2h-0.2v-0.2l-0.5-0.5l-0.5-0.3l-0.3-0.3h-0.2v-0.2l-0.2-0.2l-0.5-0.5l-0.5-0.3l-0.2-0.3l-0.3-0.2
		l-0.3-0.3l-0.2-0.2l-0.3-0.3l-0.3-0.3l-0.5-0.3l-0.3-0.3l-0.3-0.3l-0.2-0.2l-0.3-0.3l-0.5-0.3v-0.2l-0.3-0.2l-0.3-0.3l-0.5-0.5
		l-0.5-0.5l-0.3-0.2v-0.2l-0.3-0.2l-0.3-0.3l-0.2-0.3l-0.3-0.2l-0.3-0.3l-0.3-0.3l-0.3-0.2l-0.2-0.3h-0.2l-0.2-0.2l-0.2-0.2
		l-0.3-0.3l-0.3-0.2l-0.2-0.3l-0.3-0.3l-0.3-0.3h-0.2l-0.3-0.3l-0.3-0.3l-0.2-0.2l-0.3-0.3l-0.5-0.3v-0.2l-0.3-0.2l-0.3-0.3
		l-0.3-0.3l-0.3-0.3l-0.2-0.2l-0.5-0.3l-0.3-0.3l-0.3-0.3l-0.5-0.5l-0.3-0.3l-0.2-0.2l-0.3-0.3l-0.3-0.3l-0.3-0.2v-0.2h-0.2
		l-0.2-0.2l-0.5-0.5l-0.5-0.3l-0.3-0.5l-0.5-0.3l-0.2-0.2l-0.3-0.3l-0.5-0.5l-0.2-0.2l-0.3-0.3l-0.3-0.2v-0.2l-0.5-0.3l-0.3-0.3
		l-0.2-0.2l-0.2-0.2l-0.3-0.2l-0.5-0.5l-0.5-0.5l-0.3-0.3l-0.3-0.3l-0.5-0.3l-0.3-0.3l-0.3-0.3l-0.5-0.5l-0.5-0.3l-0.3-0.3l-0.2-0.3
		h-0.2l-0.2-0.2l-0.2-0.2l-0.3-0.3l-0.2-0.2l-0.3-0.3l-0.3-0.2l-0.2-0.3l-0.5-0.3l-0.2-0.2l-0.3-0.3l-0.3-0.2l-0.3-0.5l-0.5-0.3
		l-0.2-0.3l-0.3-0.2l-0.2-0.2l-0.2-0.2l-0.3-0.3l-0.3-0.2l-0.3-0.3l-0.2-0.2l-0.2-0.2l-0.2-0.2l-0.3-0.3l-0.5-0.3l-0.3-0.3L319,263
		l-0.3-0.5l-0.5-0.3l-0.3-0.2l-0.2-0.3l-0.5-0.5H317v-0.2l-0.5-0.3l-0.3-0.3l-0.3-0.3l-0.5-0.5l-0.3-0.2l-0.2-0.3l-0.5-0.3l-0.5-0.5
		l-0.2-0.2l-0.5-0.5l-0.5-0.3l-0.3-0.5H312l-0.3-0.3l-0.2-0.2l-0.3-0.2l-0.2-0.3l-0.3-0.2v-0.2l-0.3-0.2v-0.2l-0.3-0.2l-0.3-0.3
		l-0.3-0.2l-0.2-0.3l-0.3-0.2l-0.5-0.5l-0.5-0.3v-0.2h-0.2l-0.2-0.3l-0.3-0.3l-0.3-0.2l-0.5-0.5l-0.2-0.3l-0.3-0.2l-0.3-0.3
		l-0.2-0.2l-0.3-0.2v-0.2l-0.3-0.2l-0.2-0.3l-0.3-0.2l-0.3-0.3l-0.3-0.3l-0.3-0.3l-0.3-0.3l-0.3-0.2l-0.2-0.2l-0.5-0.5l-0.5-0.3
		l-0.3-0.5l-0.5-0.3l-0.3-0.3l-0.2-0.2l-0.3-0.3l-0.3-0.2v-0.2l-0.2-0.2l-0.2-0.2l-0.3-0.2l-0.2-0.3l-0.3-0.2l-0.2-0.3l-0.5-0.3
		l-0.5-0.5l-0.5-0.3l-0.3-0.3l-0.5-0.3l-0.3-0.3l-0.2-0.2l-0.2-0.2l-0.3-0.3l-0.3-0.3l-0.3-0.3l-0.3-0.3H293v-0.2l-0.2-0.2l-0.2-0.2
		l-0.2-0.2l-0.2-0.2l-0.3-0.2l-0.2-0.2l-0.5-0.3l-0.3-0.3l-0.2-0.3l-0.5-0.3v-0.2H290l-0.2-0.2l-0.2-0.2v-0.2h-0.2l-0.2-0.2
		l-0.3-0.3l-0.5-0.5l-0.3-0.2l-0.2-0.2l-0.3-0.3l-0.3-0.3h-0.2l-0.3-0.3l-0.5-0.5l-0.5-0.5l-0.3-0.3l-0.3-0.3h-0.2l-0.2-0.3
		l-0.3-0.3l-0.5-0.3l-0.5-0.5l-0.2-0.2l-0.2-0.2l-0.3-0.3l-0.3-0.2l-0.2-0.2L282,229l-0.3-0.3l-0.3-0.3l-0.2-0.2l-0.5-0.5l-0.2-0.2
		l-0.3-0.2l-0.3-0.3l-0.3-0.3l-0.2-0.2l-0.3-0.3l-0.3-0.3l-0.5-0.3l-0.3-0.3l-0.2-0.2l-0.5-0.3l-0.3-0.5l-0.2-0.2h-0.2l-0.3-0.5
		l-0.5-0.3h-0.2l-0.2-0.2v-0.2l-0.5-0.5l-0.3-0.3h-0.2l-0.3-0.3l-0.2-0.2l-0.3-0.3l-0.3-0.3l-0.2-0.2l-0.3-0.3l-0.3-0.2v-0.2
		l-0.3-0.2l-0.3-0.3l-0.2-0.2l-0.3-0.3l-0.3-0.2l-0.3-0.3l-0.3-0.3l-0.3-0.3L269,217l-0.5-0.3l-0.5-0.5l-0.2-0.2l-0.2-0.2l-0.5-0.5
		l-0.3-0.3l-0.3-0.3l-0.5-0.3l-0.3-0.5l-0.7-0.5l-0.5-0.5l-0.3-0.2l-0.2-0.3l-0.3-0.3l-0.3-0.2l-0.2-0.2l-0.5-0.3l-0.3-0.3l-0.2-0.2
		l-0.2-0.2l-0.3-0.3l-0.3-0.3l-0.2-0.2l-0.3-0.3l-0.3-0.2l-0.2-0.3l-0.3-0.2l-0.2-0.3l-0.3-0.2l-0.3-0.3h-0.2v-0.2l-0.3-0.2
		l-0.2-0.3l-0.5-0.3l-0.3-0.3l-0.2-0.2l-0.3-0.3l-0.5-0.5l-0.5-0.3l-0.5-0.5l-0.5-0.5l-0.5-0.3l-0.5-0.5l-0.5-0.3l-0.2-0.2l-0.3-0.5
		l-0.5-0.3v-0.2l-0.5-0.3l-0.3-0.3l-0.5-0.3l-0.3-0.3l-0.3-0.3l-0.2-0.2l-0.3-0.3l-0.2-0.2l-0.5-0.3l-0.3-0.5h-0.2l-0.2-0.3
		l-0.3-0.2l-0.5-0.5l-0.2-0.2l-0.2-0.2l-0.3-0.3l-0.3-0.3l-0.5-0.3l-0.3-0.3l-0.2-0.2l-0.2-0.2l-0.3-0.3l-0.3-0.3h-0.2v-0.2
		l-0.3-0.2l-0.2-0.3h-0.2l-0.5-0.3v-0.2l-0.5-0.5l-0.3-0.3l-0.3-0.2l-0.3-0.5l-0.5-0.3l-0.3-0.3l-0.2-0.2l-0.3-0.3l-0.5-0.3
		l-0.2-0.2l-0.3-0.3l-0.3-0.3l-0.3-0.3l-0.5-0.3l-0.5-0.5l-0.5-0.5l-0.3-0.2l-0.3-0.3l-0.2-0.3h-0.2l-0.2-0.2l-0.2-0.2l-0.3-0.3
		l-0.2-0.2l-0.5-0.3v-0.2h-0.2v-0.2l-0.3-0.2l-0.3-0.3l-0.3-0.3l-0.3-0.3l-0.3-0.3l-0.3-0.2l-0.3-0.5l-0.5-0.3l-0.5-0.5h-0.2
		l-0.3-0.5l-0.5-0.3l-0.3-0.3l-0.2-0.2l-0.3-0.3l-0.2-0.2l-0.2-0.2l-0.5-0.3l-0.3-0.3v-0.2h-0.2l-0.3-0.3l-0.5-0.5h-0.2l-0.3-0.3
		l-0.3-0.3l-0.5-0.5l-0.5-0.5h-0.2l-0.2-0.2l-0.2-0.2l-0.2-0.2V176H224l-0.2-0.2l-0.3-0.3l-0.3-0.3L223,175l-0.5-0.3l-0.3-0.3
		l-0.2-0.3h-0.2l-0.3-0.3l-0.3-0.3h-0.2v-0.2l-0.2-0.2h-0.2l-0.2-0.2l-0.2-0.3l-0.5-0.3l-0.3-0.3l-0.5-0.5l-0.2-0.2l-0.5-0.3
		l-0.2-0.3l-0.3-0.2l-0.2-0.2l-0.2-0.2h-0.2v-0.2l-0.2-0.2h-0.2l-0.5-0.5l-0.3-0.3l-0.3-0.3l-0.3-0.2l-0.3-0.3v-0.3v-0.3v-0.7v-0.5
		v-0.7v-0.7v-0.2v-0.5v-0.5v-0.3v-0.3v-0.5v-0.5v-0.3v-0.5l0.2-0.3v-0.5v-0.3V159v-0.2v-0.5v-0.7v-0.7v-0.3v-0.2v-0.2v-0.3v-0.3
		v-0.2v-0.2v-0.3v-0.5v-0.5v-0.5v-0.7v-0.5V152v-0.5v-0.2l0.2-0.3v-0.5v-0.7v-0.5v-0.3v-0.2v-0.3v-0.5v-0.7v-0.3v-0.7v-0.5l0.2-0.5
		v-0.3v-0.2v-0.2v-0.2v-0.5v-0.2V143v-0.2v-0.2v-0.5V142v-0.2v-0.2v-0.2v-0.3V141v-0.5v-0.7v-0.2l0.2-0.5v-0.7v-0.7v-0.3v-0.2v-0.5
		v-0.2v-0.3v-0.3v-0.7v-0.3v-0.2v-0.2v-0.2v-0.5v-0.7v-0.5v-0.7l0.2-0.5v-0.5v-0.3v-0.2v-0.7V129v-0.5v-0.2v-0.2v-0.3v-0.2v-0.3
		v-0.2v-0.3v-0.3v-0.5l0.2-0.3v-0.3v-0.3v-0.5v-0.7v-0.2v-0.2V123v-0.5v-0.5v-0.3v-0.2v-0.5l0.2-0.5v-0.2v-0.2v-0.2v-0.2v-0.3V119
		v-0.2v-0.3v-0.3v-0.3v-0.3V117v-0.2v-0.2v-0.7v-0.3v-0.2v-0.2v-0.7v-0.2v-0.2v-0.2v-0.2v-0.2v-0.2l0.2-0.5v-0.2v-0.2v-0.5V112v-0.2
		v-0.5v-0.7v-0.2v-0.2v-0.7v-0.7v-0.5V108v-0.5v-0.2v-0.7l0.2-0.7v-0.2v-0.5v-0.2v-0.5v-0.3v-0.3v-0.5v-0.3v-0.5v-0.2v-0.2V102v-0.7
		v-0.7v-0.3v-0.7v-0.5v-0.5v-0.2l0.2-0.2v-0.2v-0.5v-0.2v-0.5v-0.5V96v-0.7v-0.7V94v-0.7v-0.5v-0.5v-0.7v-0.7v-0.2v-0.2v-0.7v-0.5
		V89v-0.3v-0.5l0.2-0.3v-0.2v-0.5v-0.2v-0.5v-0.5v-0.7v-0.5V84v-0.7v-0.5v-0.5v-0.7v-0.7v-0.5v-0.5v-0.7v-0.5v-0.2v-0.3v-0.7v-0.7
		v-0.3v-0.3v-0.5v-0.3v-0.2l0.2-0.2v-0.2v-0.5v-0.3v-0.3v-0.5v-0.3v-0.2V72v-0.5V71v-0.5V70v-0.3v-0.5v-0.5v-0.7v-0.3v-0.2v-0.5
		v-0.3V66l0.2-0.5V65v-0.5V64v-0.5v-0.5v-0.5v-0.7v-0.2v-0.2v-0.5v-0.3v-0.2V60v-0.2v-0.5V59v-0.5v-0.2v-0.7l0.2-0.7v-0.2v-0.2v-0.5
		v-0.2v-0.2v-0.3v-0.2v-0.3v-0.3V54v-0.5V53v-0.5v-0.2v-0.7v-0.7v-0.5v-0.2v-0.3v-0.5v-0.7l0.2-0.3V48v-0.5V47v-0.5v-0.7v-0.5v-0.5
		v-0.2v-0.3v-0.5v-0.5v-0.5v-0.2V42v-0.5l0.2-0.7v-0.5v-0.7v-0.3v-0.5v-0.3v-0.5v-0.2v-0.2v-0.9V36v-0.2v-0.3v-0.3V35v-0.3v-0.5
		v-0.7l0.2-0.7v-0.7v-0.9V31v-0.5v-0.3V30v-0.5v-0.3v-0.3v-0.2v-0.5v-0.7v-0.3v-0.5v-0.3v-0.3v-0.5V25v-0.3v-0.5v-0.3v-0.2v-0.2
		l0.2-0.9v-0.3v-0.5v-0.5v-0.5V20v-0.2v-0.3V19h-0.5h-0.3h-0.3h-0.2h-0.2h-0.3H216h-0.2h-0.5h-0.7h-0.5h-0.3h-0.2h-0.2H213h-0.7
		h-0.2H212h-0.2h-0.5h-0.7h-0.2h-0.2h-0.7h-0.2h-0.5h-0.2h-0.2h-0.3h-0.3h-0.3h-0.3H207h-0.2h-0.2l-0.2-0.2h-0.2H206h-0.2h-0.5H205
		h-0.5H204h-0.7h-0.9h-0.7H201l-0.7-0.2h-0.5h-0.5h-0.2H199h-0.3h-0.3h-0.5h-0.2h-0.3h-0.5h-0.7h-0.5H195h-0.2h-0.2h-0.5H194h-0.2
		h-0.2l-0.7-0.2h-0.7h-0.2h-0.2h-0.2h-0.3h-0.5h-0.3h-0.3h-0.2h-0.5H189l-0.5-0.2h-0.7h-0.3h-0.2h-0.2h-0.3h-0.5h-0.5h-0.3h-0.2
		h-0.3h-0.2h-0.3h-0.2h-0.3h-0.3h-0.3h-0.3h-0.5h-0.5h-0.3h-0.2h-0.2l-0.3-0.2h-0.7h-0.5h-0.2h-0.7h-0.3h-0.3l-0.7-0.2h-0.2h-0.3
		h-0.7h-0.5h-0.5l-0.5-0.2h-0.3h-0.2h-0.7h-0.2h-0.2h-0.5h-0.3h-0.5h-0.2l-0.3-0.2h-0.3h-0.7H170h-0.2h-0.5h-0.2h-0.5h-0.2h-0.2
		h-0.2h-0.2h-0.2h-0.2h-0.2h-0.7h-0.5h-0.5l-0.3-0.2h-0.2H165h-0.3h-0.2h-0.2h-0.2h-0.5h-0.2h-0.2H163h-0.2h-0.2h-0.3h-0.2l-0.2-0.2
		h-0.2h-0.2h-0.2h-0.2h-0.2h-0.2h-0.5h-0.3h-0.2h-0.2h-0.3l-0.2-0.2H159h-0.2h-0.2h-0.2h-0.2h-0.2H158h-0.2h-0.2h-0.2h-0.3H157h-0.5
		h-0.3h-0.2h-0.2l-0.3-0.2h-0.2h-0.3h-0.2h-0.2h-0.3h-0.7H153h-0.2l-0.5-0.2H152h-0.5h-0.3h-0.5h-0.2h-0.2h-0.3l-0.5-0.2h-0.7h-0.3
		h-0.5h-0.3h-0.2h-0.2h-0.3h-0.2l-0.5-0.2h-0.7h-0.3h-0.3h-0.5h-0.5h-0.5h-0.2l-0.2-0.2h-0.5h-0.7h-0.3h-0.7h-0.3l-0.3-0.2h-0.3
		h-0.5H139h-0.3l-0.5-0.2h-0.2v0.2h-0.2v-0.2h-0.5h-0.2h-0.2h-0.2h-0.5h-0.7H135h-0.5l-0.5-0.2h-0.2h-0.7h-0.7h-0.2h-0.5h-0.2
		l-0.5-0.2h-0.3h-0.3h-0.2H130h-0.2h-0.2h-0.2H129h-0.2h-0.5h-0.5l-0.5-0.2H127h-0.7h-0.9h-0.2h-0.5h-0.3h-0.5h-0.2h-0.3H123h-0.5
		h-0.3h-0.3h-0.7H121h-0.7h-0.3h-0.2l-0.5-0.2h-0.5h-0.5h-0.3h-0.5h-0.2h-0.7h-0.3H116h-0.5h-0.2h-0.3v-0.2h-0.2h-0.3h-0.3h-0.3
		h-0.2h-0.3h-0.2h-0.3h-0.2H112h-0.5h-0.2h-0.7h-0.3l-0.3-0.2h-0.3h-0.3h-0.5h-0.3h-0.2h-0.2h-0.7l-0.5-0.2h-0.2h-0.3h-0.2H106h-0.2
		h-0.3h-0.3H105h-0.3l-0.3-0.2h-0.7l-0.7-0.2h-0.2h-0.3h-0.2h-0.2l-0.3-0.2h-0.5h-0.2h-0.2h-0.5l-0.5,0.2h-0.3h-0.2H99h-0.5h-0.2
		h-0.2h-0.7h-0.5h-0.3h-0.5h-0.2h-0.7h-0.7h-0.2h-0.5h-0.2l-0.5-0.2h-0.5h-0.2H92h-0.3L91.3,14h-0.3h-0.3h-0.5h-0.3h-0.5h-0.3h-0.7
		L88,13.9h-0.2h-0.2h-0.2h-0.2h-0.2H87h-0.2h-0.3h-0.2h-0.2H86h-0.2h-0.2h-0.2h-0.2h-0.3h-0.2v-0.2h-0.5h-0.2h-0.2h-0.2h-0.2h-0.2
		h-0.2l-0.3,0.2h-0.5H82h-0.5L81,13.7h-0.5H80h-0.3h-0.2h-0.7v-0.2h-0.5h-0.3h-0.3h-0.2h-0.2H77h-0.2h-0.3h-0.2h-0.2H76h-0.3h-0.2
		L75,13.4h-0.5h-0.2h-0.2h-0.3h-0.3h-0.5l-0.7-0.2h-0.3h-0.2h-0.5h-0.3h-0.7h-0.7L69,13h-0.7H68h-0.5l-0.7-0.2h-0.2h-0.2h-0.5h-0.2
		h-0.5h-0.3l-0.3-0.2h-0.3h-0.7H63h-0.3l-0.2-0.2h-0.2H62h-0.2v0.2v0.2V13H62v0.2v0.2v0.2v0.2v0.2V14v0.2l-0.2,0.2v0.2v0.2v0.2v0.2
		H62v0.2h0.2v0.2v0.2v0.2H62v0.2l-0.2-0.2v0.2v0.2v0.2v0.2v0.2v0.2V17l-0.2,0.2v0.2v0.2v0.2v0.2V18v0.2h-0.2v0.2v0.2v0.2v0.2h-0.2
		V19v0.2v0.2v0.2h-0.2v0.2v0.2V20h-0.2v0.2v0.2v0.2l-0.2,0.2v0.2v0.2h-0.2v0.2v0.2l-0.2,0.2v0.2v0.2h-0.2v0.2v0.2h-0.2v0.2v0.2h-0.2
		v0.2h-0.2V23h-0.2v0.2v0.2v0.2h0.2v0.2h0.2h0.2v0.2h0.2V24h0.2v0.2h0.2v0.2v0.2h0.2v0.2h0.2v0.2h0.2l0.2,0.2h0.2v0.2h0.2h0.2H62
		v0.2h0.2l0.2-0.2h0.2v0.2h0.2l0.2,0.2v0.2H63v0.2v0.2h0.2v0.2v0.2h0.2v0.2v0.2v0.2l0.2,0.2h-0.2v0.2v0.2h0.2v0.2v0.2v0.2v0.2h-0.2
		v0.2h0.2v0.2v0.2v0.2h-0.2l0.2,0.2v0.2v0.2l0.2,0.2h-0.2v0.2h0.2v0.2h0.2V30v0.2H64v0.2v0.2v0.2v0.2h0.2V31v0.2v0.2v0.2v0.2
		l0.2,0.2v0.2h0.2v0.2v0.2h0.2v0.2v0.2h-0.2v0.2v0.2h0.2v0.2v0.2v0.2v0.2h-0.2v0.2v0.2v0.2h0.2v0.2v0.2h0.2v0.2V35H65v0.2h0.2v0.3
		v0.3V36v0.2v0.2v0.2v0.2v0.2V37v0.2v0.2v0.2h0.2v0.2v0.2v0.2v0.2v0.2l0.2,0.2v0.2v0.2v0.2v0.2v0.2v0.2v0.2v0.2v0.2v0.2v0.2v0.2v0.2
		h-0.2V41v0.2v0.2v0.2v0.2v0.2V42v0.2h-0.2v0.2v0.2v0.2v0.2V43v0.2H65v0.2v0.2v0.2v0.2v0.2h-0.2v0.2v0.2v0.2v0.2v0.2h-0.2v0.2v0.2
		v0.2v0.2h-0.2v0.2V46v0.2v0.2h-0.2v0.2v0.2v0.2V47h-0.2v0.2v0.2v0.2v0.2H64v0.2V48v0.2v0.2h-0.2v0.2v0.2v0.2V49h-0.2v0.2v0.2v0.2
		v0.2h-0.2v0.2v0.2v0.2h-0.2v0.2v0.2v0.2v0.2v0.2h-0.2v0.2v0.2v0.2H63v0.2V52v0.2h-0.2v0.2v0.2v0.2h-0.2v0.2V53h-0.2v0.2v0.2v0.2
		h-0.2v0.2v0.2h-0.2V54v0.2v0.2H62v0.2v0.2h-0.2v0.2V55h-0.2v0.2h-0.2h-0.2L61.1,55v0.2h-0.2v0.2v0.2v0.2h-0.2v0.2h0.2v0.2h0.2v0.2
		h-0.2v0.2v0.2v0.2v0.2v0.2v0.2v0.2v0.2h0.2v0.2V58v0.2v0.2v0.2h-0.2v0.2v0.2h0.2V59h0.2v0.2v0.2h0.2h0.2v0.2h0.2v0.2H62v0.2h0.2V60
		l0.2,0.2v0.2v0.2v0.2h0.2v0.2h0.2L62.5,61v0.2v0.2v0.2v0.2v0.2v0.2h-0.2v0.2v0.2v0.2v0.2h-0.2v0.2v0.2v0.2v0.2L62,63.6v0.2V64h-0.2
		v0.2v0.2v0.2v0.2h-0.2v0.2V65v0.2h-0.2v0.2v0.2v0.2h-0.2v0.2V66v0.2l-0.2,0.2v0.2v0.2h-0.2v0.2v0.2l-0.2,0.2v0.2v0.2h-0.2v0.2v0.2
		h-0.2v0.2v0.2l-0.2,0.2v0.2v0.2h-0.2v0.2v0.2h-0.2v0.2l-0.2,0.2v0.2v0.2h-0.2V70l-0.2,0.2v0.2h-0.2v0.2v0.2H59v0.2V71h-0.2v0.2
		l-0.2,0.2v0.2h-0.2v0.2v0.2h-0.2V72l-0.2,0.2v0.2H58v0.2v0.2h-0.2v0.2h-0.2v0.2v0.2h-0.2v0.2v0.2h-0.2h-0.2v0.2h0.2v0.2h0.2h0.2
		v-0.2v-0.2h0.2v-0.2H58v-0.2h0.2v-0.2h0.2v-0.2h0.2v-0.2h0.2v-0.2v-0.2v-0.2V72h0.2v-0.2v-0.2H59v-0.2v-0.2h0.2v-0.2h0.2V71h0.2
		v-0.2h0.2v-0.2v-0.2v-0.2v-0.2h0.2V70v-0.2h0.2v-0.2h0.2v-0.2v-0.2h0.2h0.2v-0.2v-0.2h0.2h0.2h0.2h0.2v0.2v0.2h0.2h0.2v0.2h0.2v0.2
		H62v-0.2h0.2h0.2v-0.2h0.2v0.2l0.2,0.2h0.2v0.2H63V70v0.2v0.2v0.2v0.2v0.2h-0.2V71v0.2h-0.2l-0.2,0.2h-0.2v0.2h-0.2H62h-0.2v0.2
		h-0.2h-0.2v0.2h-0.2h-0.2h-0.2v-0.2h-0.2h-0.2h-0.2h-0.2v-0.2h-0.2h-0.2v0.2h0.2v0.2h-0.2h-0.2h-0.2h-0.2V72h-0.2H59v0.2v0.2v0.2
		v0.2h-0.2v0.2h-0.2v0.2v0.2v0.2h-0.2h-0.2v0.2v0.2v0.2l0.2,0.2v0.2v0.2h-0.2v0.2l-0.2,0.2H58h-0.2h-0.2v0.2h0.2v0.2v0.2h-0.2v0.2
		v0.2h-0.2v0.2V76h0.2v0.2v0.2v0.2v0.2h-0.2v0.2h-0.2V77l-0.2,0.2L57,77.3h-0.2v-0.2h-0.2h-0.2h-0.2V77h-0.2H56v-0.2h-0.2h-0.2
		l0.2-0.2v-0.2H56v-0.2v-0.2h-0.2v0.2l-0.2,0.2v0.2h-0.2v0.2L55.3,77v0.2h-0.2v0.2l-0.2,0.2v0.2h-0.2v0.2V78h-0.2v0.2h-0.2v0.2v0.2
		l-0.5,1h-0.2v0.2v0.2h-0.2v0.2h-0.2v0.2v0.2h-0.2v0.2v0.2L53,80.9v0.2h-0.2v0.2v0.2h-0.2v0.2v0.2L52.5,82v0.2l-0.2,0.2v0.2v0.2
		h-0.2v0.2V83H52v0.2v0.2h-0.2v0.2v0.2l-0.2,0.2V84v0.2h-0.2v0.2v0.2h-0.2v0.2v0.2h-0.2v0.2L51,85.2v0.2h-0.2v0.2v0.2h-0.2v0.2v0.2
		v0.2v0.2v0.2v0.2v0.2h-0.2v0.2v0.2v0.2h-0.2v0.2v0.2V88h-0.2v0.2v0.2H50v0.2v0.2h-0.2v0.2V89h-0.2v0.2v0.2h-0.2v0.2h0.2v0.2v0.2
		h0.2V90h-0.2v0.2h0.2v0.2v0.2H50v0.2l0.2,0.2v0.2l0.2,0.2v0.2h0.2v0.2h0.2v0.2h0.2v0.2v0.2v0.2H51v0.2v0.2v0.2V93v0.2v0.2v0.2v0.2
		v0.2l0.2,0.2H51v0.2v0.2v0.2h0.2v0.2l0.2,0.2V95v0.2v0.2h0.2v0.2v0.2v0.2h-0.2V96l-0.2,0.2v0.2v0.2v0.2v0.2H51v0.2v0.2h-0.2v0.2
		v0.2v0.2v0.2v0.2v0.2h-0.2v0.2h0.2v0.2H51v0.2h0.2V99l0.2,0.2h0.2v0.2h0.2v0.2h0.2H52v0.2v0.2l0.2,0.2v0.2h0.2v0.2h0.2v0.2h0.2v0.2
		l0.2,0.2H53v0.2l0.2,0.2v0.2h0.2h0.2v0.2h0.2v0.2h0.2h0.2v0.2v0.2h0.2v0.2h0.2v0.2h0.2l0.2,0.2h0.2v0.2h0.2l0.2,0.2h0.2v0.2
		l0.2,0.2h0.2v0.2H56v0.2h0.2v0.2v0.2h0.2v0.2h0.2v0.2v0.2h0.2v0.2v0.2h0.2v0.2l0.2,0.2h0.2v0.2h0.2h0.2v0.2h0.2h0.2v0.2H58h0.2v0.2
		h0.2l0.2,0.2h0.2h0.2v0.2H59h0.2v0.2h0.2v0.2h0.2l0.2,0.2h0.2v0.2v0.2h0.2v0.2v0.2h0.2v0.2h0.2v0.2v0.2h0.2v0.2l0.2,0.2v0.2v0.2
		h0.2v0.2v0.2v0.2v0.2v0.2h-0.2v0.2v0.2v0.2v0.2v0.2v0.2h0.2v0.2v0.2h0.2h0.2v-0.2h0.2h0.2v0.2h0.2v0.2H62h0.2v0.2h0.2v0.2h0.2v0.2
		v0.2h0.2v0.2h0.2v0.2H63v0.2v0.2v0.2h0.2v0.2h0.2v0.2h0.2v0.2l0.2,0.2v0.2h0.2v0.2H64v0.2h0.2v0.2h0.2v0.2v0.2h0.2v0.2v0.2h0.2v0.2
		v0.2v0.2h0.2v0.2H65v0.2v0.2v0.2v0.2h0.2v0.2h0.2v0.2h0.2h0.2v0.2h0.2v0.2h0.2v0.2v0.2h0.2v0.2v0.2v0.2h0.2v0.2v0.2v0.2h0.2v0.2
		v0.2v0.2v0.2h0.2v0.2v0.2h0.2v0.2h0.2v0.2v0.2h0.2h0.2v0.2h0.2v0.2h0.2v0.2H68v0.2h0.2h0.2v0.2h0.2v0.2h0.2h0.2v0.2v0.2H69v0.2v0.2
		v0.2v0.2v0.2v0.2v0.2h0.2v0.2v0.2v0.2v0.2v0.2v0.2v0.2v0.2v0.2v0.2v0.2v0.2v0.2v0.2v0.2v0.2h0.2v0.2v0.2v0.2v0.2h0.2v0.2h-0.2v0.2
		v0.2v0.2h0.2v0.2h0.2v0.2h0.2l0.2,0.2h0.2v0.2v0.2h0.2v0.2v0.2v0.2h0.2v0.2l0.2,0.2v0.2v0.2v0.2v0.2v0.2v0.2v0.2h0.2v0.2v0.2v0.2
		v0.2v0.2v0.2v0.2h-0.2v0.2h0.2v0.2v0.2v0.2v0.2v0.2v0.2v0.2v0.2h-0.2v0.2v0.2v0.2v0.2v0.2v0.2h0.2v0.2H71v0.2v0.2h-0.2l0.2,0.2v0.2
		v0.2h0.2v0.2h0.2v0.2v0.2h-0.2v0.2v0.2v0.2v0.2l-0.2,0.2v0.2v0.2v0.2h-0.2v0.2v0.2h-0.2v0.2v0.2l-0.2,0.2v0.2v0.2h-0.2v0.2
		l-0.2,0.2v0.2H70v0.2l-0.2,0.2v-0.2h-0.2v0.2v0.2v0.2v0.2v0.2h-0.2v0.2v0.2v0.2v0.2h-0.2v0.2l-0.2,0.2v0.2v0.2v0.2v0.2H69v0.2v0.2
		h0.2h0.2v0.2v0.2h-0.2H69v0.2v0.2h0.2v0.2H69v0.2h-0.2v0.2v0.2v0.2v0.2v0.2v0.2v0.2v0.2h-0.2v0.2h0.2v0.2v0.2h-0.2v0.2v0.2h0.2v0.2
		h-0.2v0.2h-0.2v0.2v0.2h-0.2v0.2h0.2v0.2h0.2v0.2h0.2v0.2v0.2v0.2H69v0.2h0.2v0.2v0.2h0.2v0.2v0.2h-0.2H69v0.2v0.2v0.2h0.2h0.2h0.2
		v0.2v0.2v0.2v0.2h-0.2v-0.2h-0.2v0.2v0.2v0.2v0.2v0.2h0.2v0.2h0.2v0.2h0.2v0.2v0.2v0.2h0.2v0.2h-0.2v0.2h0.2v0.2v0.2H70v0.2h0.2
		v0.2H70v0.2h-0.2v0.2H70v0.2h0.2v0.2H70v0.2h0.2v0.2v0.2H70v0.2v0.2h0.2v0.2v0.2v0.2v0.2h0.2v0.2h0.2v0.2l0.2,0.2v0.2v0.2h0.2v0.2
		v0.2H71v0.2v0.2h0.2v0.2h0.2v0.2v0.2h-0.2v0.2h0.2v0.2h-0.2v0.2v0.2h0.2v-0.2h0.2v0.2v0.2h0.2h0.2v0.2v0.2v0.2v0.2v0.2h0.2v0.2v0.2
		v0.2v0.2h0.2v0.2v0.2v0.2v0.2v0.2v0.2h0.2v0.2v0.2v0.2v0.2v0.2h0.2v0.2v0.2v0.2v0.2h0.2v0.2v0.2v0.2v0.2v0.2v0.2v0.2v0.2h-0.2v0.2
		h0.2v0.2l-0.2,0.2v0.2v0.2v0.2h-0.2v0.2v0.2h-0.2v0.2v0.2h-0.2v0.2v0.2h-0.2v0.2v0.2h-0.2v0.2v0.2h-0.2v0.2h-0.2v0.2v0.2h-0.2v0.2
		H71h-0.2h-0.2v0.2v0.2h0.2v0.2v0.2v0.2H71v0.2v0.2v0.2v0.2v0.2v0.2h0.2h0.2h0.2v0.2h0.2v0.2v0.2h0.2v0.2v0.2h0.2l0.2,0.2v0.2h0.2
		v0.2h0.2v0.2v0.2h0.2v0.2h0.2v0.2h0.2v0.2h0.2h0.2v0.2h0.2v0.2v0.2h0.2v0.2v0.2v0.2v0.2H74v0.2v0.2h0.2h0.2v0.2v0.2h0.2v0.2h0.2
		v0.2h0.2v0.2H75h0.2v0.2h0.2v0.2h0.2v0.2v0.2h0.2v0.2v0.2h0.2v0.2H76v0.2h0.2h0.2h0.2v0.2h0.2v0.2h0.2v0.2H77v0.2v0.2h0.2v0.2h0.2
		h0.2v0.2h0.2v0.2v0.2h0.2v0.2h0.2v0.2h0.2v0.2h-0.2v0.2h0.2v0.2l0.2,0.2v0.2h0.2v0.2h0.2v0.2v0.2h0.2h0.2h0.2v0.2h0.2h0.2v0.2v0.2
		h0.2v0.2H80v0.2h0.2v0.2h0.2h0.2h0.2v0.2h0.2v0.2H81v0.2v0.2v0.2h0.2h0.2v0.2h0.2v0.2v0.2h0.2v0.2v0.2l0.2,0.2h-0.2v0.2v0.2h0.2H82
		v0.2h0.2v0.2h0.2v0.2v0.2h0.2v0.2v0.2h0.2v0.2v0.2h0.2v0.2v0.2h0.2v0.2h0.2v0.2v0.2h0.2v0.2v0.2h0.2v0.2v0.2h0.2v0.2v0.2h0.2h0.2
		v0.2v0.2h-0.2v0.2h0.2v0.2h0.2v0.2h0.2h0.2h0.2v0.2h0.2v0.2v0.2h0.2v0.2h0.2v0.2h-0.2v0.2v0.2v0.2h0.2v0.2h0.2v0.2h0.2v0.2h0.2v0.2
		H86h0.2l0.2,0.2v0.2v0.2h0.2h0.2v0.2h0.2v0.2H87l0.2,0.2h0.2v0.2v0.2l0.3,0.3h0.2v0.2H88v0.2h0.2v0.2v0.2h0.2h0.3v0.2h0.2v0.2h0.2
		v0.2h0.2h0.2v0.2h0.2h0.2h0.2v0.2h0.2h0.2v0.2h0.2v0.2h0.2v0.2h0.2h0.2v0.2h0.2v0.2h0.2v0.2h0.2v0.2h0.2v0.2h0.2v0.2H92v0.2v0.2
		h0.2h0.2v0.2h0.2h0.2v0.2h0.2v0.2H93v0.2v0.2v0.2h0.2v0.2v0.2v0.2h0.2v0.2v0.2h0.2v0.2h0.2v0.2h0.2v0.2v0.2H94v0.2v0.2v0.2v0.2v0.2
		h0.2h0.2v0.2h0.2v0.2v0.2v0.2v0.2h0.2v0.2h0.2v0.2v0.2h0.2v0.2v0.2v0.2v0.2v0.2v0.2v0.2v0.2v0.2h-0.2v0.2v0.2v0.2h-0.2h-0.2v0.2
		h0.2v0.2h0.2v0.2v0.2v0.2h0.2v0.2v0.2h0.2h0.2h0.2v-0.2h-0.2v-0.2l-0.2-0.2v-0.2h0.2v-0.2v-0.2v-0.2l0.2-0.2h-0.2v-0.2v-0.2h0.2
		v0.2h0.2l0.2,0.2h0.2v0.2v0.2v0.2v0.2h0.2v0.2h0.2h0.2v0.2h0.2l0.2,0.2h0.2v0.2l0.2,0.2l0.2,0.2v0.2h0.2v0.2v0.2h0.2v0.2H98v0.2
		v0.2v0.2h0.2h0.2v0.2v0.2h0.2v0.2v0.2h0.2v0.2v0.2v0.2v0.2v0.2l-0.2,0.2v0.2v0.2h0.2h0.2v-0.2H99h0.2v0.2v0.2v0.2v0.2v0.2v0.2h0.2
		v-0.2l0.2-0.2l0.2,0.2l0.2,0.2v0.2h0.2v-0.2h0.2v-0.2h0.2v0.2h-0.2v0.2v0.2v0.2h0.2v0.2v0.2v0.2h0.2v0.2v0.2h0.2v0.2v0.2h0.2v0.2
		v0.2h0.2v0.2v0.2v0.2h0.2h0.2v0.2v0.2v0.2h0.2v0.2l0.2,0.2v0.2h0.2l0.2,0.2v0.2h0.2v0.2v0.2h0.2v0.2v0.2v0.2v0.2h0.2h0.2v0.2h0.2
		v0.2h-0.2v0.2h0.2h0.2h0.2v0.2h0.2v0.2l0.2,0.2v0.2h0.2v0.2h-0.2v0.2l0.2,0.2h-0.2v-0.2l-0.2-0.2l-0.2,0.2v-0.2h-0.2v-0.2h-0.2
		v-0.2v-0.2h-0.2v-0.2h-0.2v-0.2h-0.2v-0.2h-0.2v-0.2v-0.2h-0.2v-0.2h-0.2v-0.2h-0.2V207h-0.2v-0.2l-0.2-0.2h-0.2v-0.2v-0.2
		l-0.2-0.2V206h-0.2v-0.2v-0.2v-0.2h-0.2v-0.2h-0.2v-0.2V205h-0.2v-0.2v-0.2h-0.2v-0.2H100v-0.2v-0.2v-0.2h-0.2v-0.2h-0.2v-0.2h-0.2
		h-0.2h-0.2v-0.2h0.2v-0.2v-0.2l-0.2-0.2H99v-0.2h-0.2v-0.2l-0.2-0.2v-0.2h-0.2v-0.2h-0.2v-0.2v-0.2h-0.2v-0.2H98v-0.2h-0.2v-0.2
		h-0.2v0.2v0.2h0.2v0.2v0.2H98v0.2h0.2v0.2v0.2v0.2h0.2v0.2l0.2,0.2v0.2h0.2v0.2v0.2v0.2v0.2v0.2h-0.2v0.2h0.2h0.2v0.2H99v0.2
		l0.2,0.2H99v0.2h0.2v0.2v0.2v0.2v0.2v0.2v0.2v0.2l-0.2,0.2v0.2v0.2v0.2h-0.2v0.2v0.2v0.2h-0.2v0.2v0.2v0.2h-0.2v0.2v0.2v0.2h-0.2
		v0.2v0.2h-0.2v0.2v0.2v0.2H98v0.2v0.2h-0.2v0.2v0.2l-0.2,0.2v0.2l-0.2,0.2v0.2v0.2h-0.2v0.2v0.2v0.2h-0.2v0.2v0.2h-0.2v0.2v0.2
		h-0.2v0.3l-0.2,0.2v0.2v0.2l-0.2,0.3h-0.2h-0.2h-0.2v0.2h0.2v0.2h0.2v-0.2h0.2h0.2v0.2h0.2h0.2h0.2h0.2h0.2h0.2v-0.2h-0.2V213v-0.2
		v-0.2l0.2-0.2v-0.2h0.2v-0.2H98V212h0.2v-0.2h0.2h0.2v-0.2h0.2h0.2H99h0.2h0.2h0.2v-0.2h-0.2h-0.2v-0.2v-0.2H99V211v-0.2h-0.2
		l-0.2-0.2h-0.2v-0.2h0.2v0.2h0.2H99v-0.2v-0.2h-0.2l-0.2-0.2v-0.2v-0.2v-0.2v-0.2h0.2v0.2v0.2v0.2v0.2H99h0.2v-0.2l0.2-0.2v-0.2
		v-0.2v-0.2h0.2v-0.2h0.2v0.2h-0.2v0.2v0.2v0.2h0.2l-0.2,0.2h0.2v0.2h0.2v-0.2v-0.2h0.2h0.2l-0.2,0.2v0.2v0.2h-0.2h-0.2v0.2h-0.2
		v0.2v0.2h-0.2v0.2h0.2v0.2v0.2v0.2h0.2h0.2h0.2v-0.2h0.2v0.2h0.2v-0.2v-0.2V211v-0.2h0.2h0.2v0.2h-0.2l0.2,0.2h-0.2v0.2v0.2v0.2
		h0.2h0.2h0.2h0.2v0.2h-0.2l0.2,0.2h0.2h0.2v0.2h0.2h0.2h0.2v0.2h0.2l0.2,0.2h0.2v0.2h0.2l0.2,0.2h0.2v0.2h0.2v0.2h0.2v0.2v0.2
		l0.2-0.2v0.2h0.2l0.2,0.2v0.2l0.2,0.2h0.2v0.2h0.2v0.2h0.2v0.2v0.2h0.2v0.2l0.2,0.2v0.2v0.2h0.2v0.2v0.2v0.2h0.2v0.2h0.2v0.2h0.2
		v0.2h0.2v0.2h0.2h0.2h0.2v0.2l0.2,0.2h0.2v0.2h0.2h0.2h0.2v0.2h-0.2v0.2v0.2h0.2v0.2v0.2v0.2v0.2h0.2h0.2l0.2,0.2h0.2v0.2h0.2v0.2
		h0.2v-0.2h0.2v-0.2h0.2h0.2v-0.2h0.2v-0.2V218v-0.2h-0.2v-0.2v-0.2v-0.2h-0.2v-0.2V217h0.2v0.2h0.2h0.2v0.2h0.2v0.2h0.2v0.2h0.2
		v0.2l0.2,0.2h0.2v0.2h0.2v0.2h0.2v0.2v0.2h0.2v0.2h0.2l0.2,0.2v0.2h0.2v0.2v0.2h0.2v0.2h0.2v0.2h0.2v-0.2h0.2v0.2h0.2h0.2h0.2v0.2
		l0.2,0.2v0.2h0.2v0.2v0.2h0.2h0.2h0.2v0.2h0.2v0.2h0.2h0.2v0.2v0.2h0.2v0.2h0.2v0.2h0.2v0.2v0.2h0.2h0.2v0.2h0.2v0.2v0.2h0.2v0.2
		h0.2v-0.2h0.2h0.2h0.2h0.3v0.2h0.2h0.2v-0.2h0.2v-0.2l0.2,0.2l0.2-0.2v0.2h0.2v-0.2v-0.2h0.2v-0.2h0.2L117,222v-0.2h-0.2v-0.2v-0.2
		v-0.2v-0.2v-0.2h-0.2v-0.2h-0.2h-0.2v-0.2h-0.2v-0.2v-0.2H116v-0.2h-0.2h-0.2v-0.2h-0.2v-0.2h-0.2v-0.2v-0.2h-0.2l0.2-0.2h-0.2V219
		h0.2v0.2h0.2v0.2v0.2h0.2v0.2h0.2h0.2v-0.2v-0.2h0.2l-0.2-0.2V219h0.2v0.2h0.2h0.2h0.2v0.2h0.2v0.2h0.2l0.2,0.2v0.2v0.2v0.2v0.2
		l0.2,0.2l0.2,0.2h0.2v-0.2h-0.2v-0.2v-0.2h0.2v0.2h0.2h0.2v-0.2h0.2v-0.2h0.2h0.2v-0.2h-0.2v-0.2h-0.2v-0.2v-0.2v-0.2H118h-0.2
		h-0.2V219h-0.2h-0.2v-0.2l-0.2-0.2v-0.2v-0.2v-0.2H117V218h-0.2l-0.2-0.2h-0.2h-0.2v-0.2h-0.2v-0.2v-0.2H116v-0.2V217v-0.2h-0.2
		h-0.2v-0.2l0.2,0.2v-0.2h0.2v0.2h0.2h0.2v0.2h0.2v0.2h0.2V217h0.2v-0.2h0.2v-0.2h-0.2l-0.2-0.2v-0.2v-0.2v-0.2v-0.2v-0.2h-0.2v-0.2
		h0.2h0.2h0.2h0.2v-0.2v-0.2h0.2v-0.2l0.2-0.2h0.2v0.2h0.2h0.2h0.2h0.2v-0.2v-0.2l-0.2-0.2v-0.2H118v-0.2h-0.2v-0.2h-0.2h-0.2v-0.2
		h-0.2h-0.2v-0.2H117v-0.2h-0.2v-0.2h-0.2h-0.2h-0.2V213h0.2v-0.2v-0.2v-0.2v-0.2v-0.2V212h0.2v-0.2v-0.2h-0.2v-0.2h0.2l0.2,0.2
		v-0.2v-0.2v-0.2V211h0.2v-0.2v-0.2l0.2-0.2v-0.2v-0.2v-0.2v-0.3v-0.2v-0.2v-0.2H117v-0.2v-0.2v-0.2l0.2-0.2h0.2h0.2h0.2v-0.2h0.2
		h0.3h0.3h0.2h0.2h0.2v-0.2h0.2h0.2v-0.2h0.2v-0.2h0.2h0.2v-0.2h0.2h0.2v-0.2h0.2l0.2-0.2V207l-0.2-0.2v-0.2l-0.2-0.2h0.2v0.2h0.2
		v0.2v0.2h0.2h0.2h0.2v0.2h0.2h0.2v0.2h0.2h0.2v0.2h0.2v0.2h0.2v0.2h0.2h0.2h0.2v0.2h0.2l0.2,0.2h0.2v0.2h0.2l0.2,0.2l0.2,0.2h0.2
		v0.2h0.2v0.2h0.2v0.2h0.2v0.2h0.2v0.2l0.2,0.2v0.2h0.2v0.2l0.2,0.2v0.2h0.2v0.2v0.2v0.2v0.2l0.3,0.3h0.2v0.2v0.2v0.2v0.2v0.2h-0.2
		l-0.2,0.2v-0.2h-0.2v0.2v0.2v0.2h-0.2v0.2l-0.2,0.2h-0.2h-0.2v0.2v0.2h-0.2l-0.2,0.2H124h-0.2h-0.2h-0.2l-0.2,0.2l-0.2,0.2H123v0.2
		h-0.2h-0.2v-0.2h-0.2v-0.2h-0.2h-0.2v-0.2H122h-0.2h-0.2h-0.2v0.2v0.2h0.2v0.2v0.2h0.2v0.2v0.2v0.2h-0.2v0.2h-0.2v0.2h-0.2v0.2
		h-0.2H121v-0.2l-0.2,0.2v0.2h-0.2h-0.2v0.2v0.2v0.2v0.2v0.2h-0.2h-0.2v-0.2h-0.2h-0.2v-0.2v-0.2h-0.2h-0.2h-0.2v-0.2h-0.2v0.2
		l0.2,0.2v0.2h0.2v0.2v0.2h-0.2v0.2h0.2h0.2l0.2,0.2v0.2h-0.2v0.2h0.2v0.2h0.2h0.2v0.2h0.2h0.2v0.2v0.2h0.2v0.2v0.2v0.2h-0.2v0.2
		h0.2h0.2v-0.2h0.2v0.2h0.2v0.2h0.2h0.2v-0.2v-0.2v-0.2h0.2v0.2v0.2h0.2h0.2l0.2,0.2h0.2v-0.2h0.2h0.2h0.2v0.2h0.2h0.2v0.2H123v0.2
		v0.2h0.2h0.2h0.2v0.2v0.2h-0.2v0.2v0.2l0.2,0.2v0.2v0.2v0.2h-0.2v0.2h0.2v0.2h0.2v0.2l0.2,0.2v0.2v0.2v0.2v0.2v0.2v0.2v0.2v0.2
		h-0.2h-0.2h-0.2h-0.2v0.2H123h-0.2h-0.2v0.2h0.2h0.2h0.2l0.2-0.2v0.2h-0.2l-0.2,0.3l-0.2,0.2h-0.2h-0.2h-0.2h-0.2v0.2h0.2h0.2h0.2
		h0.2v0.2v0.2v0.2h-0.2l-0.2-0.2v0.2v0.2v0.2v0.2v0.2h0.2h0.2v0.2h0.2v0.2h0.2h0.2h0.2h0.2v0.2h0.2v0.2h0.2h0.2h0.2v0.2h0.2h0.2v0.2
		h0.2v0.2h0.2l0.2,0.2h0.2l0.2,0.2h0.2h0.2v0.2h-0.2h-0.2h-0.2v0.2h-0.2v0.2h-0.2v0.2h0.2v0.2h0.2v0.2l0.2,0.2h0.2v0.2h-0.2v0.2h0.2
		v0.2l0.2,0.2l0.2,0.2l0.2,0.2l0.2,0.2h0.2v0.2h0.2v0.2h0.2v-0.2V229v-0.2h0.2l0.3-0.2h0.2l-0.2,0.2h-0.2v0.2h0.2v0.2h0.2h0.2v0.2
		v0.2h0.2v0.2h0.2v0.2v0.2l0.2,0.2h0.2v0.2h0.2v0.2v0.2h0.2v0.2v0.2h0.2v0.2v0.2v0.2v0.2l0.2,0.2v0.2v0.2v0.2v0.2v0.2v0.2v0.2v0.2
		v0.2l0.2,0.2v0.2v0.2v0.2v0.2v0.2v0.2v0.2v0.2v0.2h0.2v0.2v0.2l0.2,0.2v0.2v0.2h0.2l0.2,0.2v0.2v0.2v0.2h0.2v0.2v0.2h0.2v0.2v0.2
		v0.2h0.2v0.2v0.2v0.2v0.2v0.2v0.2v0.2v0.2v0.2l0.2,0.2l0.2,0.2v-0.2h0.2h0.2h0.2h0.2v-0.2v-0.2h0.2h0.2v0.2h-0.2v0.2h0.2l0.2,0.2
		h0.2h0.2h0.2v0.2h0.2v0.2v0.2v0.2v0.2v0.2v0.2v0.2v0.2h0.2h0.2h0.2h0.2h0.2h0.2h0.2h0.2h0.2h0.2h0.2h0.2h0.2l0.3,0.2h0.2V241h0.2
		h0.2h0.2h0.2h0.2v0.2h-0.2v0.2v0.2v0.2H136v-0.2h-0.2h-0.2h-0.2h-0.2v-0.2h-0.2H135v-0.2h-0.2v0.2h-0.2h-0.2h-0.2h-0.2H134h-0.2
		h-0.2h-0.2v0.2h-0.2v0.2h0.2h0.2v0.2h-0.2h-0.2h-0.2H133v0.2h-0.2h-0.2h-0.2h-0.2v-0.2h-0.2h-0.2h-0.2h-0.2h-0.2v-0.2h-0.2h-0.2
		l-0.2-0.2h-0.2h-0.2h-0.2v-0.2h0.2v0.2l0.2-0.2h0.2v-0.2h-0.2h-0.2h-0.2V241h-0.2v-0.2H130v-0.2v-0.2l-0.2-0.2v-0.2h0.2V240h-0.2
		v-0.2v-0.2v-0.2v-0.2v-0.2h-0.2v-0.2h-0.2h-0.2h-0.2v0.2H129h-0.2h-0.2v0.2l-0.2-0.2l-0.2-0.2h-0.2v-0.2H128v-0.2h-0.2v-0.2v-0.2
		h-0.2v0.2l-0.2-0.2v-0.2h-0.2v-0.2h-0.2v0.2H127v0.2h-0.2v0.2h-0.2v-0.2h0.2v-0.2l0.2-0.2h0.2v-0.2h0.2v-0.2v-0.2h-0.2v-0.2H127
		h-0.2V237h-0.2v0.2h-0.2V237h-0.2h-0.2v0.2h-0.2V237h0.2v-0.2v-0.2h-0.2h-0.2h-0.2h-0.2v-0.2h-0.2v0.2h-0.2v-0.2h0.2v-0.2h0.2v-0.2
		h-0.2V236v-0.2l-0.2-0.2l-0.2-0.2h-0.2h-0.2h-0.2h-0.2H124v-0.2h-0.2h-0.2h-0.2v0.2h0.2v0.2h-0.2v-0.2h-0.2v-0.2h-0.2H123v-0.2
		h-0.2V235h-0.2v-0.2v-0.2v-0.2h-0.2h-0.2h-0.2v0.2H122v-0.2v-0.2h-0.2h-0.2h-0.2h-0.2h-0.2H121h-0.2v-0.2V234h-0.2v-0.2h-0.2
		l-0.2-0.2v-0.2h0.2v-0.2h0.2h0.2v0.2h0.2h0.2v-0.2v-0.2H121l-0.2-0.2h-0.2l0.2-0.2v-0.2h-0.2h-0.2v-0.2h-0.2h-0.2h-0.2v-0.2h0.2
		h0.2v-0.2h-0.2v-0.2h-0.2v-0.2h-0.2v-0.2h0.2h0.2h0.2v-0.2h0.2v-0.2V231h-0.2v-0.2v-0.2v-0.2h-0.2v0.2h-0.2h-0.2v-0.2h0.2h0.2v-0.2
		h0.2v-0.2V230h-0.2v-0.2v-0.2h-0.2v-0.2v-0.2v-0.2V229v-0.2v-0.2v-0.2h0.2h0.2h0.2v-0.2h0.2v-0.2h-0.2V228v-0.2h0.2v0.2v0.2h0.2
		h0.2h0.2h0.2l-0.2-0.2h0.2l-0.2-0.2h0.2v-0.2h-0.2v-0.2H121h-0.2h-0.2v-0.2v-0.2h0.2h0.2l-0.2-0.3h-0.2v-0.2l-0.2-0.2v-0.2v-0.2
		v-0.2h-0.2v-0.2v-0.2v-0.2h0.2v-0.2h-0.2V225v-0.2h0.2v-0.2v-0.2l-0.2,0.2v-0.2l-0.2-0.2v-0.2h-0.2V224v-0.2h-0.2v-0.2h-0.2v-0.2
		h-0.2h-0.2l-0.2-0.2v0.2l-0.2,0.2l-0.2-0.2v0.2h-0.2h-0.2v-0.2l-0.2,0.2H118h-0.2h-0.2h-0.2h-0.2h-0.2v-0.2H117h-0.2v0.2h-0.2v0.2
		v0.2h-0.2v0.2v0.2h-0.2h-0.2v0.2H116v-0.2h-0.2h-0.2v0.2h-0.2v0.2h-0.2v0.2v0.2v0.2v0.2v0.2v0.2v0.2h0.2v0.2h-0.2l0.2,0.2v0.2v0.2
		v0.2v0.2v0.2v0.2v0.2v0.2v0.2v0.2v0.2h0.2v0.2v0.2v0.2v0.2v0.2h0.2v0.2v0.2v0.2v0.2v0.2v0.2v0.2v0.2v0.2v0.2v0.2v0.2v0.2v0.2v0.2
		v0.2v0.2v0.2v0.2v0.2h-0.2v0.2v0.2v0.2v0.2v0.2h-0.2v0.2v0.2v0.2h-0.2v0.2h-0.2v-0.2h-0.2v0.2h-0.2v0.2v0.2v0.2v0.2v0.2h-0.2v0.2
		h0.2v0.2h-0.2v0.2h0.2v0.2v0.2v0.2v0.2v0.2v0.2h-0.2v0.2v0.2v0.2v0.2v0.2v0.2v0.2h0.2v0.2v0.2v0.2h0.2v0.2h0.2v0.2h0.2v0.2v0.2v0.2
		h0.2v-0.2v-0.2h0.2l0.2-0.2v0.2h0.2v-0.2l0.2,0.2h0.2h0.2v0.2h0.2v0.2l0.2,0.2v0.2h0.2v0.2v0.2l0.2,0.2v0.2v0.2v0.2v0.2v0.2h0.2
		l-0.2,0.2h0.2v0.2v0.2v0.2v0.2v0.2l-0.2,0.2h0.2v0.2v0.2v0.2h0.2v0.2h0.2v0.2v0.2v0.2h0.2v0.2v0.2v0.2h0.2v0.2v0.2v0.2v0.2h0.2v0.2
		h0.2v0.2v0.2h0.2v0.2v0.2v0.2v0.2v0.2h0.2v0.2v0.2v0.2v0.2v0.2v0.2v0.2v0.2v0.2h-0.2v0.2v0.2v0.2v0.2v0.2v0.2v0.2v0.2h-0.2v0.2v0.2
		v0.2v0.2v0.2v0.2h-0.2v0.2v0.2v0.2v0.2H118l0.2,0.2v0.2H118v0.2v0.2h-0.2v0.2v0.2v0.2v0.2v0.2h0.2l-0.2,0.2h0.2v0.2h0.2v0.2v0.2
		v0.2v0.2v0.2v0.2h0.2v0.2h-0.2v0.2v0.2v0.2h0.2v0.2h0.2v0.2v0.2h0.2v0.2h0.2h0.2h0.2h0.2v0.2h0.2v0.2h0.2v0.2h0.2v0.2v0.2v0.2
		l0.2,0.2v0.2v0.2v0.2h0.2v0.2h0.2h0.2v0.2v0.2h0.2v0.2v0.2v0.2v0.2v0.2v0.2h0.2h0.2v0.2h0.2h0.2v-0.2h0.2h0.2l0.2,0.2h0.2v0.2h0.2
		v0.2h0.2l0.2,0.2h0.2v0.2v0.2h0.2v0.2h0.2v0.2v0.2h0.2v0.2l0.2,0.2v0.2h0.2v0.2v0.2h0.2v0.2v0.2h0.2v0.2v0.2h0.2v0.2h0.2v0.2h0.2
		v0.2v0.2h0.2l0.2,0.2v0.2v0.2l0.2,0.2v0.2l0.2,0.2h0.2v0.2h0.2l0.2,0.2v0.2h0.2h0.2v0.2h0.2v0.2h0.2v0.2h0.2v0.2v0.2h0.2h0.2v0.2
		h0.2v0.2h0.2v0.2h0.2v0.2h0.2v0.2h0.2v0.2h0.2h0.2l0.2,0.2v0.2h0.2v0.2h0.2h0.2v0.2h0.2h0.2v0.2h0.2l0.2,0.2h0.2v0.2h0.2h0.2h0.2
		h0.2v0.2h0.2h0.2h0.2v0.2h0.2h0.2h0.2h0.2h0.2h0.2h0.2v-0.2h0.2h0.2v0.2h0.2h0.2v-0.2v-0.2h0.2l-0.2-0.2h0.2l0.3-0.2h0.2v0.2h0.2
		h0.2h0.2l0.2,0.2l0.2-0.2h0.2v0.2h0.2v0.2h0.2h0.2v-0.2h0.2h0.2V266v-0.2h0.2v-0.2h0.2v-0.2l0.2,0.2v-0.2h0.2v-0.2h0.2h0.2h0.2h0.2
		l0.2,0.2h0.2l0.2,0.2h0.2v0.2h0.2h0.2v0.2h0.2v0.2h0.2v0.2h0.2v0.2h0.2v0.2h0.2v0.2l0.2,0.2l0.2,0.2v0.2h0.2v0.2v0.2h0.2v0.2
		l0.2,0.2v0.2l0.2,0.2v0.2v0.2h0.2v0.3h0.2v0.2l0.2,0.2v0.2l0.2,0.2v0.2l0.2,0.3v0.2l0.2,0.2v0.2v0.2h0.2v0.2v0.2h0.2v0.2v0.2h0.2
		v0.2v0.2v0.2h0.2v0.2v0.2v0.2h0.2v0.2v0.2v0.2h0.2v0.2v0.2h0.2v0.2v0.2v0.2v0.2v0.2h-0.2v0.2v0.2v0.2h-0.2v0.2v0.2v0.2v0.2h-0.2
		v0.2v0.2v0.2v0.2h-0.2v0.2v0.2v0.2v0.2v0.2H141v0.2v0.2v0.2v0.2v0.2v0.2v0.2v0.2v0.2v0.2l-0.2,0.2v0.2v0.2v0.2v0.2l-0.2,0.2v0.2
		v0.2l-0.2,0.2v0.2v0.2h-0.2v0.2v0.2v0.2h-0.2v0.2v0.2H140v0.2v0.2h-0.2v0.2l-0.2,0.2v0.2h-0.2v0.2v0.2h-0.2v0.2h-0.2v0.2H139v0.2
		h-0.2v0.2h-0.2v0.2h-0.2l-0.2,0.2h-0.2h-0.2v0.2h-0.2h-0.2v-0.2h-0.2v-0.2h0.2v-0.2h-0.2h-0.2v-0.2v-0.2h-0.2V283h-0.2h-0.2v-0.2
		h-0.2v-0.2h-0.2v-0.2h-0.2v-0.2v-0.2l-0.2,0.2v-0.2h-0.2h-0.2v0.2v0.2v0.2h-0.2v0.2v0.2l-0.2,0.2v0.2h-0.2v0.2H135l-0.2-0.2v0.2
		v0.2h-0.2v0.2v0.2v0.2h-0.2v0.2v0.2v0.2h-0.2h-0.2v0.2H134v0.2h0.2v0.2v0.2h0.2h0.2v0.2h0.2v0.2h0.2v0.2h0.2v-0.2v-0.2h0.2h0.2
		l0.2,0.2l0.2,0.2v0.2v0.2l0.2,0.3h-0.2v0.2v0.2h0.2v0.2v0.2v0.2l0.2,0.2h-0.2v0.2h-0.2h-0.2v0.2h-0.2v-0.2h-0.2l-0.2-0.2v0.2
		l-0.2-0.2v0.2v0.2h0.2v0.2h0.2v0.2v0.2h0.2v0.2v0.2v0.2v0.2h-0.2v0.2v0.2v0.2h0.2v0.2v0.2v0.2v0.2h0.2v0.2h0.2v0.2v0.2h0.2v0.2v0.2
		h-0.2v0.2v0.2h0.2v0.2v0.2v0.2h0.2v0.2v0.2h0.2v0.2v0.2v0.2H136v0.2h0.2v0.2H136v0.2h0.2v0.2v0.2h0.2v0.2h0.2v0.2v0.2v0.2h0.2v0.2
		h-0.2v0.2v0.2h-0.2v0.2h0.2v0.2v0.2v0.2v0.2h-0.2v0.2h0.2v0.2v0.2h0.2v0.2h0.2v0.2v0.2v0.2v0.2h-0.2v0.2v0.2v0.2v0.2v0.2v0.2h-0.2
		v0.2h-0.2v0.2h0.2h0.2h0.2h0.2v0.2h0.2v0.2v0.2h0.2v0.2h0.2v0.2h0.2l0.2,0.2v0.2h0.2h0.2l0.2,0.2v0.2h0.2v0.2v0.2h0.2v0.2v0.2h0.2
		v0.2v0.2v0.2v0.2h0.2h0.2v0.2v0.2h0.2h0.2v0.2h0.2v0.2h0.2h0.2h0.2h0.2h0.2v0.2h0.2v0.2h0.2h0.2h0.2v0.2h0.2v0.2h0.2v0.2h0.2h0.2
		v0.2l0.2,0.2h0.2h0.2v0.2h0.2v0.2h0.2h0.2v0.2h0.2v0.2h0.2h0.2v0.2h0.2v0.2h0.2v0.2v0.2h0.2v0.2h0.2v0.2v0.2h0.2v0.2h0.2h0.2v0.2
		h0.2v0.2h0.2v0.2h0.2v0.2v0.2h0.2h0.2v0.2v0.2h0.2v0.2h0.2v0.2h0.2v0.2v0.2h0.2v0.2v0.2h0.2v0.2h0.2l0.2,0.2v0.2v0.2h0.2v0.2v0.2
		h0.2v0.2v0.2h0.2v0.2v0.2v0.2v0.2h0.2v0.2v0.2h0.2v0.2h0.2v0.2v0.2h0.2h0.2v0.2h0.2v0.2v0.2v0.2h0.2v0.2h-0.2v0.2h0.2v0.2v0.2h0.2
		v0.2l0.2,0.2v0.2v0.2h0.2v0.2v0.2h0.2v0.2h0.2V313h0.2v0.2h0.2h0.2h0.2h0.2v0.2h0.2h0.2h0.2v0.2h0.2v0.2h0.2v0.2h0.2h0.2h0.2v0.2
		h0.2v0.2h0.2v0.2v0.2v0.2h0.2v0.2h0.2v0.2v0.2v0.2v0.2h0.2v0.2v0.2v0.2v0.2v0.2l0.2,0.2v0.2v0.2l0.2,0.2v0.2v0.2v0.2h0.2v0.2h0.2
		v0.2H153v0.2v0.2h-0.2v0.2h0.2v0.2h0.2v0.2h0.2v0.2h-0.2v0.2h0.2v0.2v0.2v0.2v0.2v0.2h0.2h0.2v0.2h0.2v0.2v0.2h0.2v0.2h0.2v0.2h0.2
		h0.2v0.2h0.2v0.2h0.2h0.2v0.2h0.2v0.2h0.2v0.2v0.2v0.2h0.2v0.2h0.2v0.2h0.2v0.2v0.2h0.2v0.2v0.2h0.2h0.2v0.2h0.2v0.2v0.2h0.2h0.2
		v0.2h0.2l0.2,0.2h0.2v0.2h0.2v0.2v0.2h0.2v0.2h0.2v0.2h0.2v0.2h0.2v0.2v0.2h0.2v0.2v0.2h0.2v0.2v0.2v0.2h-0.2v0.2h0.2h0.2v0.2
		l0.2,0.2h-0.2v0.2v0.2v0.2h0.2v0.2h-0.2v0.2h0.2v0.2h-0.2v0.2v0.2h0.2v0.2v0.2h-0.2v0.2h0.2v0.2h0.2v0.2h0.2v0.2v0.2h0.2h0.2v0.2
		h0.2v0.2v0.2v0.2h0.2v0.2v0.2v0.2v0.2v0.2v0.2h0.2v-0.2h0.2v0.2h0.2h0.2h0.2h0.2v0.2h0.2v0.2h0.2v0.2h0.2h0.2v0.2h0.2h0.2h0.2h0.2
		h0.2h0.2v0.2h0.2v0.2l0.2,0.2h0.2v0.2h0.2v0.2h0.2v-0.2v-0.2h0.2h0.2h0.2h0.2v0.2h0.2l0.2,0.2h0.2v0.2l0.2,0.2v0.2v0.2h0.2v0.2v0.2
		h0.2v0.2h0.2v0.2v0.2h0.2l0.2,0.2h0.2v0.2h0.2v0.2v0.2h0.2v0.2v0.2h0.2v0.2v0.2h0.2v0.2v0.2h0.2v0.2v0.2h0.2v0.2v0.2h0.2v0.2v0.2
		v0.2h0.2v0.2h0.2v0.2l0.2,0.2v0.2h0.2v0.2h0.2v0.2h0.2v0.2h0.2v0.2v0.2h0.2v0.2h0.2v0.2h0.2v0.2h0.2h0.2v0.2h0.2v0.2v0.2h0.2v0.2
		v0.2h0.2h0.2v0.2h0.2v0.2h0.2v0.2h0.2v0.2v0.2h0.2v0.2h0.2v0.2v0.2h0.2v0.2h0.2h0.2v-0.2h0.2h0.2v0.2h0.2h0.2h0.2h0.2h0.2v0.2h0.2
		v0.2h0.2h0.2h0.2v0.2v0.2h0.2h0.2h0.2h0.2h0.2h0.2h0.2h0.2h0.2h0.2h0.2v0.2h0.2v0.2h0.2v0.2h0.2v0.2l0.2,0.2v0.2h0.2v0.2v0.2
		l0.2,0.2v0.2v0.2h0.2v0.2v0.2v0.2h0.2v0.2v0.2v0.2v0.2v0.2v0.2v0.2v0.2h0.2h0.2v0.2h0.2v0.2v0.2v0.2h0.2v0.2h0.2v0.2v0.2v0.2v0.2
		h0.2h0.2v0.2h0.2v0.2l-0.2,0.2h-0.2v-0.2h-0.2v0.2v0.2h0.2v0.2h-0.2v0.2h-0.2H177h-0.2v0.2h-0.2h-0.2v0.2h-0.2v-0.2h-0.2v0.2v0.2
		H176v0.2v0.2v0.2h-0.2v0.2v0.2h-0.2v0.2v0.2h-0.2v0.2v0.2v0.2h-0.2h-0.2v0.2v0.2v0.2v0.2v0.2H175l0.2,0.2v0.2v0.2v0.2h0.2v0.2h0.2
		v0.2l0.2,0.2h0.2v0.2h0.2v0.2v0.2h0.2v0.2h0.2v0.2h0.2v0.2h0.2v0.2h0.2v0.2h0.2v0.2h0.2h0.2v0.2h0.2v0.2h0.2h0.2h0.2v0.2h0.2v0.2
		h0.2v0.2h0.2h0.2v0.2h0.2h0.2v0.2h0.2h0.2v0.2h0.2v0.2h0.2v0.2l0.2,0.2h0.2v0.2h0.2l0.2,0.2h0.2v-0.2v-0.2v-0.2v-0.2h0.2v-0.2h0.2
		h0.2h0.2v-0.2h0.2v0.2h0.2h0.2v0.2h0.2h0.2v-0.2h0.2v0.2h0.2h0.2h0.2v0.2h0.2v0.2h0.2v0.2h0.2v0.2h0.2v0.2h0.2h0.2v0.2h0.2h0.2h0.2
		v0.2h0.2h0.2v0.2h0.2v0.2h0.2v0.2l0.2,0.2v0.2v0.2h0.2v0.2v0.2v0.2v0.2h0.2v0.2v0.2v0.2v0.2v0.2v0.2v0.2v0.2v0.2v0.2v0.2v0.2v0.2
		v0.2v0.2v0.2v0.2v0.2v0.2v0.2h-0.2v0.2v0.2v0.2v0.2v0.2v0.2v0.2h-0.2v0.2v0.2v0.2v0.2h-0.2v0.2v0.2v0.2v0.2h-0.2v0.2v0.2v0.2v0.2
		h-0.2v0.2v0.2v0.2h-0.2v0.2v0.2v0.2v0.2h-0.2v0.2v0.2v0.2h-0.2v0.2v0.2v0.2h-0.2v0.2h-0.2v0.2h0.2v0.2v0.2v0.2v0.2h-0.2v0.2v0.2
		l-0.2,0.2l0.2,0.2h0.2h0.2h0.2h0.2h0.2v0.2h0.2v0.2v0.2h0.2v0.2v0.2v0.2v0.2h0.2h0.2v0.2h0.2v0.2h0.2l0.2,0.2v0.2h0.2v0.2v0.2v0.2
		v0.2v0.2v0.2v0.2v0.2l-0.2,0.2v0.2v0.2v0.2l-0.2,0.3v0.2v0.2v0.2h-0.2v0.2v0.2v0.2v0.2h-0.2v0.2v0.2h-0.2v0.2v0.2v0.2h-0.2v0.2v0.2
		v0.2h-0.2v0.2v0.2h0.2v0.2h0.2v0.2v0.2v0.2v0.2h0.2h0.2v0.2h0.2v0.2v0.2h0.2v0.2v0.2h0.2v0.2v0.2h0.2v0.2v0.2v0.2v0.2v0.2v0.2h-0.2
		v0.2v0.2v0.2l-0.2,0.2v0.2v0.2l-0.2,0.2v0.2v0.2l-0.2,0.2v0.2v0.2h-0.2v0.2v0.2v0.2h-0.2v0.2v0.2v0.2h-0.2v0.2v0.2h-0.2v0.2v0.2
		h-0.2v0.2v0.2v0.2h-0.2v0.2v0.2v0.2v0.2v0.2h-0.2v0.2v0.2v0.2v0.2h0.2h0.2v0.2h-0.2v0.2h0.2v0.2l0.2,0.2h0.2v0.2h0.2v0.2h0.2h0.2
		h0.2v-0.2h0.2h0.2h0.2h0.2h0.2h0.2h0.2v0.2h0.2h0.2v0.2h0.2h0.2v0.2h0.2v0.2h0.2v0.2h0.2h0.2h0.2v0.2h0.2h0.2v0.2h0.2v0.2h0.2h0.2
		v0.2h0.2v0.2h0.2v0.2h0.2v0.2v0.2h0.2v0.2v0.2h0.2v0.2v0.2v0.2h0.2v0.2h0.2v0.2v0.2h0.2v0.2h0.2v0.2h0.2v0.2v0.2v0.2v0.2h0.2v0.2
		v0.2v0.2v0.2v0.2h0.2h0.2h0.2v0.2h0.2v0.2h0.2v-0.2V392h0.2h0.2v-0.2h0.2h0.2v0.2h0.2h0.2h0.2h0.2v-0.2h0.2h0.2h0.2v-0.2h0.2h0.2
		h0.2h0.2h0.2h0.2h0.2h0.2h0.2h0.2h0.2h0.2h0.2h0.2h0.2h0.2v-0.2h0.2h0.2h0.2h0.2v-0.2h0.2h0.2h0.2h0.2h0.2v-0.2h0.2h0.2h0.2h0.2
		h0.2v0.2h0.2v-0.2h0.2h0.2v0.2h0.2h0.2h0.2h0.2h0.2v-0.2h0.2v0.2h0.2v-0.2h0.2h0.2h0.2h0.2h0.2h0.2h0.2h0.2h0.2h0.2h0.2h0.2h0.2
		h0.2h0.2h0.2v0.2h0.2v-0.2h0.2h0.2h0.2h0.2h0.2h0.2h0.2h0.2h0.2h0.2h0.2v0.2h0.2h0.2v0.2h0.2h0.2v0.2h0.2h0.2h0.2v0.2h0.2h0.2h0.2
		h0.2v-0.2h0.2h0.2h0.2v0.2h0.2v-0.2h0.2h0.2h0.2h0.2h0.2h0.2v0.2h0.2h0.2v0.2l0.2-0.2h0.2h0.2h0.2h0.2v0.2l0.2,0.2h0.2v0.2h0.2h0.2
		h0.2l0.2,0.2h0.2v0.2h0.2v0.2h0.2l0.2,0.2h0.2h0.2v0.2h0.2V393h0.2h0.2h0.2l0.2,0.2h0.2h0.2h0.2v0.2h0.2v0.2h0.2v0.2h0.2l0.2,0.2
		h0.2h0.2l0.2,0.2l0.2,0.2v0.2h0.2v0.2h0.2v-0.2h0.2h0.2h0.2h0.2h0.2v0.2h0.2l0.2,0.2h0.2v-0.2v-0.2v-0.2h0.2h0.2l0.2-0.2h0.2h0.2
		h0.2h0.2h0.2h0.2h0.2h0.2h0.2h0.2v0.2h0.2h0.2v0.2h0.2h0.2l0.2,0.2h0.2h0.2v0.2h0.2h0.2h0.2v0.2h0.2h0.2v0.2h0.2l0.2,0.2h0.2h0.2
		h0.2h0.2h0.2h0.2V395h0.2v-0.2h0.2v-0.2l0.2-0.2v0.2h0.2v-0.2v-0.2h0.2h0.2v-0.2h0.2h0.2h0.2h0.2h0.2h0.2h0.2h0.2h0.2h0.2h0.2V394
		h0.2h0.2l0.2,0.2V394h0.2h0.2v0.2l0.2-0.2h0.2h0.2v0.2h0.2h0.2h0.2v0.2h0.2h0.2h0.2h0.2h0.2h0.2l0.2,0.2h0.2v0.2h0.2v0.2h0.2v0.2
		h0.2v0.2h0.2h0.2v0.2h0.2h0.2v0.2h0.2v0.2h0.2h0.2h0.2v0.2h0.2h0.2h0.2h0.2v0.2h0.2v0.2h0.2v0.2h0.2h0.2v-0.2h0.2v0.2h0.2h0.2v0.2
		h0.2v0.2h0.2v0.2h0.2v0.3h0.2h0.2h0.2v0.2h0.2v0.2h0.2v0.2h0.2v0.2h0.2v0.2h0.2v0.2h0.2l0.2,0.2h0.2v0.2v0.2h0.2v0.2l0.2,0.2h0.2
		h0.2h0.2h0.2h0.2h0.2v0.2h0.2v0.2l0.2,0.2h0.2v0.2h0.2v0.2h0.2v0.2v0.2h0.2v0.2h0.2v0.2h0.2v0.2h0.2h0.2h0.2v0.2v0.2h0.2l0.2,0.2
		h0.2h0.2h0.2h0.2h0.2l0.2,0.2h0.2v0.2h0.2v0.2v0.2h0.2v0.2v0.2h0.2h0.2l-0.2-0.2h0.2l0.2,0.2h-0.2v0.2v0.2h0.2v0.2v0.2h-0.2v-0.2
		v-0.2h-0.2v0.2v0.2v0.2v0.2h0.2v0.2v0.2l0.2,0.3l0.2,0.3v0.2v0.2h0.2v0.2l0.2,0.2l0.2,0.5v0.2v0.2h0.2v0.2v0.2h0.2v0.2v0.2l0.2,0.2
		v0.2v0.2h0.2v0.2h0.2v0.2h0.2v0.2h0.2v0.2h0.2h0.2h0.2l0.2,0.2l0.2,0.2l0.3,0.2l0.2,0.2l0.2,0.2l0.3,0.3h0.2l0.2,0.2l0.5,0.3
		l0.2,0.2h0.2v0.2h0.2v0.2h0.2h0.2l0.2,0.2h0.2h0.2h0.2h0.2v-0.2h0.2h0.2h0.2h0.2v0.2h0.2h0.2v0.2h0.2h0.2v0.2h0.2v0.2h0.2h0.2h0.2
		v0.2l0.2-0.2h0.2v0.2h0.2h0.2h0.2v0.2h0.2v0.2h0.2l0.2,0.2h0.2v0.2h0.2v0.2h0.2h0.2h0.2h0.2h0.2v0.2h0.2l0.2,0.2h0.2h0.2v0.2h0.2
		h0.2v0.2h0.2l0.2,0.2h0.2h0.2v0.2h0.2h0.2v0.2h0.2v-0.2h0.2h0.2h0.2h0.2v0.2h0.2h0.2h0.2h0.2l0.2,0.2h0.2h0.2h0.2h0.2h0.2h0.2v0.2
		h0.2h0.2h0.2h0.2h0.2v0.2h0.2l0.2,0.2h0.2v0.2h0.2v0.2h0.2v0.2h0.2v0.2h0.2v0.2h0.2v0.2h0.2v0.2h0.2v0.2h0.2v-0.2h0.2v-0.2h0.2h0.2
		v-0.2v-0.2h0.2v-0.2h0.2v-0.2h0.2h0.2h0.2v-0.2h0.2h0.2h0.2h0.2v-0.2h0.2l0.2-0.2h0.2h0.2h0.2h0.2h0.2h0.2h0.2h0.2v0.2h0.2h0.2h0.2
		v-0.2h0.2h0.2h0.2l0.2,0.2h0.2v-0.2v-0.2h0.2h0.2v-0.2h0.2h0.2h0.2v0.2h0.2h0.2h0.2h0.2h0.2h0.2h0.2h0.2h0.2h0.2h0.2h0.2h0.2v-0.2
		h0.2h0.2h0.2h0.2v0.2h0.2h0.2v-0.2h0.2h0.2h0.2h0.2h0.2v0.2h0.2h0.2h0.2h0.2h0.2v0.2h0.2h0.2v0.2h0.2l0.2,0.2h0.2v0.2h0.2v0.2h0.2
		v0.2h0.2v0.2h0.2v0.2h0.2v0.2h0.2v0.2v0.2h0.2v0.2h0.2v0.2l0.2,0.2v0.2h0.2v0.2h0.2v0.2h0.2v0.2h0.2v0.2v0.2h0.2v0.2h0.2v-0.2h0.2
		v-0.2v-0.2h-0.3v-0.2v-0.2h0.2h0.2h0.2h0.2v0.2v0.2h-0.2v0.2v0.2h-0.2v0.2h-0.2v0.2v0.2h0.2v0.2v0.2h0.2v0.2v0.2h0.2v0.2v0.2h0.2
		v0.2v0.2v0.2h0.2v0.2v0.2h0.2v0.2v0.2h0.2v0.2v0.2l0.2,0.2v0.2v0.2h0.2v0.2v0.2v0.2h0.2v0.2v0.2h0.2v0.2v0.2v0.2h0.2v0.2v0.2v0.2
		h0.2v0.2v0.2h0.2v0.2h-0.2l0.2,0.2v0.2h0.2v0.2v0.2v0.2v0.2v0.2v0.2v0.2v0.2v0.2H276v0.2v0.2h-0.2h-0.2l-0.2,0.2v0.2v0.2h-0.2v0.2
		h-0.2H275v0.2h-0.2v0.2v0.2h-0.2v0.2h0.2v0.2v0.2v0.2h0.2v0.2h0.2v0.2v0.2v0.2h0.2v0.2v0.2h0.2h0.2v0.2h0.2v0.2h0.2v-0.2h0.2h0.2
		V428h0.2h0.2v0.2h0.2h0.2h0.2h0.2v0.2h0.2v0.2h0.2v0.2h0.2v0.2h0.2h0.2h0.2v0.2h0.2h0.2v0.2h0.2h0.2v0.2h0.2h0.2v0.2h0.2h0.2h0.2
		l0.2,0.2v0.2h0.2h0.2v-0.2h0.2v-0.2v-0.2v-0.2V429v-0.2h0.2h0.2v-0.2v-0.2h-0.2v-0.2v-0.2V428l0.2-0.2h-0.2v-0.2h0.2v-0.2h-0.2
		h-0.2h-0.2h-0.2v-0.2h0.2h0.2h0.2v-0.2h0.2l-0.2-0.2v-0.2h0.2h0.2l-0.2,0.5v0.2h0.2v-0.2v-0.2l0.2-0.2v-0.2h0.2v0.2h-0.2v0.2h-0.2
		l0.2,0.2h0.2v-0.2h0.2v-0.2v-0.2h0.2l0.2-0.2v0.2v0.2l0.2-0.2h0.2h0.2l0.2-0.2h0.2h0.2l0.2-0.2v0.2h0.2v0.2h-0.2v0.2H283v-0.2h-0.2
		h-0.2h-0.2v0.2h-0.2h-0.2H282l-0.2,0.2h-0.2l-0.2,0.2v0.2h-0.2v0.2h-0.2v0.2L281,428v0.2v0.2v0.2l0.2-0.2v-0.2h0.2v0.2v0.2v0.2
		l0.2-0.2h0.3l0.2-0.2l-0.2-0.2V428v-0.2v-0.2h0.2h0.2l0.3-0.2h0.2v-0.2h0.2h0.2v0.2h0.2v-0.2v-0.2h0.2v0.2h0.2v-0.2h0.2v0.2
		l-0.3,0.2v0.2v0.2l0.2,0.2h0.2l-0.2-0.2v-0.2h0.2v0.2h0.2v0.2h0.2v-0.2h0.2h0.2v0.2h-0.2v0.2h-0.3v0.2h0.2h0.2v0.2h0.3v-0.2v-0.2
		V428l-0.2-0.3h0.2v-0.2h-0.2h-0.2v-0.2H284v-0.2h0.2h0.2h0.2v-0.2h0.2h0.2h0.2h0.2h0.2v0.2h0.2h0.2h0.2h0.2v0.2h0.2h0.2v0.2h0.2
		h0.2v0.2h0.2h0.2v0.2h0.2v-0.2v-0.2h0.2v0.2v0.2h0.2v0.2h-0.2v0.2h0.2h0.2v0.2h0.2h0.2h0.2h0.2h0.2v0.2h-0.2l0.2,0.2h0.2v0.2
		l0.2,0.2l0.2,0.2v0.2h0.2v0.2h0.2v0.2h0.2l0.2,0.2v0.2h0.2v0.2h0.2v0.2h0.2v0.2v0.2h0.2v0.2h0.2v0.2h0.2v0.2h0.2v0.2h0.2v0.2h0.2
		l0.2,0.2v0.2h0.2v0.2h0.2v0.2h0.2l0.2,0.2h0.2v0.2l0.3,0.2l0.3,0.2v0.2h0.2v0.2h0.2h0.2v0.2h0.2v0.2h0.2h0.2v0.2h0.2h0.2v0.2h0.2
		v0.2h0.2v0.2h0.2v0.2l0.2,0.2h0.2v0.2h0.2h0.2h0.2h0.2v0.2h0.2h0.2l0.2,0.2h0.2h0.2v0.2h0.2h0.2h0.2h0.2v0.2h0.2v0.2h0.2v0.2h0.2
		v0.2h0.2h0.2v0.2h0.2h0.2v0.2h0.2v0.2h0.2v0.2h0.2v0.2h0.2l0.2,0.2v0.2h0.2v0.2h0.2h0.2v0.2h0.2h0.2v0.2h0.2h0.2l0.2,0.2h0.2v0.2
		h0.2v0.2l0.2,0.2v0.2h0.2v0.2h0.2v0.2h0.2v0.2v0.2h0.2h0.2v0.2h0.2v0.2v0.2h0.2v0.2h0.2v0.2h0.2v0.2v0.2h0.2v0.2h0.2v0.2h0.2v0.2
		v0.2h0.2v0.2h0.2v0.2v0.2v0.2h0.2h0.2h0.2v0.2h0.2h0.2h0.2v-0.2h0.2h0.2h0.2h0.2v0.2h0.2v0.2h0.2h0.2v0.2h0.2v0.2h0.2l0.2,0.2h0.2
		v0.2h0.2v0.2h0.2v0.2h0.2l0.2,0.2v0.2h0.2v0.2h0.2v0.2h0.2v0.2l0.2,0.2l0.2,0.2v0.2h0.2l0.2,0.2v0.2v0.2l0.2,0.2v0.2l0.2,0.2h0.2
		v0.2h0.2h0.2h0.2h0.2v0.2h0.2v0.2h0.2v0.2h0.2h0.2v0.2h0.2l0.2,0.2h0.2v0.2h0.2v0.2h0.2v0.2h0.2l0.2,0.2l0.2,0.2h0.2v0.2h0.2v0.2
		h0.2v0.2h0.2v0.2h0.2v0.2h0.2v0.2l0.2,0.2l0.2,0.2v0.2h0.2v0.2h0.2v0.2h0.2v0.2v0.2h0.2v0.2h0.2v0.2l0.2,0.2v0.2h0.2l0.2,0.2v0.2
		h0.2v0.2v0.2l0.2,0.2h0.2v0.2v0.2l0.2,0.2l0.2,0.2l0.2,0.2l0.2,0.2v0.2l0.2,0.2v0.2h0.2v0.2h0.2v0.2v0.2h0.2v0.2h0.2v0.2v0.2h0.2
		h0.2L317,454h0.2h0.2v0.2l0.2,0.2h-0.2l0.2,0.2v0.2h0.2v0.2h0.2v0.2l0.2,0.2v0.2h0.2v0.2h0.2v0.2v0.2h0.2v0.2h0.2v0.2l0.2,0.2
		l0.2,0.2v0.2l0.2,0.2l0.2,0.3h0.2v0.2v0.2l0.2,0.2v0.2l0.2,0.2v0.2h0.2v0.2l0.2,0.3v0.2l0.2,0.3l0.2,0.5l0.2,0.2v0.2v0.2v0.2
		l0.2,0.2v0.2l0.2,0.3v0.2l0.2,0.3v0.2v0.2h0.2v0.2v0.2v0.2v0.2h0.2l0.2,0.2v0.2l0.2,0.2v0.2l0.2,0.2v0.2v0.2v0.2l0.2,0.3v0.2v0.2
		h0.2v0.2v0.2v0.2v0.2l0.2,0.2v0.2v0.2v0.2v0.2v0.2v0.2l0.2,0.2v0.2v0.2l0.2,0.2v0.2v0.2v0.2v0.2v0.2h0.2l-0.2,0.2h0.2l-0.2,0.2v0.2
		h0.2v0.2v0.2l0.2,0.3v0.2v0.2v0.2v0.2v0.2v0.3v0.2v0.2v0.2v0.2h-0.2v0.2v0.2H323v0.2h-0.2h-0.2h-0.2h-0.2v0.2v0.2h-0.2v0.2v0.2v0.2
		v0.2l0.2,0.2l-0.2,0.2h0.2v0.2h0.2v0.2l0.2,0.2v0.2h0.2h0.2v0.2v0.2h0.2v0.2v0.2v0.2h0.2v0.2h0.2v-0.2h0.2h0.2v0.2v0.2l0.2,0.2h0.2
		v-0.2V475l0.2-0.2v-0.2h0.2h0.2h0.2v-0.2h0.2h0.2v0.2v0.2v0.2v0.2v0.2H325h-0.2v-0.2h0.2V475v-0.2h-0.2v0.2l-0.2,0.2v0.2l-0.2,0.2
		v0.2h-0.2v0.2h0.2h0.2h0.2v0.2h0.2v-0.2v-0.2h-0.2v-0.2h0.2h0.2v0.2v0.2v0.2H325l-0.2,0.2V476h-0.2h-0.2h-0.2h-0.2H324h-0.2v0.2
		h0.2h0.2v0.2h-0.3l-0.2,0.2h-0.2h-0.2v0.2v0.2v0.2v0.2v0.2v0.2v0.2h-0.2v0.2h0.2v0.2h-0.2v0.2v0.2h0.2v0.2v0.2v0.2v0.2v0.2v0.2v0.2
		l0.2,0.2v0.2v0.2v0.2h0.2v0.2v0.2v0.2v0.2h0.2h0.2v-0.2l0.2-0.2H324v-0.2v-0.2v-0.2h0.2V480v-0.2L324,480v-0.2v-0.2v-0.2v-0.2v-0.2
		v-0.2v-0.2l0.2-0.2v-0.2h0.2h0.2v-0.2v-0.2h0.2v0.2h0.2v-0.2v-0.2h0.2h0.2h0.2h0.2h0.2h0.2h0.2h0.2v0.2h0.2v-0.2h0.2l0.2,0.2v0.2
		v0.2h-0.2v0.2v0.2h0.2v0.2h0.2h0.2v0.2h0.2h0.2v0.2v0.2h0.2h0.2v0.2h0.2v0.2h0.2l0.2,0.2v-0.2h0.3v0.2v0.2v0.2h0.2v0.2h0.2v0.2v0.2
		v0.2v0.2v0.2h-0.2v0.2h0.2v0.3h0.2v0.2v0.2v0.2h0.2h0.2v0.2v0.2v0.2h0.2v0.2h0.2v0.2v0.2v0.2v0.2v0.2l-0.2,0.2h-0.2h-0.2h-0.2H329
		l-0.2-0.2h-0.2l-0.2-0.2v-0.2v-0.2v-0.2V483h0.2v-0.2h-0.2v-0.2v-0.2l-0.2,0.2h-0.2v0.2v0.2l0.2,0.2v0.3v0.2l0.2,0.2v0.2v0.2v0.2
		v0.2v0.3v0.2v0.2v0.2v0.2v0.2v0.2v0.2v0.2l0.2,0.2v0.3l0.2,0.2v0.2v0.2v0.2l0.2-0.2h0.7h0.5l0.7-0.2h0.5h0.5l0.3-0.2h0.2h0.3h0.2
		h0.7l0.5-0.2h0.7l0.5-0.2h0.5h0.5h0.2h0.2l0.3-0.2h0.3h0.7l0.7-0.2h0.5h0.3l0.3-0.2h0.5h0.3h0.3l0.2-0.2h0.3h0.5h0.3l0.5-0.2h0.7
		h0.3l0.5-0.2h0.5h0.3h0.3l0.7-0.2h0.7l0.5-0.2h0.7h0.7l0.5-0.2h0.3h0.2h0.5l0.5-0.2h0.7h0.2l0.3-0.2h0.3h0.5h0.2l0.7-0.2h0.2h0.7
		l0.5-0.2h0.7h0.5l0.2-0.2h0.7h0.2h0.2l0.5-0.2h0.2h0.7h0.3l0.3-0.2h0.2h0.3h0.5h0.3l0.7-0.2h0.7l0.3-0.2h0.2h0.5h0.3l0.5-0.2h0.3
		h0.5h0.3l0.3-0.2h0.5h0.3h0.2h0.2l0.2-0.2h0.5h0.5h0.3l0.5-0.2h0.3h0.3h0.5l0.3-0.2h0.5h0.3l0.5-0.2h0.3h0.2h0.2h0.3l0.5-0.2h0.5
		h0.3h0.2l0.5-0.2h0.3h0.5h0.3l0.3-0.2h0.3h0.5h0.3l0.3-0.2h0.3h0.5h0.3l0.7-0.2h0.7l0.5-0.2h0.7h0.5l0.7-0.2h0.7l0.5-0.2h0.5h0.5
		l0.5-0.2h0.5h0.3h0.5l0.5-0.2h0.3h0.5l0.5-0.2h0.3h0.2h0.3l0.3-0.2h0.3h0.3h0.5l0.5-0.2h0.5h0.5l0.3-0.2h0.5h0.5l0.5-0.2h0.5h0.2
		h0.2h0.2h0.2h0.2v-0.2h0.2h0.2h0.2h0.3h0.5l0.7-0.2h0.5l0.7-0.2h0.7h0.5l0.7-0.2h0.3h0.5l0.3-0.2h0.5h0.3h0.5l0.3-0.2h0.5h0.5
		l0.3-0.2h0.5h0.3l0.7-0.2h0.7h0.7l0.7-0.2h0.5l0.7-0.2h0.7h0.7l0.5-0.2h0.7l0.7-0.2h0.7l0.7-0.2h0.5h0.7l0.7-0.2h0.5h0.3l0.5-0.2
		h0.5h0.5l0.5-0.2h0.3h0.5l0.7-0.2h0.7l0.7-0.2h0.7l0.7-0.2h0.5h0.7l0.7-0.2h0.7l0.7-0.2h0.5h0.3h0.2l0.2-0.2h0.2V476v-0.2v-0.2h0.2
		v-0.2h0.2v-0.2v-0.2l0.2-0.2h0.2h0.2v0.2h0.2v0.2h0.2h0.2h0.2h0.2h0.2v0.2h0.2h0.2h0.2h0.2h0.2h0.2h0.2h0.2h0.2h0.2l0.2,0.2h0.2
		h0.2v-0.2v-0.2h0.2h0.5h0.5h0.2v-0.2V475h0.2l0.2-0.2h0.2h0.3v-0.3h0.5h0.5v-0.2v-0.2h0.2h0.2h0.2l-0.2-0.2v-0.2v-0.2v-0.2
		l-0.2-0.2v-0.2v-0.2v-0.3v-0.2v-0.2h0.2l0.2-0.2v-0.2l0.2-0.2v-0.2h0.2v-0.2v-0.2h0.2l0.2-0.2h0.2v-0.2h0.2h0.2v-0.2h0.2v-0.2
		l0.3-0.2l0.2-0.3l0.3-0.3V469v-0.7v-0.2v-0.2v-0.2v-0.2v-0.2v-0.2h0.2v-0.2v-0.2v-0.2v-0.2l-0.2-0.2v-0.2h-0.2v-0.2h-0.2v-0.2h-0.2
		v-0.2l-0.2-0.2v-0.2v-0.2V465l0.2-0.2l0.2-0.2v-0.2l0.2-0.2v-0.2V464v-0.2v-0.2v-0.2h-0.2v-0.2h-0.2h-0.2v0.2h-0.2h-0.2H438h-0.2
		v-0.2v-0.2V463v-0.2v-0.2h-0.2v-0.2v-0.2v-0.2v-0.2l-0.2-0.2v-0.2l-0.2-0.2v-0.2v-0.2l-0.2-0.2l-0.2-0.2h-0.2v-0.2h-0.2h-0.2h-0.2
		H436h-0.2h-0.3h-0.2l-0.2-0.2H435h-0.2h-0.2h-0.2h-0.2v0.2l-0.2,0.2v0.2h-0.2h-0.3h-0.2h-0.2h-0.3h-0.2h-0.3v-0.2h-0.2v-0.2
		l-0.2-0.2l-0.2-0.2v-0.2h-0.2l-0.2-0.2l-0.2,0.2l-0.2,0.2v0.2l-0.2,0.2v0.2h-0.2l-0.2-0.2l-0.2-0.2l-0.2-0.2v-0.2v-0.2v-0.2v-0.2
		v-0.2h-0.2l-0.2-0.2l-0.2-0.3l-0.2-0.2v-0.2v-0.2v-0.2h-0.2h-0.2h-0.2H429V458l-0.2-0.2v-0.2l0.2-0.3v-0.2v-0.3l0.2-0.5l0.2-0.3
		v-0.2l0.2-0.2l0.2-0.2l0.2-0.3v-0.3l0.2-0.3v-0.2l-0.2-0.2l0.2-0.2v-0.2v-0.2v-0.2v-0.2V453v-0.2v-0.3l-0.2-0.2l0.2-0.2V452v-0.2
		l0.2-0.3v-0.2l-0.2-0.2l-0.2-0.2l-0.2-0.2v-0.2l-0.2-0.2l-0.2-0.2l0.2-0.2l0.2-0.2h0.2v-0.2h0.2v-0.2h0.2l-0.2-0.2v-0.2l-0.2-0.2
		l-0.2-0.2l-0.2-0.2h-0.2l-0.2-0.2H429l-0.2-0.2h-0.3h-0.3l-0.2-0.2l-0.2-0.2v-0.3l-0.2-0.2v-0.2l0.2-0.2l0.2-0.2v-0.2h0.2l0.2-0.2
		l0.2-0.2l0.2-0.3V446h0.2v-0.2v-0.3v-0.2v-0.2V445v-0.2v-0.2v-0.2l-0.2-0.2v-0.2l-0.2-0.2v-0.2v-0.2v-0.2h-0.2v-0.2h-0.2v-0.2h-0.2
		v-0.2h-0.2v-0.2l-0.2-0.2v-0.2h0.2v-0.2h0.2h0.2v0.2h0.2v-0.2h0.2h0.2h0.2V442v-0.2h0.2h0.2v-0.2h0.2h0.2h0.2h0.2h0.2v0.2h0.2h0.2
		h0.2h0.2l0.3-0.2h0.2l0.2-0.3l0.2-0.2l0.2-0.2v-0.2v-0.2l0.2-0.3v-0.2V440l-0.2-0.2l0.3-0.3v-0.2l0.2-0.2V439l0.2-0.2l0.2-0.2v-0.2
		h0.2v-0.2v-0.2l0.2-0.3v-0.2h0.2v-0.2l0.2-0.2h0.2h0.2h0.2v-0.2h0.2l0.2-0.2v-0.2h0.2v-0.2v-0.2v-0.2V436v-0.2l0.5-0.3l0.2-0.2
		l0.5-0.2V435h0.2v-0.2v-0.2h-0.2v-0.2h-0.2v-0.2v-0.2h-0.2V434v-0.2v-0.2H435v-0.2v-0.2v-0.2v-0.2l0.2-0.2v-0.2l0.2-0.2v-0.2h0.2
		v-0.2h0.2v-0.2v-0.2h-0.2v-0.2l-0.2-0.2v-0.2v-0.2h0.2l0.2-0.2l-0.2-0.3l-0.2-0.2l-0.2-0.2V430v-0.2h0.2h0.2h0.3l0.2-0.2v-0.2h-0.2
		h-0.2l-0.2-0.2l-0.2-0.2h-0.2v-0.3l0.2-0.2v-0.2l0.2-0.2l0.2-0.2l0.3-0.2h0.2h0.2v-0.2h0.2h0.2v-0.2v-0.2v-0.2v-0.2v-0.2v-0.2
		l-0.2-0.2l-0.2-0.2l-0.2-0.2v-0.2H436v-0.2h-0.2l0.2-0.2v-0.2l0.2-0.3v-0.2v-0.2v-0.2v-0.2v-0.2H436v-0.2V424l-0.2-0.2v-0.2v-0.2
		h-0.2v-0.2v-0.2l-0.2-0.2v-0.2v-0.2h-0.2v-0.2v-0.2l-0.2-0.2V422v-0.2h0.2v-0.2l0.2-0.2l-0.2-0.2v-0.2v-0.2h-0.2v-0.2v-0.2v-0.2
		H435v-0.2v-0.2v-0.2v-0.2h0.2h0.2h0.2h0.2v-0.2h0.2h0.2v-0.2v-0.2v-0.2v-0.2l-0.2-0.2h-0.2v-0.2h-0.2v-0.2h-0.2v-0.2h-0.2V418v-0.2
		l-0.2-0.2h0.2h0.2v0.2h0.2h0.2v-0.2h0.2v-0.2l-0.2-0.2v-0.2h-0.2V417h-0.2v-0.2h-0.2v-0.2H435h-0.2v-0.2h-0.2v-0.2v-0.2V416
		l0.2-0.2v-0.2v-0.2l0.2-0.2v-0.2h0.2v-0.2h0.2h0.2h0.2l0.2-0.2h0.2v-0.2h0.2v-0.2l0.2-0.2l0.2-0.2l0.2-0.2v-0.2h0.2l0.2-0.2h0.2
		v-0.2l-0.2-0.2h0.2v-0.2h0.2h0.2h0.2v-0.2v-0.2h-0.2l-0.2-0.2h-0.2v-0.2h0.2v-0.2h0.2h0.2l0.2-0.2h0.2l0.2-0.2l0.2-0.2v-0.2h0.2
		v-0.2V411v-0.2v-0.2v-0.2l-0.2-0.2v-0.2v-0.3v-0.2v-0.2v-0.3v-0.2v-0.2v-0.3h0.2v-0.2l0.2-0.2v-0.2h0.2v-0.2l0.2-0.2v-0.2h0.2v-0.2
		h0.2h0.2h0.2h0.2h0.2h0.2l0.2-0.2h0.2v-0.2h0.2h0.2h0.2v-0.2h0.2v-0.2h0.2v-0.2v-0.2h0.2V406h0.2h0.2h0.2h0.2l0.2-0.2h0.2h0.2
		l0.2-0.2h0.2l0.2-0.3l0.2-0.2V405h0.2v-0.2h0.2v-0.2v-0.2l0.2-0.2h0.2v-0.2h0.2l0.3-0.2h0.2l0.2,0.2l0.2-0.2h0.2h0.2l0.2-0.2
		l0.3-0.2v-0.2h0.2v-0.2h0.2l0.2-0.2h0.2v-0.2v-0.2v-0.2v-0.2l0.2-0.2l0.2-0.2l0.2-0.2l0.2-0.2l0.3-0.3l0.3-0.3l0.5-0.5v-0.2h0.2
		v-0.2l0.2-0.2h0.2v-0.2v-0.2v-0.2h0.2h0.2h0.2h0.2h0.2h0.2h0.2h0.2v-0.2v-0.2L450.4,399z M99.7,208.9h-0.2v-0.2h0.2V208.9z
		 M121.1,218H121v-0.2h0.2V218z M123.4,224.5h-0.2H123v-0.2h0.2h0.2V224.5z M124.2,224.5l-0.2,0.2h-0.2h-0.2h-0.2v-0.2h0.2h0.2h0.2
		v-0.2h0.2V224.5z M121.6,234.6h-0.2h-0.2h-0.2v-0.2h0.2h0.2h0.2l0.2,0.2H121.6z M124.6,237.6h-0.2v-0.2h0.2V237.6z M125.1,237v-0.2
		h0.2v0.2H125.1z M125.2,238.8v-0.2h0.2L125.2,238.8z M125.6,237.7h-0.2v0.2l-0.2,0.2v-0.2v-0.2h0.2v-0.2h0.2V237.7z M125.9,237.6
		h-0.2v-0.2h0.2V237.6z M126.6,238.8v0.2h-0.2v-0.2v-0.2h0.2V238.8z M133.5,242.2V242h0.2v0.2H133.5z M133.8,265.9h-0.2v-0.2h0.2
		V265.9z M126.4,225.7v0.2h-0.2v-0.2H126.4z M115.3,216.8h-0.2v-0.2h0.2V216.8z M125.9,225.2v0.2v0.2h-0.2v-0.2h-0.2h-0.2v-0.2
		l-0.2-0.2h-0.2h-0.2v-0.2h-0.2v-0.2h-0.2v-0.2h-0.2l0.2-0.2v0.2h0.2v0.2h0.2h0.2h0.2h0.2v0.2h0.2h0.2v0.2h0.2V225.2z M127.1,227.4
		v0.3l-0.2-0.3v-0.2h0.2V227.4z M127.1,227.1H127h-0.2v-0.2h-0.2h-0.2h-0.2h-0.2v-0.2h0.2l0.2-0.2l0.2-0.2h0.2v-0.2h0.2v0.2l0.2,0.2
		v0.2v0.2l0.2,0.2H127.1z M133.6,240.1l-0.2-0.2h0.2V240.1z M134,240.5h-0.2v-0.2h0.2V240.5z M136.9,241.9l-0.2-0.2l-0.2-0.2h0.2
		v0.2h0.2V241.9z M282.2,426.4v-0.2h0.2L282.2,426.4z M283.7,426.6h-0.2v-0.2h-0.2l0.2-0.2v0.2h0.2V426.6z M329.5,481.8h-0.2
		l0.2-0.2V481.8z"/>
	<rect id="XMLID_39_" x="176.3" y="346" class="st0" width="0.2" height="0.2"/>
	<polygon id="XMLID_7_" class="st0" points="323.5,475.7 323.5,475.5 323.7,475.5 323.7,475.3 323.5,475.3 323.5,475.1 323.3,475 
		323.3,475.1 323.3,475.3 323.3,475.5 323.3,475.7 323.3,475.8 323.3,476 323.3,476.2 323.3,476.3 323.5,476.3 323.5,476.2 
		323.5,476 323.5,475.8 323.7,475.8 323.7,475.7 	"/>
	<polygon id="XMLID_6_" class="st0" points="128,229.8 128,229.7 127.8,229.7 	"/>
	<rect id="XMLID_4_" x="123.2" y="220.9" class="st0" width="0.2" height="0.2"/>
</g>
</svg>
