<?xml version="1.0" encoding="utf-8"?>
<!-- Generator: Adobe Illustrator 19.0.0, SVG Export Plug-In . SVG Version: 6.00 Build 0)  -->
<svg version="1.1" xmlns="http://www.w3.org/2000/svg" xmlns:xlink="http://www.w3.org/1999/xlink" x="0px" y="0px"
	 viewBox="0 0 441.4 372.6" style="enable-background:new 0 0 441.4 372.6;" xml:space="preserve">
<style type="text/css">
	.st0{fill:#28282E;}
</style>
<g id="Layer_1">
</g>
<g id="Capa_1">
	<g>
		<path class="st0" d="M-8.6,27.1c0,0,0-6.1,0-13.5S-0.2,0,10.2,0h246.2c10.4,0,18.8,6.1,18.8,13.6v13.5H-8.6z"/>
		<path class="st0" d="M278.8,197.9c0,0,0-6.1,0-13.5c0-7.5,8.4-13.6,18.8-13.6h124.9c10.4,0,18.8,6.1,18.8,13.6v13.5H278.8z"/>
		<path class="st0" d="M269.4,35H0v290.6c0,26,21.1,47.1,47.1,47.1h222.3h124.9c26,0,47.1-21.1,47.1-47.1V206.9h-172V35z
			 M102.7,53.8h25.9V108h-25.9L102.7,53.8z M102.7,133.9h25.9v54.2h-25.9L102.7,133.9z M102.7,214h25.9v54.2h-25.9L102.7,214z
			 M47.1,268.2H21.2V214h25.9V268.2z M47.1,188.1H21.2v-54.2h25.9V188.1z M47.1,108H21.2V53.8h25.9V108z M82.5,268.2H56.5V214h25.9
			L82.5,268.2L82.5,268.2z M82.5,188.1H56.5v-54.2h25.9L82.5,188.1L82.5,188.1z M82.5,108H56.5V53.8h25.9L82.5,108L82.5,108z
			 M163.9,359.3h-61.3v-71.4h61.3V359.3z M163.9,268.2H138V214h25.9V268.2z M163.9,188.1H138v-54.2h25.9V188.1z M163.9,108H138V53.8
			h25.9V108z M210.1,268.2h-25.9V214h25.9V268.2z M210.1,188.1h-25.9v-54.2h25.9V188.1z M210.1,108h-25.9V53.8h25.9V108z
			 M245.4,268.2h-25.9V214h25.9V268.2z M245.4,188.1h-25.9v-54.2h25.9V188.1z M245.4,108h-25.9V53.8h25.9V108z M320.6,338.1h-19.4
			v-46.3h19.4V338.1z M320.6,266.6h-19.4v-46.3h19.4V266.6z M347.1,338.1h-19.4v-46.3h19.4V338.1z M347.1,266.6h-19.4v-46.3h19.4
			V266.6z M387,338.1h-19.4v-46.3H387V338.1z M387,266.6h-19.4v-46.3H387V266.6z M413.5,338.1H394v-46.3h19.4V338.1z M413.5,266.6
			H394v-46.3h19.4V266.6z"/>
	</g>
</g>
</svg>
