<?xml version="1.0" encoding="utf-8"?>
<!-- Generator: Adobe Illustrator 19.0.0, SVG Export Plug-In . SVG Version: 6.00 Build 0)  -->
<svg version="1.1" id="Layer_1" xmlns="http://www.w3.org/2000/svg" xmlns:xlink="http://www.w3.org/1999/xlink" x="0px" y="0px"
	 viewBox="0 0 500 500" style="enable-background:new 0 0 500 500;" xml:space="preserve">
<style type="text/css">
	.st0{fill:#D74B4B;}
</style>
<g id="XMLID_2_">
	<polygon id="XMLID_123_" class="st0" points="116.5,81.4 116.7,76.7 116.8,74 117,71.4 117,70.7 117.1,68.5 117.1,68.4 117.1,68.1 
		117.1,67.9 117.1,67.8 117.1,67.6 117.1,67.5 117.1,67.3 117.1,67.1 117.1,66.8 117.1,66.7 117.1,66.5 117.3,66.2 117.3,66 
		117.3,65.7 117.3,65.3 117.3,65.1 117.4,62.9 117.4,62.6 117.4,62.3 117.9,54.8 117.9,53.4 117.9,52.1 117.9,51.3 118.1,50.9 
		118.1,50.2 118.1,48 118.1,47.6 118.2,46.6 118.2,46.2 118.2,44.6 118.4,43 118.4,42.1 118.4,41.8 118.5,38.8 118.5,38 118.5,37.4 
		118.7,35.5 119,29.3 119,27.1 119.2,24.6 119.2,23.6 119.3,22.8 119.3,20.8 119.6,14.7 119.6,12.5 131.8,13 143.1,13.3 145.9,13.4 
		146.9,13.4 147.2,13.4 148.3,13.4 148.7,13.4 148.9,13.4 149,13.4 149.5,13.4 163.3,13.9 163,26.6 162.5,39.1 162.5,39.6 
		162.4,44.9 162.4,47.4 162.4,48.8 162.2,51.6 162.2,52 162.2,53.4 162.2,54.5 162,59.2 162,60.4 162,60.6 161.9,62.8 161.9,63.7 
		161.9,64.5 161.9,65.3 161.7,66.8 161.7,70.1 161.7,72.9 161.6,75.3 161.6,76.1 161.6,76.8 161.6,77.3 161.4,81.2 161.4,82.8 
		161.6,83 161.7,83.1 161.9,83.3 162.2,83.1 162.7,83.7 162.8,84 163.1,84.5 163.3,84.7 163.6,85.5 163.8,85.8 163.8,86.4 164.2,87 
		164.9,87.2 165,87.5 165.3,88.3 165.5,88.4 165.6,88.6 166,89.1 166.1,89.2 166.1,89.4 166.3,89.4 166.4,89.7 166.7,90.5 167,91.1 
		167.2,91.2 167.7,91.9 167.8,92 168.8,91.6 169.1,92 169.1,92.2 169.2,92.7 170,93.1 170.3,94.1 170.2,94.4 170.2,95.9 170.5,96.4 
		170.6,96.7 170.8,97 170.6,97.7 170.8,98 171.3,98.3 171.7,98 172.2,97.8 172.4,98 172.8,98.5 173.2,98.9 173.2,99.5 173,99.9 
		173.3,100.5 173.6,100.6 173.9,100.6 174.1,100.5 174.4,100.8 175.3,101.6 175.7,102.1 175.7,102.2 175.7,102.5 175.5,103.6 
		175.5,103.8 175.3,104.2 175,104.9 175.3,105.8 176,106.1 176.3,106.3 176.9,107.1 176.9,107.5 177.1,108.9 176.3,110.2 
		175.7,110.2 175,110.8 174.4,111.6 174.4,112.1 174.4,112.4 174.7,112.7 175.5,113 175.7,113.2 175.8,113.2 176.1,113.3 
		176.1,113.8 176.1,114.3 176.1,114.4 176.1,114.6 176.3,114.9 176.4,115 176.6,115.2 176.8,115.5 177.1,116.3 177.2,116.5 
		178.3,116.8 178.5,116.9 178.6,117.1 178.5,117.6 178.3,117.9 178,118.3 177.7,118.5 177.4,118.3 176.8,118.3 175.7,118.5 
		175.3,118.8 175,119.1 175,119.9 175,120.2 175.3,120.4 175.3,120.5 175.5,120.5 175.5,120.7 176,120.8 176.8,121.2 178.3,122.1 
		178.6,122.9 178.8,123.3 179.1,123.7 179.4,123.5 180,123.3 180.5,123.5 180.8,123.7 180.8,123.8 181.6,124.3 181.9,124.4 
		181.9,124.8 182.2,125.2 182.4,125.4 182.9,125.4 183,125.7 183.2,126.5 183.2,126.8 183.6,127.7 184,128 184.1,128.7 184.1,128.8 
		184.7,129.3 185.5,129.8 186,129.9 186.6,130.1 187.2,130.5 187.9,130.7 188.6,130.5 188.8,130.7 189,131 189.4,131.5 189.7,131.5 
		190.8,131.5 191.2,131.5 191.5,131.8 191.8,132 192.2,131.8 192.7,131.8 193.2,132.1 193.3,132.9 193.3,133.1 193.7,133.7 194,134 
		194.1,134 194.4,134.3 194.8,134.6 194.8,135.2 194.6,135.6 194.4,136.3 194.4,136.8 194.9,137.1 195.1,137.1 196.2,137.3 
		196.5,137.7 196.5,138.5 196.8,139 196.9,139.3 197.6,139.5 197.9,139.5 198.2,139.6 199,140.1 199.4,140.7 200.2,142 200.2,142.4 
		201.6,143.2 201.6,143.9 201.8,144.3 202.1,144.9 202.3,144.9 202.3,145.1 202.6,145.4 203.2,146.2 203.4,146.4 203.5,146.4 
		204,146.5 204.3,147 204.3,147.1 204.6,147.9 204.8,148.1 204.8,148.5 204.9,149.3 204.9,149.8 205.4,150.4 205.6,151.4 
		205.7,151.5 205.7,151.7 206.5,151.5 206.6,151.4 206.6,151.2 207.9,151.5 207.9,151.8 208.1,152 208.5,152.9 209.3,153.7 
		209.6,154.2 209.8,154.3 210.2,154.7 210.7,154.8 211.2,155.1 211.3,155.4 211.3,155.8 210.9,156.2 210.9,156.5 211,157.2 
		211,157.6 211,157.9 210.7,158.6 210.6,158.6 210.4,159.2 210.7,159.4 211.2,159.5 211.5,160 211.2,160.3 211.2,160.4 211.2,160.6 
		211.2,160.8 211.5,161.2 212.3,161.7 212.6,162.3 213.1,162.6 213.4,162.3 213.7,162.3 214.2,162.3 214.3,162.3 214.3,162.6 
		214.3,162.8 214.5,163.1 215.1,163.6 215.4,163.7 215.7,164.4 216.2,164.5 216.7,164.4 217.6,164.7 217.8,164.8 218.7,166.1 
		218.7,166.9 218.5,167.3 218.2,167.8 218.1,168 217.9,168 217.8,168.3 217.6,169.1 217.6,169.2 218.5,170.2 218.9,170.2 
		219.3,170.2 219.3,170 219.5,169.8 219.8,169.2 220.4,169.1 221,168.9 221.2,168.7 221.5,168 221.7,167.5 221.7,167.3 221.8,167.3 
		222.5,167.5 222.8,167.5 222.9,167.5 224,167.8 224.2,168 224.8,169.1 225.1,169.2 225.3,169.5 225.3,170.6 224.8,171.1 
		224.3,171.4 224.3,171.9 224.5,172.3 224.6,172.8 225.3,172.8 225.6,173.1 225.7,173.6 225.6,173.8 225.6,174.1 226.2,174.4 
		226.5,174.5 227,174.5 228.1,173.9 228.7,173.8 229.7,174.1 230.4,174.2 231.1,174.2 231.5,174.5 232.5,174.7 233.1,174.1 
		233.1,173.4 234.3,172.8 235,173 235.4,172.8 235.8,172.5 236.5,172.3 237.3,172.2 237.5,172.2 238.4,172.7 238.7,172.8 239,173.3 
		239.2,173.8 239.2,173.9 239.2,175.2 239.2,176.1 238.6,177.4 238.6,177.7 238.6,178 238.7,178.3 238.7,178.5 238.7,178.8 
		238.3,179.2 238.1,179.9 238.1,180.3 237.9,181.3 237.9,181.6 237.9,181.9 238.3,182.2 237.8,183 237.5,183.3 236.7,183.5 
		236.5,183.5 236.2,183.3 235.8,183.3 235.4,183.5 235.4,183.6 235.3,183.6 235.3,183.8 235.4,185.2 235.8,185.7 236.2,185.8 
		236.4,186.3 236.5,186.4 236.5,187.4 236.5,188 236.2,189.6 235.9,189.7 235.6,189.9 235,190.4 234.3,191.1 235,192.5 235,193 
		234.8,194.6 234.7,195 234.2,195.7 233.9,196.3 233.9,196.6 234.2,197.9 234.2,198.2 233.7,198.6 233.6,198.8 232.9,199 
		232.3,198.8 232.2,199.3 232.2,199.6 232.2,200.5 232.9,201 233.1,201.3 233.3,202.4 233.4,203 233.4,203.7 233.3,205.5 
		232.6,205.8 232,206.3 231.7,206.5 231.2,206 230.9,206 230,206 229.5,207.4 229.5,207.6 229.7,208.8 230.6,209.3 231.1,209.6 
		231.2,209.6 231.8,209.6 232.2,210.2 232.5,210.5 232.5,210.7 232.6,210.7 232.5,210.7 232.5,212 232.2,212.7 232.2,213.1 
		231.7,213.5 231.1,214 230.9,214.3 230.9,214.8 231.1,215.1 231.4,215.2 231.5,215.2 231.8,216 231.8,216.2 231.7,216.5 
		231.7,216.7 231.7,217.1 232,217.6 232.2,217.6 232.8,217.7 233.4,218.1 233.9,218.5 234.2,219.2 234.3,220.3 234.3,220.7 
		233.9,221.5 233.9,221.7 234.7,223.2 235.1,223.7 235.6,223.9 235.8,224.5 235.9,224.6 235.9,224.8 235.9,225.3 235.8,225.4 
		234.8,227.3 234.2,227 232.9,226.8 232.6,227 232,227.3 231.4,227.3 231.1,227.3 230.6,227.3 230.1,227.6 229.8,227.9 229.8,228.2 
		229.8,228.6 230,228.7 229.8,228.9 228.4,231.2 227.9,231.7 227.6,232 227.5,232.5 227.8,233.1 228.4,234 228.9,234.8 230.1,235.8 
		230.3,235.9 230.3,236.1 230.4,236.4 230.6,236.7 230.7,237.2 230.4,239.5 230.1,240.3 229.5,240.9 229.2,240.8 229,240.6 
		228.9,240.8 228.7,240.8 227.6,241.5 227.5,241.7 227.5,242 227.9,243 228.4,243.1 228.7,243.7 228.4,244.1 228.1,244.4 
		227.9,244.8 227.8,245.1 227.8,245.3 227.6,246.6 227.8,246.6 228.1,246.9 229,246.2 229.2,246.1 229.7,246.4 229.8,246.6 
		230.1,246.9 230.6,247.2 230.9,247 231.4,246.9 231.7,246.7 232,246.7 232.3,246.9 232.3,247 232.5,248 232.8,248.1 233.3,248.6 
		233.6,248.9 233.7,249.2 234.3,250.3 235.8,250.8 236.7,251.4 236.9,251.6 237,252.7 237.8,253.6 238.3,253.8 239.5,253 
		240.9,252.3 241.2,251.9 241.7,251.3 242.2,249.8 242.3,249.4 242.3,248.7 242.2,248.6 242.2,248.4 242.3,248 242.6,248 
		243.3,247.8 243.9,248.1 244.4,248.6 244.5,248.6 245,248.6 245.3,248 245.6,247.5 246.2,247.5 246.7,247.5 246.9,247.3 
		247.7,247.2 248,246.6 248,246.4 247.8,246.1 248,245.9 248.3,245.3 248.4,245.3 248.6,245.3 249.1,245.3 249.4,245.1 249.7,245 
		250,244.8 250.2,244.5 250.2,244.1 250.3,243.6 250.9,242.3 252.3,241.1 252.5,240.9 252.7,240.9 253.3,240.9 253.4,240.6 
		253.4,240.3 253.1,239.5 253.1,238.7 253.1,237.9 253.4,237.8 254.4,237.3 254.7,237.2 255.2,237.3 255.5,237.5 256.4,238.1 
		256.6,238.3 256.7,238.4 256.9,238.4 257.2,238.7 257.4,239.4 257.8,240.3 258.5,240.6 258.6,240.8 258.8,241.1 258.9,241.2 
		258.8,241.7 258.6,242.6 258.6,242.8 258.8,242.8 259.2,243.1 259.5,243.1 260.2,242.8 260.6,242.6 261.3,243 262.5,243.4 
		263,243.9 263.3,244.1 263.5,244.7 263.5,244.8 263.5,245.3 263.3,245.6 263.1,245.8 263,245.9 262.7,246.6 262.1,249.4 
		261.9,249.5 262.1,249.5 263.1,249.7 263.5,249.4 263.8,249.4 264.6,249.4 264.9,249.5 265.2,249.5 265.5,251.7 265.5,252.3 
		264.9,253.3 264.4,254.1 264.4,254.2 264.9,254.9 265.3,255.6 265.3,255.8 265.2,256.3 265.2,256.6 265.2,257 265.5,257.4 
		266,257.5 266.7,258.3 266.7,258.5 266.7,258.8 266.7,259.4 266.7,259.5 266.6,260.2 266.4,261.4 266.6,262.5 266.7,262.7 
		267.7,264.1 268,264.4 268.2,264.7 268.5,265 268.9,265.5 268.9,266 268.9,266.3 268.8,266.3 268.8,266.4 268.8,266.8 268.9,267.2 
		269.1,267.5 269.4,267.8 269.6,267.8 270,268 270.5,268.3 270.8,268.8 270.8,269.3 271.1,269.9 271.4,270.4 271.8,270.7 272.2,271 
		273.2,271.8 273.6,272.7 273.5,273.2 273.5,273.5 273.5,273.8 273.6,274.3 273.8,274.3 273.8,274.4 274.3,275.7 274.4,276 
		274.6,276.3 275.4,277.1 275.7,277.1 276.1,276.9 277.2,276.9 277.4,276.9 277.4,277.1 277.7,277.4 277.4,277.9 277.1,278.3 
		278.6,280.4 279.3,280.5 279.6,280.4 279.9,280.2 280.2,280.7 280.4,281.5 280.4,282.3 280.5,282.7 281,284 281,284.1 280.5,284.8 
		280.5,285.7 280.7,286.2 280.7,286.3 280.7,287.3 280.5,287.7 280.2,287.9 279.6,288 279.3,288 279,287.9 278.3,288 278,288.5 
		278.2,289 278.3,289.3 278.5,289.5 279.3,290.5 279.3,290.9 279.7,292 279.9,292.6 279.9,292.7 279.9,292.9 280.2,293.7 
		281.8,295.2 283.7,295.6 284,295.7 284.9,296.7 285.5,298.1 285.4,298.1 285.1,298.4 285.1,298.5 285.7,299 286.5,298.7 
		287.6,298.1 287.9,297.8 288.7,297.3 288.7,297.1 288.8,297.1 289,297.1 289.8,296.7 290.2,296.5 290.5,297 291.9,297.4 
		292.7,297.9 293.2,298.4 293.5,298.8 294.3,299.3 294.5,299.3 295.4,299.5 295.7,299.8 295.9,300.3 295.5,300.6 295.7,301.2 
		296.5,302.1 297.3,302.8 297.3,303.2 297.3,304 297.4,304.8 298.2,305.3 298.8,306 298.8,306.5 298.8,306.8 298.8,307.6 299,308.1 
		299.3,308.4 299.8,308.9 299.8,309.3 299.6,310 299.5,310.1 299,310.3 298.7,310.4 298.2,311.1 298.2,311.2 298.5,311.7 
		299.1,312.6 299.3,312.9 299.6,313.1 300.2,313.7 300.2,314.2 300.2,315 300.7,315.6 301.3,316.2 301.3,316.7 301.3,317.9 
		301.3,318.6 301.6,319.5 302,320.6 302.1,321.4 303.2,322.5 303.5,322.8 304.2,323.3 304.8,323.7 306.5,324.5 307.1,324.8 
		307.9,325 308.1,326.1 308.2,326.2 308.5,326.6 308.7,326.7 309.5,327.5 309.9,327.5 310.4,327.2 311,326.7 311.4,326.4 
		311.4,326.2 311.5,325.6 311.5,325.1 311.2,324.8 311,324.2 310.3,323.1 310.4,322.8 310.6,321.9 311.2,321.2 311.5,320.9 
		312.1,320.3 312.9,318.9 313.7,318.7 313.9,318.7 314.5,318.6 315.1,317.9 315.9,317.6 316.4,317.6 317,317.9 317.5,318.1 
		318.2,318.4 318.4,318.7 318.6,318.7 318.7,318.7 320.1,318.6 321.5,318.4 321.8,318.7 322.3,319 322.9,319 324,318.7 324.3,318.9 
		325.6,319.4 325.9,319.7 325.9,320 326.4,320.1 327,319.7 327.8,319 327.9,319 328.4,319.4 329,319.8 329.5,320.1 330.6,320.6 
		331.9,321.1 332.6,320 332.8,319.8 333,319.2 333.3,318.6 333.3,318.1 333.1,315.6 333.4,315.1 333.6,315 335.1,315 335.3,314.7 
		335.3,314.5 335.3,314.2 335.3,313.9 335.5,313.7 335.6,313.7 336.4,313.1 336.6,312.9 338,312.8 338.4,312.8 338.7,312.9 
		339.4,313.2 339.5,313.7 339.4,314.2 339.7,314.5 341.6,315.1 341.7,315.1 342.5,314.5 343.9,314.7 344.2,315 344.4,315.4 
		345.3,315.9 345.6,315.9 345.8,315.8 345.9,315.3 346.6,315 347.2,314.8 347.5,314.8 347.8,315 348.6,315.1 348.8,314.7 
		348.8,314.3 348.9,314 349.7,314.3 350.6,314.8 351.4,314.7 351.9,314.3 352.2,314.2 352.8,313.7 352.8,313.4 353,313.2 
		354.2,313.2 355,313.2 355.5,312.9 355.8,312.8 356.6,312.8 356.9,313.1 357.2,313.7 357.7,314.3 358,315.3 358.6,315.9 
		359.1,316.4 359.7,316.2 359.9,315.9 361.6,315 361.9,314.8 362.1,314.7 362.7,314.2 363.2,314 363.5,313.9 363.9,313.9 
		364.1,313.9 364.4,313.4 364.7,312.8 365.5,312.8 365.7,312.8 367.1,313.1 367.7,313.1 367.9,313.2 368.8,313.4 369,313.4 
		369.6,313.1 370,312.5 370.4,312.5 371,312.6 371.5,312.9 371.8,312.9 372.2,312.8 373.3,313.2 373.6,313.6 374.4,313.9 
		375.8,313.7 376,313.6 376,312.9 375.7,312.8 374.9,312.5 374.3,311.8 373.5,310.9 373.2,310.1 373.2,310 373.2,309.5 373.3,308.9 
		374,307.6 374.1,307.5 374.6,306.8 374.7,306.5 375.1,306 375.5,305.4 375.5,305.3 375.7,304.5 375.2,304.2 374.9,303.9 
		374.7,303.1 374.6,303.1 374.7,302.8 374.9,302.4 375.1,302.4 375.7,302.1 376.5,301.8 376.8,301.7 377.1,301.7 377.1,301.5 
		377.6,301.7 377.9,302 378.3,302.1 379,301.4 379.1,300.9 379.1,299.9 379,299.8 379.1,299.3 379.6,299.2 379.9,299.3 380.1,299.5 
		380.5,299.9 380.5,300.3 381,301 381.5,301 381.8,300.9 382.6,301.2 384,302.6 384.8,303.9 384.9,304.2 385.1,304.3 385.4,304.8 
		385.1,305.7 385.7,306 386.2,306 386.5,306.5 387.6,307.8 387.6,308.1 387.3,308.9 387.4,310.3 387.7,310.6 388.8,310.9 
		389.5,311.2 389.8,311.5 389.9,311.8 390.1,312.5 390.6,312.8 390.9,312.9 391.6,313.6 392,314.8 392.4,315.9 392.7,316.4 
		393.4,316.5 393.8,316.7 394.2,316.9 394.3,316.9 394.5,317 395.7,317.5 396,317.5 396.3,317.5 396.5,320 396.5,320.1 396.7,324.2 
		396.7,325.6 397,332.7 397.3,340.6 397.3,341.1 397.3,341.4 397.3,341.7 397.3,342.4 397.4,345.2 397.4,345.3 397.4,348.2 
		397.6,349.4 397.7,350.7 397.7,351.1 397.9,355.7 398.1,358.8 398.1,361.5 398.1,361.9 398.2,364.1 398.2,364.6 398.2,366.2 
		398.4,367.9 398.4,368 398.4,368.2 398.4,370.6 398.4,370.7 398.5,370.9 398.5,371 398.5,372.4 398.5,373.7 398.7,374.9 399,383.1 
		399.5,395.6 399.6,403.3 399.8,403.7 399.8,404.1 399.8,404.4 399.8,404.8 399.8,405 399.8,405.1 399.8,407.2 399.9,410.6 
		399.9,412 400.1,412.2 400.1,412.4 400.1,412.8 400.1,413.1 400.1,413.8 400.1,414.1 400.1,414.9 400.1,415 400.1,415.2 
		400.1,415.3 400.1,415.5 400.1,415.6 400.3,418 400.3,418.5 400.3,418.9 400.3,419.2 400.3,420 400.4,425.2 400.6,426.4 
		400.7,432.5 400.9,435.5 400.9,435.7 401,439.9 401,440.5 401,443.2 401,444.9 401.2,449.6 401.2,450.2 401.2,450.6 401.3,452.6 
		401.5,457.1 401.5,460.7 401.7,465.3 401.8,469.8 402,471.1 402,471.8 402,474.2 402,474.7 402.1,475.9 402.1,478.1 402.4,484.1 
		400.9,484.2 399.8,484.2 397.3,484.2 393.7,484.4 388.7,484.5 387.3,484.7 386,484.7 384.3,484.7 383.8,484.7 383.7,484.7 
		383.4,484.7 381,484.8 379.3,485 369.6,485.3 367.5,485.3 367.1,485.3 363.9,485.5 363.5,485.5 362.7,485.5 361.8,485.5 
		360.8,485.5 359.7,485.6 358.8,485.6 357.8,485.6 357.5,485.6 357.4,485.6 355.8,485.6 355.6,485.6 353.9,485.8 353.1,485.8 
		352.5,485.8 349.1,485.9 346.3,485.9 345.8,485.9 344.8,485.8 343.1,485.8 342.7,485.8 342.5,485.8 342.3,485.8 341.2,485.8 
		336.2,485.9 335.1,485.9 332.3,485.9 331.9,485.9 329.2,486.1 329,486.1 322,486.2 318.9,486.2 315,486.4 312.8,486.4 310.3,486.4 
		309.2,486.4 308.8,486.4 305.4,486.6 304.3,486.6 304,486.6 294.8,486.7 291.8,486.9 287.3,487 286.3,487 284.4,487 284.1,487 
		283.2,487 282.7,487 279.4,487.2 279.1,487.2 271.8,487.3 269.4,487.3 266.6,487.5 266,487.5 264.4,487.5 263,487.5 261,487.5 
		259.9,487.5 259.5,487.5 259.1,487.5 254.4,487.2 252,487.2 251.7,487.2 250.9,487.2 248.7,487.2 240,487.2 234.2,487 230.6,487 
		229,487 224,487 220.6,486.9 217.9,486.7 213.7,486.4 213.5,486.4 212.4,486.4 211.8,486.4 211.3,486.4 210.6,486.4 210.1,486.4 
		209,486.6 208.2,486.6 205.2,486.6 204.5,486.6 202.3,486.7 202,486.7 191.8,486.6 191.3,486.6 191.2,486.6 188.3,486.6 
		188.2,486.6 186.8,486.4 186.1,486.4 185.7,486.4 174.4,486.2 173,486.1 172.8,486.1 172.5,486.1 168.3,486.1 167.2,486.1 
		160.2,485.9 159.7,485.8 159.4,485.8 158.1,485.8 154.4,485.6 153.1,485.6 152.8,485.8 152.2,485.8 151.7,485.8 145.6,485.6 
		145.4,485.5 140.1,485.5 137,485.3 136.8,485.3 135.1,485.3 134.6,485.3 130.4,485.2 129.5,485.2 129.3,485.2 128.5,485.2 
		128.1,485.2 127.3,485 124.5,485 124.2,485 122.3,484.8 105.1,484.2 103,484.2 102.6,484.1 102.1,484.1 102.4,476.1 102.4,475.1 
		102.6,473.1 102.6,472.8 102.9,463.1 102.9,462.1 103,459.9 103,458.5 103.5,446.8 103.7,441.9 103.7,441.8 104.1,429.7 104.6,415 
		104.8,411.1 105.2,399.7 105.2,397.8 105.2,397 105.4,391.8 105.5,387.1 105.7,384.5 105.9,378.7 106,378.1 106,377.8 106,376.7 
		106,376.5 106,376.3 106,376.2 106,375.6 106,375.1 106,374.9 106,374.6 106,374.2 106.2,372 106.2,371.2 106.2,370.9 106.2,370.7 
		106.2,369.9 106.3,369.1 106.3,368.5 106.3,367.4 106.3,367.3 106.3,365.4 106.5,364.3 106.5,362.4 106.5,362.3 106.5,361.9 
		106.5,361.2 106.6,360.8 106.6,360.7 106.6,360.5 106.8,360.1 107.1,359.3 107.1,359.1 107.3,358.8 107.4,358.7 107.6,358.7 
		107.7,358.7 107.9,358.5 108,358.5 108.4,358.7 108.5,358.5 108.7,358.5 108.8,358.3 109,357.7 109,357.6 109.1,356.6 109.1,356.5 
		109.1,356.1 109.1,355.8 109.1,355.7 109.6,355.1 109.8,354.9 109.9,354.7 109.9,354.3 109.9,354 109.9,353.2 109.9,352.7 
		109.8,352.4 109.6,352.4 109.6,352.2 109.6,352.1 109.6,351.9 109.6,351.8 109.6,351.6 109.9,351.6 110.2,351.3 110.9,350.5 
		111,350.4 111,350.2 111.2,349.7 111.3,349.4 111.3,348.8 111.3,348.6 111.5,348.2 111.5,347.8 111.3,347.5 111.2,347.1 
		110.9,346.8 110.5,346.6 109.8,346.1 109.6,345.8 109.6,345.5 109.6,345.2 109.6,344.9 109.6,343.9 109.6,343.8 109.6,343.6 
		109.8,343.5 109.9,343.5 110.1,343.3 110.5,343.3 111.2,343.2 111.3,343.2 111.5,343 111.8,342.8 112,342.4 112.1,342.2 
		112.6,341.1 112.7,340.8 113.7,339.2 113.8,338.9 113.8,338.8 113.8,338 113.5,337.7 113.4,337.5 112.4,336.6 112,336.4 
		111.6,336.4 111.3,336.6 110.4,336.4 110.1,336.1 110.1,335.5 110.1,334.2 110.2,333.8 110.2,333.6 110.2,333.4 110.1,333.3 
		110.1,333.1 109.8,333 109.5,332.8 108.8,332.8 108,332.8 107.9,332.8 107.7,332.7 107.6,332.7 107.4,332.7 107.1,332.7 106.8,333 
		106.6,333.8 106.6,333.9 106.5,333.9 106.3,333.9 106.2,333.8 106,333.3 105.7,332.8 105.5,332.8 105.2,332.5 105.1,332.5 
		104.6,331.9 104.6,331.7 104.4,331.1 104.4,330.9 104.1,330.6 104,330.5 104,330.3 103.8,330.3 103.5,330.3 103.3,330.3 
		103.2,330.5 103,330.5 102.6,330.9 102.6,331.1 102.6,331.4 102.4,331.4 102.3,331.7 101.9,331.7 101.3,331.7 100.7,331.7 
		99.6,330.8 99.4,330.6 98.5,329.5 98.2,328.9 98.3,328.7 98.5,328.3 98.7,328.1 99.1,328 99.3,328 99.7,326.9 99.9,326.9 
		99.9,326.6 99.9,326.4 99.6,325.8 99.6,325.6 99.1,325.1 99,325 98.7,324.7 98.2,324.2 97.9,323.7 97.6,322.6 97.6,322.2 97.9,322 
		98.3,321.7 98.3,321.5 98.8,320.6 99,320.3 99,318.9 99,318.4 99,318.1 98.8,317.3 98.7,317 98.7,316.9 98.5,316.9 98.5,316.7 
		98.7,316.7 98.7,316.5 98.7,316.4 98.8,316.4 99.1,316.2 99.3,316.4 99.4,316.4 99.9,315.9 100.2,315.4 100.2,315.1 100.4,315 
		100.4,314.7 100.4,314.5 100.7,314 100.8,313.9 101.5,313.9 101.8,313.7 102.3,313.2 102.4,312.9 102.7,312.3 102.7,311.7 
		102.6,311.2 102.6,311.1 102.7,310.9 102.9,310.6 103,310.6 103.2,310.4 103.7,310 103.7,309.8 103.7,309.2 104,308.1 104,307.8 
		104.1,307.5 104.3,307.1 104.6,307 105.1,306 105.4,305.3 105.2,305 105.4,304.5 105.5,304.2 106,303.2 106.2,303.2 106.2,303.1 
		106.2,302.6 106.5,302.1 106.9,301.8 107.1,301.7 107.1,300.7 107.1,300.3 107.9,299.3 108,299.2 108.4,299 109.5,298.4 
		109.6,298.4 109.9,298.5 110.2,298.4 110.5,298.2 110.7,298.2 110.9,298.1 111.2,297.8 111.5,297.4 111.6,297.3 111.8,297.3 
		112.6,297.1 113.2,296.8 113.4,296.7 113.5,296.5 113.5,296.3 113.5,296.2 113.5,296 113.4,295.9 113.4,295.7 113.5,295.2 
		113.7,295.1 114.1,294.6 114.9,293.4 114.9,293.1 115.1,292.9 115.4,292.4 116,291.8 116.8,291 117.3,290.4 117.6,289.9 
		117.6,289.5 117.9,288.7 118.1,288 118.4,287.4 118.5,287.1 118.7,286.9 118.7,286.8 118.5,286.3 117.9,285.5 117.7,285.1 
		117.4,283.8 117.4,283.7 117.6,283.3 118.1,282.3 118.2,282.3 118.2,281.3 118.2,281 118.1,280.8 118.4,280.2 119,279.9 
		119.2,279.7 120.1,279 120.6,278.3 121.2,277.4 121.3,277.2 121.3,277.1 121.3,276.5 121.3,276.1 121.3,276 121.8,275.4 
		122.8,274.7 123.8,273 124,272.9 124,272.7 124.3,271.6 124.3,271 125.1,268.8 125.1,268.6 125.1,267.8 125.1,267.7 125.4,266.4 
		125.9,265.3 126,264.7 126.4,264.6 126.7,264.4 126.8,264.1 127,263.9 127,263.5 127.1,263.2 127.1,262.5 127,261.4 127.1,261 
		128.1,258.9 128.7,257.8 129.5,256.6 129.8,255.8 130.1,255.6 130.9,254.9 131.2,253.9 131.4,253 131.4,252.8 131.7,252.5 
		132,252.2 132.6,251.7 133.1,251.6 133.1,250.9 132.9,250.5 132.9,250.3 133.1,249.2 133.4,248.4 133.7,248.1 134,247.5 
		134.6,245.9 135.1,245.3 135.7,244.7 135.9,244.5 136.4,244.2 136.7,244.1 136.7,243.9 137.5,242.5 137.6,242.3 137.6,241.4 
		137.6,241.2 137.3,241.1 137.3,240.8 137,240.3 136.8,240 136.8,239.8 136.8,239.7 136.5,239 136.4,238.9 136.2,238.7 135.4,237.6 
		135,237.2 134.8,236.8 134.5,236.2 134.3,235.9 134.3,234.7 134.5,233.4 134.5,233.1 134.2,232.5 134,232.2 133.9,232 133.7,232 
		133.4,231.8 132.6,231.1 131.8,230.3 131.4,230.1 130.1,229.8 130,229.8 129.6,230 129.3,230.1 128.7,230.1 128.5,230 127.8,229.2 
		127.8,229 127.4,228.2 127.1,227.3 127,227.3 126.5,227 126.5,226.8 126.4,226.8 126.2,226.8 125.3,226.8 125.1,226.8 125.1,227 
		124.9,227 124.8,227.1 124.6,227.3 124.5,227.3 124.3,227.5 124.2,227.5 124,227.5 123.1,226.8 122.8,226.4 122.8,226.2 122.8,226 
		122.9,225.7 122.9,225.6 122.8,225.1 122.6,224.8 122.4,224.5 121.7,223.2 121.5,223.1 121,222.6 120.4,222.1 119.8,221.3 
		119.6,221.2 119.5,220.9 119.3,220.6 119.2,220.1 119,218.8 119,218.5 118.5,217.6 118.2,216.7 117.4,215.6 117.3,215.1 
		117.1,215.1 117.1,214.8 117,213.5 116.7,212.1 116.2,210.7 115.9,210.2 115.4,209.6 115.2,209.6 114.9,209.6 114.5,209.3 
		114.5,209.1 114.3,209 114.3,208.7 114.3,208.5 114.5,208.2 114.6,208.2 114.8,208.2 115.4,208 115.6,207.9 115.9,207.3 
		115.9,206.8 115.9,206.5 116,206.3 116,206.2 116.7,205.2 117.3,204 117.4,203.7 117.4,203.5 117.3,203.3 116.5,202.2 116.2,201.9 
		116,201.8 115.6,201.3 115.4,201 115.4,200.7 115.7,199.9 115.9,199.6 116,199.1 115.9,198.3 115.6,197.7 115.6,197.6 115.6,197.4 
		115.4,197.1 115.2,196.9 115.1,196.8 114.6,196.3 114.5,196 114.5,195.8 114.8,195.2 114.8,194.9 114.6,194.7 114.5,194.6 
		114.3,194.3 114.1,194.3 114,194.3 114,194.1 113.7,194.1 113.4,193.6 113.1,193.5 113.1,193.2 113.1,193 113.1,192.7 113.1,192.4 
		113.1,192.1 113.1,191.9 112.9,191.8 112.7,191.6 112.6,191.6 112.4,191.6 112,191.4 111.8,191.4 111.6,191.4 111.6,191.3 
		111.5,191.3 111.5,191.1 111.3,191.1 111.3,191 111.2,190.8 111.2,190.7 111.3,189.9 111.3,189.7 111.5,189.6 111.8,189.3 
		112,189.3 112.1,188.9 112.3,188.5 112.3,188.2 112.3,188 112.4,187.8 112.4,187.7 112.6,187.2 112.6,187.1 112.7,186.9 
		112.7,186.4 112.7,186.3 112.6,186.1 112.6,186 112.6,185.7 112.6,185.3 112.6,184.9 112.6,183.8 112.6,183.5 112.6,183 
		112.6,182.8 112.7,178.1 112.9,175 113.1,172.8 113.2,168.9 113.2,167.3 113.2,166.2 113.4,165.9 113.4,165.3 113.4,165 113.4,163 
		113.4,162.5 113.5,159.7 113.5,158.9 113.7,156.5 113.7,155.8 113.8,153.1 113.8,149.6 114,149.5 114,148.9 114,145.9 114.1,144 
		114.3,141.2 114.3,141 114.3,138.7 114.3,138.2 114.5,136.8 114.5,134.9 114.5,133.5 114.6,132 114.6,131.2 114.6,131 114.6,129.8 
		114.9,124.8 114.9,123.8 114.9,122.6 114.9,121.9 115.1,120.4 115.1,119.4 115.1,117.9 115.2,116 115.2,115 115.4,112.1 
		115.4,111.9 115.4,111.6 115.4,111.3 115.4,109.6 115.4,108.5 115.4,108.2 115.6,107.8 115.6,106.9 115.6,106 115.6,105.2 
		115.7,101.6 115.7,101.4 115.7,101.1 115.7,100.3 115.7,100.2 115.7,100 115.7,99.9 115.7,99.5 115.9,98.5 115.9,97.7 115.9,97 
		115.9,95.9 115.9,95.6 115.9,95.5 116,94.7 116,91.7 116,91.6 116,91.1 116,90.8 116,90.6 116.2,89.2 116.2,88.7 116.2,88.3 
		116.2,88.1 116.2,88 116.2,87.6 116.2,87.5 116.3,84.8 116.5,82 	"/>
</g>
</svg>
