<?xml version="1.0" encoding="utf-8"?>
<!-- Generator: Adobe Illustrator 19.0.0, SVG Export Plug-In . SVG Version: 6.00 Build 0)  -->
<svg version="1.1" id="Layer_1" xmlns="http://www.w3.org/2000/svg" xmlns:xlink="http://www.w3.org/1999/xlink" x="0px" y="0px"
	 viewBox="0 0 500 500" style="enable-background:new 0 0 500 500;" xml:space="preserve">
<style type="text/css">
	.st0{fill:#D74B4B;}
</style>
<g id="XMLID_3_">
	<polygon id="XMLID_4_" class="st0" points="13.6,157.8 13.7,156.6 13.7,155.9 13.7,155.2 13.9,154.5 14,152.6 14,152.5 14.2,151.4 
		14.5,147.4 14.5,146.5 14.6,145.3 14.6,145 14.8,142.7 15,141.5 15.1,139.3 15.6,134.7 15.6,134.4 16.5,123.7 17.4,112.8 19.2,113 
		19.5,113.1 32.4,114 38.1,114.5 39.9,114.6 41.5,114.8 49.1,115.4 54.8,115.9 60.6,116.2 67.2,116.6 69.2,116.8 76.7,117.3 
		80.5,117.4 85.3,117.7 86.2,117.9 87.1,118 87.9,118 92.2,118.3 92.5,118.3 98.3,118.6 99.8,118.8 106.2,119.2 109.5,119.2 
		109.9,119.4 110.7,119.4 116.4,119.7 117.4,119.7 118.3,119.7 119,119.9 123.4,120 123.7,120 125.1,120 128.1,120.2 128.3,120.2 
		128.5,120.2 128.6,120.2 128.8,120.3 128.9,120.3 129.1,120.3 129.2,120.3 132.1,120.3 156.5,121.4 156.8,121.4 163.1,121.5 
		164.9,121.7 168.1,121.8 170.1,121.8 170.3,121.8 171.8,121.8 175.8,122 179.3,122.2 189.3,122.5 198,122.6 206,122.8 206.9,122.9 
		208,122.9 208.6,122.9 212.4,122.9 217.9,122.9 223.6,123.1 225.9,123.1 229.4,123.1 237.8,123.2 239.5,123.2 246.2,123.2 
		264.9,123.2 265.2,123.2 265.4,123.2 266.6,123.2 267.2,123.2 269.2,123.2 269.4,123.2 273.1,123.2 274.4,123.2 279.6,123.2 
		281.6,123.2 283.8,123.2 284.1,123.2 301.1,123.1 303.2,123.1 312.7,122.9 324.8,122.8 325.3,122.6 325.6,122.6 326.1,122.6 
		332.9,122.5 342.9,122.3 345.8,122.2 352.7,122 365.9,121.5 373.7,121.2 374,121.2 377.8,121.2 378.4,121.1 379.2,121.1 
		383.2,120.9 383.5,120.9 387,120.8 388.1,120.8 388.5,120.8 392.8,120.6 393.1,120.6 395.4,120.5 398.7,120.3 403.6,120 405.9,120 
		410.6,119.7 412,119.7 412.1,119.7 413.2,119.5 415.4,119.5 419.6,119.2 419.8,119.2 420.4,119.2 420.6,119.2 421.6,119.2 
		424.7,118.9 425.2,118.9 433,118.6 434.2,118.5 439.9,118.2 443.7,117.9 448.4,117.6 452.4,117.4 461.5,116.8 471.1,116.2 
		471.1,116.8 471.3,118 471.3,118.2 471.3,118.5 471.3,118.6 471.3,118.9 471.3,119.4 471.3,119.5 471.4,119.9 471.4,121.1 
		471.4,121.4 471.4,121.7 471.6,122.2 471.6,122.9 471.6,123.1 471.6,123.2 471.6,123.4 471.6,123.7 471.6,123.8 471.6,124 
		471.7,124.9 471.9,127.2 471.9,127.8 471.9,128.3 472,129.5 472,130.4 472.2,130.6 472.2,132.1 472.3,134.6 472.5,135 472.5,135.3 
		472.5,135.5 472.5,135.6 472.5,135.8 472.5,136.2 472.6,137.2 472.6,137.5 472.6,137.6 472.6,137.9 472.6,139.2 472.8,139.5 
		472.8,140.1 472.8,141.2 472.9,142.1 472.9,142.5 472.9,143 472.9,143.3 473.1,143.8 473.1,144.8 473.1,145.1 473.3,146.7 
		473.3,147.1 473.3,147.4 473.3,147.6 473.4,147.9 473.4,149.3 473.6,149.9 473.6,151.1 473.6,151.3 473.6,151.4 473.6,151.6 
		473.6,151.7 473.7,152 473.9,153.9 473.9,155.1 473.9,155.4 473.9,155.6 474,156.3 474,157.1 474,157.7 474.2,158.3 474.2,158.8 
		474.2,159.4 474.2,159.7 474.5,162.1 474.5,162.3 474.5,162.4 474.5,163.4 474.5,164 474.6,165.4 474.6,165.5 474.6,165.8 
		474.8,167 475.1,172.1 475.2,173.6 475.2,173.9 475.4,175.2 475.4,176.1 475.6,176.4 475.7,179.8 475.9,181.3 475.9,181.6 
		476,182.5 476,183 476,184.5 476.2,184.5 476.2,184.7 476.2,184.8 476.3,188 476.6,192 476.8,194.9 476.8,195.7 476.8,196.1 
		477.2,200.7 477.4,204.4 477.5,205.6 477.7,207.9 477.7,209.3 477.8,211.2 477.8,211.8 477.8,211.9 478.2,215 478.2,215.1 
		478.2,215.3 478.2,215.5 478.2,215.6 478.3,218.5 478.6,222 478.6,222.2 478.8,223.6 478.9,225.6 478.9,226.2 478.9,226.3 
		478.9,226.9 478.9,227.1 478.9,227.6 479.1,227.7 479.1,228.5 479.1,228.6 479.2,232 479.4,234.1 479.5,234.6 479.5,235.5 
		479.5,236.3 479.8,240.6 480,242.1 480.3,246.6 480.3,246.7 480.3,246.9 480.3,247.2 480.3,247.5 480.6,251.3 480.8,252.1 
		481.1,256.2 481.1,257.1 481.2,259 481.2,260.6 481.7,266.2 481.7,267.1 481.8,268.6 481.8,269.5 482.1,272.1 482.3,275.7 
		482.4,276.3 482.8,281 482.8,281.3 483.2,288.1 483.4,291.3 483.7,295 483.8,295.4 483.8,295.7 484.3,302.5 485,313.5 485.2,314 
		485.2,314.6 485.4,316.6 485.4,316.9 485.4,317.3 485.5,318.9 485.8,322.8 486,324.1 486,325.6 486.1,326.2 486.6,333.3 
		486.9,338.3 487.3,345.5 487.5,345.5 486.7,345.7 478.9,346.1 472.3,346.6 469.9,346.7 462.2,347.2 462.1,347.2 461.9,347.2 
		459.5,347.4 458.1,347.4 457.9,347.5 447.7,348 447.5,348 447.4,348 446.8,348 444.8,348.1 440,348.4 433.3,348.7 425.5,349.2 
		424.1,349.2 413.8,349.8 411.4,349.8 411.2,349.8 411.1,349.8 410.6,350.3 406.6,350.4 400.2,350.7 397,350.9 386.4,351.2 
		384.4,351.3 371.4,351.6 371.2,351.6 370.9,351.6 370.3,351.6 367.3,351.8 366.6,351.8 364.8,351.8 363.9,351.8 363.4,352 
		362.5,351.8 361.7,351.8 361.4,351.8 355.3,352 354.7,352 353.9,352 353.6,352 352.6,352 350.4,352 346.9,352.1 342.1,352.3 
		342,352.3 336.3,352.4 331,352.4 329.7,352.6 326.2,352.6 326.1,352.6 320.1,352.7 317.2,352.7 316.7,352.7 316.4,352.9 
		315.9,352.9 315,352.9 305.7,353 303.1,353 302.5,353 300.8,353 298.9,353 298.2,353 291.1,353.2 287.3,353.2 283,353.2 
		282.9,353.2 281.9,353.2 281.2,352.9 274.6,352.9 274.3,352.9 271.7,352.9 270,353 269.7,353 269.5,352.9 268.9,353 261.9,353 
		258.2,353 254.7,353.2 252.7,353 250.4,353 249.6,353 244.7,353 244.4,353 243.5,352.9 240.1,352.9 236.4,353.3 232.9,353.2 
		231.4,353 230.6,353 229.7,353 228.2,353.3 224.6,353.5 222.2,353.3 222,353.3 215.8,353.3 213.9,352.9 213.5,352.9 212.5,352.6 
		202,352.6 201.5,352.6 201.4,356.2 201.4,356.4 201.4,360.2 201.2,367 201.2,368.3 201.1,371.7 201.1,374.2 201.1,374.5 
		201.2,382.9 200.9,382.7 200.6,382.7 199.5,382.3 199.4,382.1 199.2,382.1 199.1,382 198.6,381.8 198.1,381.7 197.8,381.2 
		197.5,380.3 197.4,379.2 196.8,378.6 196.5,378.5 196,378.3 195.9,377.7 195.9,377.4 195.5,377.1 195.1,376.9 194,376.5 
		193.9,376.2 193.9,375.1 194,374.5 194.2,374.2 193.2,372.9 192.9,372.5 192.6,372.5 192,372.2 192.3,371.4 192.2,371.1 192,371 
		191.9,370.6 191.3,369.6 190.2,368.2 189.4,367.9 189.3,368.2 189,368 188.5,367.4 188.5,367.1 188.2,366.7 188,366.5 187.7,366.4 
		187.4,366.5 187.1,366.8 187.3,367 187.1,367.9 187.1,368.2 186.5,369 186,368.7 185.9,368.3 185.4,368.3 185.3,368.3 184.8,368.5 
		184.4,368.7 183.8,369 183.6,369 183.4,369.1 183.3,369.4 183.6,370.2 183.8,370.5 184.2,370.6 184.2,370.8 184.1,371.4 183.6,372 
		183.3,372.3 183,372.6 182.7,373.1 182.5,373.2 181.9,374.3 181.8,374.9 181.8,375.2 181.8,375.4 181.9,376.2 182.7,376.9 
		183.1,377.4 183.8,377.8 184.1,378 184.1,378.5 183.9,378.6 182.7,378.6 181.9,378.3 181.8,378.2 180.8,377.5 180.4,377.7 
		180.1,377.7 179.8,377.4 179.3,377.2 179.2,377.2 179,377.2 178.5,377.7 178.1,378 177.9,378 177.2,377.7 176.9,377.7 176.4,377.5 
		175.3,377.2 175.2,377.2 174.4,377.2 174.1,377.8 173.8,378.2 173.6,378.2 173.2,378.2 173,378.2 172.6,378.3 172.1,378.8 
		172,378.9 171.7,379.1 170.1,379.7 170,379.8 169.5,380 169,379.7 168.6,379.1 168.3,378.3 168,377.7 167.7,377.2 167.5,376.8 
		166.7,376.8 166.4,376.9 166.1,377.2 165.5,377.2 164.3,377.1 164.3,377.2 164.1,377.5 163.7,377.8 163.4,378 162.9,378.3 
		162.3,378.3 161.5,377.8 160.8,377.5 160.8,377.8 160.8,378.2 160.6,378.6 160,378.3 159.5,378.2 159.2,378.2 158.8,378.3 
		158.3,378.5 158.2,378.9 158,379.1 157.7,379.1 156.9,378.5 156.8,378.2 156.5,377.8 155.4,377.7 154.8,378.2 154.6,378.2 
		153.1,377.5 152.8,377.2 152.8,376.9 152.8,376.5 152.2,376.2 152,376 151.6,376 150.5,376 150.4,376.2 149.6,376.6 149.4,376.6 
		149.3,376.8 149.3,376.9 149.3,377.1 149.3,377.4 149.3,377.5 149,377.7 147.8,377.7 147.6,377.8 147.4,378.2 147.4,380.3 
		147.3,380.6 147,381.2 146.8,381.7 146.7,381.8 146.1,382.7 145,382.3 144.1,381.8 143.6,381.5 143.2,381.1 142.7,380.9 
		142.5,380.8 141.9,381.2 141.5,381.7 141,381.5 141,381.4 140.7,380.9 139.8,380.5 139.3,380.5 138.4,380.6 138,380.6 137.6,380.3 
		137.3,380 136.1,380 134.9,380.1 134.7,380.1 134.7,380 134.4,379.8 133.8,379.5 133.4,379.4 133,379.1 132.6,379.1 131.8,379.2 
		131.2,379.7 130.8,379.8 130.6,379.8 130,380 129.2,381.1 128.6,381.7 128.5,381.8 127.8,382.4 127.7,383.2 127.5,383.5 128,384.4 
		128.3,384.9 128.5,385.4 128.5,385.7 128.3,386.1 128.1,386.3 128,386.4 127.5,386.9 126.9,387.2 126.6,387 126,386.4 125.9,386.3 
		125.7,386 125.5,385.8 125.4,384.9 124.8,384.7 124.2,384.4 122.8,383.7 122.3,383.2 121.9,382.7 121.7,382.7 121.6,382.6 
		120.6,381.5 120.5,380.9 120.3,380 120,379.1 120.2,378.6 120.2,377.5 120.2,377.1 119.7,376.6 119.3,376 119.4,375.4 119.4,374.9 
		118.8,374.3 118.7,374.2 118.5,373.9 118,373.1 117.7,372.8 117.9,372.6 118.2,372 118.5,371.9 119,371.9 119.1,371.7 119.3,371.3 
		119.3,370.8 119,370.3 118.7,370 118.5,369.7 118.5,369 118.7,368.7 118.7,368.3 118,367.6 117.4,367.3 117.4,366.7 117.4,365.9 
		117.4,365.4 116.8,364.8 116.2,364.1 116,364.1 116,363.6 116.2,363.3 116.4,362.8 115.9,362.7 115.3,362.4 115.1,362.4 115,362.4 
		114.4,361.9 114.2,361.6 113.7,361 113.1,360.7 112.1,360.2 111.8,359.8 111.6,359.8 111.3,359.9 110.5,360.2 110.4,360.2 
		110.2,360.4 109.6,360.8 109.5,361 108.4,361.5 107.8,361.8 107.2,361.3 107.2,361.1 107.6,361 107.6,360.8 107.2,359.8 
		107.2,359.6 106.4,358.8 106.1,358.7 104.6,358.2 103.3,357 103.3,356.9 103.2,356.2 103,356.1 103,355.9 103,355.5 102.7,354.4 
		102.7,354.3 102,353.2 102,353 101.8,352.7 101.8,352.4 102,352 102.6,352 102.7,352.1 103,352.1 103.6,352 103.8,351.8 
		104.1,351.5 104.1,350.6 103.9,350.1 104.1,349.2 104.4,348.7 104.4,348.6 104.1,347.5 103.9,347.2 104.1,346.6 103.9,345.8 
		103.6,345.4 103.5,345.5 103.2,345.5 102.7,345.5 101.3,343.7 101.8,343.4 102,342.9 101.8,342.6 101.6,342.5 101.5,342.5 
		100.7,342.5 100.3,342.5 100,342.5 99.4,341.7 99.2,341.5 99.2,341.2 98.7,340.2 98.7,340 98.6,339.5 98.6,339.4 98.6,339.1 
		98.7,338.8 98.4,337.9 97.7,337.2 97.4,336.8 96.9,336.5 96.7,336.2 96.6,335.7 96.4,335.3 96.3,334.8 95.8,334.6 95.5,334.3 
		95.4,334.3 95.1,334 95.1,333.7 94.9,333.4 94.9,333.1 94.9,333 95.1,333 95.1,332.8 95.1,332.3 94.8,331.9 94.4,331.6 94.3,331.4 
		94.1,331.1 93.2,329.9 93.2,329.6 93.2,328.7 93.4,327.6 93.5,327.1 93.5,327 93.7,326.5 93.7,326.4 93.5,326.2 93.5,326.1 
		92.9,325.5 92.5,325.1 92.3,325 92.3,324.5 92.3,324.4 92.5,323.9 92.5,323.8 92.2,323.2 91.7,322.5 91.7,322.4 92.2,321.8 
		92.8,320.9 92.8,320.5 92.6,318.6 92.5,318.6 92.2,318.4 91.4,318.4 91.2,318.4 90.9,318.6 90,318.4 89.9,318.4 90,318.3 
		90.6,315.8 91.1,315.5 91.1,315.3 91.2,315 91.4,314.9 91.4,314.4 91.2,313.8 91.1,313.5 90.6,313.2 89.7,312.7 89.1,312.4 
		88.6,312.6 88.2,312.7 88,312.7 87.4,312.6 87.4,312.4 87.4,312.3 87.6,311.7 87.7,311.2 87.7,311.1 87.6,310.7 87.4,310.7 
		86.9,310.3 86.5,309.5 86.5,308.9 86,308.8 86,308.6 85.9,308.6 85.7,308.4 85,307.8 84.6,307.7 84.3,307.5 84,307.7 83.1,308 
		83,308.1 83,308.8 83,309.5 83.1,310.1 83.1,310.4 83,310.7 82.5,310.6 82.3,310.6 82.2,310.7 80.8,311.8 80.2,312.7 80.2,313 
		80.2,313.5 80.1,313.8 79.7,314 79.4,314.1 79.1,314.1 78.8,314.1 78.7,314.1 78.5,314.1 78.1,314.7 78.2,315 78.2,315.2 
		77.9,315.6 77.1,315.8 76.7,315.8 76.1,316 75.8,316.3 75.5,316.7 75,316.7 74.5,316.4 74.1,316.1 73.6,316.1 73.3,316.1 
		73.2,316.6 73.3,316.7 73.3,317.3 73.2,317.6 72.5,318.9 72.2,319.5 71.8,319.8 70.7,320.2 69.6,320.9 69.2,320.7 68.6,319.9 
		68.4,318.9 68.3,318.9 67.5,318.1 66.4,317.6 66,316.7 65.8,316.4 65.7,316.1 65.2,315.8 64.9,315.6 64.9,314.9 64.9,314.6 
		64.6,314.6 64.3,314.4 64,314.6 63.7,314.7 63.2,314.9 62.9,314.6 62.6,314.3 62.6,314.1 62.1,314 61.2,314.4 60.9,314.1 60.9,313 
		61.2,312.7 61.4,312.4 61.7,312.1 61.8,311.8 61.7,311.2 61.2,311.1 60.9,310.3 60.9,310 61.1,309.8 62,309.4 62.1,309.4 
		62.4,309.2 62.6,309.4 63.2,308.9 63.7,308.3 64,306.5 63.8,306 63.7,305.5 63.7,305.4 63.7,305.2 63.5,305.1 62.4,304.2 
		62.1,303.5 61.7,302.6 61.4,302.2 61.5,301.9 61.8,301.6 62.3,301.2 63.7,299.3 63.7,299.1 63.7,298.9 63.5,298.9 63.5,298.8 
		63.7,298.5 63.8,298.2 64.3,297.9 64.7,297.9 64.9,297.9 65.5,298 66.1,297.7 66.4,297.6 67.3,297.9 67.9,298 68.9,296.5 
		68.9,296.3 68.9,296 68.9,295.9 68.7,295.3 68.3,295.1 67.9,294.7 67.3,293.3 67.3,293.1 67.8,292.5 67.8,292.1 67.8,291.1 
		67.5,290.7 67.2,290.2 66.6,289.9 66.1,289.8 66,289.6 65.8,289.3 65.8,288.8 66,288.5 66,288.4 65.8,287.8 65.8,287.6 65.5,287.6 
		65.3,287.5 65.2,287.3 65.2,287 65.3,286.7 65.8,286.2 66.3,285.9 66.3,285.8 66.4,285.6 66.6,285 66.7,283.9 66.7,283.8 
		66.6,283.5 66.3,283 65.8,282.9 65.7,282.9 65.2,282.6 64.4,282.1 64.3,281 64.3,280.9 64.9,279.8 64.9,279.6 65.5,279.8 
		65.8,279.8 66.3,280.3 66.6,280.1 67.2,279.6 67.6,279.5 67.8,277.8 67.8,277.3 67.8,276.9 67.6,275.8 67.6,275.7 67.5,275.5 
		67,275.2 67,274.4 67,274.1 67.2,273.8 67.6,274 68.1,273.8 68.4,273.7 68.7,273.2 68.9,273.1 68.6,272 68.7,271.7 69,271.2 
		69.3,270.6 69.5,270.3 69.6,268.9 69.6,268.6 69.3,267.4 69.9,266.6 70.4,266.3 70.7,266.2 70.9,266 71.2,264.6 71.3,264.3 
		71.3,263.4 71.3,263.3 71.2,262.9 70.7,262.6 70.6,262.2 70.6,261.1 70.6,261 70.6,260.8 70.7,260.8 70.9,260.8 71.2,260.6 
		71.5,260.8 71.6,260.8 71.6,261 72.2,260.8 72.5,260.6 73,259.9 72.9,259.6 72.7,259.4 72.7,259.1 73,258.3 73,257.9 73.3,257.4 
		73.6,257 73.6,256.8 73.6,256.7 73.6,256.5 73.5,256.4 73.5,256.1 73.6,255.7 74.1,254.8 74.1,253.9 74.2,253 74.2,252.7 
		74.1,252.4 73.9,251.9 73.6,251.8 72.9,251.5 72.9,251.3 72.1,251.5 71.5,251.5 71,251.8 70.7,251.9 70.2,251.6 69,252.2 69,252.7 
		68.4,253.1 67.6,253.1 67.2,252.8 66.7,252.7 66.1,252.5 65.3,252.2 64.7,252.4 63.8,252.8 63.5,252.8 63.4,252.8 63,252.7 
		62.6,252.4 62.6,252.1 62.7,251.9 62.7,251.5 62.4,251.3 61.8,251.1 61.8,250.8 61.7,250.4 61.7,250.1 62.1,249.8 62.4,249.3 
		62.6,248.5 62.4,248.1 62.3,247.9 61.7,247.2 61.7,247 60.8,246.7 60.6,246.7 60.6,246.6 60.3,246.6 59.8,246.4 59.7,246.4 
		59.7,246.6 59.5,246.9 59.2,247.6 59.1,247.8 58.5,247.8 58,247.9 57.7,248.4 57.5,248.5 57.4,248.7 57.1,248.7 56.9,248.7 
		56.2,247.8 56,247.6 56.3,247.2 56.3,247 56.5,246.7 56.6,246.7 56.8,246.7 57.1,246.2 57.1,245.9 57.2,245.2 56.5,244.1 
		56.3,243.9 55.5,243.6 55.2,243.8 54.8,243.6 54.5,243.2 54.2,242.9 53.7,242.4 53.6,242.3 53.6,242.1 53.6,241.8 53.4,241.8 
		53.1,241.8 52.8,241.8 52.5,242 52.2,241.7 51.9,241 51.3,240.7 51.1,240.3 51.1,240 51.1,239.8 51.3,239.7 51.1,239.2 50.6,239 
		50.3,238.9 50.6,238.4 50.8,238.4 51.1,238 51.1,237.7 51.1,237.2 50.9,236.7 51.1,236.4 51.4,236 51.4,235.8 51.3,235.5 
		50.9,235.2 50.6,235.1 50.2,234.8 50,234.6 49.7,234.3 49.3,233.5 48.8,232.6 48.6,232.5 48.6,232.3 47.7,232 47.6,232.2 
		47.6,232.3 46.8,232.3 46.8,232.2 46.8,232 46.7,231.2 46.2,230.8 46.2,230.3 46.2,229.7 46.2,229.2 46,229.1 45.9,228.5 
		45.9,228.3 45.7,228.3 45.7,228.2 45.6,227.9 45.3,227.6 45,227.7 44.8,227.6 44.4,226.8 44.2,226.5 44.2,226.3 43.9,225.9 
		43.7,225.4 43.7,225 42.7,224.2 42.5,223.7 42.1,222.7 41.6,222.2 41,221.7 40.7,221.6 40.5,221.4 39.9,221.4 39.8,221.1 
		39.6,220.7 39.6,219.9 39.3,219.6 38.4,219.4 38.4,219.3 37.9,219.1 37.9,219 37.9,218.7 38.1,218.1 38.4,217.9 38.2,217.1 
		38.1,217 37.8,216.7 37.6,216.7 37.5,216.4 37.2,215.8 37.2,215.1 36.7,214.7 36.2,214.7 35.9,214.8 35.6,214.7 35.5,214.4 
		35.2,214.4 34.3,214.4 33.9,214.4 33.5,213.9 33.5,213.6 33.3,213.5 32.7,213.5 32.1,213.5 31.6,213 31,212.8 30.7,212.7 
		30.1,212.2 29.5,211.8 29.5,211.6 29.3,211.2 29.2,210.7 28.9,210.1 28.9,209.8 28.9,209 28.6,208.9 28.3,208.9 28.1,208.6 
		28,208.1 27.8,207.9 27.7,207.8 27.1,207.3 26.9,207.3 26.7,207 26.4,207 25.7,207 25.5,207.2 25.4,206.9 25.2,206.4 24.9,205.8 
		23.7,204.9 22.9,204.7 22.6,204.4 22.6,204.3 22.5,204.3 22.5,204.1 22.3,204 22.1,203.7 22.3,203 22.6,202.7 22.8,202.6 
		23.8,202.4 24.3,202.6 24.6,202.7 24.9,202.6 25.2,202.1 25.4,202 25.4,201.5 25.4,201.4 25.1,201.4 24.3,200.9 24.1,200.9 
		24,200.1 23.8,199.8 23.7,199.7 23.7,199.5 23.4,199.2 23.4,199.1 23.4,198.9 23.4,198.6 23.4,198.3 23.2,198 23.1,198 22.9,198 
		22.3,197.7 22,197.4 22,197.1 22.1,196.6 22.6,196 23.2,195.5 23.8,195.5 24.6,194.6 24.4,193.4 24.4,192.9 24,192.2 23.7,192.2 
		23.2,191.7 23.1,190.9 23.2,190.5 23.5,190 23.5,189.9 23.7,188.9 23.7,188.6 23.4,188.2 22.6,187.4 22.5,187.3 22.3,187.3 
		22,187.3 21.7,187.1 21.5,186.7 21.5,186.3 21.7,185.7 21.5,185.4 21.1,185 20.9,184.8 20.6,185 20,185.1 19.9,185 19.7,184.7 
		19.7,184 19.7,183.7 19.5,183.4 19.2,183.1 19.4,181.7 19.5,181.4 19.4,180.7 18.6,180.2 18.5,179.9 18.5,179.8 18.3,179.5 
		17.6,179.8 17.4,179.6 17.2,179.5 16.9,179 16.9,178.8 16.6,178.4 16.3,177.6 16.2,177.3 16.2,177.2 16,177.2 15.7,176.7 
		15.7,176.5 15.6,176.4 15.4,175.6 15.3,175.5 14.6,175.3 14.3,174.7 14.3,174.2 14.2,173.9 13.9,173.2 13.9,173 13.6,172.7 
		13.4,172.4 13.1,171.8 12.8,171.9 12.8,171.8 12.7,171.6 12.5,171.6 12.5,171.5 12.5,170.3 12.8,166.9 12.8,166.7 12.8,166.4 
		13,165.8 13,165.2 13.1,163.1 13.4,160.8 	"/>
</g>
</svg>
