<?xml version="1.0" encoding="utf-8"?>
<!-- Generator: Adobe Illustrator 19.0.0, SVG Export Plug-In . SVG Version: 6.00 Build 0)  -->
<svg version="1.1" id="Layer_1" xmlns="http://www.w3.org/2000/svg" xmlns:xlink="http://www.w3.org/1999/xlink" x="0px" y="0px"
	 viewBox="0 0 500 500" style="enable-background:new 0 0 500 500;" xml:space="preserve">
<style type="text/css">
	.st0{fill:#D74B4B;}
</style>
<g id="XMLID_2_">
	<polygon id="XMLID_5_" class="st0" points="17.4,341.9 17.5,341.4 18.5,339.1 18.5,338.9 18.8,338.3 20.3,332.5 20.7,331.1 
		20.7,330.7 20.7,330.3 20.7,330.1 20.7,329.2 20.7,328.9 20.7,328.7 21,328.4 21.1,328.2 21.3,327.9 21.6,327 22.8,323.4 
		22.8,323.2 23,323.1 23.3,321.7 23.3,321.2 23.5,320.1 23.6,319.5 24.4,316.3 24.1,314.8 23.8,314 23.5,313.7 23.3,313.5 
		23.3,313.3 23.5,313 23.9,312.4 23.9,312.2 24.3,311.8 24.4,311.8 24.7,311.3 25,311 25.2,310.8 26.3,310.5 26.5,310.5 26.9,310.1 
		27.1,309.9 27.5,309.3 28.8,306.9 30.7,303.2 31.3,301.6 32.9,297.8 33.8,295 34.3,293.4 34.4,293 35.4,289 35.9,287.2 36.3,285.3 
		36.5,284.5 36.5,284.2 36.5,283.9 37,282.6 37.3,281.4 38.1,277.9 39,273.5 39.2,273 39.6,270.4 39.8,269.4 39.9,268.7 39.9,268.5 
		40.1,267.6 40.1,267.2 40.6,264.7 41.2,260.8 41.5,259.1 41.8,256.1 41.8,256 41.8,255.8 42,254.5 42.1,254.4 42.4,252 42.8,250 
		42.8,249.8 42.9,249.1 42.9,248.9 42.9,247.6 42.8,247.3 42.8,247.2 42.9,246.4 43.1,245.9 43.5,243.6 43.7,241.4 43.7,240.7 
		44,238.4 44.3,235.9 44.3,235.4 44,235.3 44,235.1 44,234.9 44,234.2 44,234 44.3,233.1 44.5,232.8 44.5,232.3 44.5,231.8 
		44.8,231 45.1,230.6 45.7,227.4 45.7,227.3 46.4,223.7 46.5,223.3 46.8,223.2 47.1,223 47.3,222.7 47.1,222.4 47,222.2 46.7,222.4 
		46.5,221.6 46.7,219.9 46.7,218.6 46.5,217.9 46.7,216.8 47,214.9 47.1,214.3 47.6,211 47.8,209.5 47.8,209.2 47.9,208 47.9,207.7 
		47.1,208 47.1,207.8 47,207.7 48.1,206.9 48.2,206.9 48.2,206.1 48.4,205.5 48.4,205.2 48.7,203.9 48.7,203.1 48.7,203 48.6,203 
		48.6,202.8 48.1,201.9 48.4,200.9 48.6,200.3 48.6,200 48.9,197.5 48.6,195.4 48.4,195.1 48.4,195 48.1,194.7 48.1,194.2 48.1,194 
		48.2,193.7 48.2,193.6 48.2,193.2 48.2,192.5 48.4,191.8 48.6,191.2 48.7,190.3 48.9,189.8 49,189.6 49,189.5 49.3,189.3 
		49.7,189.3 49.7,189.2 50,188.4 50.1,187.6 51.1,184.1 51.5,182.1 51.5,182 51.5,181.3 51.7,180.9 51.7,180.2 52.2,178.2 52.3,178 
		52.3,177.6 52.5,177.2 52.6,176 52.6,175.8 52.8,174.9 53.1,173.2 53.3,172.5 53.3,172.4 53.3,172.2 52.9,172.4 52.5,172.1 
		52.6,171.1 52.6,170.8 52.6,170.7 52.9,169.9 53.3,169.3 54.2,168.6 54.2,168.5 54.4,168 55.1,164.5 55.3,164.4 55.5,163.3 
		55.8,160.3 55.9,159.8 55.6,158.6 55.9,157 55.9,156.2 56.2,154.7 56.4,153.4 56.4,152.6 56.6,150.4 56.2,149.3 56.1,148.7 
		55.8,148.6 55.3,148.6 54,148.7 54,148.4 55,148.1 55.1,148.1 55.6,147.9 55.8,147.9 55.8,147.8 56.1,147.3 56.1,147.1 56.4,146.2 
		56.7,144.8 56.9,142.6 57,142.3 57,141.2 57,140.7 57,139.6 56.9,139.5 56.6,138.1 56.6,137.7 56.4,136.3 56.7,136 57,136 
		57.5,134.6 57.8,133.3 58.1,131.2 58.3,130.8 58.3,130.2 58.1,130.1 57.8,129.6 58.1,128.5 58.3,127.4 58.4,126.4 58.9,123.6 
		59.1,122.7 59.2,122.4 59.2,118.6 59.2,118.5 59.2,118.3 59.2,117.7 59.2,117.2 59.1,117 59.1,116.4 58.6,115.8 58,114.8 
		57.8,114.5 57.3,114.2 57,114.1 57,113.4 57.8,112.3 58.4,107.9 58.4,106.4 58.4,106.2 58.4,105.3 58.4,104.3 58.4,103.7 
		58.4,102.8 58.4,102.1 58.3,101.8 57.8,100.3 57,99.5 57,99 58.4,97.1 58.9,96.8 59.1,96.8 59.2,96.7 60,96.7 60.2,96.7 60.3,96.5 
		60.3,96.3 60.6,95.6 60.8,94.6 60.8,94.5 60.9,94 60.9,93.8 60.9,93.4 60.9,93.1 60.9,92.4 60.9,92.1 60.9,91.3 60.9,90.9 
		60.9,88.8 60.5,86.6 60.3,86 60.3,85.4 60.2,85.2 60,84.4 59.8,83.5 59.7,83 59.5,82.7 59.4,82.4 58.9,80.8 58.7,80.5 58.7,80.4 
		58.3,79.1 57.8,77.8 57.3,76.9 57,76.3 56.2,75.8 57,75.2 57.5,75.2 57.8,75.3 58.3,76.3 58.1,76.7 58.3,77.4 58.6,77.5 59.7,77.7 
		60.3,78 60.5,78 61.7,79.1 61.7,79.3 62.5,80 62.8,81 63.6,81.3 65.5,81.9 65.5,82.1 65.6,82.1 66.3,81.8 66.4,81.1 66.4,81 
		66.3,81 65.8,80.5 65.3,80 65.2,80 65,79.6 65.2,79.4 66.1,79.3 66.7,79.3 67.5,79.4 67.7,79.4 69.2,78.9 69.6,78.8 70.5,78.5 
		71.1,78.2 71.6,78.3 72.5,78.8 73.8,78.9 74.1,78.9 75.5,78.2 76,78 76.1,77.7 76.5,77.5 77.1,77.5 78.2,77.8 78.5,77.7 78.8,76.9 
		79,76.3 79.1,76.1 79.6,76 80.1,76 80.4,76.3 80.5,76.4 81.2,76.9 83.4,75.3 83.4,74.4 84,74.4 84.6,74.1 85.2,73.9 86,73.6 
		87.3,73.8 87.6,73.9 87.9,74.1 88.1,74.4 89,75.3 89.8,76.6 90.1,77.1 90.1,77.5 89.8,81 93.1,84 93.5,84 95.3,84.1 97,84.3 
		98.3,84.3 99.8,83.5 101.1,82.7 102.2,82.2 104.8,81 107.5,81.3 107.7,81.3 108.3,81.9 111.3,84 111.7,84.6 112.2,84.7 112.8,85.2 
		113,85.2 113.6,85.5 113.8,85.7 113.9,85.7 115.7,87.6 116.1,88.2 117.4,88.8 117.5,89 118,89.1 119.4,89.9 120.4,91.8 120.5,92 
		120.7,93.1 120.8,94.3 121.9,95.6 121.9,95.7 123,98.5 123.2,98.9 124.3,100.1 124.3,100.7 124.6,102.5 124.3,104 124.3,104.2 
		124.4,104.5 124.4,104.7 124.6,105 124.9,106.1 125.1,106.4 125.2,106.7 125.2,106.8 125.7,107.8 125.7,108.1 125.7,108.6 
		125.7,109.2 125.5,109.7 124.9,111.2 124.9,112.5 126.3,114.8 126.3,115 126.5,115 126.8,116.7 126.8,118.8 126.6,119.2 126,121.6 
		126,122.1 125.8,123.2 126.5,125 126.5,125.2 127.9,126.1 128.2,126.3 128.3,126.3 129.3,126.8 130.5,127.9 131.5,128.3 
		133.2,129.1 135.2,129.3 135.4,129.3 135.6,129.4 136.5,129.6 136.8,129.7 138.7,130.4 138.9,130.4 140.1,131 141,131.3 
		141.7,131.5 141.8,131.5 142,131.6 142.6,131.8 142.8,131.9 142.9,131.9 143.1,132.1 143.9,132.9 144,132.9 144.8,133.2 146.1,133 
		146.5,132.9 147,132.6 147.3,132.6 147.6,132.4 148.1,132.2 148.3,132.2 148.7,132.4 149.8,132.9 150.9,134.6 153.1,135.1 
		154.7,135.1 155,135.1 155.8,134.8 158.4,133.5 159.5,132.4 162.1,131.9 162.7,131.9 162.8,132.1 163.6,132.1 164.2,131.9 
		167.5,129.9 168.8,129.4 169.9,129.4 171.1,129 171.3,128.8 172.2,128.2 172.7,127.2 172.9,127.1 173.8,127.2 174.6,126.8 
		175.4,126.4 175.7,126.1 175.8,125.8 175.8,125 177.3,123.8 177.4,123.8 177.9,123.3 178.4,123.2 179.5,122.7 181,122.2 
		182.6,122.7 185.4,123.3 187,123.3 188.9,122.7 189.2,122.5 190.9,122.5 191.4,122.5 195.3,121.4 196.9,120.8 197,120.8 197.6,121 
		198.3,121.1 198.9,121.3 199.2,121.6 199.5,121.7 199.8,122.1 200.9,123 202.2,123.3 203.3,123.6 204.5,123.6 206.1,122.8 
		206.6,122.8 207.4,122.8 208.1,122.7 209.6,123.2 210.7,123.9 211,124.3 213.2,124.9 215.2,125.5 215.7,126.8 216,127.4 
		216.1,128.6 216.3,129 216.1,129.7 216.1,130.1 216.9,130.8 217.7,130.8 217.9,130.8 219.1,130.8 219.4,130.5 219.4,130.4 
		219.9,130.7 220.4,130.2 220.5,130.1 220.7,129.9 220.5,129.6 222.6,127.5 223.8,127.1 225.5,127.2 227.1,127.1 227.4,127.2 
		228.4,127.5 228.7,127.4 230.2,126.9 230.7,126.9 232.3,128.2 232.4,128.2 233.4,128 235,126.4 235.7,125.7 236.8,125.4 
		239.7,124.4 243.3,122.8 245.3,122.1 246.4,121 247.3,120.3 248.4,119.7 250.9,119.6 252.7,120.2 253.1,120.6 254.9,122.5 
		255.8,123.3 256.1,123.5 257.2,123.8 261.6,123.5 266,122.5 268.2,121.7 268.7,121.6 272.7,121.3 274.9,118.3 276.7,117.4 
		280.7,116.4 284.6,114.2 284.8,114.1 286.7,113.1 290,112.8 291.7,112.2 292.2,112.2 295.9,111.1 297.7,111.2 300.2,110.9 
		303.5,110.3 306,106.5 306.1,106.4 307.4,105.1 309.1,104.7 311.1,105.6 311.8,106.1 313.8,106.2 316,105.3 317.1,105.1 
		320.2,104.8 320.9,104.8 321.3,104.7 323.1,104 323.2,103.9 323.8,103.7 327,103.2 328.9,103.7 330.6,104.2 332,104.2 333.6,103.9 
		334.5,103.7 336.4,102.8 338.1,101.5 340.1,100.6 341.1,99.8 342.3,98.1 342.8,98.1 344.8,97.9 347.4,97.9 350,97.9 351.6,97.8 
		351.7,97.8 353.6,97.8 359.9,97.6 361,97.6 362.1,97.6 362.2,97.6 364,97.6 364.9,97.4 365.5,97.4 365.7,97.4 366,97.4 366.9,97.4 
		367.6,97.4 367.9,97.4 368,97.4 370.2,97.4 371.7,97.3 374.3,97.3 375.6,97.3 376.5,97.3 377,97.3 377.6,97.3 378.9,97.1 
		379.2,97.1 380.6,97.1 382.3,97.1 383.9,97.1 384.2,97 385,97 385.4,97 390.1,96.8 391.1,96.8 391.2,96.8 398.6,96.7 399.7,96.5 
		400.2,96.5 402.5,96.5 403.6,96.5 414.6,96.2 421,96 426.7,95.9 428.1,95.9 428.4,95.9 430.4,95.7 433.3,95.6 435.3,95.7 
		436.2,95.4 439.5,95.4 441.3,95.2 441.4,95.2 443.1,95.2 443.3,95.2 447.1,95.1 450.3,94.9 451.4,94.9 452.5,94.9 456.3,94.8 
		458.8,94.8 460.2,94.8 460.5,95.2 461.6,96.3 461.9,97.6 462.7,98.7 462.7,99 463,100.4 463.4,101 463.5,101.5 463.7,101.8 
		463.8,102 464.8,102.9 465.6,103.4 466.2,103.9 466.5,104 467.6,105.6 467.6,105.8 467.9,106.2 468.1,106.7 468.1,107 468.1,107.3 
		468.1,107.6 468.1,107.8 468.4,108.3 469.6,108.9 469.8,108.9 470.1,108.9 470.1,108.7 470.3,108.7 470.4,108.6 470.6,108.6 
		470.6,108.4 470.7,108.4 470.9,108.3 470.9,108.1 471,108.1 471.2,108.1 472.3,107.9 472.5,107.9 472.6,107.9 472.6,108.1 
		473.2,108.4 473.4,108.4 474,109.5 474.3,110.6 474.5,110.6 475.3,111.6 475.6,111.6 476.4,111.6 476.8,111.4 477,111.2 
		477.2,111.1 478.7,111.4 479.3,111.6 479.5,111.6 480.4,112.5 481.5,113.4 481.9,113.4 482,113.6 482.2,113.6 482.2,113.7 
		482.3,114.1 482.8,114.8 483,115 482.8,116.6 483,118.1 483.1,118.5 483.6,119.2 483.7,119.6 483.9,119.7 484.5,120.2 485.6,121.3 
		485.8,121.4 485.9,121.7 486.2,122.5 486.4,122.5 486.4,122.8 486.6,123.2 486.7,123.3 486.9,123.8 487.2,124.1 487.3,124.3 
		487.5,124.4 487.5,124.6 487.5,125.5 487.5,125.7 487.5,125.8 486.6,127.7 486.1,127.9 485.6,128.3 485.5,128.6 484.8,129.4 
		484.4,130.4 483.7,132.1 483.3,133 483.1,133.3 482.8,134.3 482.6,135.7 482.6,135.9 482.8,136.5 483,137.3 482.5,137.4 
		482.3,137.4 481.7,138.2 481.4,138.4 481.1,138.8 481.1,139 480.9,140.2 480.6,141.5 479.8,142.4 479.5,142.8 479,143.5 
		478.3,145.3 477.6,146.7 476.7,149 476.5,149.7 476.8,151.1 476.8,151.7 476.8,152.2 476.8,152.3 476.7,152.8 476.7,152.9 
		476.4,153.3 476.1,153.6 475.7,153.9 475.6,154.7 475.3,155.9 475,157.5 475,157.7 475.1,158.4 475,158.9 474.3,161.4 474.3,162.2 
		474.2,163.8 474,163.9 474,164.1 472.8,166.3 471.7,167.1 471.2,167.8 471.2,168 471.2,168.5 471.2,169.3 471.2,169.4 471.2,169.6 
		470.4,170.8 469.8,171.6 469,172.7 468.7,172.9 468.1,173.3 467.7,174 467.7,174.3 467.9,174.6 467.9,175.7 467.9,175.8 
		467.3,177.1 467.3,177.4 467.3,177.6 467.3,177.7 467.7,179.1 467.7,179.3 468.1,179.8 468.7,180.7 469,181.2 469,181.3 
		468.8,181.6 468.5,182 468.4,182.7 468.2,183.5 468.1,184.5 467.9,184.9 467.7,185.6 467.3,186.3 466.2,187.4 465.6,188.4 
		465.2,189 465.1,189.2 465.1,189.5 464.3,191.2 463.8,191.7 463.7,192 463.5,192.5 463.5,192.6 463.5,192.8 463.7,193.1 
		463.7,193.2 463.7,193.4 463.5,193.7 463.4,193.7 462.7,194.2 461.6,194.5 461.5,194.7 461.3,194.7 461,195.1 460.5,195.6 
		460.4,195.8 460.2,195.9 459.9,196.1 459.6,196.1 459.4,196.1 459.1,196.1 459,196.1 457.6,196.8 457.2,197.2 457.1,197.3 
		456.3,198.6 456.5,199 456.5,200.3 456.3,200.6 455.8,200.8 455.5,201.6 455.4,202 455.4,202.2 455.4,202.3 454.9,203.4 
		454.6,203.7 454.6,204.4 454.7,204.8 454.6,205.8 454,206.9 453.6,207 453.5,207.5 453.3,208 453.3,208.3 453.2,209.7 453.2,210.5 
		453.2,210.6 452.7,211.3 452.4,211.4 452.2,211.6 451.9,211.7 451.9,212.1 451.9,212.4 452.2,212.7 452.2,213.6 451.9,214.4 
		451.8,214.7 451.3,215.3 450.8,215.5 450,215.7 449.9,216 449.6,216.4 449.6,216.8 449.6,216.9 449.4,217.2 449.4,217.5 
		449.1,218.2 448.6,218.6 448.5,218.8 448.2,218.6 447.8,218.8 447.7,219 447.7,219.3 447.5,219.3 447.7,219.4 447.7,219.6 
		447.7,219.7 447.8,220.1 448.2,220.8 448.3,221.3 448.3,221.8 448.5,223.5 448.3,224 447.8,225.1 447.8,225.2 447.4,225.9 
		446.9,226 446.9,226.5 447.4,227.9 447.8,228.4 448.5,229 448.9,229.1 449.1,229.3 449.7,229.9 449.7,230.1 450.2,230.9 450.2,231 
		450,231.3 450,231.5 449.4,232.8 449.4,232.9 448.8,233.1 448.8,233.2 448.6,233.2 448.5,233.9 448.5,234 448.5,234.2 448.8,234.8 
		449.9,236 450.2,236.2 451.6,237.1 452.4,237.1 453.2,237.1 453.5,237 453.6,236.7 453.8,236.7 453.8,236.4 453.8,236.2 
		454.4,235.4 454.6,235.4 454.7,235.3 454.9,235.3 455.2,235.3 455.4,235.3 455.5,235.3 455.7,235.6 456,235.9 456,236 456.3,236.8 
		456.3,237 457.1,237.6 457.2,237.8 457.7,238.1 458.2,238.6 458.3,239.2 458.5,239.2 458.7,239.3 458.8,239.3 458.8,239.2 
		459,239.2 459,239 459.1,238.1 459.6,237.8 459.8,237.6 460.1,237.6 460.4,237.8 460.7,237.8 461.6,237.8 462.4,237.8 462.7,237.8 
		463,237.9 463.2,238.2 463.2,238.4 463.4,238.6 463.4,238.7 463.2,239.3 463.4,240.7 463.5,241.7 463.7,241.8 463.8,241.8 
		464.9,242.2 465.1,242 465.2,241.8 465.4,241.8 465.6,241.8 466.2,242 467.6,242.9 467.7,243.1 468.1,243.6 468.2,244.4 
		468.2,244.5 468.2,244.7 468.1,245 468.1,245.1 467.1,247 467,247.3 467,247.5 466.3,248.7 466.3,248.9 466,249.5 465.9,249.7 
		465.7,249.8 465.6,250 465.4,250 464.8,250.3 464.1,250.3 463.8,250.5 463.7,250.6 463.5,250.8 463.5,250.9 463.5,251.1 
		463.7,252.2 463.7,252.5 463.8,253 463.8,253.4 463.8,253.8 464,253.8 464.9,254.2 465.2,254.5 465.7,254.7 466,255.3 466.2,255.6 
		466.3,255.8 466.3,256 466.2,256.7 466,257.5 466,257.8 465.9,258.6 465.9,258.8 465.7,258.9 465.1,260 464.6,260.3 464.5,260.3 
		464.3,260.7 464.3,260.8 464.3,261 464.5,261.1 464.5,261.3 464.6,261.3 464.8,261.6 464.9,262.2 464.9,263.2 464.9,263.6 
		464.9,264.1 464.8,264.4 464.6,264.6 464.1,265.4 464.1,265.5 464.3,265.8 464.3,266.3 464.3,266.5 464.1,267.6 464.1,267.9 
		464,268.5 464,268.7 463.8,268.8 463.7,268.8 463.5,269 463.2,268.8 463,268.8 462.9,269 462.7,269 462.4,269.1 462.1,269.3 
		462.1,269.6 461.9,269.9 461.8,270.9 461.5,271.5 461.5,271.6 461.5,271.8 461.5,272.1 461.6,273.2 461.6,273.5 461.6,273.7 
		461.6,273.8 461.6,276 461.8,277.4 461.8,279.6 461.8,279.8 461.9,281.2 461.9,281.8 461.9,282.9 462.1,283.7 462.1,284 
		462.1,284.3 462.1,285.3 462.3,287.9 462.3,288.6 462.3,288.9 462.3,289.2 462.3,289.7 462.3,290.5 462.3,290.6 462.3,290.9 
		462.4,291.1 462.4,292.3 462.4,292.6 462.4,293.4 462.7,300.5 462.9,303.6 463.2,309.4 463.4,315.7 463.5,316.6 463.5,318.8 
		464.1,332.6 464.3,337.5 465.1,355.4 465.7,369.9 465.7,370.3 466,376.1 466.7,390.3 466.8,392.1 466.8,394.7 467,395.8 
		467.4,407.7 467.4,407.9 467.4,410.4 467.6,411.7 467.9,421.2 467.1,421.4 466.7,421.4 466.2,421.4 465.4,421.4 464.6,421.4 
		459.4,421.5 457.6,421.7 456.9,421.7 456.3,421.7 445,422.3 442.5,422.3 438.7,422.5 437.3,422.6 433.6,422.8 432.2,422.8 
		432,422.8 431.5,422.8 431.4,422.8 431.1,422.8 429.5,422.9 417,423.3 416.3,423.4 415.5,423.4 401.1,423.9 396.6,424 387.5,424.4 
		383.3,424.5 378.1,424.7 372,425 366.2,425.3 361.3,425.3 360,425.3 347.5,425.4 335,425.8 333.6,425.6 332.3,425.8 327.9,425.8 
		325.7,425.8 320.5,425.8 303.3,425.9 299.4,425.8 295.8,425.9 294.4,425.9 294.2,425.9 287.5,426.1 286.7,426.2 286.5,426.1 
		277,426.2 275.6,426.2 274.9,426.2 269.1,426.4 266.8,426.4 256.1,426.4 255.8,426.4 255.6,426.4 255.2,426.4 248.7,426.4 
		247.2,426.4 244.4,426.4 237.1,426.2 236.7,426.2 232.9,426.2 223.5,426.2 219.9,426.1 217.9,425.9 210.5,425.9 210.5,425.8 
		210.3,425.8 206.7,425.8 206.3,425.8 205.2,425.8 204.9,425.9 203.6,425.8 202.7,425.8 199.5,425.8 199.1,425.8 198.7,425.8 
		198.3,425.8 193.9,425.6 190.3,425.4 189.2,425.4 189,425.4 184.5,425.3 183.5,425.3 182.6,425.1 182.4,425.1 175.4,425 175.1,425 
		174,424.8 164.6,424.7 158.4,424.4 155.2,424.2 154.8,424.2 153.1,424.2 148.7,424 147,424 142.1,423.7 141.5,423.7 140.9,423.7 
		140.4,423.7 138.5,423.7 134.2,423.6 127.1,423.7 126,423.7 121.1,423.6 115.8,423.4 111.6,423.4 111.3,423.4 110.2,423.4 
		107.2,423.3 105.9,423.3 100.9,423.1 99.7,422.9 98.6,422.8 94.8,422.5 94.2,422.5 92,422.6 89.6,422.6 82.4,422.8 82.3,422.8 
		80.4,422.8 77.1,422.5 73.2,422.3 73,422.3 72.1,422.3 71.6,422.3 71.3,422.3 70.8,422.3 70,422.3 65.6,422.2 65.2,422.2 
		63.6,422.5 59.2,422.2 55.5,422 54,422 53.6,422 52.8,422 44.6,421.5 42.6,421.5 41.5,421.4 37.4,421.2 37.3,421.2 36.6,421.2 
		36.5,421.2 34.9,421.1 29.7,420.7 29.6,420.1 28.2,418.7 27.9,418.2 26.6,417 26.5,416.7 25.8,416.7 25.7,416.7 25.4,416.7 
		25.2,416.5 24.9,416.4 24.6,416.2 23.8,414.8 23.8,414.6 23.6,414.5 22.2,412.6 21.4,410.9 21.4,410.6 21.7,409.6 21.7,409.1 
		21.6,408.7 21.3,408.4 21,407.7 21,407.3 21.1,407.3 21.4,406.9 21.4,405.4 21,404.8 20.7,404.6 20.7,404.4 20.5,404.1 20.7,403 
		20.5,402.7 20.5,402.2 20.2,401.6 19.7,401 18.6,399.6 18.6,399.3 18.8,398.8 19.1,397.4 19.1,397.2 18.9,394.9 18.5,394.1 
		17.8,392.8 18,392.7 18.1,391.3 18.3,389.2 18.3,389.1 18.3,387.7 18.3,387.5 18.3,386.3 18.3,385.6 18,384.4 18,384.1 18.8,382.3 
		18.8,380.9 18.9,379.8 19.7,378.1 20.5,375.9 21.1,373.9 21.1,373.1 21,372.3 20.7,371.2 20.8,369.6 20.7,368.8 20.2,366.3 
		19.9,366 19.1,365.6 18.5,365.1 18,364.8 17.8,364.6 18.1,364 18.1,363.8 18.1,363.5 17.5,362.1 16.7,360.1 16.6,359.8 15.8,359.3 
		15.6,359.3 15.3,359.3 15.3,359.4 14.7,359.8 14.5,359.8 14.4,359.8 14.4,359.6 14.4,359.3 14.2,358.2 14.2,358 13.9,355.2 
		13.6,354 13.3,353.2 12.8,352.4 12.5,351 12.8,350.3 13.1,349.7 13.6,349.1 15.9,344.9 17,342.3 17.2,342.2 	"/>
</g>
</svg>
