<?xml version="1.0" encoding="utf-8"?>
<!-- Generator: Adobe Illustrator 19.0.0, SVG Export Plug-In . SVG Version: 6.00 Build 0)  -->
<svg version="1.1" id="Layer_1" xmlns="http://www.w3.org/2000/svg" xmlns:xlink="http://www.w3.org/1999/xlink" x="0px" y="0px"
	 viewBox="0 0 500 500" style="enable-background:new 0 0 500 500;" xml:space="preserve">
<style type="text/css">
	.st0{fill:#D74B4B;}
</style>
<g id="XMLID_3_">
	<path id="XMLID_4_" class="st0" d="M36.1,209.1h1.3l2.1,0.2h0.6h1.1l3.8,0.4h0.6l6.1,0.4l4.8,0.2h0.2l1.3,0.2h1.7l5,0.4h1.7h0.2
		h0.6h0.2l0.4,0.2h1.5l5.7,0.4h2.5l1.1,0.2h1.5l4.8,0.2l4,0.2l7.2,0.4h0.6h0.8l9.7,0.6h1.5l3.8,0.2l4.6,0.2h0.8h0.2h0.2l4.2,0.2
		l9.9,0.4h1.7h0.2h0.2h1.7l3,0.2h1.5h0.2h0.8l0.2-3.6v-1.5v-1l0.4-8l0.2-7.8v-0.8v-1v-1.1l0.2-0.6v-1v-1v-1.5v-0.4v-0.2v-0.6V184
		l0.2-0.6v-0.6v-1.1v-0.4v-0.2v-0.8v-1.1v-1l0.2-0.4v-0.4v-0.4v-1v-2.5v-0.2l0.2-1.5v-0.6v-0.6v-0.6v-0.2v-1l0.2-1V168v-1.3v-0.8
		l0.2-3.2l0.2-1.5v-0.2v-2.3l0.2-0.6v-2.5l0.4-7.8l0.2-2.5v-0.6v-0.4v-0.2l0.2-0.8v-1.1v-1.5v-0.4l0.2-3.2l0.2-1.1v-2.1v-0.2
		l0.2-1.7v-1.3v-1.1v-0.6l0.2-0.8v-0.2v-0.2v-0.2V127v-0.8v-0.4v-0.2v-0.2v-0.6l0.2-6.1l0.2-1.5v-0.6v-0.4v-2.1v-0.6v-0.2v-0.2v-0.2
		v-0.2v-0.2v-0.2v-0.4l0.2-0.2v-1.7V110v-1.3v-0.8l0.2-2.9v-1.7V102v-0.2l0.2-0.8v-1.3v-1.9l0.2-1.9v-2.3v-2.1l0.2-2.5v-3.2l0.2-3.2
		v-0.8v-0.4v-0.4v-0.6l0.2-1v-0.2v-1.1v-1.3v-0.4l0.2-6.1l0.4-9.7v-1.1l0.2-3.8l0.2-2.1l-0.2-0.2l0.2-0.8v-0.6v-0.6l0.2-5.3l0.2-3.8
		l0.2-7.4v-2.7l0.2-1.1v-2.9l0.2-5l1.3,0.2h3.4l2.1,0.2h1.7l3.2,0.2h1.9l9.5,0.2h0.4l3.6,0.2h0.2h2.9h0.6l0.6,0.2l0.2-0.2l3,0.2h3.4
		h0.2h0.2l0.2,0.2h3h0.4h1h0.2h0.2h0.2h1l1.1,0.2h0.4h1h0.6h0.2h1h1l6.3,0.2h0.8h1.7h1.7l7.1,0.2h1.1h0.2h2.5h0.8h0.6h0.6h1.1l1,0.2
		h0.2h1h0.6h0.2h1.3h1.3h0.6h0.8h1h0.4h1.9h0.4h0.2h1h0.6v0.2v-0.2l0.4,0.2h1.1h1.5h0.4h0.4h0.2h1.3h0.8h0.8h0.2h0.6h1.9h2.5h3.2
		h2.9h0.2V29l-0.2,6.9v2.5v1.7v1.3v3.2v7.4l-0.2,5.7V63v0.2v4.2v4.2v5.1v0.2l-0.2,1.1v2.9v0.8v6.5v7.6v1.7l-0.2,2.9v1.5v5.9v0.4h0.2
		h0.4h0.4l0.4-0.2l0.2-0.2v-0.2l0.2-0.2h0.2l0.6,0.2h0.2l0.2,0.2l0.2,0.2l0.6,0.4l0.2,0.2l0.2,0.2l0.4,0.4v0.2l0.2,0.2v0.2h0.2
		l0.4,0.6l0.4,0.2l0.4,0.4h0.2l0.4,0.6h-0.2l0.2,0.4l0.8,1l0.4,0.4h0.2l0.2,0.2l0.2,0.2v0.2l0.4,0.4l0.6,0.4h0.2l0.2,0.2l0.4,0.2
		v0.2l0.2,0.2h-0.2l0.2,0.2l0.2,0.2l0.4,0.2l0.6,0.2h0.2l0.2,0.2h0.2h0.2h0.2l0.2-0.2l0.6,0.2h0.2h1v-0.2l0.4-0.2v-0.2l0.2-0.2
		l-0.2-0.2l0.2-0.4v-0.4l0.2-0.2h0.2h0.4v0.2h0.2l0.2,0.2h0.8h0.2l0.2-0.2h0.2l0.4,0.2l0.2,0.2l0.2,0.4h0.2h0.2h0.2l0.4,0.2l0.4,0.2
		l0.2,0.4l0.2,0.2h0.4l0.4-0.2l0.4,0.4l0.2-0.2h0.2v-0.2v-0.2l0.2-1v-0.4h-0.2v-0.2V114v-0.4l0.2-0.4l0.4-0.6l0.2-0.2h0.2l0.4,0.2
		l0.2,0.2v0.2v0.2l0.2,0.2l0.2,0.4h0.2h0.2v0.2l0.2,0.2v0.2h0.2v0.2v0.2h0.2l0.4-0.2l0.2-0.2h0.2h0.2l1,0.4v0.2l0.2,0.4v0.2h-0.2
		h-0.4v0.2v0.2l0.6,0.4l0.2-0.2l0.4,0.2v0.2l0.2,0.2v0.2v0.2v0.4l0.2,0.2h0.2h0.2h0.2v0.2h0.2v0.4l-0.2,0.6v0.2v0.8l0.2,0.2v0.2h0.2
		h0.2v0.4v0.6v0.6v0.2l0.2,0.4v0.2v0.2v0.2v0.2h0.2l1,0.2l0.6-0.2l0.2-0.2h0.2h0.2v0.2h-0.2v0.2v0.2h0.2l0.2,0.2l0.4-0.2h0.4
		l0.2-0.2h0.4h0.2h0.4l0.2,0.2l0.2,0.2l0.2,0.2h0.2l0.2-0.2v-0.2h0.2h0.8h0.2l0.2-0.2V123v-0.2l0.4-0.2h0.2l0.2,0.2v0.4l0.2,0.2
		l0.2,0.2h0.2v-0.2v-0.2l0.2-0.2h0.2l0.2,0.2l0.2,0.2l0.6,0.6l0.2,0.2v0.2h0.2l0.2,0.2l0.6,0.2l0.6,0.2l0.2,0.2v0.2v0.2l0.2,0.2h0.2
		h0.2v-0.4h0.6h0.4h0.6l0.2,0.2h0.2l0.4,0.6h0.4l0.2,0.2h0.2h0.2v0.2h0.2v0.2v0.2h0.2h0.2h0.2v-0.2h0.2v-0.2l0.2-0.2h0.6l0.4,0.2
		h0.4h0.2l0.2-0.2l0.2-0.2l0.2-0.2l0.6-0.6l0.2-0.2h0.2l0.4,0.2h0.2l0.2,0.2h0.2h0.2h0.2v-0.2h0.2l1,0.4l0.2,0.2l0.4,0.6v0.2
		l0.4,0.4l0.4,0.6l0.2,0.2l0.2,0.2l0.8,1l0.6,0.4l0.2,0.2l0.4-0.2l0.4-0.2l0.4-0.2h0.2v-0.2v-0.2h0.2l0.2-0.2h0.2l0.2,0.2h0.2
		l0.2-0.2l0.4-0.6h0.2v-0.2v-0.8h-0.2l0.2-0.2l0.4-0.8l0.2-0.2l0.4-0.2h0.2v-0.2l0.8,0.2h0.2h0.2v0.2h0.2h0.2v0.2h0.2l0.2,0.2
		l0.4,0.2l0.2,0.2h0.6h0.4h0.2h0.2h0.4h0.2l0.6,0.2l0.2,0.2l0.6,0.2h0.4l0.8,0.2l0.4-0.4h0.2l0.4-0.6l0.2-0.2v-0.2l0.2-0.2l0.4-0.2
		h0.2h0.2h0.2l0.2,0.2l0.2,0.6l0.2,0.2v0.4L320,127v0.2v0.2l-0.2,0.2v0.2h-0.2l-0.2,0.2v0.2l-0.2,0.2h-0.2v0.2v0.4l0.2,0.2v0.2
		l0.6,0.6l0.2,0.2v0.2h-0.2v0.2h-0.2v0.2v0.2l0.6,1h0.2l1,0.4h0.2h0.4h0.6h0.2h0.6l0.2-0.2h0.4l0.2-0.2h0.2v-0.2h0.2v0.2l0.2,0.2
		v0.2h0.2v0.2h0.2h0.2h0.2l-0.2,0.8l-0.2,0.2v0.4l-0.2,0.2l-0.2,0.2l-0.2,0.2v0.2v0.2h0.2h0.2h0.2l0.2,0.2l-0.2,0.4v0.4l-0.2,0.2
		h-0.2v0.2h-0.2v-0.2l-0.2-0.2v0.2l-0.2,0.2v0.2v0.2l0.2,0.2l0.2,0.2l0.2,0.2l0.4,0.2h0.2h0.2l0.2-0.2v0.2h0.2l0.6,0.4l0.4,0.2
		l0.4,0.2l0.8,0.4h0.2h0.2h0.4l0.8-0.4l1-0.8v-0.2l0.2-0.2l0.6-0.2l0.2-0.2v-0.2v-0.2l-0.2-0.4l0.4-0.2l0.2,0.2h0.2v-0.2v-0.2V135
		v-0.2v-0.2l0.4-0.2h0.2h0.2h0.2v0.2v-0.2l0.4-0.2h0.2V134l0.2-0.2l0.2-0.2l0.2-0.4l0.2-0.6l0.2-0.2l0.2-0.2l0.4-0.2h0.2h0.2h0.2
		v0.2l1,0.2l0.8,0.6l0.8,0.6v0.2v1l-0.2,0.2v0.2v0.2v0.2l0.2,0.2v0.2h0.2h0.2l0.6,0.2h0.2h0.2l0.4-0.2l0.2-0.2h0.2l0.2-0.2l0.2-0.2
		l0.6-0.2h0.2h0.2h0.2l0.2,0.2h0.2l0.6,0.4v0.2l0.2,0.2l0.2,0.2v0.8v0.2l-0.2,0.4v0.2h-0.2v0.2v0.4v0.4l0.4,0.2l0.2,0.2l0.6,0.2h0.6
		h0.4h0.6h0.4l0.2-0.2h0.2l0.2-0.4l0.4-0.6l0.2-0.6l0.2-0.4v-0.2l0.2-0.2h0.2v0.2v0.2h0.2h0.2l0.2-0.2v-0.2v-0.2h0.2h0.2l0.2,0.2
		l0.2,0.2v0.2h0.2h0.2v0.2h0.2h0.6v-0.2l0.2-0.4l0.2-1v-0.2v-0.2h0.2l0.4-0.4h0.2h0.4h0.2l0.2,0.2l0.2,0.2l0.4,0.2l0.2,0.2v0.2
		l0.4,1.3l0.2,0.6v0.2l-0.2,0.4h-0.4v0.2h-0.2H352h-0.2l-0.2,0.4v0.4v0.2v0.2v0.2l0.4,0.6v0.2l0.2,0.4l0.2,0.6l0.4,0.8l0.2,0.2
		l0.2,0.2l0.2,0.2h0.2v0.2h0.4l0.6,0.2h0.2l0.2-0.2h0.2l0.2-0.2l0.2-0.2h0.2v-0.2v-0.2l0.2-0.2V142v-0.4v-0.2v-0.4l-0.4-0.6v-0.2
		v-0.2v-0.2h0.2v-0.2v-0.2l0.4-0.2h0.4h0.2l0.2-0.2V139v-0.2v-0.2v-0.2v-0.2h0.2h0.2l0.2,0.2l0.6-0.4l0.2-0.2l0.4-0.4l0.2-0.6h0.2
		v-0.2l0.4-0.4v-0.2v-0.2v-0.4v-0.2l-0.2-0.4l-0.2-0.6v-0.2V134v-0.2v-0.2l0.2-0.2l0.2-0.2h0.2v0.2v0.2v0.2v0.2h0.2v0.2l0.8-0.4
		l0.2-0.2l0.4-0.4h0.2l0.2-0.2h0.2l0.2,0.2h0.2v0.2l0.2,0.2v0.2l0.2,0.4v0.6v0.2v0.2v0.4l0.2,0.2l0.2,0.8l0.2,0.4l0.4,0.4v0.2
		l0.2,0.2l0.4,0.2h0.2h0.2l0.2-0.2v-0.6v-0.2h0.2v-0.2h0.2h0.6l0.6,0.2h0.2l0.2,0.2h0.2v0.2l0.2,0.4v0.4l0.2,0.6h0.2v0.2h0.2h0.2
		l0.4-0.2h0.2l0.8-0.2h0.2h0.2v-0.2h0.2V138l0.2-0.2v-0.2h0.2v-0.2v-0.2l0.2-0.2v-0.4v-0.2v-0.4l0.2-0.4v-0.2v-0.2l0.2-0.2V135v-0.2
		h0.2h0.2l0.2,0.2h0.2l0.2,0.2l0.6,0.4v0.2h0.6h0.2l0.6-0.2h0.2v0.2v0.2v0.2l-0.2,0.2l-0.2,0.2h-0.2l-0.4,0.2l-0.4,0.6l-0.2,0.2v0.2
		v0.2h0.2h0.2v0.2l0.6,0.2h0.2h0.2v0.2h0.2l0.6,0.4h0.2h0.6h0.4v-0.2h0.2h0.2l0.2,0.2l0.2,0.4v0.2v0.2h0.2v0.2v0.4v0.2l0.4,0.4h0.2
		h0.4h1l0.2-0.2l0.2-0.2h0.2h0.2l0.4,0.2h0.2v0.2h0.2v0.2l0.2,0.4v0.2l0.2,0.2l0.2,0.2l0.6,0.6h0.2v0.2l0.4,0.4l0.2,0.2v0.6v0.2h0.2
		v0.2l0.2,0.2h0.2h0.2l0.2-0.2l0.6-0.2l0.2-0.2v-0.2l0.2-0.4l0.2-0.2v-0.2v-0.2v-0.4v-0.4v-0.2v-0.2h0.2v-0.2v-0.2l0.2-0.2l0.6-0.2
		h0.2l0.8,0.4l0.4,0.2l0.4,0.4h0.4l0.8-0.2v-0.2h0.4l0.4-0.2v-0.2l0.2-0.2v-0.2v-0.2l0.2-0.6v-0.2l-0.2-0.2H388v-0.2h-0.2v-0.4h0.2
		l0.4-0.2h0.4l0.2-0.2l-0.2-0.4v-0.2l0.2-0.2h0.2h0.4h0.2h0.2l0.4,0.2l0.2,0.2h0.2v-0.2v-0.2v-0.2h-0.2v-0.2h0.2h0.4l0.8,0.2
		l0.4,0.2h0.2h0.2l0.2-0.2l0.2-0.4l0.2-0.2v0.2h0.2v0.2v0.2l0.6-0.2l0.2-0.2v-0.2h0.2l-0.2-0.4h0.2v-0.2h0.2l0.2,0.2l0.2,0.2h0.2
		h0.8h0.2v-0.2h0.2l0.2-0.4v-0.2v-0.2v-0.2v-0.2l0.4,0.2l0.2,0.2l0.4,0.2l0.6,0.2l0.2,0.2l0.2,0.2l0.8,0.4l0.4,0.2l0.2,0.4h0.2h0.2
		h0.2h0.2v-0.2h0.2v-0.2v-0.2h-0.2v-0.2v-0.2l0.6-0.2h0.2l0.4,0.2l0.6,0.6l0.4-0.2h0.2l0.2-0.2v-0.2l-0.2-0.4l-0.2-0.2v-0.2v-0.2
		v-0.2l0.2-0.2V135l0.4-0.2h0.2l0.4,0.2h0.2l0.2,0.2l0.2,0.2h0.6l0.4-0.4l0.4-0.2l0.2-0.4l0.2-0.2h0.2l0.4,0.2l0.4-0.2l1-0.6
		l0.2-0.2l0.2-0.4h0.4h0.6h0.2h0.2v0.2h0.2l0.2,0.6v0.4v0.2v0.4v0.2l0.2,0.2v0.2h0.2h0.2l0.2-0.2h0.2l0.2-0.2l0.2-0.2h0.2v0.2v0.4
		h0.2v0.2h0.4l0.4-0.2h0.2l0.2-0.4h0.2l0.2,0.2v0.2l-0.2,0.2h0.2l0.4,0.2h1.1h0.2h0.2h1.1h0.8l0.4-0.2h0.2v-0.4v-0.4h0.4l0.6,0.2
		l0.6,0.2l0.2,0.2l0.2-0.2V135v-0.2v-0.2v-0.2v-0.2h0.2V134h0.2l0.2,0.2h0.2l0.2-0.2l0.2-0.4v-0.2l-0.2-0.4v-0.2v-0.2l0.8-1.1h0.2
		h0.2h0.2l1.1,0.4l0.4,0.2l0.2,0.2l0.2,0.2h0.2h0.2h0.6h0.2h0.2v0.2v0.2v0.2v0.2h0.2l0.4,0.2h0.2l0.2,0.2l0.2,0.2v0.2v0.2h0.4
		l0.2-0.2h0.2v-0.2l0.2,0.2l0.2,0.2v0.4l0.4,0.8l0.2,0.2h0.2h0.2h0.2h0.2h0.2l0.4-0.2l0.2,0.2l0.2,0.2l0.2,0.2h0.2h0.2l0.2-0.4
		l0.2-0.2v0.2l0.2,0.4v0.6h0.4l0.2,0.4v0.2v0.2l0.2,0.2l0.2,0.2h0.2l0.2-0.2h0.2l0.2,0.2v0.2v0.2v0.2v0.2v0.2l0.2,0.2l0.2,0.2h0.2
		l0.4,0.2l0.2,0.2v0.2l0.2-0.2h0.2v0.2v0.2v0.2l0.2,0.2l0.2,0.2h0.4l0.2,0.2h0.4h0.4v-0.2h0.2v-0.2v-0.2h0.2h0.2h0.2l0.4,0.2h0.2
		l0.4-0.2l0.2-0.2h0.2l0.2,0.2v0.2l-0.2,0.2l0.2,0.2v0.2l0.2,0.2l0.2-0.2l0.2,0.2h0.2l0.2,0.2v0.2v0.2v0.2v0.2l0.2,0.2h0.2l0.2-0.2
		v-0.2h0.2h0.2l0.2,0.4l-0.2,0.2l0.2,0.2v0.2h0.6h0.2l1-0.4h0.2l0.2,0.2v0.2v0.2v0.2l0.2,0.2h0.4V143h0.2v-0.2l0.2-0.2l0.2,0.2h0.2
		v0.2h0.2h0.2h0.2l0.2-0.2h0.2h0.2l0.2,0.2l0.2,0.2v0.2v0.2v0.2h0.2l0.2-0.2l0.2,0.2v0.2l0.2,0.2l-0.2,0.2l0.2,0.2h0.2l0.2-0.2h0.2
		l0.2,0.2v0.2v0.2v0.2l0.2,0.2l0.6-0.2l0.4-0.2h0.2l0.2-0.2v-0.4h0.2h0.4h0.2v-0.2l0.2-0.2l0.4,0.2v0.2l-0.4,0.2h-0.2v0.4h0.2h0.2
		v0.2v0.2l-0.4,0.2l-0.2,0.2v0.2l0.4,0.2l0.2,0.2h0.2h0.2l0.2-0.2l0.2,0.2h0.2v0.2l0.6,0.8h0.2h0.2l0.2-0.2l0.4-0.4v-0.2l0.2,0.2
		v0.2v0.2v0.2h-0.2h-0.2l-0.2,0.2v0.2v0.2l0.2,0.2v0.2h0.2h0.2h0.2h0.2h0.2h0.2h0.2l0.2-0.2v-0.2l-0.2-0.4l0.2-0.2h0.2V147v0.2h0.2
		l0.2,0.2v0.2v0.2h0.2h0.2v0.2l0.4-0.2l0.2-0.2v-0.2V147l0.2-0.2v-0.2l0.2-0.2h0.2h0.2v0.2v0.2l-0.2,0.2l-0.2,0.2l0.2,0.2h0.4h0.2
		v-0.2l0.2-0.4l0.2-0.2l0.2-0.2l0.2-0.2l0.2-0.2h0.2l0.2,0.2v0.2l-0.2,0.2h-0.2l-0.2,0.4v0.2v0.2l0.6,0.2h0.2h0.2l0.2-0.2l0.2-0.2
		V147h0.2h0.2v0.2v0.2h0.2h0.2v-0.2v-0.4l-0.2-0.2h-0.2H458h-0.2h-0.2v-0.2l0.2-0.2h0.2l0.2,0.2v-0.2h0.2l0.2-0.2l0.2-0.2v-0.2
		l0.2,0.2h0.2h0.4l0.2,0.2l-0.2,0.2l0.2,0.2h0.2l0.2-0.2h0.2v0.2l-0.2,0.2l-0.2,0.2h0.2v0.2h0.2l0.2-0.4h0.2v0.2v0.4v0.2l0.2,0.2
		l0.2-0.2V147v-0.2h0.4l0.2-0.2h0.2l0.2-0.2h0.2h0.2h0.4h0.2v0.2h0.2h0.2v0.4h-0.2h-0.2h-0.2v0.2v0.2h0.2h0.2h0.2h0.2h0.2h0.2v0.4
		v1.9v0.2v0.2l0.2,0.8v0.4v0.2v0.2v0.2v0.4v0.2v0.2v0.4v0.4v0.2v0.4v0.4v0.2v0.2l0.2,0.4v0.6v0.2v0.2v0.2v0.2v0.4v2.5l0.2,0.4v0.6
		v0.4v1.1v0.4v0.2l0.2,1.7v0.6v0.4v0.2v0.6v1.1v0.6l0.2,2.5v0.6v1.7v0.4l0.2,0.8v1.1v0.6v0.2v0.6v0.4l0.2,1.7v1.3v0.6v0.2v0.2v0.4
		v0.4l0.2,2.5v0.2v1.1v0.6v0.4v0.2l0.2,0.8v0.2v0.4v0.2v0.2v1.5v0.2l0.2,1.9v0.4v0.6v0.2v0.2v0.2v0.2v0.2v0.4v1v0.2l0.2,1.3v0.4v0.8
		v0.4v0.8l0.2,1.5v1.3v0.4v1.9v0.4l0.2,1v0.4v0.8v0.4v1v0.4v0.4l0.2,2.1v0.6v2.1l0.2,0.2v0.2v0.2l0.4-0.2l0.4,0.2l0.2,0.2l0.2,0.2
		v0.2l0.2,0.2v0.2l0.2,0.4l0.2,0.2l0.6,1l0.2,0.2l0.2,0.2l0.6,0.4l0.4,0.2h0.2l0.2,0.2v0.2l0.2,0.2l0.2,0.2l0.2-0.2h0.4h0.2v0.2v0.4
		l0.2,0.2l0.4,0.2v0.4v0.2l0.2,0.4h0.2l0.2,0.2v0.2v0.2v0.4l0.2,0.2v0.2l0.6,0.4h0.4l0.2,0.2v0.2v0.2l0.2,0.2l0.2,0.2v0.2h0.2v0.4
		v0.2v0.2l-0.2,0.2v0.4l0.2,0.4l0.2,0.2l0.2,0.6v0.2v0.2h0.2l0.2,0.2h0.2v0.2v0.2v0.4l-0.4,0.4l-0.2,0.2h-0.2v0.2v0.2v0.2l0.2,0.4
		l0.2,0.4v0.8v0.4h-0.2h-0.2v-0.2l-0.4,0.6v0.2v0.2l0.2,0.4l0.4,0.8v0.2l0.2,0.2v0.2l0.8,0.8l0.4,0.4h0.4h0.8h0.2h0.2h0.2v0.2v0.2
		h0.2h0.2l0.2,0.2v0.2v0.4l-0.2,0.2v0.2l-0.2,0.2h-0.2v0.2h-0.2v0.2v0.2l0.2,0.2l1.3,1h0.2l0.2,0.2v0.4l-0.2,0.4v0.4h0.2h0.2
		l0.2,0.2l0.4,0.2h0.2v0.2h0.2v0.4v0.4h0.2l-0.2,0.2l0.2,0.2v0.2h0.2v0.2h-0.2v0.2v0.2l-0.2,0.4l-0.2,0.4l-0.4,1l0.2,0.2v0.2h0.4
		l0.2,0.2l0.6,0.6l0.2,0.4l0.4,0.2l0.2-0.2h0.2h0.4l0.2,0.4v0.2v0.2v0.4v0.4v0.2h0.2l0.2,0.2v0.2v0.2v0.6l0.2,1l0.2,0.2v0.2l0.4,0.2
		h0.2h0.2l0.2-0.4v-0.2h0.2l0.2-0.2l0.2-0.2h0.2h0.6v0.2h0.2l-0.2,0.4v0.2v0.4l-0.2,0.2l-0.2,0.2v0.4l0.2,0.2v0.2v0.2l0.2,0.2
		l-0.2,0.4l-0.2,0.4v0.2v0.2v0.2l0.2,0.4l0.2,0.2l0.4,0.2l0.2,0.2v0.2v0.2l-0.2,0.2v0.2l0.4,0.6l0.2,0.2v0.2v0.2l-0.8,0.8l-0.6,0.2
		l-0.4-0.2v0.2h-0.2v0.2v0.4l0.2,0.6l0.2,0.2l0.4,0.2l0.4,0.4l0.4,0.2l0.2,0.6v0.4l-0.2,0.2l-0.4,0.2h-0.2l-0.2,0.2v0.2v0.2v0.2
		l-0.2,0.4H486v0.2v0.6l0.2,0.2h0.2v0.2v0.6v0.4v0.2l0.2,0.2v0.2v0.2l-0.2,0.8l-0.2,0.2H486l-0.2,0.2l-0.4,0.2v0.2v0.2v0.4l-0.2,0.4
		v0.2l-0.6,0.4v0.2l-0.2,0.2l-0.2,0.2v0.2h0.2l0.2,0.4v0.2v0.2l-0.2,0.2v0.2l-0.2,0.4v0.2v0.2l-0.2,0.6l-0.2,0.2l-0.2,0.2h-0.2h-0.2
		h-0.2l-0.4,0.6h-0.2l-0.4,0.8v0.4v0.4v0.2v0.2v0.2l0.2,0.2v0.2v0.2l-0.2,0.2H482h-0.2l-0.6,0.2l-0.4,0.4l-0.2,0.2v0.2v0.2l0.2,0.4
		l-0.2,0.6l-0.2,0.2h-0.2v0.2l0.4,0.2l0.2,0.2l0.4,0.2v0.2l0.2,0.2v0.2v0.4l-0.2,0.2l0.2,0.4v0.4h0.2v0.2v0.2l0.2,0.4l0.2,0.6v0.2
		v0.4h-0.2l-0.6,0.4l-0.2,0.4l-0.4,0.4v0.2l-0.2,0.2h-0.2h-0.2v0.2h-0.2v0.2v0.2l0.2,0.6v0.2v0.4v0.2l-0.2,0.2v0.4l-0.2,0.2l0.2,0.2
		l0.6,0.6l0.2,0.2v0.2h0.2l0.2,0.2h0.2l0.2,0.2h0.2h0.2v0.2h0.2v0.2v0.2v0.2v0.2v0.8v0.2l0.2,0.2v0.2l-0.2,0.2l-0.2,0.4v0.4h-0.2
		v0.4l0.2,0.8l0.2,0.4l0.2,0.2l0.2,0.2v0.2v0.2l0.2,0.4l0.2,0.2l0.2,0.4l-0.2,0.2h-0.2v0.2v0.2v0.2v0.4l-0.2,0.2l-0.2,0.2v0.2
		l-0.4,0.4h-0.2l-0.2,0.2v0.2v0.2h0.2l0.4,0.4h0.2h0.2v0.2h0.2h0.2v0.2v0.2h-0.2h-0.2l-0.4,0.2h-0.2l-0.2,0.2v0.2l-0.2,0.2l-0.2,0.2
		v0.4v0.2l-0.2,0.2l-0.2,0.2l-0.4,0.4l-0.8,0.4v0.2l-0.2,0.2l-0.4,1l-0.2,0.4l-0.2,1v0.6l-0.2,0.2l-0.4,1l-0.2,0.4l-0.6,0.8v0.2
		h-0.2l-0.2,0.2l-0.2,0.4l-0.8,0.4l-0.2,0.2h-0.2l-0.4,0.4l-0.2,0.2l-0.2,0.2l-0.2,0.4v0.4v0.2l0.2,0.4l0.2,0.2l0.8,0.6h0.2l0.2,0.4
		v0.2l-0.2,0.2l0.2,0.2v0.2l0.6,0.2h0.2l0.4,0.6l1,1.3l-0.6,0.6l-0.6,0.2h-0.8l-1.5-0.2h-1h-1.3h-0.2h-0.2l-0.2,0.2l-1.7,0.4
		l-2.9,1.1l-8,4l-0.6,0.2l-0.8,0.4l-2.3,1.1h-0.2l-1.3,0.8h-0.2l-1.9,1l-0.6,0.4l-0.8,0.4h-0.2l-0.2,0.2l-1,0.6h-0.2v0.2l-1,0.6
		l-0.4,0.2l-0.2,0.2l-0.2,0.2l-0.6,0.4l-0.4,0.4l-0.6,1L446,325h-0.6l-0.6,0.4h-0.4h-0.2h-0.2v-0.2v-0.4l0.6-0.8l0.4-0.4l0.4-0.4
		l0.2-0.2l0.4-0.4l0.2-0.2l0.2-0.2l0.4-0.2l0.8-1.3v-0.2l0.4-0.2l0.2-0.2h0.4l0.4,0.2h0.8l0.8-0.4l0.4-0.4v-0.6v-0.2l0.2-0.2
		l0.4-0.6l0.4-0.2h0.6l0.2,0.2l0.6,0.4l0.8-0.2l0.6-0.2l-0.4-0.8h-0.2l-0.6-0.2V317l-0.6-0.8h-0.2l-0.4-0.2l-0.6,0.2l-0.2,0.2
		l-0.6,0.4l-1.1,0.4h-0.4l-0.4,0.2l-0.8,0.2l-1,0.2v0.2l-1,0.2l-0.8,0.2l-0.8,0.2h-0.4l-0.4-0.2l-0.2-0.4l-0.2-0.4l0.4-0.2l0.2,0.2
		h0.2l0.2-0.4l0.2-0.4l0.2-0.2l0.6-0.6l0.2-0.2l0.2-0.6l0.6-1.1l0.2-0.6v-0.4V313v-0.6l0.2-0.4v-0.6v-0.2v-0.4v-0.2v-0.6v-0.2h-0.2
		l-0.2-0.8l-0.4-0.6l-0.4-0.6v-0.2l-0.4-0.4H445h-0.2h-0.2l-0.2,0.2l-0.6,0.4l-0.8,0.2l-0.4,0.2l-0.6,0.4v0.2l-0.2,0.2l-1,1.1
		l-0.2,0.4l-0.2,0.4l-0.2,0.2v0.2v0.6l-0.2,0.4l-0.8,0.4l-0.8,0.4l-0.2-0.2l-0.4-0.4v-0.2H438v-0.2v-0.4l-0.2-0.2l-0.2-0.2h-0.4
		l-0.4-0.2l-0.4,0.8l-0.2,0.2l-0.2,0.2l-0.2,0.2l-0.4,0.4l-0.2,0.2l-0.2,0.4v0.2l-0.2,0.2l0.2,0.2v0.2l0.2,0.4l0.4,0.2h0.2v0.2h0.2
		v0.2l0.2,0.2v0.2l-0.2,0.2v0.2h-0.2l-0.4,0.6v0.2h-0.2l-0.2,0.6v0.2v0.2v0.4l0.2,0.2l0.4,0.6l0.6,0.4h0.2l0.8,0.2l0.2,0.2h0.2h0.8
		h0.2l0.6,0.2v0.4h-0.2v0.2l-0.4,0.6l-0.2,0.8l0.4,0.2h0.2l1,0.6l0.2,0.6v0.2v0.6v0.4v0.2v0.4l0.2,0.4v0.2l-0.2,0.2v0.2l-0.2,0.8
		v0.4l0.2,0.8v0.2v0.2h0.2v0.2h0.2l0.2,0.2h0.4l0.2-0.2h0.4l1-0.4v-0.4v-0.4v-1l0.4-0.4l0.6,0.4l0.6,0.4h0.2h0.2h1v-0.2h0.6l0.4,0.2
		H446l-1.3,1.3l-0.4,0.4l-0.2,0.2l-0.4,0.2l-0.4,0.2l-0.2,0.2l-0.4,0.4h-0.2v0.2l-0.2,0.2l-0.4,0.2l-1,0.8l-0.4,0.2l-0.6,0.4
		l-1.1,0.8v0.2l-0.6,0.2l-1,0.8l-0.4,0.2v0.2l-1.7,1.1l-1.7,1.5l-0.2,0.2h-0.2l-0.6,0.6l-0.4,0.4l-0.2,0.2v0.2l-0.2,0.2v0.4
		l-2.3,1.7l-0.2,0.2l-1.7,1.5l-0.4,0.4l-0.8,0.8l-1,1.1l-0.4,0.4l-1,0.6l-0.8,0.6l-0.8,1v0.2l-0.2,0.4l-1.3,0.2l-0.8,0.2l-0.4,0.2
		l-1.1,0.6l-0.2,0.2L418,349l-1.1,0.8l-1,0.6l-0.2,0.2l-0.2,0.2l-1.1,0.6l-0.4,0.2l-2.9,1.9l-0.8,0.4l-3.6,2.3l-1.5,0.8l-1.1,0.6
		l-1.3,0.6l-2.1,1.1l-0.8,0.4l-1,0.4l-0.4,0.2l-0.6,0.4l-1,0.4l-4.4,2.5l-1,0.4l-0.2,0.2l-0.6,0.4v0.2l-1,0.6l-1.3,1l-0.6,0.6
		l-0.2,0.2l-0.6,0.2l-1.1,1l0.2,0.4l-0.4,0.2v-0.2l-0.2-0.2l0.2-0.4l0.2-0.2l1.1-1.1l0.2-0.2l1-0.6l1.1-1l0.2-0.2l0.2-0.2l0.6-0.2
		h0.2l1-0.6l0.2-0.2v-0.4l2.7-1.5l1.5-0.6l2.1-1.3h0.6l0.8-0.6l1-0.2v-0.4V358v-0.8l0.2-0.4l-0.4-0.2l-0.4-0.2l-0.2,0.2l-0.2,0.2
		h-0.2h-0.4h-0.4h-0.2h-0.4v0.2h-0.2l-0.2,0.2l-0.4,0.4l-0.8,0.4H396l-1.5,0.6h-0.2l-1.5,0.8l-0.4,0.4l-0.8,0.2h-0.4l-0.2-0.6v-0.2
		l0.4-0.2l0.4-0.4v-0.4l-0.6-0.8l0.8-1h-0.2l0.8-1v-0.4l-0.2-0.2h-0.2H392h-0.4h-0.2l-0.2,0.2h-0.2l-0.4,0.2l-0.6,0.4h-0.2l-0.2-0.2
		l-0.8,0.2l-0.6,0.6v0.4v0.6v0.2h-0.6l-0.4,0.2l-1.5,0.6l-0.2,0.2l-0.2,0.2l-3.4,1.9l-0.4,0.2l0.2-0.4v-0.8l-0.2-0.4l-0.2-0.2
		l-0.8-0.2l0.6-0.4v-0.2l-0.2-0.4H381h-0.4l-0.2-0.2h-0.2h-0.6l-0.2-0.2h-0.4l-0.2,0.2l-0.2-0.2l-0.2-0.8v-0.4l0.4-0.6v-0.2v-0.2
		h-0.2l-0.4-0.2h-0.2v-0.2v-0.2v-0.2l-0.2-0.2v-0.2h-0.2h-0.2l-0.6,0.2l-0.2,0.2h-0.4l-0.2,0.2H376h-0.2l-0.2,0.2l-0.4,0.2l-0.2,0.4
		l0.2,0.4l0.6,0.4l0.4,0.4v0.2v0.2v0.2l0.2,0.2h0.2l0.2,0.2h0.2v0.2v0.2l-0.2,0.4h-0.2v0.2v0.2h0.2v0.2v0.4l0.2,0.2v0.2v0.2v0.2h0.2
		h0.4h0.2h0.8l0.4,0.2v0.2v0.2h0.2l0.6,0.4h0.2v0.2h0.4h0.2v0.2l0.2,0.4l0.2,0.4l0.2,0.4l0.4,0.2h0.2l0.4,0.4l0.8,0.4l0.4,0.4l1.3,1
		l0.2,0.4h0.2v0.2v0.2h0.2v0.2v0.2h-0.2l-0.4,0.2l-1.5,0.8l-0.6,0.4l-0.2,0.2l-1,0.4l-0.2,0.2h-0.4l-0.6,0.2l-0.2,0.2l-0.6,0.4
		l-0.4,0.4l-0.4,0.2l-0.6,0.2l-0.2,0.2l-1.9,0.4l-0.8,0.6l-0.8-0.6h-0.2v0.2l-0.4-0.2l0.2-1l-0.2-1.3l-0.2-0.2h-0.2h-0.2H372
		l-0.4-0.2h-0.2l-0.4,0.2v0.2l-0.2,0.2l-0.4,0.6v0.8v0.2v0.6v0.6l0.2,0.6l-0.2,0.2v0.2l-0.4,0.8l-0.2,0.2l0.2,0.4l0.2,0.4l0.6,0.8
		v0.2l-0.6,1.1l-0.4,0.2l-0.4,0.6l-0.6,0.4l-0.2,0.2h-0.2l-0.4,0.4l-0.6,0.4l-0.2,0.2l-0.4,0.2l-0.4,0.6l-0.2,0.2h-0.2l-0.6,0.8
		l-0.4,0.4h-1l-0.8-0.4l-0.6-0.2h-0.2h-0.2h-0.2l-0.6,0.6v0.2v0.4h0.2v0.2l-0.2,0.2l-0.2,0.2v0.4l-0.2,0.2v0.4l0.2,0.6v0.2l0.2,0.6
		v0.4h-0.2l-0.2,0.2l-0.4,0.2v0.2l-0.4,0.8v0.2l-0.4,0.2l-0.2,0.2l-0.4,0.6l-0.2,0.4l-0.2,0.2l-0.2,0.4l-0.4,0.8l-0.2,0.4l-0.2,0.2
		h-0.2l-0.2,0.8l-0.2,0.2l-0.2,0.2l-0.4,0.6l-0.2,0.2l-0.4,1h-0.2l-0.4,0.8v0.2v0.4H356h-0.2h-0.2h-0.4h-0.2h-0.2h-0.2v-0.2v-0.2
		v-0.2v-0.2h-0.2l-0.2-0.2v-0.2l-0.2-0.2v-0.2v-0.2h-0.2v-0.2l-0.2-0.4h-0.6v-0.2H353h-0.2l-0.4,0.2h-0.2H352h-0.2v0.2h-0.2
		l-0.4,0.2h-0.4v0.2l-0.4,0.2l-0.4,0.2l-0.4,0.4l-0.2-0.2v0.2l-0.6,0.4v0.2l-0.6,1v0.2v1v0.2l0.2,0.2v0.2v0.2h0.2l0.2,0.4l0.2,0.2
		v0.2l0.2,0.4h0.2l0.4,0.4l0.2,0.2h0.2l0.8,0.4l0.2,0.2h0.2h0.2h0.2l0.8,0.2l1,0.4h0.2v0.2l-0.2,0.6h-0.2h-0.2l-0.2,0.6v0.2
		l-0.2,0.2v0.2v0.2l-0.2,0.2l-0.2,0.6v0.2l-0.2,0.2v0.2v0.2l-0.2,0.2v0.2v0.2l0.2,0.2l-0.2,0.2v0.2l-0.4,0.2l-0.4,0.4l-0.2,0.4
		l-0.4,1.5l-0.2,0.4l-0.2,0.6l-0.2,1.1l-0.2,0.8l-0.4,0.4l-0.2,1.1l0.2,0.4l-0.2,0.6l-0.2,0.4l-0.8,2.1v0.4l-0.2,0.2L348,414
		l-0.4,0.2l-0.4,0.2h-0.8l-1.1,0.6l-1,1h-1l-0.4-0.4l-0.2-0.2h0.4h0.4l0.2-0.4l0.2-0.2h0.4l0.4-0.2l-0.2-0.6v-0.2l0.6-0.6v-0.6v-0.2
		l-0.6-0.4l-0.6,0.2l-0.2,0.4l-0.6,0.8l-1.3,0.8l-0.4,0.4l-1,1H340h-0.4l-0.2,0.2v0.6v0.6l0.2,0.4l0.2,0.2h1.1h0.6h0.4l0.4,0.4
		l0.8,0.2l1-0.2l0.4-0.2l0.2-0.2l0.2-0.2l0.4-0.2l0.8-0.2l0.4-0.2l0.2-0.2h1.1v0.2l-0.4,2.3l-0.4,2.5v1.1l-0.4,0.2v0.2v0.4l-0.2,0.2
		l-0.6-0.2l-0.2-0.2l-0.4,0.2l-0.2,0.2v0.8l0.8,0.6h-0.2l-0.2,0.2v0.2v0.8l0.4,0.2v0.2v0.2v1l-0.2,0.2l-0.2-0.2h-0.2h-0.4h-1.1h-0.2
		l-0.6,0.2l-0.2,0.4l0.2,0.4l0.2,0.6l-0.2,0.6l-0.2,0.2v0.4l0.6,1.3l0.2,0.2l-0.4,0.4l-0.2,0.2v0.6v0.2v0.2h-0.2v0.4l-0.2,0.6
		l0.4,0.8h0.2h0.4l1.1,1l1,1.7l0.2,0.2h0.4v0.8l0.2,1.1l0.8,3.2v1.1l0.2,0.4l0.2,0.6l0.2,0.2l0.2,0.2v0.2l0.4,0.8v0.4l-0.2,0.6v0.4
		l-0.2,0.2l-0.2,0.4l0.2,0.6v0.2v0.2v0.4l-0.2,0.4h-0.4v0.6l0.2,0.2l0.6,0.2h0.2v-0.2l0.2,0.2v0.6l-0.2,0.6v0.2l0.6,0.2h0.2l0.2-0.2
		v-0.2l0.4,0.2l0.2,0.2l0.4,0.6l-0.2,0.6l-0.6,0.8v1v0.4h0.2l0.4-0.2l0.2-0.2V455l0.4-0.2l0.6-0.2h0.2l0.2,0.2l0.2,0.2l-0.2,0.4v0.4
		l-0.4,0.2l-0.2,0.4l-0.2,0.2h0.2h0.2v0.8v0.2v1h0.2v0.2h0.2h0.2v-0.2l0.4-0.2h0.4l0.2,0.8v0.2l-0.6,0.6v0.4l0.8,1.1h0.2l0.2,0.4
		L353,462l-0.2,0.6l-0.2,0.4l0.4,0.4v0.4l0.6,0.6v0.4l-0.4,0.2v0.2v0.2h0.2v0.2h0.2v0.2l0.2,0.2l0.4,0.2l0.8,0.2h0.2h0.6h0.4h0.4
		l0.2,0.2h0.2v0.2v0.2l0.2,0.8v0.4l-0.4,0.4h-0.4l-0.4,0.2v0.2l0.2,1.1l0.2,0.2h0.4h0.4l0.8-0.4l0.4-0.4l0.2-0.2v-0.4l-0.4-1h-0.4
		v-0.4l0.6-0.4h0.6l-0.2,1l0.2,1l0.2,1.3v0.6v0.2v0.6l-0.4,0.2h-0.2l-0.2-0.4l-0.4-0.2l-0.4,0.2h-0.8h-0.4h-0.4l-0.6,0.2l-0.2,0.2
		v0.2h-0.4l-0.8-0.2l-0.2,0.2l0.2,0.6h-0.2h-0.4l-0.4-0.2l-0.6,0.4h-0.2l-0.2,0.2h-0.2l-0.2,0.2l-0.6-0.2l-0.6,0.4v0.2l-0.2,0.2v0.2
		h0.2v0.2v0.4l0.2,0.2v0.4l0.2,0.4l-0.2,0.6v0.2l-0.4,0.4l-0.8,0.2l-1.1-0.2h-0.2l-0.2-0.2l-0.4-0.2h-0.2v-0.2v-0.2v-0.6l-0.2-0.2
		h-0.2l-0.2-0.2h-0.2l-0.6,0.2h-0.2h-0.2h-0.2l-1-0.4v-0.2l-0.2-0.6l-0.2-0.6h-0.4l-0.2-0.2v-0.2v-0.2l-0.4-0.2l-0.2,0.2l-0.8-0.2
		v-0.4v-0.4h-0.6l-0.4-0.8l-0.2-0.2l-0.2-0.2l-0.4-0.4V470l-0.4-0.2H340v-0.2h-0.2v-0.2v-0.2l-0.2-0.2h-0.4h-0.2h-0.2v-0.2h-0.8
		h-0.2l-0.4-0.2l-0.2-0.2l-0.4,0.2h-0.2h-0.2h-0.2l-1-0.2h-0.2v-0.2l-0.2-0.2h-0.2h-0.2l-0.2,0.2l-0.2-0.2h-0.2v-0.2v-0.2v-0.2
		l-0.2-0.2h-0.2l-0.2,0.2h-0.4H333h-0.2v0.2h-0.2H332h-0.2h-0.2h-0.2l-0.2-0.2l-0.4-0.2l-0.4-0.2l-0.6,0.2v0.2h-0.4l-0.8,0.2
		l-0.4-0.2l-0.2-0.2l-0.6,0.4l-0.2,0.2l-0.2-0.2l-0.2-0.2v-0.2l-0.2-0.2l-1,0.2h-0.2l-0.4-0.2h-0.2l-0.2,0.4v0.4l-0.2,0.4l-0.6-0.2
		h-0.6v-0.2l-0.2-0.2l-0.2-0.6V467h-0.2v0.2v0.2l-0.2,0.2h-0.2h-0.2l-0.2-0.4l-0.8,0.2h-0.2v0.2l-0.6,0.4h-0.2v-0.2l-0.2-0.2
		l-0.2-0.2H320l-0.2-0.2h-0.2l-0.2-0.2l-0.4,0.4l-0.2,0.4h-0.2v-0.2l-0.2-0.2l-0.6-0.6h-0.4h-0.2l-0.2,0.2h-0.4l-0.6-0.4v-0.2
		l-0.4-0.2l-0.2-0.2v-0.2l0.2-0.2h0.2v-0.2v-0.2v-0.2h-0.2h-0.2h-0.4h-0.4l-0.2,0.2v0.2h-0.2l-0.2-0.2l-0.2-0.2h-0.2l-0.4-0.8
		l-0.2-0.6v-0.2h0.2v-0.2v-0.2h-0.2H313l-0.2,0.6l-1-0.2h-0.4v-0.2l-0.2-0.4l-0.4-0.4v-0.2h-0.4h-0.2l-1-0.8v-0.2v-0.4l-0.4-0.2
		l-0.6-0.2l-0.4,0.2h-0.2v0.2h-0.6h-0.2l-0.2-0.4h-0.4h-0.2h-0.2v0.2v-0.2h-0.4v-0.4h-0.2H305l-0.2,0.2v-0.2h-0.6l-0.2-0.4v-0.2
		l-0.2-0.4h-0.4l-0.6,0.2h-0.2h-0.4l-0.2,0.4h-0.2l-0.6,0.2h-0.6h-0.4v-0.2v-0.2v-0.4v-0.2h-0.2L300,459h-0.4l-0.4-0.4l-0.2-0.2
		l0.2-0.2l-0.2-0.2l-0.4-0.4h-0.2h-0.2h-0.2l-0.4-0.2v-0.2v-0.4v-0.2v-0.2h-0.4H297l-0.6-0.2l-0.4-0.2l-0.2-0.8v-0.2V455l-0.4-0.4
		h-0.2h-0.2h-0.4l-0.2,0.2l-0.2,0.2h-0.2h-0.2l-0.2-0.2h-0.4h-0.2L293,455h-0.2h-0.2l-0.4,0.2L292,455h-0.2l-0.2-0.2l-0.2-0.4h-0.2
		l-0.2-0.4h-0.2l-0.2,0.2h-0.2l-0.2,0.2l-0.4-0.2V454v-0.2l-0.2-0.4h-0.2h-0.2h-0.6h-0.2h-0.2h-0.6l-0.4-0.2V453l-0.2-0.2h-0.2h-0.2
		v-0.2h-0.2h-0.2l-0.2,0.2l-0.2,0.4l-0.4,0.2H285l-0.2-0.2v-0.4h-0.2l-0.2-0.2v-0.2l-0.6-0.4v-0.2v-0.2l0.4-0.2l0.2-0.8l0.2-0.4V450
		l-0.6-1l-0.2-0.4l-0.4-0.6h-0.2v-0.2h-0.2h-0.2h-0.2l-0.6-0.2l-0.4-0.2l-0.2-0.2v-0.4l0.2-0.4v-0.4V446l-0.4-2.1l-1-1.5l-0.2-1.5
		v-1.3l-1.1-1l-0.2-1.7l-0.8-1.1l-0.2-1.1l-0.2-0.4l-0.2-0.2l-0.6-0.4h-1l-0.4-0.6l0.2-0.6v-0.6v-0.4l-0.6-0.4l-0.8-0.2h-0.4
		l-0.4-0.2l-0.4-0.6l-0.2-0.6l0.2-0.4l0.4-0.2l0.2-0.2l-0.2-0.2h-0.2h-0.2l-0.6-0.6v-0.4l-0.4-0.6h-0.2l-0.4,0.4l-0.4-0.2l-0.2-0.4
		v-0.2v-0.2v-0.2v-0.6l-0.2-0.6V425l0.4-0.4h0.2l0.2-0.6v-0.2l-0.2-0.2l-0.2-0.4l0.2-0.4l0.2-0.4v-0.4l-0.2-0.4l-0.2-0.2l0.2-0.2
		l0.2-0.2l0.2-0.8v-0.4l-0.2-1l-0.4-0.4l-0.2-0.4l0.2-0.2V418v-0.6l-0.4-0.6v-0.2h-0.2h-0.2v-0.2v0.2l-0.8,0.2h-0.2l-0.2-0.2
		l-0.2-0.2l0.2-0.6l0.2-0.2v-0.2l-0.2-0.4h-0.2l-0.2-0.2l-0.4,0.2h-0.4l-0.2-0.2l-0.2-0.2h-0.2v-0.2l0.2-0.4h0.4l0.2-0.2l0.4-0.2
		v-0.2v-0.4V413v-0.2l0.2-0.2v-0.2l0.2-0.4l0.2-0.2l0.2-1.3v-0.2v-0.2l-0.4-0.8l0.2-0.6l0.2-0.4l0.2-0.2v-0.2v-0.4v-0.2v-0.2v-0.2
		l-0.4-0.4h-0.2h-0.2h-0.4h-0.2v0.2h-0.4v-0.2l0.2-0.8v-0.6V405v-0.2l0.2-0.4l0.2-0.2v-0.2v-0.2v-0.2h-0.2l-0.2-0.2l-0.2-0.2
		l-0.4-0.6v-0.4l-0.4-0.2l-0.2-0.2h-0.2v0.2h-0.2l-0.6,0.2h-0.2v-0.2h0.2v-0.4l-0.2-0.2l-0.2-0.2l-0.2-0.2v-0.4h-0.4H265l-0.4,0.2
		v0.2l-0.6,0.2l-0.6-0.2l-0.4-0.2v-0.2l0.2-0.2l0.2-0.2l-0.2-0.4h-0.4v-0.2h-0.6l-0.6,0.2l-0.2,0.2l-0.2-0.2l-0.4-0.4v-0.4l-0.2-0.2
		l-0.2-0.2l-1-1.1v-0.2l-0.6-0.8l-0.4,0.2h-0.2l-0.4-0.2l-0.2-0.4v-0.8l-0.4-0.6h-0.2l-0.2,0.4h-0.4h-0.4v-0.4v-0.2l-0.2-0.6h-0.4
		l-0.4-0.2l-0.2-0.2H255v-1l0.2-0.4v-0.2v-0.2l-0.2-0.4l-0.6-0.2l-0.2-0.4l-0.2-0.6l0.2-0.4l0.2-0.2l0.2-0.4l-0.2-0.2l-0.2-0.4h-0.2
		l-0.4-0.2l-0.4-0.4l-0.4-0.6v-0.6l0.2-0.6v-0.6l-1.1-0.2l-0.8-0.2l-0.4-0.2l-0.2-0.6l-0.4-0.8l-0.2-0.6v-0.4v-0.4l-0.2-0.4
		l-0.4-0.4l-0.6-0.2l-0.4-0.2v-0.4v-0.4l-0.4-0.4v-0.2l-0.4-0.4l-0.2-0.8l-0.4-0.2l-1-0.4l-0.4-0.2l-0.6-0.4h-0.6h-0.2l-0.2-0.2
		l-0.2-0.2v-0.2l-0.4-0.2l-0.4-0.2h-0.2H243h-0.2l-0.2-0.2v-0.6l-0.2-0.8v-0.2l-0.2-0.2h-0.8h-0.2l-0.4-0.4l-0.2-0.2l-0.6-0.8
		L240,374l-0.2-0.4v-0.2l0.2-0.8v-0.4v-0.2l-1-1.3l-0.2-0.4v-0.2l-1-1V369l-0.2-0.6l0.2-0.2v-0.2l0.4-0.8l-0.2-0.6v-0.4l-0.4-0.4
		h-0.2v-0.2h-0.2l-0.2-0.6V365h0.4h0.2l0.2-0.2l0.4-0.2v-0.4h-0.2l-0.8-0.4h-0.6l-0.4-0.2l-0.6-1l-0.4-0.6l0.4-0.6l0.2-0.6v-0.2
		v-0.2h-0.2l-0.8-0.4h-0.2l-0.2-0.2l-0.6-0.4v-0.4v-0.4l0.2-0.4v-0.2v-0.2v0.2h-0.2h-0.2h-0.4l-0.4-0.4l-0.2-0.2v-0.2h-0.4h-0.2
		l-0.2-0.2v-0.2l-0.2-0.4v-0.6h-0.2V356v-0.2v-0.4l0.2-0.2v-0.2v-0.2v-0.4v-0.4l-0.2-0.4l-0.2-0.4L231,353l-0.2-0.6l0.2-0.4v-0.2
		v-0.6l-0.4-0.8l-0.2-0.2h-0.2h-0.2h-0.4h-0.2V350l0.2-0.6l-0.4-0.2l-0.4-0.4l-0.2-0.4v-0.2l-0.2-0.4v-0.4v-0.2l-0.6-0.2h-0.4h-0.2
		l-0.2-0.4v-0.2v-0.4l-0.4-0.8V345v-0.2l0.2-0.4v-0.2v-0.6v-0.4h-0.2v-0.2v-0.4l-0.2-0.4l-0.2-0.6V341v-0.4v-0.8l-0.2-0.2v-0.2
		l-0.2-0.6l-0.4-0.6l-0.4-0.2l-0.6-0.2l-0.8-0.4l-0.4-0.4V337v-0.2v-0.2l-0.2-0.2h-0.2h-0.4l-0.2-0.2l-0.2-0.4l-0.2-0.2l0.2-0.2
		l0.2-0.4v-0.4l-0.4-0.6l-0.4-0.8h-0.2h-0.2V333l0.2-0.2v-0.2h-0.2l-0.2-0.2l-0.4-0.4l-0.4-0.2h-0.4H220v-0.2l-0.4-0.2l-0.2-0.2H219
		l-0.4-0.2h-0.2v-0.2v-0.2v-0.4l-0.2-0.4l-0.4-0.2h-0.2h-0.2l-0.2-0.4h-0.2l-0.2-0.2h-0.2V329l-0.4-0.2l-0.2-0.2v-0.2l-0.2-0.2h-0.2
		h-0.4l-0.2-0.2l-0.2-0.2l-0.8-0.4h-0.4l-0.2-0.2v-0.4l-0.4-0.8l-0.6-0.4v-0.2v-0.2l-0.2-0.8l-0.4-0.4l-0.2-0.8l-0.2-0.2l-0.8-0.4
		h-0.6h-0.6l-0.6-0.4l-0.2,0.2h-0.2l-0.4-0.2l-0.4-0.6l-0.2-0.4v-0.2l-0.2-0.4l-0.6-0.2l-1.3-0.2h-0.4h-0.8l-0.2-0.4V320l0.4-0.8
		l0.4-0.6v-0.2v-0.8l-0.2-0.6h-0.2l-0.2-0.2h-0.2l-0.4,0.2l-0.2,0.2l-0.2,0.2l-0.4,0.4l-0.4-0.2l-0.2-0.2h-0.2l0.2-0.4v-0.6l0.2-1
		l-0.2-0.4l-0.2-0.4h-0.4h-0.8h-0.2h-0.4v-0.2l-0.2-0.2v-0.4l-0.2-0.2l-0.2-0.8l-0.6-0.8v-0.2v-0.4v-0.2l-0.2-0.2l-0.4-0.2l-0.2-0.2
		v-0.2v-0.2l-0.2-0.2h-0.2l-0.6,0.2h-0.2l-0.2-0.2v-0.6l-0.6-0.4h-0.2l-1,0.6l-0.8,0.2H195l-0.2-0.2l-0.2-0.8l-0.4-0.6h-0.6
		l-0.4,0.8v0.2l-0.4,0.2l-0.6-0.2h-0.2H192h-0.6l-0.2,0.2l-0.2,0.2v0.2l-0.4,0.2l-0.2-0.2l-0.2-0.2l-0.2-0.4h-1.1l-0.6,0.4l-0.2-0.2
		l-0.8-0.2l-0.8-0.4l-0.2-0.2h-0.2l-0.4-0.2h-0.4l-0.2,0.2h-0.2l-0.4-0.2l-0.2-0.2h-0.2h-0.6l-0.8-0.4h-0.4h-0.2l-0.2,0.2h-0.2
		l-0.6-0.2h-0.6l-0.2,0.2l-0.2,0.2h-0.4v-0.2l-0.2-0.2h-0.4h-0.2h-0.2l-0.4-0.4l-0.2-0.2l-0.4,0.2l-0.2,0.2h-0.2l-0.4-0.2l-0.8,0.2
		l-0.4-0.2l-0.2,0.2v0.4l-0.4,0.2h-0.2h-0.8v-0.2l-0.4-0.2h-0.2h-0.2h-0.8l-1-0.4l-0.6-0.6v-0.2l-0.8-1.1h-0.2v-0.2l-0.2,0.2
		l-0.6,0.2h-0.4l-0.4-0.2l-1.1-0.4H168l0.2-0.4l-0.2-0.2h-0.2l-0.2,0.2h-0.2l-0.6-0.6h-0.2l-0.6-0.2h-0.2l-0.2,0.4h-0.2h-0.4
		l-0.2,0.4l-0.6,0.6v0.4v0.2l-0.4,0.6l-0.2,0.8v0.6l-0.4,0.8v0.2h-0.2h-0.4l-0.4-0.2l-0.8-0.4l-1-0.2h-0.4H160l-0.4-0.2h-0.2h-0.6
		v0.2l-0.2,0.2v0.4l-0.4,0.4l-0.4,0.2h-0.2h-0.2h-0.2l-0.2-0.2l-0.2-0.2h-0.2l-0.2,0.2h-0.2l-0.4,0.2h-0.4H155l-0.4,0.6h-0.2h-0.6
		h-0.6l-0.4-0.2v-0.2l-0.4,0.2v0.2l-0.2,0.4l-0.2,0.2v0.6l-0.2,0.4l-0.2,0.2v0.4l0.2,0.4l-0.2,0.2l-0.6,0.4l-0.4,0.6l-0.6,0.2
		l-0.2,0.4v0.2l0.2,0.4l-0.2,1l-0.2,0.2l-0.4-0.2h-0.2h-0.2v0.2l0.2,0.6l-0.2,0.2h-0.2l-0.2,0.6v0.2v0.2l0.2,0.2l-0.8,0.6l-0.6,0.4
		h-0.2v0.2l0.2,1.1l-0.4,0.4l-0.4,0.8v0.4h-0.2v0.4l-0.2,0.6l0.2,0.2v0.4v0.6l0.2,0.2l-0.4,0.6l-0.4,0.4v0.4v0.2v0.2l-0.8,0.4h-0.4
		l-0.2-0.2l-0.2,0.2v0.2v0.2l-0.4,1.3v0.4v0.4v0.2l-0.6,0.2v0.2v0.8v0.2l0.6,0.4h0.2l0.4,0.2l0.2,0.6v0.2l-0.4,0.4l-0.6,0.2h-0.2
		l-0.4-0.4h-0.2H143v0.2l0.2,0.2v0.2v0.2L143,333l-0.2-0.2h-0.2h-0.2l-0.4,0.2l-0.2,0.4l-0.2,0.2l-1-0.4h-0.2h-0.2h-0.2v0.2
		l-0.2,0.2l0.2,0.6l-0.4,0.4v0.2h-0.2l-0.2,0.4l-0.2,0.6l-0.2,0.2l-0.4,0.2v0.4l-0.2,0.2h-0.2l-0.2,0.2h-0.4h-0.2l-0.2,0.2l-0.2,0.2
		h-0.2v0.4l-0.6,0.6l-0.4,0.2v0.4v0.4v0.4v0.2v0.4l-0.2,0.2l-0.4,0.6v0.4v0.2l-0.4,0.2l-0.4-0.2l-0.4,0.4l-0.4,0.2h-0.4v-0.2v-0.2
		h-0.4l-0.2-0.2h-0.6l-0.4-0.2l-0.8-0.2l-0.4,0.4h-0.2h-0.2l-0.2-0.2l-0.2-0.2h-0.2h-0.2v0.2h-0.2v0.2h-0.2l-0.2-0.2v-0.4l-0.2-0.2
		l-0.2-0.2l-0.2-0.2l-0.4-0.2H128l-0.2-0.2l-0.4-0.2v-0.4v-0.2v-0.2l-0.4-0.2l-0.2,0.2l-0.2,0.4l-0.2,0.2l-0.2,0.2l-0.8-0.2v-0.2
		l-0.6-0.2h-0.2l-0.8-0.6l-0.2-0.2l-0.2-0.4h-0.2l-0.4-0.4l-0.2-0.2h-0.2v0.2l-0.2-0.2l-0.2-0.2v-0.4v-0.2l-0.4-0.4l-0.4-0.6
		l-0.2-0.4h-0.2l-0.2-0.2h-0.6v-0.2l0.2-0.4h-0.2l-0.4-0.4l-0.6-0.4l-0.2-0.2l-0.8,0.2h-0.6l-0.2-0.2l-0.2-0.2v-0.2h-0.2h-0.6h-0.2
		h-0.2l-0.4,0.2l-0.2-0.2l-0.2-0.4h-0.2h-0.2v-0.2l-0.8-0.2h-0.4l-0.6-0.2l-0.4-0.4l-0.2-0.4l-0.4-0.4l-0.4-0.4l-0.2-0.4h-0.4
		l-0.4-0.2v-0.6v-0.2l-0.4-0.4v-0.2h-0.2l-0.6-0.2l-0.2-0.2l-0.8-0.4l-0.6-0.2h-0.2l-0.8-0.2H107h-0.6h-0.2h-0.2v-0.2l-0.2-0.2
		l-0.6-0.2l-1-0.2l-0.4,0.2l-0.2-0.2l-0.6-0.2l-0.6-0.4h-0.2l-0.8-0.4l-0.2-0.2l-0.4-0.4v-0.2l-0.4-0.2l-0.4-0.2h-0.2l-0.2-0.4
		l-0.2-0.2l-0.2-0.4l-0.2-0.2l-0.6-0.4h-0.2h-0.2l-0.2-0.2H98h-0.2v-0.2h-0.2l-0.2-0.2l-0.4-0.4l-0.4-0.6v-0.6l-0.6-0.8l-0.4-0.2
		l-0.2-0.2v-0.2v-0.2v-0.4l-0.2-0.2v-0.2H95l-0.2-0.4v-0.2v-0.2h-0.2l-0.2-0.2l-0.4-0.2l-0.2-0.2v-0.2h-0.4l-0.8-0.4h-0.6v-0.2H92
		h-0.2l-0.2,0.2h-0.2h-0.2H91l-0.6-0.4L90,316h-0.2h-0.2h-0.2l-0.4-0.6v-0.2v-0.2h-0.2v-0.2v-0.2l-1.9-1.3l-0.6-0.4l-0.6-0.8
		l-0.4-0.2l-0.2-0.2l-0.2-0.2l-0.2-0.2l-0.2-0.4l-0.6-0.8l-0.2-0.2v-0.2v-0.2l0.2-0.2l-0.2-0.2l-0.2-0.4v-0.2l-0.2-0.4l-0.2-0.8
		l0.2-0.2v-0.2l-0.2-0.2l-0.2-0.6v-0.4l-0.2-0.4l-0.6-1l-0.2-0.4l-0.2-0.2l-0.4-0.4l-0.2-0.2v-0.4l-0.2-0.4h-0.2l-0.2-0.4v-0.4v-0.2
		v-0.2l-0.2-0.2l-0.2-0.2l-0.4-0.4l-0.2-0.2v-0.4v-0.2h-0.2l-0.2-0.2l-0.2-0.8l-0.2-0.2v-1.1l0.2-0.8l-0.2-0.6v-1.1l-0.2-0.2h-0.4
		v-0.2v-0.2l0.2-0.2l-0.2-0.8v-0.4v-0.2h0.2H79l0.2-0.2l0.2-0.4v-0.2v-0.4V292l-0.2-0.4v-0.6v-0.6v-0.2l0.2-0.4l0.2-0.6v-0.8
		l-0.6-1.3l-0.2-0.4v-0.2l-0.2-0.6l-0.2-0.6h-0.2l-0.2-0.4V285h-0.2l-0.2,0.2l-0.2-0.2h-0.2v-0.4l-0.2-0.4v-1l-0.6-0.4l-0.4-0.6
		l-0.4-0.2l-0.4-0.4v-0.2l-0.2-0.2V281v-0.2v-0.2l-0.2-0.4h-0.6l-0.4-0.6l-0.4-0.2l0.2-0.8l0.2-0.6l-0.4-0.4v-0.6h-0.2v-0.4v-0.4
		v-0.2h0.2l-0.2-0.8v-0.6l-0.2-0.6v-0.2l-0.2-0.2l-0.2-0.8V273v-0.4l-0.2-0.4l-0.2-0.6l-0.2-0.6l-0.4-0.6l-0.2-0.2h-0.2h-0.2h-0.2
		l-0.6-0.2l-0.4-0.2H70l-0.2-0.6h-0.2v-0.2v-0.4V268v-0.2l-0.6-0.6v-0.4l-0.2-0.2h-0.4h-0.6l-0.4-0.2v0.2l-0.2,0.2v-0.2h-0.2
		l-0.2-0.2v-0.2v-0.2l-0.8-0.6l-0.6-0.4l-0.4-0.6v-0.4V264l-0.2-0.2h-0.2l-0.8-0.2h-0.4l-0.2-0.2v-0.2v-0.4l-0.2-0.2h-0.2h-0.4
		l-0.2-0.2v-0.4l-0.4-0.4v0.2H62l-0.2,0.2h-0.2l-0.2-0.2v-0.2l0.2-0.2l-0.2-0.2h-0.2h-0.2h-0.4h-0.4l-0.2,0.2l-0.2-0.2l-0.4-0.4
		l-0.2-0.2l-0.2-0.2l-0.2-0.2h-0.4h-0.2v0.2H58l-0.2-0.4V260h-0.2l-0.2-0.2l-0.6-0.2l-0.2-0.2l-0.2-0.2h-0.2l-0.2-0.2h-0.4l-0.4-0.2
		h-0.2v-0.2v-0.6v-0.2l-0.2-0.6v-0.2l-0.4-0.4l-0.6-0.2l-0.6-0.6h-0.2v-0.2l-0.4-0.2l-0.2-0.2l-0.2-0.2h-0.2l-0.4-0.4l-0.2-0.2v-0.2
		v-0.2l-0.2-0.2l-0.2-0.2l-1-1h-0.2H50l-0.4-0.2l-0.6-0.8v-0.4l-0.2-0.2v-0.2l-0.2-0.2l0.2-0.2v-0.2l-0.2-0.8l-0.2-0.4h-0.2v-0.4
		l-0.2-0.4l-0.8-0.8h-0.6l-0.2-0.8L46,247l-0.4-0.2l-1.3-0.6l-0.2-0.2v-0.2v-0.2l-1-0.8h-0.8l-0.2-0.2l-0.2-0.6V244v-0.2l-0.2-0.4
		h-0.2l-0.2-0.2l-0.8-1.1l-0.2-0.4l-0.4-0.4l-0.6-0.8l-0.4-1l-0.2-0.2h-0.2h-0.6H38l-0.2-0.8l-0.2-0.2l-0.2-0.2h-0.8l-0.2-0.2
		l-0.2-1v-0.6l-0.2-0.4l-0.6-0.2l-1-1l-0.2-0.2h-0.2l-0.6-0.2l-2.1-0.2l-0.6-0.8l-0.2-0.2v-0.2h-0.2l-0.8-0.2l-0.4-0.2l-0.6-0.4
		l-0.6-0.8l-0.2-0.2l-1-0.4l-0.2-0.4l-0.2-0.2l-0.2-1l-0.4-0.6l-0.2-0.8V228l-0.4-0.2l-0.8-0.8l-0.2-1l-0.2-0.4l-0.2-0.4l-0.2-0.8
		l-0.2-0.4l-0.8-1.3v-0.2l-0.2-0.4l-0.2-0.8l-0.2-0.4l-0.2-0.2l-0.4-0.4l-0.2-0.2l-0.2-0.6v-0.2h-0.2l-0.4-0.4l-0.2-0.2l-0.6-0.4
		h-0.4l-0.2-0.2l-0.4-0.2l-0.2-0.2l-0.6,0.2l-0.2,0.2v0.2h-0.2H18v0.2l-0.2-0.2l-0.8-0.6v-0.2l-0.4-0.4l-0.2-0.4v-0.2l-0.2-0.2v-0.2
		l-0.2-0.2h-0.2v-0.2l-0.2-0.2h-0.4v-0.2h-0.2H15v0.2h-0.2l-0.2-0.2v-0.2l-0.2-0.2l-0.2-0.2h-0.4V215v-0.2l0.2-0.2v-0.2l-0.2-0.2
		h-0.4l-0.2-0.2l-0.2-0.2v-0.2v-0.2h-0.2v-0.2v-0.2l0.2-0.2v-0.2v-0.2l-0.2-0.2l-0.2-0.2h-0.2V212l0.2-0.2l0.2-0.2h0.2l0.2-0.2h0.2
		h0.2v-0.2h0.2l-0.2-0.2h-0.2h-0.2v-0.2l0.2-0.2v-0.2v-0.2v-0.2l0.4-0.2v-0.2h-0.2h-0.2v-0.2l0.2-0.2v-0.2v-0.2h-0.2h-0.2l-0.2-0.2
		v-0.2v-0.2l0.2-0.2h0.2h0.2l0.2-0.2v-0.2h0.6h0.2h0.2H15h0.2l0.6,0.2h0.2h1.5l1.9,0.2h0.8h1.1h0.6l0.6,0.2h1.9h0.2h0.2l4,0.4h0.2
		h0.6h2.1l2.7,0.2L36.1,209.1z M349.6,415.7l0.2-0.8v-0.2l0.2-0.2h0.2l-0.2-1l-0.2-0.2l0.2-1.1l0.4-1.3l0.6-0.4V410l0.2-0.2
		l-0.2-0.4l0.2-0.2l0.4-1.3l1-1.5l0.4-1l0.6-0.8v-0.2l0.2-0.6v-0.2v-0.2l0.2-0.4l0.2-0.2l0.4-0.8V402l-0.2-0.2l0.4-1v-0.2h0.4
		l0.2,0.2l0.2-0.2l0.4-0.8l0.2-0.6v-0.6l-0.2-0.2v-0.2l0.4-0.2l0.2-0.2l0.6-1l0.2-0.6h0.2h0.2l0.4-0.2l0.6-0.6v-0.2v-0.2l0.2-0.2
		l0.8-1.1v-0.2v-0.2l0.2-0.2v-0.2l0.2-0.2v-0.2l-0.2-0.2h-0.2l-0.8,0.2l-0.2-0.2l-0.2-0.2l1-0.2l0.8-0.2l1.1-0.4l0.6-0.6l1-2.1v-0.2
		v-0.2l1.1-1.7l0.2-1h-0.2l-0.2-0.2l0.4-0.8l0.4-0.8l0.2,0.2l0.4-0.2l0.2-0.4l0.6-0.4l0.2-0.4l-0.2-0.2l0.2-0.4l0.8-0.8h0.6l0.2-0.4
		h-0.2v-0.6l0.2-0.8l0.2-0.6l0.2-0.2l0.2,0.2l0.2,0.2l0.2,0.4l0.6,0.4l0.6-0.2l0.4-0.4l0.2-0.2v-0.6l-0.2-0.8l-0.2-0.4v-0.2l0.2-0.2
		l1-0.6l2.1-0.2l1.1-0.4l0.2-0.2l-0.2-0.4v-0.2h0.6l1-0.4v-0.2v-0.2l0.4-0.8l1.7-1.1l-0.2-0.2l0.6-0.6l0.6-0.2h1l0.2-0.2l0.2-0.6
		l0.6-0.2l1.9-0.4l1-0.4l0.6-0.2l0.6-0.6l0.2-0.2v-0.2V369h0.4l0.2,0.2v0.2v0.6v0.2l-0.6,0.6l-1,0.4l-1.9,1.1l-2.1,1l-1.3,1.1
		l-1,0.6l-0.4,0.2l-2.7,2.1l-2.3,1.9l-2.7,2.5l-0.8,0.6l-0.2,0.2v0.2h-0.2l-1.3,1.5v0.2l-1.1,1.1l-1.5,1.7l-1.1,1.7l-1.1,1.7
		l-0.4,0.8l-0.2,0.6v0.2l-0.2,0.2l-0.2,0.4l-0.8,0.8v0.2l-0.2,0.2l-1.1,1.7v0.2h-0.2l-0.8,1.3l-0.2,0.4l-0.8,1.3l-0.6,1.3l-0.4,0.6
		l-0.2,0.6l-0.2,0.2l-0.4,0.8v0.2l-0.2,0.8l-1.7,3.4v0.2l-0.4,0.8l-1,2.7l-0.8,2.7l-0.8,2.9l-0.2,0.4l-0.4,2.5l-0.4,2.1l-0.2,2.7
		v2.1v2.5l0.4,3.4l0.2,1.5h0.2v0.2l0.4,2.5l0.2,0.2l0.6,2.9l1.1,3.8l0.2,0.6l0.2,0.2v0.2l0.4,1l0.4,1.5l0.2,0.4l0.2,0.2l0.4,1.3
		l1.1,3.6l0.2,1l0.8,2.7l0.4,1.7l0.4,1.7l0.4,1.9v0.2l0.2,1l0.2,1.1v0.2v1l0.4,2.1v0.4l0.2,0.6h-0.2l-0.4-0.4v-1.1l-0.4-1.7v-1.3
		l-0.2-1.5l-0.6-2.5l-0.8-3.4l-0.4-1.3l-0.6-1v-0.2l-0.2-1l-0.2-1l-0.2-0.6l-0.4-0.6l-0.6-1.5l-0.6-0.4l-0.8-1.1l0.2-0.6v-0.2
		l-0.4-1v-0.2l-0.4-0.4l-0.6-1.5l0.2-0.8l-0.4-1.5l-0.8-0.4l-0.2-0.6v-0.6v-0.2l0.2-0.8v-0.2l-0.2-0.4v-0.4v-0.6l-0.2-0.6l-0.6-0.4
		l0.2-2.3l-0.2-0.6l-0.2-0.6v-1.9v-4.6v-0.6l0.2-0.6l-0.2-0.4v-0.2v-2.7l0.4-1.7l-0.2-0.2H349l0.2-1.1l0.2-1l0.2-1V415.7z"/>
</g>
</svg>
